#12101
mirkyl chain~
mirkyl chain mail~
A suit of mirkyl chain mail is lying on the ground here.~
~
9 1577472 32 0 0 9 0 0 0
9 0 0 0
80 16000 85
B
0 0 0 0
#12102
mirkyl plate~
a mirkyl plate~
A mirkyl breast plate is lying on the ground here.~
~
9 6050304 32 0 0 9 0 0 0
9 0 0 0
100 22500 175
A
1 2
B
0 0 0 0
#12103
blue steel chain~
blue steel chain mail~
Some fine chain mail is lying on the ground here.~
~
9 2626560 32 0 0 9 0 0 0
9 0 0 0
80 16000 85
B
0 0 0 0
#12104
blue steel plate~
a blue steel plate~
A beautiful breast plate is lying on the ground here.~
~
9 7099392 32 0 0 9 0 0 0
9 0 0 0
100 22500 235
A
1 2
A
19 1
B
0 0 0 0
#12105
sword mirkyl~
a mirkyl sword~
A mirkyl sword has been left here.~
slash~
5 1061376 32 0 0 8193 0 0 0
0 6 5 3
8 1400 485
B
0 0 0 0
#12106
mirkyl helm~
a mirkyl helm~
A mirkyl helm is lying on the ground.~
~
9 135795200 32 0 0 17 0 0 0
8 0 0 0
8 10000 70
B
0 0 0 0
#12107
punisher sword~
a sword named "Punisher"~
A sharp looking mirkyl sword is lying here~
slash~
5 1061576 32 0 0 8193 0 0 0
0 6 5 3
6 30000 545
A
19 1
B
0 0 0 0
#12108
pummeler maul~
a maul named "Pummeler"~
A huge war-maul lies fallen here.~
pound~
5 5526080 32 0 0 8193 0 0 0
0 8 4 7
20 30000 795
A
18 2
B
0 0 0 0
#12109
cloak grey~
a grey cloak~
A crumpled grey cloak here.~
~
11 1049152 0 0 0 5 0 0 0
0 0 0 0
20 11000 215
E
cloak grey~
This is A grey cloak imbedded with silver threads.
~
A
12 5
A
17 -9
A
18 2
B
0 0 0 0
#12110
blue steel helm~
a blue steel helm~
A blue steel helm is lying on the ground.~
~
9 136844288 32 0 0 17 0 0 0
8 0 0 0
8 11000 70
B
0 0 0 0
#12111
sword blue steel~
a blue steel sword~
A blue steel sword has been left here.~
slash~
5 2110464 32 0 0 8193 0 0 0
0 6 5 3
8 1200 485
B
0 0 0 0
#12112
standard church~
a church standard~
A still-proud church standard lies here unattended~
~
1 2098240 0 0 0 16385 0 0 0
0 0 -1 0
10 11000 1200
A
12 20
A
19 1
B
0 0 0 0
#12113
blue steel bracer~
a blue steel bracer~
A blue steel bracer lies here~
~
9 2098240 0 0 0 4097 0 0 0
4 0 0 0
3 6000 120
A
18 1
A
19 1
B
0 0 0 0
#12114
blue steel shield~
a blue steel shield~
A blue steel shield lies here unattended~
~
9 2626560 32 0 0 513 0 0 0
8 0 0 0
10 12000 70
B
0 0 0 0
#12115
valorius sword~
a blue steel sword named "Valorius"~
A sharp looking blue steel sword is lying here~
slash~
5 2110528 32 0 0 8193 0 0 0
0 5 7 3
6 11000 725
A
18 1
B
0 0 0 0
#12116
foe-hammer sword~
a blue steel sword named "Foe-Hammer"~
A sharp looking blue steel sword is lying here~
slash~
5 2110528 32 0 0 8193 0 0 0
0 10 3 3
6 17000 745
A
19 1
B
0 0 0 0
#12118
troll maul~
a troll maul~
A heavy maul is here waiting to be used~
pound~
5 64 0 0 0 8193 0 0 0
0 4 8 7
27 1600 545
A
19 1
B
0 0 0 0
#12119
skin gauntlets gnome~
a pair of gauntlets wrapped in gnome skin~
Some heavy gauntlets sheathed in the skin of a gnome are sitting on the ground.~
~
9 268959746 0 0 0 129 0 0 0
5 0 0 0
5 1700 205
E
gnome skin gauntlets~
The gauntlets are covered with a heavy rust.  The set of hand armor appear to
be decorated with the flesh of an unlucky gnome.    
~
A
1 2
A
3 -1
A
19 1
B
0 0 0 0
#12120
troll mantle~
a troll mantle~
A heavy mantle made out of some kind of leather lays here~
~
9 64 0 0 0 5 0 0 0
7 0 0 0
10 9000 115
A
19 1
B
0 0 0 0
#12121
granite club~
a granite club~
A club made out of A boulder sits here~
pound~
5 0 0 0 0 8193 0 0 0
0 4 8 7
22 40 595
A
18 2
B
0 0 0 0
#12122
animal skin~
a animal skin~
An animal skin lies on the ground here~
~
9 0 0 0 0 1025 0 0 0
8 0 0 0
8 1000 350
A
13 20
B
0 0 0 0
#12123
bone necklace~
a bone necklace~
A necklace made of small bones lies here.~
~
9 64 0 0 0 32769 0 0 0
1 0 0 0
5 15 245
A
5 2
A
13 15
B
0 0 0 0
#12125
silver candlestick~
a silver candlestick~
A silver candlestick sticks out of the ground here~
~
8 0 4096 0 0 1 0 0 0
0 0 0 0
4 20000 0
B
0 0 0 0
#12126
black bag~
a big black bag~
A bag lays on the ground here unattended~
~
15 0 0 0 0 16385 0 0 0
200 0 -1 0
2 200 200
B
0 0 0 0
#12127
thief dagger~
a thief's dagger~
A small dagger lays here~
~
5 8256 0 0 0 8193 0 0 0
0 12 2 11
3 1400 615
A
18 1
A
2 2
B
0 0 0 0
#12128
granite key~
a granite key~
A large granite key lies on the ground here.~
~
18 0 0 0 0 1 0 0 0
2 0 0 0
5 0 0
B
0 0 0 0
#12130
b666 l666~
a &06r&08a&09i&10n&11b&12o&13w&00 lantern~
A &06r&08a&09i&10n&11b&12o&13w&00 lantern lies here.~
~
1 0 0 0 0 16385 0 0 0
0 0 -1 0
1 1 2210
A
1 5
A
19 4
B
0 0 0 0
#12131
b666~
a &06r&08a&09i&10n&11b&12o&13w&00 ring~
A &06r&08a&09i&10n&11b&12o&13w&00 ring lies here.~
~
9 0 0 0 0 3 0 0 0
15 0 0 0
1 1 1210
A
18 4
A
19 4
B
0 0 0 0
#12132
b666~
a &06r&08a&09i&10n&11b&12o&13w&00 cloak~
A &06r&08a&09i&10n&11b&12o&13w&00 cloak lies here.~
~
9 0 0 0 0 5 0 0 0
15 0 0 0
1 1 1210
A
18 4
A
19 4
B
0 0 0 0
#12133
b666~
a suit of &06r&08a&09i&10n&11b&12o&13w&00 armor~
A suit of &06r&08a&09i&10n&11b&12o&13w&00 armor lies here.~
~
9 524288 0 0 0 9 0 0 0
15 0 0 0
1 1 1210
A
18 4
A
19 4
B
0 0 0 0
#12134
b666~
a &06r&08a&09i&10n&11b&12o&13w&00 helm~
A &06r&08a&09i&10n&11b&12o&13w&00 helm sits here.~
~
9 524288 0 0 0 17 0 0 0
15 0 0 0
1 1 1210
A
18 4
A
19 4
B
0 0 0 0
#12135
b666~
a set of &06r&08a&09i&10n&11b&12o&13w&00 leggings~
A pair of &06r&08a&09i&10n&11b&12o&13w&00 leggings lies here.~
~
9 524288 0 0 0 33 0 0 0
15 0 0 0
1 1 1210
A
18 4
A
19 4
B
0 0 0 0
#12136
b666~
a pair of &06r&08a&09i&10n&11b&12o&13w&00 boots~
A pair of &06r&08a&09i&10n&11b&12o&13w&00 boots sit here.~
~
9 524288 0 0 0 65 0 0 0
15 0 0 0
1 1 1210
A
18 4
A
19 4
B
0 0 0 0
#12137
b666~
a pair of &06r&08a&09i&10n&11b&12o&13w&00 gloves~
A pair of &06r&08a&09i&10n&11b&12o&13w&00 gloves lie here.~
~
9 524288 0 0 0 129 0 0 0
15 0 0 0
1 1 1210
A
18 4
A
19 4
B
0 0 0 0
#12138
b666~
a set of &06r&08a&09i&10n&11b&12o&13w&00 sleeves~
Some &06r&08a&09i&10n&11b&12o&13w&00 sleeves lie here.~
~
9 524288 0 0 0 257 0 0 0
15 0 0 0
1 1 1210
A
18 4
A
19 4
B
0 0 0 0
#12139
b666~
a &06r&08a&09i&10n&11b&12o&13w&00 shield~
A &06r&08a&09i&10n&11b&12o&13w&00 shield lies here.~
~
9 524288 0 0 0 513 0 0 0
15 0 0 0
1 1 1210
A
18 4
A
19 4
B
0 0 0 0
#12140
b666~
a set of &06r&08a&09i&10n&11b&12o&13w&00 robes~
Some &06r&08a&09i&10n&11b&12o&13w&00 robes lie here.~
~
9 0 0 0 0 1025 0 0 0
15 0 0 0
1 1 1210
A
18 4
A
19 4
B
0 0 0 0
#12141
b666~
a &06r&08a&09i&10n&11b&12o&13w&00 belt~
A &06r&08a&09i&10n&11b&12o&13w&00 lies here.~
~
9 0 0 0 0 2049 0 0 0
15 0 0 0
1 1 1210
A
18 4
A
19 4
B
0 0 0 0
#12142
b666~
a &06r&08a&09i&10n&11b&12o&13w&00 bracelet~
A &06r&08a&09i&10n&11b&12o&13w&00 bracelet lies here.~
~
9 0 0 0 0 4097 0 0 0
15 0 0 0
1 1 1210
A
18 4
A
19 4
B
0 0 0 0
#12143
d666~
a &06r&08a&09i&10n&11b&12o&13w&00 dagger~
A &06r&08a&09i&10n&11b&12o&13w&00 dagger lies here.~
~
5 0 0 0 0 8193 0 0 0
0 1 1 11
11 1 912
A
18 4
A
19 4
A
33 51
B
0 0 0 0
#12144
b666 h666~
a &06r&08a&09i&10n&11b&12o&13w&00~
A &06r&08a&09i&10n&11b&12o&13w&00 shines here.~
~
12 0 0 0 0 32769 0 0 0
0 0 0 0
1 1 910
A
18 4
A
19 4
B
0 0 0 0
#12145
test rod~
the test rod~
A rod used in the testing of spells is here.~
~
12 0 0 0 0 16385 0 0 0
0 0 0 0
1 1 1500
A
20 6
A
21 6
A
22 6
A
23 6
A
24 6
B
0 0 0 0
#12146
sign pissed off bad mood~
a sign that says: "Vex is fucking pissed off so don't fucking kid around ok!"~
A sign lies here, with a little rope attached to both ends.~
~
12 4 0 0 0 5 0 0 0
0 0 0 0
1 1 650
A
6 -5
B
0 0 0 0
#12147
huge gate key~
a huge gate key~
A huge key is lying here.~
~
18 0 0 0 0 1 0 0 0
2 0 0 0
5 0 0
B
0 0 0 0
$~
