#12201
belt~
Dagda's belt~
A thick leather belt is laying abandonded here.~
~
9 0 0 0 0 2049 0 0 0
4 0 0 0
5 40000 270
A
1 3
A
19 1
B
0 0 0 0
#12202
curved sword~
a curved sword~
A curved sword is laying on the ground here unused.~
slash~
5 4096 32 0 0 8193 0 0 0
0 4 6 3
7 7000 270
A
18 2
B
0 0 0 0
#12203
red chain mail~
a suit of red chain mail~
Some red tinted chain mail is laying on the ground here.~
~
9 528384 32 0 0 9 0 0 0
8 0 0 0
15 8500 70
B
0 0 0 0
#12204
guard spear~
a guard spear~
A sharp spear is laying here unattended.~
~
5 12288 32 0 0 8193 0 0 0
0 3 8 22
9 4000 175
A
18 1
B
0 0 0 0
#12205
church halberd~
a church halberd~
A Halberd lies unused on the ground.~
~
5 12288 32 0 0 8193 0 0 0
0 5 4 3
14 7500 470
A
18 1
A
19 3
B
0 0 0 0
#12207
dagger~
a small, lightweight dagger~
A small, lightweight dagger is lying on the ground here.~
pierce~
5 8192 0 0 0 8193 0 0 0
0 6 3 11
5 8000 220
A
18 2
B
0 0 0 0
#12208
useless junk~
some useless junk~
Some useless Junk is cluttering the street here.~
~
13 0 0 0 0 1 0 0 0
0 0 0 0
1 1 0
E
useless junk~
The merchants must be able to sell it to someone.~
B
0 0 0 0
#12209
rendorian chain~
a fine suit of rendorian chain~
Some chain mail of unusual design has been left here.~
~
9 528384 32 0 0 9 0 0 0
8 0 0 0
14 7000 70
B
0 0 0 0
#12210
broad sword~
broad sword~
A broad bladed sword is laying in the dirt here.~
slash~
5 12288 32 0 0 8193 0 0 0
0 4 6 3
8 6000 260
A
18 1
A
19 1
B
0 0 0 0
#12211
broken bottle~
broken bottle~
A broken bottle has been left laying here.~
~
5 0 0 0 0 8193 0 0 0
0 4 4 3
5 400 60
B
0 0 0 0
#12212
freehold chain~
a suit of freehold chain~
Some chainmail made in Freehold is laying here.~
~
9 528384 32 0 0 9 0 0 0
7 0 0 0
9 7000 55
B
0 0 0 0
#12213
guard sword~
a guard sword~
A guard's sword is laying on the ground here.~
~
5 12288 32 0 0 8193 0 0 0
0 4 7 3
9 10000 345
A
19 1
B
0 0 0 0
#12214
guard chain mail~
a suit of guard chain mail~
A guard's chain mail has been left here.~
~
9 5001216 32 0 0 9 0 0 0
8 0 0 0
10 10000 110
A
12 10
B
0 0 0 0
#12215
foil~
a foil~
A skinny looking foil is lying on the ground here.~
~
5 536576 32 0 0 8193 0 0 0
0 2 13 3
5 1000 480
A
19 3
B
0 0 0 0
#12216
clear potion~
a clear potion~
A vial of clear liquid sits here.~
~
10 0 0 0 0 1 0 0 0
40 19 0 0
1 40000 4000
B
0 0 0 0
#12217
bubbling potion~
a bubbling potion~
A bubbling potion sits here.~
~
10 0 0 0 0 1 0 0 0
40 87 0 0
1 8000 800
B
0 0 0 0
#12218
shimmering green potion~
a shimmering green potion~
A vial filled with shimmering green liquid sits here.~
~
10 0 0 0 0 1 0 0 0
40 52 0 0
1 40000 4000
B
0 0 0 0
#12219
red potion~
a red potion~
A vial filled with a opaque red liquid sits here.~
~
10 0 0 0 0 1 0 0 0
40 55 0 0
1 40000 4000
B
0 0 0 0
#12220
freehold scroll recall~
a Freehold scroll of recall~
A scroll has been carelessly discarded here.~
~
2 0 0 0 0 1 0 0 0
12 42 12223 12223
3 3500 350
B
0 0 0 0
#12221
beer mug~
a mug~
A earthenware mug sits here, unattended.~
~
17 0 0 0 0 1 0 0 0
1 1 1 0
4 10 10
B
0 0 0 0
#12222
ale mug~
a mug~
A earthenware mug sits here, unattended.~
~
17 0 0 0 0 1 0 0 0
1 1 3 0
4 8 10
B
0 0 0 0
#12223
darkale mug~
a mug~
A earthenware mug sits here, unattended.~
~
17 0 0 0 0 1 0 0 0
1 1 4 0
4 6 10
B
0 0 0 0
#12224
whisky shot glass~
a shot~
A shot glass has been left here.~
~
17 0 0 0 0 1 0 0 0
1 1 5 0
3 30 10
B
0 0 0 0
#12225
specialty local mug finest~
a mug~
A earthenware mug sits here, unattended.~
~
17 0 0 0 0 1 0 0 0
1 1 8 0
4 12 10
B
0 0 0 0
#12226
wine bottle~
a bottle~
A wine bottle has been dropped here.~
~
17 0 0 0 0 1 0 0 0
4 4 2 0
12 80 40
B
0 0 0 0
#12227
firebreather flask moonshine~
a flask~
A small hip flask has been left here.~
~
17 0 0 0 0 1 0 0 0
3 3 7 0
10 60 30
B
0 0 0 0
#12228
warhammer~
a warhammer~
A heavy warhammer lies on the ground here.~
~
5 4096 32 0 0 8193 0 0 0
0 5 4 7
14 5000 110
B
0 0 0 0
#12229
quarterstaff~
a quarterstaff~
A iron-shod quartstaff has been discarded here.~
~
5 0 0 0 0 8193 0 0 0
0 7 2 7
10 4000 85
A
17 -5
B
0 0 0 0
#12230
bread brown load~
a loaf of brown bread~
A loaf of brown bread lies here in the dirt.~
~
19 0 0 0 0 1 0 0 0
8 0 0 0
4 10 24
B
0 0 0 0
#12231
pie meat~
a meat pie~
A tasty looking meat pie has been left here.~
~
19 0 0 0 0 1 0 0 0
12 0 0 0
4 20 36
B
0 0 0 0
#12232
tak hard~
hard tak~
Some hard tak iron rations have been dropped here.~
~
19 0 0 0 0 1 0 0 0
24 0 0 0
4 100 72
B
0 0 0 0
#12233
leather boots~
leather boots~
Some well made leather boots have been left here.~
~
9 524288 0 0 0 65 0 0 0
4 0 0 0
8 500 20
B
0 0 0 0
#12234
leather armor~
leather armor~
A tanned leather chest guard lies here.~
~
9 524288 0 0 0 9 0 0 0
6 0 0 0
24 1500 40
B
0 0 0 0
#12235
leather gloves~
leather gloves~
Some finely made leather gloves are lying here.~
~
9 524288 0 0 0 129 0 0 0
4 0 0 0
4 500 20
B
0 0 0 0
#12236
leather leg guards~
leather leg guards~
A pair of tanned leather leg guards have been abandoned here.~
~
9 524288 0 0 0 33 0 0 0
6 0 0 0
12 750 40
B
0 0 0 0
#12237
leather arm guards~
leather arm guards~
A pair of tanned leather arm guards have been lost here.~
~
9 524288 0 0 0 257 0 0 0
6 0 0 0
12 750 40
B
0 0 0 0
#12238
steel shield~
a steel shield~
A round shield of steel gathers dust here.~
~
9 524288 0 0 0 513 0 0 0
9 0 0 0
15 3500 85
B
0 0 0 0
#12239
steel helm~
a steel helm~
A well made helmet of forged steel lies here.~
~
9 134742016 0 0 0 17 0 0 0
9 0 0 0
10 3500 85
B
0 0 0 0
#12240
steel breastplate~
a steel breastplate~
A polished breastplate of steel has been dropped here.~
~
9 524288 0 0 0 9 0 0 0
10 0 0 0
30 5000 100
B
0 0 0 0
#12241
steel bracer~
a steel bracer~
A steel wrist guard has been lost here.~
~
9 0 0 0 0 4097 0 0 0
5 0 0 0
5 2000 25
B
0 0 0 0
#12242
sack heshen~
a heshen sack~
A sack made of heshen has been dropped here.~
~
15 0 0 0 0 1 0 0 0
75 0 0 0
8 50 75
B
0 0 0 0
#12243
bullseye lantern~
a bullseye lantern~
A shuttered lantern is sitting here.~
~
1 0 0 0 0 1 0 0 0
0 0 100 0
10 250 100
B
0 0 0 0
#12244
torch~
a torch~
A torch lies on the ground here.~
~
1 0 0 0 0 1 0 0 0
0 0 12 0
8 50 12
B
0 0 0 0
#12245
waterskin~
a waterskin~
A leather waterskin is here.~
~
17 0 0 0 0 1 0 0 0
6 6 0 0
12 200 60
B
0 0 0 0
#12246
barrel small~
the small barrel~
A small barrel rolls along the ground here.~
~
17 0 0 0 0 1 0 0 0
12 12 0 0
40 500 120
B
0 0 0 0
#12247
barrel large~
the large barrel~
A large barrel sits on the ground here.~
~
17 0 0 0 0 1 0 0 0
24 24 0 0
80 1000 240
B
0 0 0 0
#12248
carpet rendorian~
a rendorian carpet~
A fine carpet made in Rendor decorates the floor here.~
~
12 0 0 0 0 1 0 0 0
0 0 0 0
50 10000 0
B
0 0 0 0
#12249
silk bolt~
a bolt of fine silk~
A bundle of high quality silk sits here.~
~
12 0 0 0 0 1 0 0 0
0 0 0 0
30 15000 0
B
0 0 0 0
#12250
spices rare~
rare spices~
A jar of dried spices has been dropped here.~
~
12 0 0 0 0 1 0 0 0
0 0 0 0
4 20000 0
B
0 0 0 0
#12251
high tensile bow~
a high tensile bow~
A tightly strung bow has been discarded~
~
6 8155136 32 0 0 16385 0 0 0
1 2 4 0
7 1154 225
A
18 1
A
9 5
A
19 1
B
0 0 0 0
#12275
Meditation Chamber~
a meditation chamber~
The &10Glowing &14Meditation Chamber &07of the True &08GrandMaster &10of BaLaNcE&00.~
~
15 100663296 0 0 0 0 0 0 0
40 21 -1 0
2 1 40
B
0 0 0 0
$~
