#12301
golden crown~
a crown of gold~
A golden crown has carelessly been left here.~
~
9 2624577 0 0 0 17 0 0 0
8 0 0 0
5 100000 320
A
6 2
A
19 2
A
12 15
B
0 0 0 0
#12302
golden chain mail~
a suit of golden chain mail~
Some golden chain mail has been left here.~
~
9 7273537 32 0 0 9 0 0 0
13 0 0 0
10 40000 690
A
13 15
A
19 3
B
0 0 0 0
#12303
severious sword~
the Haldane sword named "Severious"~
The ancestral sword of the Haldane Monarchs lies here.~
~
5 7109697 32 0 0 8193 0 0 0
0 6 8 3
30 60000 1725
A
19 2
A
18 2
A
12 20
B
0 0 0 0
#12304
defender sash~
a Haldane defender's sash~
A blue and white sash is laying on the ground here.~
~
11 2100289 0 0 0 2049 0 0 0
0 0 0 0
3 10000 225
A
17 -7
A
18 2
A
19 1
B
0 0 0 0
#12305
blue diamond ring~
a blue diamond ring~
A blue diamond ring is lying here unattended.~
~
9 65 0 0 0 3 0 0 0
1 0 0 0
3 40000 185
A
3 2
A
4 2
B
0 0 0 0
#12307
guard sword~
a guard sword~
A guard's sword is laying on the ground here.~
~
5 12288 32 0 0 8193 0 0 0
0 4 8 3
9 10000 485
B
0 0 0 0
#12308
guard plate mail~
a suit of guard plate mail~
A guard's plate mail has been left here.~
~
9 5001216 32 0 0 9 0 0 0
10 0 0 0
15 20000 130
A
1 1
B
0 0 0 0
#12309
guard helm~
a guard helm~
A guard's helmet has been discarded here.~
~
9 139218944 32 0 0 17 0 0 0
8 0 0 0
5 7000 180
A
18 2
B
0 0 0 0
#12310
guard chain mail~
a suit of guard chain mail~
A guard's chain mail has been left here.~
~
9 5001216 32 0 0 9 0 0 0
8 0 0 0
10 10000 90
A
12 5
B
0 0 0 0
#12312
glowing wand~
a glowing wand~
A glowing wand lays here pulsating.~
~
3 67108872 0 0 0 16385 0 0 0
35 1 1 57
4 2000 200
B
0 0 0 0
#12313
peacemaker sword~
a sword of silver named "Peacemaker"~
A silver sword lies on the floor here.~
~
5 12384 32 0 0 8193 0 0 0
0 8 4 3
10 40000 795
A
18 2
B
0 0 0 0
#12314
badaxe axe~
the legendary "Badaxe"~
A BAD looking axe lays on the ground here.~
~
5 4485184 32 0 0 8193 0 0 0
0 3 12 3
10 40000 745
A
19 2
B
0 0 0 0
#12315
dustmop~
a dustmop~
A lonely looking dustmop is laying here.~
~
5 0 0 0 0 8193 0 0 0
0 6 3 2
1 100 110
B
0 0 0 0
#12316
foil~
a foil~
A skinny looking foil is lying on the ground here.~
~
5 536576 32 0 0 8193 0 0 0
0 13 2 3
5 1000 745
A
19 2
B
0 0 0 0
#12317
juggling balls~
a set of juggling balls~
A set of brightly colored juggling balls lies scattered.~
~
5 0 0 0 0 8193 0 0 0
0 6 4 5
5 2000 185
B
0 0 0 0
#12318
goofy cap~
a goofy cap~
You see a goofy looking cap lying here.~
~
9 524288 0 0 0 17 0 0 0
4 0 0 0
4 4000 50
A
2 1
B
0 0 0 0
#12319
silver lute~
a silver lute~
You see a beautiful silver lute laying here.~
~
1 65 4096 0 0 16385 0 0 0
0 0 -1 0
4 10000 1110
A
18 2
B
0 0 0 0
#12320
holy potion~
a holy potion~
A holy looking potion is laying on a table here.~
~
10 64 131584 0 0 1 0 0 0
30 28 36 0
1 1000 100
B
0 0 0 0
$~
