#12501
thief gloves~
a pair of thief gloves~
A pair of leather gloves lays on the ground here.~
~
9 3846144 32 0 0 129 0 0 0
4 0 0 0
4 4000 220
A
2 2
A
18 2
B
0 0 0 0
#12502
night stalker sword~
a sword named "Night Stalker"~
A dark short sword lies here almost hidden in a shadow.~
~
5 3846208 32 0 0 8193 0 0 0
0 7 5 11
6 4000 955
A
2 1
A
18 1
B
0 0 0 0
#12503
dark chain mail~
a suit of dark chain mail~
A suit of non-reflective chain armor lies on the ground.~
~
9 1576960 32 0 0 9 0 0 0
8 0 0 0
10 14000 70
B
0 0 0 0
#12504
dark scale mail~
a suit of dark scale mail~
A suit of non-reflective scale armor lies on the ground.~
~
9 1576960 32 0 0 9 0 0 0
7 0 0 0
8 12000 55
B
0 0 0 0
#12505
dark leather armor~
a suit of dark leather armor~
Some dark colored leather armor is laying here.~
~
9 1576960 32 0 0 9 0 0 0
5 0 0 0
6 8000 55
A
2 1
B
0 0 0 0
#12506
dark dagger~
a dark dagger~
You see a non-reflective dagger laying on the ground here.~
pierce~
5 1056768 0 0 0 8193 0 0 0
0 6 4 11
5 4000 295
A
18 2
B
0 0 0 0
#12507
heavy axe~
a heavy axe~
A heavy axe sits unused on the ground here.~
~
5 8192 0 0 0 8193 0 0 0
0 4 8 3
12 4000 485
B
0 0 0 0
#12508
dark cloak~
a dark cloak~
A dark cloak lies crumpled on the ground here.~
~
9 0 0 0 0 5 0 0 0
6 0 0 0
5 8000 150
A
18 2
B
0 0 0 0
#12509
thief boots~
a pair of thief boots~
Some soft leather boots are sitting here.~
~
9 3846144 32 0 0 65 0 0 0
4 0 0 0
5 5000 160
A
2 1
A
18 2
B
0 0 0 0
#12510
treatise DiGriz~
a document entitled "DiGriz's Treatise on Thievery"~
A treatise on thievery is laying on a shelf here.~
~
8 3846208 32 0 0 16385 0 0 0
0 0 0 0
5 2000 350
A
2 3
A
19 2
B
0 0 0 0
#12511
wine cup~
a wine cup~
A cup of wine sits on the ground here.~
~
17 0 0 0 0 16385 0 0 0
5 5 2 0
2 200 50
B
0 0 0 0
#12512
grapes~
a bunch of grapes~
A bunch of grapes is laying here.~
~
19 0 0 0 0 16385 0 0 0
2 0 0 0
2 50 6
B
0 0 0 0
#12513
dark sword~
a dark sword~
A non-reflective sword is laying here.~
slash~
5 1056768 0 0 0 8193 0 0 0
0 4 7 3
8 2000 285
B
0 0 0 0
$~
