#12601
Tool inquiry~
Tool of Inquiry~
A Tool of Inquiry lies here unattended~
~
5 5962306 32 0 0 8193 0 0 0
0 14 2 11
4 10000 1085
A
2 2
A
18 2
B
0 0 0 0
#12602
Black hood~
Black Hood~
A Black Hood lies crumpled on the floor~
~
9 134742594 0 0 0 17 0 0 0
5 0 0 0
5 10000 275
A
2 2
A
19 2
B
0 0 0 0
#12603
Torturer's belt~
Torturer's Belt~
A spiked leather belt is lying on the ground here~
~
9 526912 0 0 0 2049 0 0 0
4 0 0 0
4 10000 170
A
1 2
A
19 1
B
0 0 0 0
#12604
curved dagger~
Curved Dagger~
A nasty looking curved dagger is lying on the ground here~
slices~
5 578 0 0 0 8193 0 0 0
0 6 5 11
2 4000 735
A
19 2
A
4 -2
B
0 0 0 0
#12605
cloth mask~
Cloth Mask~
A cloth mask is laying discarded on the ground~
~
9 524866 0 0 0 524289 0 0 0
0 0 0 0
1 4000 200
A
18 2
B
0 0 0 0
#12606
soulstealer mace~
Soulstealer~
A mace that seems to eat light lays here malevolently~
crush~
5 1055456 32 0 0 8193 0 0 0
0 3 12 6
2 70000 992
A
9 9
A
12 15
A
19 1
B
0 0 0 0
#12607
Cloak Fury~
Cloak of Fury~
A dirty red cloak the color of blood lays here~
~
9 65 0 0 0 5 0 0 0
8 0 0 0
5 100000 350
A
12 25
A
19 1
B
0 0 0 0
#12609
bloody dagger~
a Bloody Dagger~
A Bloody dagger lies in A pool of blood on the ground here~
pierce~
5 512 0 0 0 8193 0 0 0
0 3 11 11
4 20000 485
B
0 0 0 0
#12610
dice bones~
Knuckle-Bones~
A pair of dice lays on the ground here~
~
8 65 0 0 0 16385 0 0 0
0 0 0 0
1 5000 180
A
3 2
A
4 2
B
0 0 0 0
#12611
diamond amulet~
amulet of submission~
A diamond amulet lays on the ground pulsating~
~
9 195 0 0 0 32769 0 0 0
5 0 0 0
1 500 525
A
14 -100
B
0 0 0 0
#12612
sword subjugator~
Subjugator~
A huge sword dents the ground by its massive weight~
slash~
5 6060611 32 0 0 8193 0 0 0
0 6 6 3
28 200000 1085
A
18 2
A
3 2
B
0 0 0 0
#12613
skull helm~
Skull Helm~
A giant helmet made from the skull of A dragon lays here~
~
9 135793217 0 0 0 17 0 0 0
8 0 0 0
10 10000 510
A
1 2
A
19 3
A
3 -1
B
0 0 0 0
#12615
candle~
a candle~
A black wax candle is standing here.~
~
1 0 0 0 0 16385 0 0 0
0 0 24 0
5 150 24
B
0 0 0 0
#12616
iron key~
iron key~
An iron key is laying on the ground here.~
~
18 0 0 0 0 1 0 0 0
2 0 0 0
1 0 0
B
0 0 0 0
#12617
stone key~
stone key~
A stone key is laying on the ground here~
~
18 0 0 0 0 1 0 0 0
2 0 0 0
1 0 0
B
0 0 0 0
#12618
Marble key~
Marble key~
A Marble key with gold trimming is laying on A pedestal here~
~
18 2 0 0 0 1 0 0 0
2 0 0 0
1 0 0
B
0 0 0 0
#12619
Dark key~
Dark key~
A dark, stone key lies here~
~
18 2 0 0 0 1 0 0 0
2 0 0 0
1 0 0
B
0 0 0 0
#12620
granite club~
a granite club~
A club made out of A boulder sits here~
pound~
5 0 0 0 0 8193 0 0 0
0 4 8 7
22 40 595
A
18 2
B
0 0 0 0
#12621
animal skin~
a animal skin~
An animal skin lies on the ground here~
~
9 0 0 0 0 1025 0 0 0
8 0 0 0
8 1000 550
A
13 25
B
0 0 0 0
#12622
wyvern horde~
the wyvern's horde~
The horde of a great draconian monster looks like it was slept in recently.~
~
20 0 0 0 0 1 0 0 0
135621 0 0 0
135 135621 32
B
0 0 0 0
$~
