#12701
Lance~
Horseman's Lance~
A well-made Lance is laying on the ground here.~
~
5 7238656 32 0 0 8193 0 0 0
0 5 5 22
6 1000 285
A
18 1
A
19 1
B
0 0 0 0
#12702
Blue Steel Gauntlets~
Blue Steel Gauntlets~
A pair of well-made gauntlets are sitting here.~
~
9 7099392 32 0 0 129 0 0 0
6 0 0 0
3 1400 40
B
0 0 0 0
#12703
Blue Steel Axe~
Blue Steel Axe~
A sharp axe is laying on the ground here~
~
5 6321152 32 0 0 8193 0 0 0
0 2 10 3
6 300 245
A
19 2
B
0 0 0 0
#12705
jerkin~
re-enforced jerkin~
A heavily re-enforced jerkin lies on the ground here.~
~
9 524288 0 0 0 9 0 0 0
5 0 0 0
10 400 25
B
0 0 0 0
#12706
padded armor~
padded armor~
Some padded armor is lying here.~
~
9 524288 0 0 0 9 0 0 0
4 0 0 0
8 1000 20
B
0 0 0 0
#12707
Blue Steel Arm Plates~
Blue Steel Arm Plates~
Some heavy arm plates are lying on the ground here~
~
9 7099392 32 0 0 257 0 0 0
11 0 0 0
10 7000 200
A
19 1
B
0 0 0 0
#12708
Blue Steel Sleeves~
Blue Steel Sleeves~
Some steel sleeves lay on the ground, abandoned.~
~
9 2626560 32 0 0 257 0 0 0
8 0 0 0
8 4000 70
B
0 0 0 0
#12709
Blue Steel Leggings~
Blue Steel Leggings~
Some steel leggings lay on the ground, abandonded.~
~
9 2626560 32 0 0 33 0 0 0
8 0 0 0
10 4000 70
B
0 0 0 0
#12710
Blue Steel Leg Plates~
Blue Steel Leg Plates~
Some heavy leg plates are laying on the ground here.~
~
9 7099392 32 0 0 33 0 0 0
8 0 0 0
15 6000 130
A
19 1
B
0 0 0 0
#12711
Blue Steel Boots~
Blue Steel Boots~
Some heavily armored boots are laying here.~
~
9 7099392 32 0 0 65 0 0 0
6 0 0 0
15 5000 100
A
19 1
B
0 0 0 0
#12712
Blue Steel Halberd~
Blue Steel Halberd~
A sharp halberd has been abandonded here.~
~
5 6321152 32 0 0 8193 0 0 0
0 2 11 3
15 3000 210
A
18 1
A
19 1
B
0 0 0 0
#12713
soup ladle~
soup ladle~
A soup ladle has been left here.~
pound~
5 0 0 0 0 8193 0 0 0
0 3 3 7
4 500 20
B
0 0 0 0
#12714
Golden Cross~
Golden Cross~
A golden cross has been left on the ground here.~
~
5 2098241 2048 0 0 8193 0 0 0
0 11 2 6
8 5000 425
A
4 1
A
18 2
B
0 0 0 0
#12715
vestaments~
Priestly vestaments~
Some Priestly Vestaments have been left laying here.~
~
9 2622529 0 0 0 9 0 0 0
7 0 0 0
5 4000 255
A
12 20
A
19 1
B
0 0 0 0
#12716
Silver Cross~
silver cross~
A silver cross has carelessly been left here.~
~
8 2098240 6144 0 0 5 0 0 0
0 0 0 0
5 2000 240
A
17 -6
A
22 -4
B
0 0 0 0
#12717
Dayans Dayan's Guide~
Dayan's guide~
Dayan's Guide to Fencing in 10 easy steps is laying here.~
~
8 64 0 0 0 16385 0 0 0
0 0 0 0
5 1000 140
A
18 2
A
3 1
B
0 0 0 0
#12718
training sword~
training sword~
A blunt sword is laying on the ground here.~
~
5 0 0 0 0 8193 0 0 0
0 5 3 7
4 100 60
B
0 0 0 0
#12719
church tabard~
Church Tabard~
A Church Tabard lies crumpled on the ground here.~
~
9 2098240 0 0 0 1025 0 0 0
7 0 0 0
2 800 255
A
24 -4
B
0 0 0 0
#12720
Defender sword~
Defender~
A beautiful sword lies on the ground here.~
~
5 2110464 32 0 0 8193 0 0 0
0 4 10 3
10 6000 1095
A
17 -15
A
18 2
B
0 0 0 0
#12721
Partisan sword~
Partisan~
A heavy sword is laying on the ground here.~
~
5 6321216 32 0 0 8193 0 0 0
0 3 13 3
14 3000 925
A
18 1
B
0 0 0 0
#12722
devotional candle~
devotional candle~
A small devotional candle has been left here.~
~
1 0 0 0 0 16385 0 0 0
0 0 10 0
2 500 10
B
0 0 0 0
#12723
Golden Amulet~
Golden Amulet~
A small golden amulet has been left here.~
~
9 2098240 0 0 0 5 0 0 0
8 0 0 0
2 8000 350
A
12 25
A
19 1
B
0 0 0 0
#12724
Flowers~
Flowers~
A garland of beautiful flowers has been left here.~
~
9 525376 0 0 0 17 0 0 0
1 0 0 0
2 800 5
B
0 0 0 0
#12725
Avatar's Epee~
Avatar's Epee~
You see the the real man's weapon- an epee -sitting here.~
~
5 12352 32 0 0 8193 0 0 0
0 7 4 11
10 6000 555
A
18 2
A
19 1
B
0 0 0 0
#12726
battle plans~
battle plans~
You see some battle plans laying on the ground here.~
~
8 0 0 0 0 16385 0 0 0
0 0 0 0
2 100 0
E
battle plans~
These are detailed plans of the Michaeline Knights offensive.~
B
0 0 0 0
#12727
Blue steel belt~
Blue steel belt~
An armored belt is laying on the ground here.~
~
9 2098176 0 0 0 2049 0 0 0
6 0 0 0
5 1400 40
B
0 0 0 0
#12728
Blue steel scale mail~
Blue Steel Scale Mail~
Some well-made scale armor is laying on the ground here.~
~
9 2626560 32 0 0 9 0 0 0
8 0 0 0
10 1000 70
B
0 0 0 0
#12729
blue steel chain~
blue steel chain mail~
Some fine chain mail is lying on the ground here.~
~
9 2626560 32 0 0 9 0 0 0
9 0 0 0
80 600 85
B
0 0 0 0
#12730
sword blue steel~
a blue steel sword~
A blue steel sword has been left here.~
slash~
5 2110464 32 0 0 8193 0 0 0
0 5 4 3
8 200 150
A
18 1
B
0 0 0 0
#12731
vault key~
vault key~
A large iron key to the vault lies here.~
~
18 0 0 0 0 1 0 0 0
2 0 0 0
1 0 0
B
0 0 0 0
#12732
blue steel plate~
a blue steel plate~
A beautiful breast plate is lying on the ground here.~
~
9 7099392 32 0 0 9 0 0 0
10 0 0 0
100 2500 250
A
1 2
A
19 1
B
0 0 0 0
#12733
blue steel helm~
a blue steel helm~
A blue steel helm is lying on the ground.~
~
9 136844288 32 0 0 17 0 0 0
8 0 0 0
8 1000 70
B
0 0 0 0
#12734
blue steel bracer~
a blue steel bracer~
A blue steel bracer lies here~
~
9 2098176 0 0 0 4097 0 0 0
4 0 0 0
3 1000 120
A
18 1
A
19 1
B
0 0 0 0
$~
