#12801
Thorn~
Thorn~
A thorn has broken off A plant and lays here~
pierce~
5 0 0 0 0 8193 0 0 0
0 6 4 11
3 400 185
B
0 0 0 0
#12802
beetle ring~
a Beetle Ring~
A ring made from the shell of a beetle lays here.~
~
15 66 0 0 0 3 0 0 0
400 0 -1 0
1 500 400
B
0 0 0 0
#12803
Pitchfork~
Pitchfork~
A white-hot pitch fork is sizzling on the ground~
stab~
5 579 0 0 0 8193 0 0 0
0 8 4 14
10 4000 970
A
9 5
A
19 2
B
0 0 0 0
#12804
Robe~
Robe of Displacement~
A robe lies on the floor here shimmering before your eyes~
~
9 64 0 0 0 5 0 0 0
4 0 0 0
4 4000 200
A
17 -8
A
18 2
B
0 0 0 0
#12805
Flame sword~
Flame Sword~
A Sword made from living flame hovers in the air here.~
burns~
5 65 0 0 0 8193 0 0 0
0 6 5 3
10 2000 735
A
1 -2
A
19 2
B
0 0 0 0
#12806
flame tongue~
Flame Tongue~
A tongue of flame floats here, lighting the room~
~
1 66 0 0 0 16385 0 0 0
0 0 -1 0
1 100 1510
A
18 2
A
23 -4
A
24 -4
B
0 0 0 0
#12807
mandrel's staff~
Mandrel's Staff~
A heavy rune-inscribed staff leans against the wall~
pound~
5 8306753 0 0 0 8193 0 0 0
0 8 4 7
6 4000 935
A
12 20
A
18 2
B
0 0 0 0
#12808
speed boots~
Speed Boots~
A pair of well made boots sits here.~
~
9 524354 0 0 0 65 0 0 0
7 0 0 0
4 900 655
A
2 3
A
14 60
A
18 2
B
0 0 0 0
#12809
ring wizardry~
Ring of Wizardry~
A silver ring lays on the ground here.~
~
9 8306753 0 0 0 3 0 0 0
5 0 0 0
1 2000 245
A
12 25
B
0 0 0 0
#12810
sextant~
sextant~
A sextant lies here~
~
8 0 0 0 0 1 0 0 0
0 0 0 0
1 20 0
B
0 0 0 0
#12811
book magic~
Book of Magics~
A leather-bound book sits on A shelf here~
~
8 8306753 0 0 0 16385 0 0 0
0 0 0 0
2 2000 560
A
12 40
B
0 0 0 0
#12812
Rune Warding~
Rune of warding~
A rune fashioned out of iron lies on the ground here~
~
8 65 0 0 0 16385 0 0 0
0 0 0 0
2 3000 680
A
17 -12
A
24 -5
A
23 -5
B
0 0 0 0
#12813
Ring waterwalking~
Ring of Waterwalking~
A ring is sitting on A table here~
~
22 65 0 0 0 3 0 0 0
0 0 0 0
2 1000 0
B
0 0 0 0
#12815
nicked silver sword~
Nicked Silver Sword~
A nicked silver sword is laying on the bloodstained ground.~
slash~
5 1088 4096 0 0 8193 0 0 0
0 6 5 11
8 3000 525
A
18 1
B
0 0 0 0
#12816
rune covered sword~
a runed sword~
A rune covered sword is impaled in the ground here~
slash~
5 64 0 0 0 8193 0 0 0
0 6 5 3
12 5000 645
A
19 2
B
0 0 0 0
#12817
glowing key o12817~
a glowing #1 key~
A key is here, looks like it is important...~
~
18 67 0 0 0 1 0 0 0
2 0 0 0
1 0 0
B
0 0 0 0
#12818
glowing key o12818~
a glowing #2 key~
A key is here, looks like it is important...~
~
18 67 0 0 0 1 0 0 0
2 0 0 0
1 0 0
B
0 0 0 0
#12819
glowing key o12819~
a glowing #3 key~
A key is here, looks like it is important...~
~
18 67 0 0 0 1 0 0 0
2 0 0 0
1 0 0
B
0 0 0 0
#12820
glowing key o12820~
a glowing #4 key~
A key is here, looks like it is important...~
~
18 67 0 0 0 1 0 0 0
2 0 0 0
1 0 0
B
0 0 0 0
#12822
corpse mage~
corpse~
The corpse of a slaughtered mage lies here.~
~
15 0 0 0 0 0 0 0 0
100 0 -1 0
0 0 100
E
corpse mage~
It doesn't look like his magic helped him enough.~
B
0 0 0 0
#12823
corpse guard~
corpse~
The corpse of a dead guardsman lies here.~
~
15 0 0 0 0 0 0 0 0
100 0 -1 0
0 0 100
E
corpse guard guardsman~
He put up quite a fight before he finally died.~
B
0 0 0 0
#12824
corpse priest~
corpse~
The corpse of a dead priest lies here.~
~
15 0 0 0 0 0 0 0 0
100 0 -1 0
0 0 100
E
corpse priest~
He looks like he took a lot of the monsters with him.~
B
0 0 0 0
#12825
corpse mage~
corpse~
The corpse of a slaughtered mage lies here.~
~
15 0 0 0 0 0 0 0 0
100 0 -1 0
0 0 100
E
corpse mage~
It doesn't look like his magic helped him enough.~
B
0 0 0 0
#12826
corpse mage~
corpse~
The corpse of a slaughtered mage lies here.~
~
15 0 0 0 0 0 0 0 0
100 0 -1 0
0 0 100
E
corpse mage~
It doesn't look like his magic helped him enough.~
B
0 0 0 0
#12827
corpse mage~
corpse~
The corpse of a slaughtered mage lies here.~
~
15 0 0 0 0 0 0 0 0
100 0 -1 0
0 0 100
E
corpse mage~
It doesn't look like his magic helped him enough.~
B
0 0 0 0
#12828
corpse mage~
corpse~
The corpse of a slaughtered mage lies here.~
~
15 0 0 0 0 0 0 0 0
100 0 -1 0
0 0 100
E
corpse mage~
It doesn't look like his magic helped him enough.~
B
0 0 0 0
#12829
corpse mage~
corpse~
The corpse of a slaughtered mage lies here.~
~
15 0 0 0 0 0 0 0 0
100 0 -1 0
0 0 100
E
corpse mage~
It doesn't look like his magic helped him enough.~
B
0 0 0 0
#12830
corpse guard~
corpse~
The corpse of a dead guardsman lies here.~
~
15 0 0 0 0 0 0 0 0
100 0 -1 0
0 0 100
E
corpse guard guardsman~
He put up quite a fight before he finally died.~
B
0 0 0 0
#12831
corpse guard~
corpse~
The corpse of a dead guardsman lies here.~
~
15 0 0 0 0 0 0 0 0
100 0 -1 0
0 0 100
E
corpse guard guardsman~
He put up quite a fight before he finally died.~
B
0 0 0 0
#12832
corpse guard~
corpse~
The corpse of a dead guardsman lies here.~
~
15 0 0 0 0 0 0 0 0
100 0 -1 0
0 0 100
E
corpse guard guardsman~
He put up quite a fight before he finally died.~
B
0 0 0 0
#12833
robes arch-magi~
robes of the arch-magi~
Some robes covered in strange silver sigils lies on the ground here.~
~
9 8314945 0 0 0 9 0 0 0
14 0 0 0
5 100000 400
A
12 20
A
29 25
B
0 0 0 0
#12834
sorcerers cap~
a sorcerers cap~
A silver skull cap lies here, inscribed with arcane runes.~
~
9 8314945 0 0 0 17 0 0 0
7 0 0 0
3 50000 425
A
3 2
A
12 25
A
19 1
B
0 0 0 0
#12835
globe force~
a globe of force~
A strange globe flickers in and out of view here.~
~
9 8314977 0 0 0 513 0 0 0
10 0 0 0
1 75000 580
A
12 25
A
17 -10
A
19 2
B
0 0 0 0
$~
