#13000
fountain water~
a fountain~
A large fountain is here gurgling out an endless stream of water~
~
23 64 0 0 0 0 0 0 0
100000 100000 0 0
5000 10 0
B
0 0 0 0
#13001
oven black~
an oven~
A huge black oven is here~
~
15 1 0 0 0 0 0 0 0
1000 5 -1 0
1000 1000 1000
B
0 0 0 0
#13002
locker~
a meat locker~
An enormous meat locker is here~
~
15 0 0 0 0 0 0 0 0
1000 5 -1 0
1000 1000 1000
B
0 0 0 0
#13003
spice rack~
a spice rack~
A spice rack floats in the air here~
~
15 64 0 0 0 1 0 0 0
50 0 -1 0
10 1500 50
B
0 0 0 0
#13004
pizza slice~
a slice of pizza~
A slice of pizza is here looking very tasty~
~
19 0 0 0 0 1 0 0 0
15 0 0 0
1 12 45
B
0 0 0 0
#13005
chunk meat~
a large chunk of meat~
A large chunk of meat is here~
~
19 0 0 0 0 1 0 0 0
24 0 0 1
2 20 72
B
0 0 0 0
#13006
sandwich~
a finger sandwich~
A finger sandwich is here.~
~
19 0 0 0 0 1 0 0 0
20 0 0 0
2 15 60
B
0 0 0 0
#13007
broom straw~
a straw broom~
A straw broom is here leaning against the wall~
~
13 0 0 0 0 16385 0 0 0
0 0 0 0
5 5 0
B
0 0 0 0
#13008
machine coffee~
a coffee machine~
A coffee machine is here~
~
15 2 0 0 0 0 0 0 0
10000 0 -1 0
10000 10 10000
B
0 0 0 0
#13009
cabinet~
a cabinet~
A cabinet is here~
~
15 0 0 0 0 0 0 0 0
5000 1 -1 0
10000 10 5000
E
cabinet~
Just a large cabinet.
~
B
0 0 0 0
#13010
bar silver~
a bar of silver~
A bar of silver has been left here~
~
8 0 4096 0 0 1 0 0 0
0 0 0 0
10 1000 0
B
0 0 0 0
#13011
bar gold~
a bar of gold~
A bar of gold has been left here~
~
8 0 0 0 0 1 0 0 0
0 0 0 0
11 2000 0
B
0 0 0 0
#13012
bar mithril~
a bar of mithril~
A bar of mithril has been left here~
~
8 0 0 0 0 1 0 0 0
0 0 0 0
12 3000 0
B
0 0 0 0
#13013
bar adamantite~
a bar of adamantite~
A bar of adamantite has been left here~
~
8 0 0 0 0 1 0 0 0
0 0 0 0
15 5000 0
B
0 0 0 0
#13014
hammer mithril~
a mithril hammer~
A mithril hammer has been left here~
~
5 64 0 0 0 8193 0 0 0
0 2 6 0
19 10000 60
A
1 1
B
0 0 0 0
#13015
chest~
a chest~
A chest is here~
~
15 1 0 0 0 0 0 0 0
5000 15 13016 0
1000 1000 5000
B
0 0 0 0
#13016
key~
a small key~
A small key has been left here~
~
18 0 0 0 0 1 0 0 0
0 0 0 0
1 1 0
B
0 0 0 0
#13017
long sword~
a long sword~
A long sword has been left here~
~
5 0 0 0 0 8193 0 0 0
0 1 8 3
8 10000 208
A
18 1
A
19 2
B
0 0 0 0
#13018
dagger silver~
a silver dagger~
A finely crafted dagger made of silver is on the ground here~
~
5 0 4096 0 0 8193 0 0 0
0 3 3 11
5 15000 252
A
18 1
A
19 2
B
0 0 0 0
#13019
scimitar~
a curved scimitar~
A curved scimitar is here in a jewel covered sheath~
~
5 0 0 0 0 8193 0 0 0
0 2 7 3
10 17500 52
A
13 3
B
0 0 0 0
#13020
staff wooden~
a wooden staff~
A wooden staff is against the wall here~
~
5 0 0 0 0 8193 0 0 0
0 1 4 7
6 10 4
B
0 0 0 0
#13021
cabinet silver~
a silver chased cabinet~
A large cabinet with a silver finish is here~
~
15 0 0 0 0 0 0 0 0
5000 15 13025 0
10000 1 5000
B
0 0 0 0
#13022
cabinet silver~
a silver chased cabinet~
A large cabinet with a silver finish is here~
~
15 0 0 0 0 0 0 0 0
5000 15 13025 0
10000 1 5000
B
0 0 0 0
#13023
key old~
an old key~
An old key is here~
~
18 0 0 0 0 1 0 0 0
0 0 0 0
1 1 0
B
0 0 0 0
#13025
silvery key~
a silvery key~
A silvery key has been left here~
~
18 0 0 0 0 1 0 0 0
0 0 0 0
1 10000 0
B
0 0 0 0
#13026
staff red white~
a red and white staff~
A red and white staff is leaning against the wall here~
~
4 0 0 0 0 16385 0 0 0
20 3 3 42
8 5500 0
B
0 0 0 0
#13027
staff burnt~
a burnt staff~
A burnt staff is leaning against the wall here~
~
4 0 0 0 0 16385 0 0 0
20 4 4 4
6 1100 0
B
0 0 0 0
#13028
rod black~
a black rod~
A black rod has been left here~
~
3 0 0 0 0 16385 0 0 0
20 3 3 22
4 1200 120
B
0 0 0 0
#13029
wand wooden~
a wooden stick~
A wooden stick is here~
~
3 0 0 0 0 16385 0 0 0
20 10 10 3
4 600 60
B
0 0 0 0
#13030
wand metal~
a metal wand~
A metal wand is here~
~
3 0 0 0 0 16385 0 0 0
20 10 4 25
5 2000 200
B
0 0 0 0
#13031
cauldrin black~
a black cauldrin~
A large black cauldrin is here bubbling~
~
15 0 0 0 0 0 0 0 0
1000 0 -1 0
5000 5000 1000
B
0 0 0 0
#13032
wings~
a small pair of bat wings~
A small pair of bat wings is here~
~
13 0 0 0 0 1 0 0 0
0 0 0 0
2 1 0
B
0 0 0 0
#13033
eye eyeball~
an eyeball~
An eyeball has been left here~
~
13 0 0 0 0 16385 0 0 0
0 0 0 0
1 1 0
B
0 0 0 0
#13034
book tome~
the book of magic~
An enormous book is lying open here~
~
15 1 0 0 0 1 0 0 0
500 0 -1 0
5000 500000 500
B
0 0 0 0
#13035
spectacles glasses~
a pair of spectacles~
A pair of wire rimed spectacles has been left here~
~
9 524352 0 0 0 524289 0 0 0
0 0 0 0
4 10000 0
B
0 0 0 0
#13036
altar~
a golden altar~
A golden alter sits here.~
~
15 0 0 0 0 0 0 0 0
1000 5 -1 0
5000 1 1000
B
0 0 0 0
#13037
medallion heart~
a heart shaped medallion~
A heart shaped medallion is here~
~
9 320 0 0 0 32769 0 0 0
0 0 0 0
3 10000 120
A
4 2
A
5 -1
B
0 0 0 0
#13038
chest~
a large chest~
A large chest is here~
~
15 65 0 0 0 0 0 0 0
2000 15 13039 0
5000 500000 2000
B
0 0 0 0
#13039
key intricate~
an intricately carved key~
An intricately carved key has been left here~
~
18 65 0 0 0 16385 0 0 0
0 0 0 0
1 10000 50
A
24 -1
B
0 0 0 0
#13040
a pile of coins~
a pile of coins is here~
A pile of coins is here~
~
20 0 0 0 0 1 0 0 0
23574 0 0 0
1 0 0
B
0 0 0 0
#13041
cloak brown~
a brown cloak~
A travel worn cloak has carelessly been left here~
~
9 0 0 0 0 5 0 0 0
0 0 0 0
5 2000 175
A
17 -5
A
24 -3
B
0 0 0 0
#13042
chameleon poncho~
a chameleon poncho~
Some multicolored cloth is on the ground here~
~
9 64 0 0 0 1025 0 0 0
0 0 0 0
4 15000 115
A
2 2
A
17 -5
B
0 0 0 0
#13043
boots worn~
a pair of old boots~
A pair of old boots is here, they look very comfortable~
~
9 524352 0 0 0 65 0 0 0
0 0 0 0
2 3500 75
A
14 15
B
0 0 0 0
#13044
ring seashell~
a seashell ring~
A small seashell has been left here~
~
22 64 0 0 0 3 0 0 0
0 0 0 0
2 6500 0
B
0 0 0 0
#13045
backpack leather~
a leather backpack~
A leather backpack is here~
~
15 0 0 0 0 17409 0 0 0
750 0 -1 0
9 750 750
B
0 0 0 0
#13051
cup brew herbal~
a herbal brew~
A herbal brew is here~
~
17 0 0 0 0 1 0 0 0
5 5 11 1
2 11 50
B
0 0 0 0
#13052
waybread~
a waybread~
A loaf of waybread has been left here~
~
19 0 0 0 0 1 0 0 0
24 0 0 0
3 65 72
B
0 0 0 0
#13053
parchment~
a parchment~
A parchment has carelessly been left here~
~
16 0 0 0 0 1 0 0 0
0 0 0 0
1 75 0
B
0 0 0 0
#13054
quill~
a feather quill~
A feather quill has been left here~
~
21 0 0 0 0 16385 0 0 0
0 0 0 0
1 100 0
B
0 0 0 0
#13055
cleaver~
a meat cleaver~
A meat cleaver is sticking in the wall here~
~
5 0 0 0 0 8193 0 0 0
0 3 4 3
8 600 30
B
0 0 0 0
#13056
shackles chain~
some chain shackles~
Some chain shackles have been discarded here~
~
9 192 0 0 0 131073 0 0 0
0 0 0 0
15 750 4620
A
12 -100
A
14 -82
B
0 0 0 0
#13057
dagger silvery~
a silvery dagger~
A long dagger that seems to be made of silver is here~
~
5 64 0 0 0 8193 0 0 0
0 2 4 11
5 1200 50
A
18 1
B
0 0 0 0
#13058
golden quill feather~
a golden feather quill~
A golden feather quill has been left here~
~
21 64 0 0 0 16385 0 0 0
0 0 0 0
2 2100 30
A
3 1
B
0 0 0 0
#13059
scroll~
a scroll~
A scroll is here~
~
2 0 0 0 0 1 0 0 0
21 4 17 38
5 3000 300
B
0 0 0 0
#13060
scroll bound~
a bound scroll~
A bound scroll is here blowing in the breeze~
~
2 64 0 0 0 16385 0 0 0
16 1 34 0
3 9500 990
A
17 -6
B
0 0 0 0
#13061
tube~
a long cylindrical tube~
A long cylindrical tube is rolling around here~
~
15 64 0 0 0 1 0 0 0
100 5 -1 0
8 500 100
B
0 0 0 0
#13062
scroll old~
an old scroll~
An old scroll has been left here~
~
2 0 0 0 0 1 0 0 0
10 12 0 0
2 500 50
B
0 0 0 0
#13063
scroll blue~
a scroll written on blue paper~
A blue scroll has been left here~
~
2 64 0 0 0 1 0 0 0
34 24 0 0
5 20000 2000
B
0 0 0 0
#13064
pouch leather~
a leather pouch~
A leather pouch is on the ground here~
~
15 64 0 0 0 16385 0 0 0
150 0 -1 0
2 1750 150
B
0 0 0 0
#13065
spoon silver~
a silver stirring spoon~
A silver stirring spoon has been left here~
~
12 64 4096 0 0 16385 0 0 0
0 0 0 0
1 5650 50
A
24 -1
B
0 0 0 0
#13066
potion blue~
a blue potion~
A blue potion is here~
~
10 64 0 0 0 1 0 0 0
24 27 27 27
2 9000 900
B
0 0 0 0
#13067
potion red~
a bright red potion~
A bright red potion is here~
~
10 64 0 0 0 1 0 0 0
25 15 15 0
2 1500 150
B
0 0 0 0
#13068
potion green~
a green potion~
A green potion is here~
~
10 64 0 0 0 1 0 0 0
20 4 2 14
2 1500 150
B
0 0 0 0
#13069
potion efervecent~
an efervecent potion~
An efervecent potion is bubbling away here~
~
10 64 0 0 0 1 0 0 0
16 18 19 20
2 1000 100
B
0 0 0 0
#13070
white milky potion~
a milky white potion~
A milky white potion is here~
~
10 0 0 0 0 1 0 0 0
14 42 0 0
2 750 75
B
0 0 0 0
#13071
staff black~
a black staff~
A black staff is leaning against the wall here~
~
4 64 0 0 0 16385 0 0 0
12 1 1 65
5 500 0
B
0 0 0 0
#13072
flute golden~
a golden flute~
A golden flute has been left here~
~
4 96 0 0 0 16385 0 0 0
22 1 1 7
4 15000 682
A
3 -5
B
0 0 0 0
#13073
figurine~
a small figurine~
A small figurine in the shape of a humanoid is standing here~
~
4 64 0 0 0 16385 0 0 0
21 6 6 55
4 6000 0
B
0 0 0 0
#13074
belt holster~
a holstered belt~
A holstered belt is here~
~
15 0 0 0 0 2049 0 0 0
20 0 -1 0
4 290 20
B
0 0 0 0
#13075
wand~
a blackened wand~
A blackened wand is here~
~
3 64 0 0 0 16385 0 0 0
17 5 1 26
4 2500 250
B
0 0 0 0
#13076
chisel runed~
a runed chisel~
A runed chisel is here~
~
5 65 0 0 0 8193 0 0 0
0 2 3 11
6 1500 38
A
2 1
B
0 0 0 0
#13077
pouch belt beltpouch~
a beltpouch~
A beltpouch is here~
~
15 0 0 0 0 2049 0 0 0
50 0 -1 0
5 750 50
B
0 0 0 0
#13078
dust ~
some sparkling dust~
Some sparkling dust is in a pile here~
~
4 0 0 0 0 16385 0 0 0
20 1 1 38
2 1000 0
B
0 0 0 0
#13079
cowl dark~
a dark cowl~
A dark cowl is here~
~
9 576 0 0 0 5 0 0 0
0 0 0 0
5 1200 220
A
17 -8
A
24 -3
B
0 0 0 0
#13080
wand ashen~
an ashen wand~
An ashen wand is here~
~
3 512 0 0 0 16385 0 0 0
20 4 4 46
4 2000 200
B
0 0 0 0
#13081
club~
a huge spiked club~
A huge spiked club has been left here~
~
5 0 0 0 0 8193 0 0 0
0 3 5 7
29 750 50
B
0 0 0 0
#13082
robe grey~
a grey robe~
A pile of grey cloth has been left here~
~
15 1600 0 0 0 1025 0 0 0
50 0 -1 0
8 5000 235
A
17 -9
A
24 -2
B
0 0 0 0
#13083
cloak grey~
a long grey cloak~
A pile of grey cloth has been left here~
~
9 1600 0 0 0 5 0 0 0
0 0 0 0
7 12000 330
A
17 -12
A
24 -3
B
0 0 0 0
#13084
bracelet silver~
a glinting silver bracelet~
A glinting hoop of silvery metal is here~
~
9 64 4096 0 0 4097 0 0 0
5 0 0 0
5 5000 160
A
17 -5
A
18 2
B
0 0 0 0
#13085
staff~
an iron shod staff~
A grey piece of wood has been left here~
~
5 64 0 0 0 8193 0 0 0
0 2 7 7
7 9000 150
A
18 2
B
0 0 0 0
#13086
minor ward~
a ward minor~
A small clear cube is sitting here~
~
9 65 0 0 0 16385 0 0 0
0 0 0 0
5 5000 25
A
17 -5
B
0 0 0 0
#13087
robe black~
a black robe~
A pile of black cloth is on the ground here~
~
15 2624 0 0 0 1025 0 0 0
50 0 -1 0
8 5000 385
A
17 -9
A
24 -5
B
0 0 0 0
#13088
bracelet onyx~
an onyx bracelet~
A hoop of black onyx is here~
~
9 64 0 0 0 4097 0 0 0
0 0 0 0
6 8500 90
A
19 1
A
1 1
B
0 0 0 0
#13089
cloak black dark~
a dark black cloak~
A pile of black cloth is on the ground here~
~
9 2624 0 0 0 5 0 0 0
0 0 0 0
8 9000 430
A
17 -12
A
24 -5
B
0 0 0 0
#13090
shard black obsidian~
a sharp shard of obsidian~
A piece of black glass is here~
~
5 512 0 0 0 8193 0 0 0
0 2 7 3
8 12000 120
A
19 1
A
13 5
B
0 0 0 0
#13091
robe white~
a white robe~
A pile of white cloth is on the ground here~
~
15 3136 0 0 0 1025 0 0 0
50 0 -1 0
7 7500 385
A
17 -9
A
24 -5
B
0 0 0 0
#13092
bracelet white gold~
a white gold bracelet~
A hoop of silvery metal is here~
~
9 64 0 0 0 4097 0 0 0
0 0 0 0
5 5000 110
A
18 2
B
0 0 0 0
#13093
cloak white~
a white cloak~
A pile of white cloth is on the ground here~
~
9 3392 0 0 0 5 0 0 0
0 0 0 0
7 9000 430
A
17 -12
A
24 -5
B
0 0 0 0
#13094
ivory dagger~
an ivory hilted dagger~
An ivory hilted dagger has been left here~
~
5 1344 0 0 0 8193 0 0 0
0 2 13 11
8 12000 290
A
18 1
A
19 1
A
2 1
B
0 0 0 0
#13095
collar spiked~
a spiked collar~
A small spiked collar is here~
~
9 64 0 0 0 32769 0 0 0
0 0 0 0
9 10000 115
A
17 7
A
19 1
B
0 0 0 0
#13096
cloak shimmering~
a shimmering cloak of many colors~
A multi-colored pile of cloth is here~
~
15 65 0 0 0 5 0 0 0
100 0 -1 0
8 25000 650
A
17 -15
A
24 -5
B
0 0 0 0
#13097
emerald ring~
a small emerald ring~
A small ring with a green gemstone is here~
~
9 64 0 0 0 3 0 0 0
0 0 0 0
5 50000 320
A
12 25
A
19 1
A
18 1
B
0 0 0 0
#13098
bracelet emerald~
an emerald bracelet~
A beautifully crafted hoop of emerald is here~
~
9 64 0 0 0 4097 0 0 0
0 0 0 0
5 30000 255
A
17 -5
A
3 2
A
12 20
B
0 0 0 0
#13099
ward major~
a ward major~
A large clear crystal cube is here~
~
9 65 0 0 0 16385 0 0 0
0 0 0 0
9 20000 260
A
17 -10
A
24 -2
A
19 1
B
0 0 0 0
#13100
ebony kris~
the ebony kris~
A wavy bladed knife made of ebony is here~
~
5 64 0 0 0 8193 0 0 0
0 7 4 11
9 60000 485
A
18 1
A
19 1
B
0 0 0 0
#13101
robes red hooded~
a set of crimson hooded robes~
&07A finely crafted set of silken red robes lie here in a pile.&00~
~
9 524352 0 0 0 9 0 0 0
8 0 0 0
9 10000 155
A
2 1
A
17 -5
A
1 1
B
0 0 0 0
#13102
fridge refridgerator~
a fridge~
A small refridgerator~
~
15 2 0 0 0 0 0 0 0
500 5 -1 0
5000 1 500
B
0 0 0 0
#13103
bottle vodka~
a bottle of absolute vodka~
A bottle of absolute vodka is here begging to be drank~
~
17 0 0 0 0 16385 0 0 0
50 50 7 0
25 1 500
B
0 0 0 0
#13104
juice bottle~
a bottle of cranberry juice~
A bottle of cranberry juice is here~
~
17 0 0 0 0 16385 0 0 0
25 25 2 0
25 1 250
B
0 0 0 0
#13105
sword long~
a long sword~
A long sword has been left here.~
~
5 65 0 0 0 8193 0 0 0
0 6 6 3
10 1 985
A
18 1
A
19 1
B
0 0 0 0
#13106
sword long slender~
a long, slender sword~
A long, slender sword lies on the ground.~
slash~
5 2625 0 0 0 8193 0 0 0
0 3 6 3
4 30000 160
E
sword long slender~
It is a long, slender sword that seems to be made from silver.  The name
"Isha" has been engraved on the hilt.
~
A
18 1
A
19 1
B
0 0 0 0
$~
