#1500
key small~
a small key~
A small key of red rock lies here on the ground.~
~
18 0 0 0 0 1 0 0 0
2 0 0 0
1 10 0
B
0 0 0 0
#1501
pick mining~
a mining pick~
A small pick lies here on the ground.~
~
5 536576 32 0 0 8193 0 0 0
0 2 8 9
10 100 50
B
0 0 0 0
#1502
helm dwarven~
a dwarven helm~
A large dwarven helm lies here on the ground.~
~
9 134742016 0 0 0 17 0 0 0
6 0 0 0
10 1000 90
A
20 -1
B
0 0 0 0
#1503
plate dwarven breast~
a dwarven breast plate~
A dwarven breast plate lies here on the ground.~
~
9 524288 0 0 0 9 0 0 0
8 0 0 0
15 1500 100
A
5 1
B
0 0 0 0
#1504
shield large dwarven~
a large dwarven shield~
A large dwarven shield lies here on the ground.~
~
9 5001217 32 0 0 513 0 0 0
7 0 0 0
20 2000 335
A
13 20
B
0 0 0 0
#1505
coins large pile~
a large pile of coins~
A large pile of coins are piled here.~
~
20 0 0 0 0 1 0 0 0
30000 0 0 0
0 0 0
B
0 0 0 0
#1506
dwarven battle axe~
a large dwarven battle axe~
A large battle axe lies here on the ground.~
~
5 -125931200 8388663 0 0 8193 0 0 0
0 4 7 3
5 10000 385
E
dwarven battle axe~
It is engraved with beautiful dwarven runes.~
A
18 1
A
19 1
A
31 10
B
0 0 0 0
#1507
large stone sarcophagus~
a large stone sarcophagus~
A large stone sarcophagus lies here, the lid fallen on the floor.~
~
15 0 0 0 0 0 0 0 0
1000 1 -1 0
1000 0 1000
B
0 0 0 0
#1508
staff large ancient~
an ancient staff~
A large and intricate staff rests here.~
~
4 835650 0 0 0 16385 0 0 0
25 5 5 64
10 10000 0
B
0 0 0 0
$~
