#15300
key~
the gate key~
The key to the gates of the estate of Lord Vrolok lies here.~
~
18 65537 0 0 0 1 0 0 0
2 0 0 0
5 0 0
B
0 0 0 0
#15301
key old rusty~
an old, rusty key~
An old, rusty key lies here, hidden in the dirt.~
~
18 65537 0 0 0 1 0 0 0
2 0 0 0
1 0 0
B
0 0 0 0
#15302
book~
a book~
A book entitled "Hidden Passages" lies here.~
~
18 65537 0 0 0 1 0 0 0
2 0 0 0
5 0 0
B
0 0 0 0
#15303
key skeleton~
a skeleton key~
A key carved out of bone lies here.~
~
18 65536 0 0 0 1 0 0 0
2 0 0 0
2 0 0
B
0 0 0 0
#15304
key obsidian~
an obsidian key~
A key carved out of black stone lies here.~
~
18 65537 0 0 0 1 0 0 0
2 0 0 0
2 0 0
B
0 0 0 0
#15305
key iron~
a heavy iron key~
An heavy iron vault key lies here.~
~
18 65537 0 0 0 1 0 0 0
2 0 0 0
5 0 0
B
0 0 0 0
#15306
key silver~
a silver key~
A silver key lies here.~
~
18 65537 4096 0 0 1 0 0 0
2 0 0 0
1 0 0
B
0 0 0 0
#15307
key tiny gold 15307~
a tiny gold key~
A tiny gold key lies here.~
~
18 65537 0 0 0 1 0 0 0
2 0 0 0
1 0 0
B
0 0 0 0
#15308
key tungsten~
a tungsten key~
A key made of tungsten lies here.~
~
18 65537 0 0 0 1 0 0 0
2 0 0 0
4 0 0
B
0 0 0 0
#15309
ankh silver~
a silver ankh~
A silver ankh lies here.~
~
18 65537 4096 0 0 1 0 0 0
2 0 0 0
1 0 0
B
0 0 0 0
#15310
rug thick~
a thick rug~
A thick woven rug lies here.~
~
15 0 0 0 0 0 0 0 0
5 0 0 0
10 0 5
E
rug thick~
It looks like there could be something hidden underneath the rug....
~
B
0 0 0 0
#15312
scripture~
a holy scripture~
A scripture of holy power lies here waiting to enlighten you.~
~
2 353 0 0 0 16385 0 0 0
30 3 24 0
1 0 0
B
0 0 0 0
#15314
head boar~
a boar's head~
The head of a boar is here.~
This is the head of a board ... yuck!
~
15 10395 0 0 0 0 0 0 0
50 0 0 0
300 0 50
E
head boar~
There is a brass ring through its nose, and its tusks look vicious.
~
B
0 0 0 0
#15315
hammer lucerne~
a lucerne hammer~
A lucerne hammer lies on the ground.~
~
5 64 0 0 0 8193 0 0 0
0 4 4 6
14 40000 362
A
18 2
A
19 2
B
0 0 0 0
#15316
poleaxe axe~
a heavy poleaxe~
A heavy poleaxe lies here.~
~
5 64 0 0 0 8193 0 0 0
0 4 6 3
16 25000 160
B
0 0 0 0
#15317
coin silver~
a silver coin~
A shiny silver coin lies in the dirt here.~
~
12 65 4096 0 0 16385 0 0 0
0 0 0 0
1 15000 20
A
13 5
B
0 0 0 0
#15318
garter lace~
a lace garter~
A dainty lace garter has been discarded here.~
~
11 0 0 0 0 33 0 0 0
0 0 0 0
1 10000 100
A
14 20
B
0 0 0 0
#15319
violin~
a violin~
An old violin lies here.~
~
4 66 0 0 0 16385 0 0 0
20 1 1 38
5 5000 0
B
0 0 0 0
#15320
wine glass~
a crystal wine glass~
An exquisite wine glass, crafted from lead crystal, has been left here.~
~
17 65 0 0 0 16385 0 0 0
12 1 2 0
20 200 120
B
0 0 0 0
#15321
cleaver bloody~
a bloody cleaver~
A dull cleaver, covered in dried blood, lies here.~
~
5 64 0 0 0 8193 0 0 0
0 4 5 3
14 20000 110
B
0 0 0 0
#15322
potion foaming~
a foaming potion~
A hot, foaming potion sits here.~
~
10 66 0 0 0 1 0 0 0
40 18 34 36
5 12000 1200
B
0 0 0 0
#15323
bracelet tungsten~
a tungsten bracelet~
A bracelet made of a dull, heavy metal lies here.~
~
9 64 0 0 0 4097 0 0 0
3 0 0 0
10 25000 75
A
1 1
A
5 1
B
0 0 0 0
#15324
coat heavy~
a heavy coat~
A thick, heavy coat has been left here.~
~
9 0 0 0 0 1025 0 0 0
15 0 0 0
30 20000 300
B
0 0 0 0
#15325
baton~
the conductor's baton~
A long, thin, white baton lies here.~
~
3 67 0 0 0 16385 0 0 0
20 1 1 30
5 40000 4132
A
18 1
A
19 1
B
0 0 0 0
#15326
music sheet~
sheet music~
A piece of paper with music scribbled on it lies here.~
~
2 0 0 0 0 1 0 0 0
20 38 4 26
3 12000 1200
B
0 0 0 0
#15327
stake wooden~
a long wooden stake~
A long, wooden stake has been stuck into the ground here.~
~
5 0 0 0 0 8193 0 0 0
0 7 2 11
9 10000 60
B
0 0 0 0
#15328
pants tattered~
a tattered pair of pants~
A tattered pair of pants has been left here.~
~
9 524288 0 0 0 33 0 0 0
4 0 0 0
4 12000 50
A
2 1
B
0 0 0 0
#15329
cape black~
a long black cape~
A black cape is in a pile here.~
~
9 64 0 0 0 5 0 0 0
10 0 0 0
6 30000 432
A
23 -3
A
24 -3
B
0 0 0 0
#15330
eye lidless~
the Lidless Eye~
A large, bloodshot eye floats here, staring at you!~
~
1 8784 0 0 0 1 0 0 0
0 0 0 0
0 12000 0
B
0 0 0 0
#15331
talisman moon~
a full-moon talisman~
A talisman made of a disk of white stone lies here.~
~
9 96 0 0 0 5 0 0 0
2 0 0 0
8 30000 70
A
1 1
A
5 1
B
0 0 0 0
#15332
kilt vermillion~
a vermillion kilt~
A tattered red kilt has been left here.~
~
9 532544 0 0 0 33 0 0 0
4 0 0 0
6 90000 172
A
1 1
A
2 2
B
0 0 0 0
#15333
fang~
the Wolf's Fang~
A large canine tooth has been left here.~
~
5 64 0 0 0 8193 0 0 0
0 4 2 11
5 12000 540
A
18 3
A
19 3
B
0 0 0 0
#15334
feather strange~
a strange feather~
A strange brown feather has been carelessly left here.~
~
12 64 0 0 0 16385 0 0 0
0 0 0 0
0 10000 200
A
2 2
A
18 2
B
0 0 0 0
#15335
mask death~
the Mask of Death~
A mask in the shape of Death's head sits here, grinning at you.~
~
9 532819 0 0 0 524289 0 0 0
0 0 0 0
3 250000 1634
A
9 60
A
13 -12
B
0 0 0 0
#15336
scarab jewel broach~
a jewel-encrusted scarab~
A broach in the shape of a beetle sits here.~
~
9 8547 0 0 0 5 0 0 0
5 0 0 0
9 30000 180
A
2 1
A
14 25
B
0 0 0 0
#15337
ring pyrite~
a glittering pyrite ring~
A pale golden ring has been carelessly left here.~
~
9 8385 0 0 0 3 0 0 0
0 0 0 0
3 20000 650
A
3 -5
B
0 0 0 0
#15338
ring pearl~
a large pearl ring~
A gold ring, topped with a large white pearl, has been left here.~
~
9 49256 0 0 0 3 0 0 0
2 0 0 0
3 4000 210
A
18 3
B
0 0 0 0
#15339
jewel fire 39~
a fire jewel~
A blazing red gemstone sits on a velvet cushion here.~
~
12 65 0 0 0 16385 0 0 0
0 0 0 0
8 50000 280
A
1 3
A
2 -2
B
0 0 0 0
#15340
pile gold~
a large pile of gold~
A large pile of gold covers the ground here.~
~
20 0 0 0 0 1 0 0 0
25000 0 0 0
100 0 0
B
0 0 0 0
#15341
ring nose~
a nose ring~
A large brass ring has been left here.~
~
9 524480 0 0 0 524289 0 0 0
0 0 0 0
4 12000 160
A
19 2
B
0 0 0 0
#15342
morningstar star anointed~
an anointed morningstar~
A heavy morningstar, anointed with holy water, lies here.~
~
5 1347 0 0 0 8193 0 0 0
0 10 2 7
18 100000 455
A
18 2
A
19 2
B
0 0 0 0
#15343
knife kukri~
a Kukri knife~
A large knife rests here.~
~
5 0 0 0 0 8193 0 0 0
0 5 3 3
5 10000 160
A
18 1
A
19 1
B
0 0 0 0
#15344
whip leather~
a leather whip~
A long whip made of braided leather lies in a coil here.~
~
5 82 0 0 0 8193 0 0 0
0 4 4 2
5 60000 580
A
18 3
A
19 3
B
0 0 0 0
#15345
tiara silver~
a silver tiara~
A small tiara of silver lies here.~
~
9 527447 4096 0 0 17 0 0 0
5 0 0 0
7 50000 335
A
4 2
A
12 25
B
0 0 0 0
#15346
sandals shimmering~
a pair of shimmering sandals~
A pair of shimmering sandals lies here.~
~
9 524800 0 0 0 65 0 0 0
3 0 0 0
5 160000 62
A
14 -3
B
0 0 0 0
#15347
gown spectral~
a spectral gown~
An gown made of some sheer cloth has been left here.~
~
9 96 0 0 0 1025 0 0 0
12 0 0 0
3 25000 310
E
gown~
As it shimmers in and out of sight you think you spot threads of gold and
silver as well as twinkles of emeralds and sapphires.
~
A
12 19
B
0 0 0 0
#15348
earrings diamond~
a pair of diamond earrings~
A pair of small diamond earrings has been carelessly left here.~
~
9 64 0 0 0 262145 0 0 0
0 0 0 0
4 50000 120
A
3 1
A
6 2
B
0 0 0 0
#15349
sack large~
a large sack~
A large sack has been left here.~
~
15 0 0 0 0 16385 0 0 0
150 0 0 0
10 5000 182
B
0 0 0 0
#15350
corpse child~
a corpse of a child~
The fresh corpse of a young child lies on the ground here.~
~
13 0 0 0 0 1 0 0 0
0 0 0 0
50 1 0
E
corpse child~
He looks extremely pale, and you notice two puncture wounds on his neck.
~
B
0 0 0 0
#15351
necklace diamond~
a diamond necklace~
A necklace of diamonds lies here.~
~
9 65 0 0 0 5 0 0 0
1 0 0 0
10 40000 187
A
24 -3
B
0 0 0 0
#15352
bracelet diamond~
a diamond bracelet~
A diamond bracelet has been left here.~
~
9 66 0 0 0 4097 0 0 0
1 0 0 0
10 45000 95
A
5 2
B
0 0 0 0
#15353
ring regeneration~
the Ring of Regeneration~
A shiny red ring has been left here.~
~
9 8289 0 0 0 3 0 0 0
0 0 0 0
3 90000 552
A
9 20
A
13 -5
B
0 0 0 0
#15354
cape midnight~
the Cape of Midnight~
A large, black cape lies here, absorbing the light around it.~
~
15 10784 0 0 0 5 0 0 0
130 0 0 0
14 60000 540
A
19 2
A
24 -5
B
0 0 0 0
#15355
crown bejewelled~
a bejewelled crown~
A golden crown, decorated with jewels, has been left here.~
~
9 526913 0 0 0 17 0 0 0
5 0 0 0
8 50000 135
A
4 2
A
12 5
B
0 0 0 0
#15356
robe black crimson~
a crimson and black robe~
A black robe, with red lining, lies in a pile here.~
~
9 80 0 0 0 1025 0 0 0
6 0 0 0
10 40000 252
A
1 2
A
5 2
B
0 0 0 0
#15357
dirk blade vampire~
the Vampire Blade~
A dirk with a black blade lies here, draining all the light around it.~
~
5 512 0 0 0 8193 0 0 0
0 3 7 11
14 150000 760
A
5 2
A
19 4
B
0 0 0 0
#15358
plate field black~
a suit of black field plate mail~
A suit of black metal armor has been left here.~
~
9 532692 0 0 0 9 0 0 0
13 0 0 0
20 120000 930
A
18 -5
A
19 2
B
0 0 0 0
#15359
boots spurred~
a pair of spurred boots~
A pair of grey leather boots, with steel spurs at the heels, stands here.~
~
9 524880 0 0 0 65 0 0 0
6 0 0 0
10 45000 190
A
5 2
A
19 1
B
0 0 0 0
#15360
gauntlets spectral~
a pair of spectral gauntlets~
A pair of cold, heavy gauntlets lies here.~
~
11 113 0 0 0 129 0 0 0
0 0 0 0
10 60000 275
A
1 2
A
19 2
A
17 -5
B
0 0 0 0
#15361
hammer despair~
the Hammer of Despair~
A MASSIVE black hammer lies here, sunken halfway into the ground.~
~
5 512 0 0 0 8193 0 0 0
0 3 10 6
20 150000 635
A
5 1
A
19 3
B
0 0 0 0
#15362
cap feathered~
a feathered Lorist's cap~
A green cap with a white feather has been left here.~
~
9 525312 0 0 0 17 0 0 0
3 0 0 0
3 40000 255
A
5 2
A
24 3
B
0 0 0 0
#15363
sleeves silk~
a pair of silk sleeves~
A pair of sleeves woven from fine silk is lying here.~
~
9 573513 0 0 0 257 0 0 0
2 0 0 0
5 40000 240
A
1 1
A
18 3
B
0 0 0 0
#15364
boots tassled~
a pair of tassled boots~
A pair of lizard-skin boots with small tassles stands here.~
~
9 524352 0 0 0 65 0 0 0
6 0 0 0
8 30000 230
A
2 3
B
0 0 0 0
#15365
flute magic~
a magic flute~
A magic flute has been left here.~
~
4 2 0 0 0 16385 0 0 0
26 2 2 7
6 40000 0
B
0 0 0 0
#15366
lyre gold silver~
a gold and silver lyre~
A golden lyre with silver strings has been left here.~
~
4 1024 0 0 0 16385 0 0 0
35 2 2 7
9 80000 57
A
17 -5
A
12 8
B
0 0 0 0
#15367
cloak whirlwind~
a Whirlwind Cloak~
A tattered blue cloak lies here.~
~
9 32874 0 0 0 5 0 0 0
5 0 0 0
9 40000 115
A
2 1
A
19 1
B
0 0 0 0
#15368
jacket~
a Captain's jacket~
A navy blue jacket, adorned with medals, has been left here.~
~
9 524288 0 0 0 9 0 0 0
7 0 0 0
8 30000 115
A
4 1
A
5 1
B
0 0 0 0
#15369
rapier silhouette~
a silhouette rapier~
A thin rapier with a golden hilt lies here.~
~
5 0 0 0 0 8193 0 0 0
0 7 3 3
8 90000 632
A
2 2
A
18 4
B
0 0 0 0
#15370
net golden~
a golden net~
A large golden fishing net lies here.~
~
4 65 0 0 0 16385 0 0 0
35 2 2 42
10 20000 0
B
0 0 0 0
#15371
robe embroidered~
an embroidered robe~
A thick robe, embroidered with arcane runes, lies here.~
~
9 540744 0 0 0 9 0 0 0
8 0 0 0
10 42000 260
A
5 2
A
23 -2
B
0 0 0 0
#15372
bracelet obsidian~
an obsidian bracelet~
A bracelet carved out of black rock has been left here.~
~
9 64 0 0 0 4097 0 0 0
0 0 0 0
3 25000 140
A
12 20
B
0 0 0 0
#15373
staff eldritch~
the Eldritch Staff~
A large staff of great power lies here.~
~
5 1024 0 0 0 8193 0 0 0
0 3 8 7
7 60000 245
A
12 10
A
13 -10
B
0 0 0 0
#15374
grimoire~
the Grimoire~
A large book of magic has been left here.~
~
3 73 0 0 0 16385 0 0 0
40 1 1 10
6 80000 8430
A
12 35
B
0 0 0 0
#15375
shield crusader~
a Crusader's Shield~
A kite shield, with a white cross painted on the front, has been left here.~
~
4 3136 0 0 0 16897 0 0 0
40 1 1 22
8 30000 250
A
17 -10
A
24 -3
B
0 0 0 0
#15376
surcoat sable~
an emblazoned sable surcoat~
A black surcoat, emblazoned with a white rose, lies in a pile here.~
~
9 1120 0 0 0 1025 0 0 0
8 0 0 0
5 50000 260
A
19 2
A
2 -1
B
0 0 0 0
#15377
sash silk white~
a White Silk Sash~
A long sash of white silk has been left here.~
~
9 321 0 0 0 2049 0 0 0
3 0 0 0
2 60000 245
A
2 2
A
12 20
B
0 0 0 0
#15378
sword defender~
the Defender's Sword~
A HEAVY two-handed sword with a silvery blade lies here.~
~
5 0 0 0 0 8193 0 0 0
0 10 3 3
28 160000 1377
A
19 4
A
17 -10
B
0 0 0 0
#15379
ring mercury~
a Mercury Ring~
A small silvery ring lies here.~
~
9 97 0 0 0 3 0 0 0
0 0 0 0
4 40000 252
A
2 3
A
1 -1
B
0 0 0 0
#15380
mask black~
a black mask~
A mask of hard black leather has been left here.~
~
9 524800 0 0 0 524289 0 0 0
0 0 0 0
3 30000 162
A
5 1
A
24 -2
B
0 0 0 0
#15381
bodysuit suit black~
a black bodysuit~
A skin-tight outfit of black cloth lies here.~
~
9 524800 0 0 0 9 0 0 0
6 0 0 0
5 70000 440
A
2 4
A
5 -1
B
0 0 0 0
#15382
stiletto dagger sharp~
a sharp stiletto dagger~
A sharp stiletto dagger has been left here.~
~
5 64 0 0 0 8193 0 0 0
0 5 3 11
3 30000 612
A
18 3
A
19 3
B
0 0 0 0
#15383
shirt olive~
a dark olive shirt~
A shirt made of dark green cloth has been left here.~
~
9 524352 0 0 0 9 0 0 0
8 0 0 0
9 50000 170
A
20 -2
B
0 0 0 0
#15384
wreath flowers~
a wreath of flowers~
A wreath of flowers lies here.~
~
11 64 0 0 0 17 0 0 0
0 0 0 0
2 80000 190
A
12 10
A
24 3
B
0 0 0 0
#15385
skirt olive~
a dark olive skirt~
A skirt made of dark green cloth has been left here.~
~
9 524352 0 0 0 33 0 0 0
7 0 0 0
6 50000 255
A
23 -2
A
24 -2
B
0 0 0 0
#15386
sickle silver~
a silver sickle~
A sickle with a bright silver blade lies on the ground here.~
~
5 67 4096 0 0 8193 0 0 0
0 6 4 3
7 80000 887
A
18 4
A
19 3
B
0 0 0 0
#15387
necklace beaded~
a beaded necklace~
A necklace of beads has been left here.~
~
9 320 0 0 0 32773 0 0 0
3 0 0 0
5 20000 140
A
9 -5
B
0 0 0 0
#15388
mirror truth~
the Mirror of Truth~
A large mirror of silver stands here.~
~
9 524352 0 0 0 16897 0 0 0
1 0 0 0
12 60000 125
A
4 1
A
12 15
B
0 0 0 0
#15389
robe priestly~
a priestly robe~
A white robe has been left here.~
~
9 64 0 0 0 1025 0 0 0
4 0 0 0
10 50000 60
A
12 10
B
0 0 0 0
#15390
cross iron~
an Iron Cross~
A massive cross of iron stands here.~
~
5 64 2048 0 0 8193 0 0 0
0 9 2 6
12 80000 297
A
2 -2
A
12 10
B
0 0 0 0
#15391
key~
a steel gate key~
A newly forged key of steel lies here forgotten.~
~
18 65536 0 0 0 1 0 0 0
0 0 0 0
1 0 0
E
key steel~
This key was obviously forged by the Armourer of Midgaard.
~
B
0 0 0 0
$~
