#1610
sack flour~
a sack of flour~
A lumpy sack of flour is here.~
~
13 0 0 0 0 1 0 0 0
0 0 0 0
50 20 0
E
sack flour~
Doesn't look all that exciting.  It has the words "Property of Shadowdale"
stamped on it.
~
B
0 0 0 0
#1611
ivory scroll~
an ivory scroll~
A scroll with a skull and crossbones drawn on it is lying here.~
~
2 64 0 0 0 16385 0 0 0
2 21 43 0
2 2500 250
B
0 0 0 0
#1612
oily potion~
an oily potion~
An oily looking potion has been dropped here.~
~
10 64 0 0 0 1 0 0 0
8 4 33 0
1 800 80
B
0 0 0 0
#1613
cow bell~
a cow bell~
A cow bell with a strap attached to it has been left here.~
~
9 0 0 0 0 5 0 0 0
5 0 0 0
1 10 550
E
bell cow~
It has a strap attached to it.
~
A
17 -5
A
14 -100
B
0 0 0 0
#1614
potion flour~
a potion with flour in it~
A potion with flour in it has been left here.~
~
10 64 0 0 0 1 0 0 0
6 38 1 0
1 450 45
B
0 0 0 0
#1620
bronze leggings phoenix~
the leggings of the Phoenix~
A pair of bronze leggings are lying on the ground.~
~
9 525313 0 0 0 33 0 0 0
6 0 0 0
1 2050 70
A
5 1
B
0 0 0 0
#1621
vorpal blade~
the Vorpal Blade~
The Vorpal Blade sits here.~
~
5 514 0 0 0 8193 0 0 0
0 1 8 5
10 5000 368
A
18 1
A
19 3
B
0 0 0 0
#1630
sword phoenix~
the Sword of the Phoenix~
The Sword of the Phoenix has been left here.~
~
5 67 0 0 0 8193 0 0 0
2 10 3 3
30 5000 1205
A
19 3
A
18 3
B
0 0 0 0
#1650
hearts candy valentines halloween~
some candy hearts~
Some candy hearts have been scattered here.~
~
10 8454148 0 0 0 1 0 0 0
40 77 36 28
1 0 0
B
0 0 0 0
D3
#1651
bunny chocolate~
a &03chocolate&00 bunny~
A bunny made of &03chocolate&00 sits here.~
~
10 65540 0 0 0 1 0 0 0
40 91 29 77
2 0 0
Z 36599
Z 36598
B
0 0 0 0
#1652
ears funny bunny~
some funny bunny ears~
Some very funny furry things sit on the ground here.~
~
11 65548 0 0 0 17 0 0 0
0 0 0 0
1 100 930
E
ears funny bunny furry~
Cute little furry bunny ears just for you.
~
A
3 3
A
4 3
A
18 2
A
19 2
A
13 20
B
0 0 0 0
#1653
lily flower white~
a white Lily~
A pretty white flower grows here.~
~
4 65548 0 0 0 16385 0 0 0
40 3 3 28
1 0 0
B
0 0 0 0
#1654
tulip purple flower~
a &05 purple&00 Tulip~
A pretty &05purplr&00 Tulip grows here.~
~
4 65548 0 0 0 16385 0 0 0
40 3 3 86
1 0 0
B
0 0 0 0
#1655
candy pixie stick halloween~
a &19&13P&20i&19x&20i&19e &20S&19t&20i&19c&20k&00~
a pixie stick is here on the ground.~
~
10 65540 0 0 0 1 0 0 0
50 52 55 88
1 0 0
B
0 0 0 0
#1656
easter basket~
an easter basket~
A hand woven basket sits here.~
~
15 0 0 0 0 24577 0 0 0
600 1 -1 0
2 1000 600
B
0 0 0 0
#1657
egg easter~
an &09E&10a&11s&12t&08e&13r&00 egg~
&00Something &09c&10o&11l&12o&13r&08f&09u&10l&00 has been dropped here.~
~
12 75497472 0 0 0 1 0 0 0
0 0 0 0
10 0 0
B
0 0 0 0
D300
#1658
floating ring easter eggs~
a floating ring of &09E&10a&11s&12t&08e&13r&00 eggs~
A floating ring of &09E&10a&11s&12t&08e&13r&00 eggs hovers here.~
~
9 0 0 0 0 65537 0 0 0
0 0 0 0
7 1000000 100
A
19 1
A
18 1
B
65540 0 0 0
#1690
cutters link~
a pair of link cutters~
A sharp pair of link cutters snap at you.~
~
13 0 0 0 0 0 0 0 0
0 0 0 0
11 0 0
A
33 51
B
0 0 0 0
#1691
halloween candy~
some halloween candy~
Someone has dropped their Halloween candy here.~
~
10 42008588 0 0 0 1 0 0 0
50 141 0 0
1 0 0
B
0 0 0 0
D5
#1692
halloween candy~
some halloween candy~
Someone has dropped their halloween candy here.~
~
10 42008588 0 0 0 1 0 0 0
50 76 0 0
1 0 0
B
0 0 0 0
D5
#1693
halloween candy~
some halloween candy~
Soneone has dropped their halloween candy here.~
~
10 42008588 0 0 0 1 0 0 0
50 139 0 0
1 0 0
B
0 0 0 0
D5
#1694
halloween candy~
some halloween candy~
Someone has dropped their Halloween candy here.~
~
10 42008588 0 0 0 1 0 0 0
50 138 0 0
1 0 0
B
0 0 0 0
D5
$~
