#16400
wooden sign jungle~
a wooden sign~
A wooden sign sticks out of the ground.~
~
0 0 0 0 0 0 0 0 0
0 0 0 0
50 0 0
E
wooden sign~
             STAY
             OUT,
          QUICKSAND!
~
B
0 0 0 0
#16401
corpse gazelle jungle~
a lifeless body of a Gazelle~
A lifeless body of a Gazelle lays here.~
~
19 67108868 0 0 0 1 0 0 0
24 0 0 0
55 0 72
B
0 0 0 0
#16402
claws velvet jungle~
the Black Velvet Claws~
The claws of a panther lay before you.~
~
5 205173315 32 0 0 8321 0 0 0
0 5 6 8
13 100000 930
A
19 3
A
18 2
A
1 2
A
17 -5
B
0 0 0 0
#16403
Wooden raft jungle~
a Wooden raft~
A wooden raft floats here.~
~
22 67174404 0 0 0 1 0 0 0
0 0 0 0
5 0 0
B
0 0 0 0
#16405
hair leggings fine red jungle~
Fine red hair leggings~
A pile of red hair lays here.~
~
9 208585738 0 0 0 33 0 0 0
3 0 0 0
4 100000 335
A
29 30
A
19 3
B
0 0 0 0
#16406
wod bow~
a Wooden dart~
A Wooden dart lays here.~
~
7 0 0 0 0 1 0 0 0
2 7 2 1
0 0 0
B
0 0 0 0
#16407
bolt~
a bolt~
A bolt is laying here.~
~
6 4 0 0 0 16385 0 0 0
2 4 4 0
10 500 0
B
0 0 0 0
#16408
popcorn pop~
a bag of popcorn~
A bag of popcorn sits here.~
~
19 100728836 0 0 0 1 0 0 0
24 46 138 0
1 1000000 72
B
0 0 0 0
#16409
lipstick lip jungle tube~
&08a tube of lipstick&00~
&08A tube of lipstick is lying here.&00~
~
21 67108872 0 0 0 1 0 0 0
0 0 0 0
1 0 0
B
0 0 0 0
#16410
lipstick tube jungle~
&12a tube of lipstick&00~
&12A tube of Lipstick is laying here.&00~
~
21 67174409 0 0 0 16385 0 0 0
0 0 0 0
0 0 0
B
0 0 0 0
#16411
tube lipstick jungle~
&04a tube of lipstick&00~
&04 A tube of lipstick is lying here.&00~
~
21 67174408 0 0 0 16385 0 0 0
0 0 0 0
0 0 0
B
0 0 0 0
#16412
note~
a note~
A note for you lays here.~
~
16 83951624 0 0 0 1 0 0 0
0 0 0 0
0 0 0
E
note~
HUGHUG   HUGHUG  HUGHUG   HUGHUG  HUGHUGHUGHUGHUG
HUGHUG   HUGHUG  HUGHUG   HUGHUG  HUGHUG   HUGHUG
HUGHUG   HUGHUG  HUGHUG   HUGHUG  HUGHUG   
HUGHUGHUGHUGHUG  HUGHUG   HUGHUG  HUGHUG
HUGHUGHUGHUGHUG  HUGHUG   HUGHUG  HUGHUG   HUGHUGHUG
HUGHUG   HUGHUG  HUGHUG   HUGHUG  HUGHUG   HUGHUG
HUGHUG   HUGHUG  HUGHUGHUGHUGHUG  HUGHUGHUGHUGHUG
HUGHUG   HUGHUG  HUGHUGHUGHUGHUG  HUGHUGHUGHUGHUG

Love Jester
~
B
0 0 0 0
#16413
love note Autumn~
a love note~
A love note sits here.~
~
16 83951616 0 0 0 1 0 0 0
0 0 0 0
0 1 0
E
note~
HUGHUG   HUGHUG  HUGHUG   HUGHUG  HUGHUGHUGHUGHUG
HUGHUG   HUGHUG  HUGHUG   HUGHUG  HUGHUG   HUGHUG
HUGHUG   HUGHUG  HUGHUG   HUGHUG  HUGHUG   
HUGHUGHUGHUGHUG  HUGHUG   HUGHUG  HUGHUG
HUGHUGHUGHUGHUG  HUGHUG   HUGHUG  HUGHUG   HUGHUGHUG
HUGHUG   HUGHUG  HUGHUG   HUGHUG  HUGHUG   HUGHUG
HUGHUG   HUGHUG  HUGHUGHUGHUGHUG  HUGHUGHUGHUGHUG
HUGHUG   HUGHUG  HUGHUGHUGHUGHUG  HUGHUGHUGHUGHUG
Love Jester
~
B
0 0 0 0
#16414
rod pole jungle~
a fishing pole~
A fishing pole is lying here.~
~
28 67108864 0 0 0 16385 0 0 0
0 0 0 0
0 0 0
B
0 0 0 0
#16420
water tub ~
Tub of warm water~
A tub of warm water sits here.~
~
13 0 0 0 0 1 0 0 0
0 0 0 0
0 0 0
B
0 0 0 0
#16421
shirt jungle~
a very clean shirt~
A very clean shirt with the word &25&10ROOKIE&00 laying here.~
~
11 67108864 0 0 0 1025 0 0 0
0 0 0 0
0 0 3150
E
shirt~
&25&10ROOKIE&00
~
A
19 4
A
18 4
A
19 4
A
19 4
A
19 4
A
19 4
B
0 0 0 0
#16423
Fountian~
a small fountain~
A small fountian sits here.~
~
17 0 0 0 0 1 0 0 0
4 4 14 2
10 0 40
B
0 0 0 0
#16432
brownie~
a brownie~
A wrapped piece of brownie is lying here.~
~
19 65540 0 0 0 1 0 0 0
10 50 55 0
0 0 30
B
0 0 0 0
#16433
guide book~
Idiots guide to mudding~
A yellow and black book has been dropped here.~
~
12 65536 0 0 0 16385 0 0 0
0 0 0 0
0 0 1950
A
4 -5
A
3 -5
A
5 -5
B
0 0 0 0
#16435
tree christmas ~
a christmas tree~
A &14brightly &00&03decorated &09C&08h&09r&08i&09s&08t&09m&08a&09s &00&02tree &00&03is standing here.~
~
12 0 0 0 0 0 0 0 0
0 0 0 0
10000 0 0
E
tree christmas~

            &10\ /&00
          &10-->&25&14*&00&10<--&00
            &02/&08o&02\&00
           &02/_\_\&00
          &02/_/_&110&02_\&00
         &02/_&12o&02_\_\_\&00
        &02/_/_/_/_/&10o&02\&00
       &02/&08@&02\_\_\&11@&02\_\_\&00
      &02/_/_/&12O&02/_/_/_/_\&00
     &02/_\_\_\_\_\&13o&02\_\_\&00
    &02/_/&08O&02/_/_/_&10O&02_/_/&08@&02/_\&00
   &02/_\_\_\_\_\_\_\_\_\_\&00
  &02/_/&11o&02/_/_/&12@&02/_/_/&08o&02/_/_/_\&00
           &03[___]&00  

~
B
0 0 0 0
#16437
squirrel stuffed~
a stuffed Grey Squirrel~
A stuffed Grey Squirrel sits here.~
~
13 0 0 0 0 1 0 0 0
0 0 0 0
0 0 0
B
0 0 0 0
#16459
port~
port~
Port~
~
24 67108864 0 0 0 0 0 0 0
16487 -1 10 0
46 0 0
B
0 0 0 0
#16488
cup noodles~
a Cup of Noodles~
A Cup of Noodles sits here.~
~
19 0 0 0 0 1 0 0 0
20 0 0 0
0 0 60
B
0 0 0 0
$~
