#1701
horns~
horns~
A set of horns lies here.~
~
5 0 0 0 0 8193 0 0 0
0 1 7 14
2 10 8
B
0 0 0 0
#1702
milk bladder~
milk bladder~
A milk bladder lies here.~
~
17 0 0 0 0 1 0 0 0
20 20 10 0
1 2 200
B
0 0 0 0
#1703
shovel~
shovel~
A shovel lies here.~
~
5 0 0 0 0 8193 0 0 0
0 2 6 5
2 10 30
B
0 0 0 0
#1704
short sword~
short sword~
A short sword lies here.~
~
5 12288 32 0 0 8193 0 0 0
0 2 7 11
3 30 40
B
0 0 0 0
#1705
hand axe~
hand axe~
A hand axe lies here.~
~
5 12288 32 0 0 8193 0 0 0
0 2 7 3
3 30 40
B
0 0 0 0
#1706
chainmail~
chainmail~
A chainmail shirt lies here.~
~
9 528384 32 0 0 9 0 0 0
6 0 0 0
10 1000 60
A
13 5
B
0 0 0 0
#1707
pick~
pick~
A pick lies here.~
~
5 4222976 32 0 0 8193 0 0 0
0 2 9 9
2 1000 160
A
18 -1
A
19 1
B
0 0 0 0
#1710
box cache~
a box~
This box serves as the firenewts cache.~
~
15 0 0 0 0 1 0 0 0
200 5 -1 0
10 50 200
B
0 0 0 0
#1711
broad axe~
broad axe~
A broad axe lies here.~
~
5 5272128 32 0 0 8193 0 0 0
0 4 6 3
15 600 260
A
18 1
A
19 1
B
0 0 0 0
#1712
leather suit~
leather suit~
A leather suit lies here.~
~
9 524353 0 0 0 9 0 0 0
5 0 0 0
3 1000 105
A
2 1
A
14 10
B
0 0 0 0
#1713
mace~
mace~
A mace lies here.~
~
5 4160 32 0 0 8193 0 0 0
0 3 8 7
10 300 195
A
19 1
B
0 0 0 0
#1714
orange potion~
orange potion~
An orange potion lies here.~
~
10 64 0 0 0 1 0 0 0
10 22 17 28
1 1000 100
B
0 0 0 0
#1715
egg newt~
a newt egg~
A newt egg lies here.~
~
19 0 0 0 0 1 0 0 0
10 0 0 0
1 1 30
B
0 0 0 0
#1720
gold coin~
a single gold piece~
A single gold piece rests here.~
~
20 0 0 0 0 1 0 0 0
1 0 0 0
1 0 0
B
0 0 0 0
#1721
mouse~
a dead mouse~
A dead mouse lies here.~
~
19 0 0 0 0 1 0 0 0
4 30 33 1
1 10 12
B
0 0 0 0
#1722
gem jewel~
an expensive-looking jewel~
This Jewel looks VERY valuable.~
~
4 65 0 0 0 16401 0 0 0
40 3 3 44
5 200 0
E
gem eye jewel~
This Jewel once served as the eye of an Iron Cyclops, and as such has potent
magical properties...
~
B
0 0 0 0
#1723
venom spider~
spider venom~
A vial of black liquid lies here.~
~
4 0 0 0 0 16385 0 0 0
40 1 1 76
2 200 0
E
vial venom~
A small glass vial with a small cork stopper.
~
B
0 0 0 0
#1724
candle~
a blue candle~
A magical Blue Candle flames on command!~
~
3 0 0 0 0 16385 0 0 0
30 1 1 26
2 100 10
B
0 0 0 0
#1725
shield~
a shield~
A bronze shield bearing a crescent moon device has been left here.~
~
9 524288 0 0 0 513 0 0 0
10 0 0 0
15 500 210
A
2 -1
A
13 5
A
19 1
B
0 0 0 0
#1726
painting~
a painting of the Chief~
A painting of the Chief hangs on a wall here.~
~
12 0 0 0 0 16385 0 0 0
0 0 0 0
15 500 130
A
1 -1
A
5 -1
A
13 -10
B
0 0 0 0
#1727
crude stone club~
a crude stone club~
A crude stone club lies here.~
~
5 0 0 0 0 8193 0 0 0
0 6 5 6
18 100 895
A
3 -2
A
19 3
B
0 0 0 0
#1728
bullwhip whip~
a bullwhip whip~
A piece of leather nearly ten feet long has been curled up here.~
~
5 64 0 0 0 8193 0 0 0
0 4 10 2
10 300 1195
A
18 -2
B
0 0 0 0
#1729
belt pouch~
a belt pouch~
A small pouch belt is here.~
~
15 0 0 0 0 2049 0 0 0
100 5 -1 0
10 100 200
A
17 -10
B
0 0 0 0
#1730
plain key~
a plain key~
A plain looking key has been dropped here.~
~
18 65548 0 0 0 1 0 0 0
0 0 0 0
2 0 0
B
0 0 0 0
#1731
sturdy chest~
a sturdy chest~
A sturdy chest made of oak and iron rests here.~
~
15 0 0 0 0 0 0 0 0
1000 15 1730 0
1000 0 1000
B
0 0 0 0
#1732
gold~
a fair number of gold pieces~
A fair number of Gold pieces are scattered here.~
~
20 0 0 0 0 1 0 0 0
100000 0 0 0
5 0 0
B
0 0 0 0
#1733
potion~
a small black bottle~
A small black bottle with a tight glass stopper lies here.~
~
10 0 0 0 0 1 0 0 0
40 115 116 88
2 1000 100
B
0 0 0 0
#1734
jar~
a jar~
This jar is commonly used to hold pickled eggs and other preserved foods.~
~
15 0 0 0 0 1 0 0 0
100 5 -1 0
10 100 100
B
0 0 0 0
#1735
eggs~
some pickled eggs~
Some pickled eggs have fallen out of their jar.~
~
19 0 0 0 0 1 0 0 0
12 30 5 0
1 10 36
E
eggs~
Whew! Whoever eats these will fart up a storm!
~
B
0 0 0 0
#1736
fountain~
the fountain~
A small stone fish spurts water into a stone bowl.~
~
23 0 0 0 0 0 0 0 0
1000 1000 0 0
1000 0 0
B
0 0 0 0
$~
