#1801
staff ice~
the ice staff~
A frozen branch lies on the ground.~
~
5 8314945 0 0 0 8193 0 0 0
0 6 5 7
7 1900 685
A
12 10
A
24 -1
A
18 2
B
0 0 0 0
#1802
wand fire~
a wand of fire~
A glowing ember of wood melts the snow beneath it.~
~
3 835585 0 0 0 16385 0 0 0
20 3 3 5
7 1900 190
B
0 0 0 0
#1803
flaming axe~
a flaming axe~
An axe of blue flame boils the water beneath it.~
~
5 12353 32 0 0 8193 0 0 0
0 2 17 21
14 5000 665
A
13 10
A
18 2
B
0 0 0 0
#1804
shield southwind~
the Shield of the South Wind~
A beautiful shield lies at your feet.~
~
9 524289 0 0 0 513 0 0 0
10 0 0 0
8 24000 370
A
1 2
A
18 2
A
13 10
B
0 0 0 0
#1805
mint sprig~
a sprig of mints~
A sprig of mint sprouts at your feet.~
~
1 65 0 0 0 16385 0 0 0
0 0 -1 0
1 20 1235
A
14 25
A
13 10
A
18 1
B
0 0 0 0
#1806
fuchsia potion~
a fuchsia potion~
A pinkish purple potion is on the floor.~
~
10 0 0 0 0 1 0 0 0
20 15 15 0
1 100 10
B
0 0 0 0
$~
