#18301
key~
a gate key~
A key lies forgotten here~
~
18 1 0 0 0 1 0 0 0
2 0 0 0
6 3000 0
B
0 0 0 0
#18302
mithril blade~
a Mithril Blade~
A blade made from mithril lies here~
~
5 65 0 0 0 8193 0 0 0
0 4 4 3
10 500 150
A
19 1
A
3 1
B
0 0 0 0
#18303
mace flaming~
a flaming mace~
A Flaming mace is here~
~
5 70209 32 0 0 8193 0 0 0
0 4 4 6
7 1000 220
A
12 15
A
3 1
A
18 1
B
0 0 0 0
#18304
lantern glowing~
a glowing lantern~
A glowing lantern lies collecting dust~
~
1 64 0 0 0 16385 0 0 0
0 0 300 0
1 200 300
B
0 0 0 0
#18305
titanium blade~
a Titanium Blade~
A blade made of titanium lies here~
~
5 0 0 0 0 8193 0 0 0
0 3 4 3
10 1000 190
A
19 2
B
0 0 0 0
#18306
Amulet Telva~
Amulet of the god Telva~
An odd looking amulet lies here~
~
9 2393154 0 0 0 32769 0 0 0
5 0 0 0
5 1000 105
A
12 5
A
4 1
A
3 1
B
0 0 0 0
#18307
Sapphire Bracelet~
a Sapphire Bracelet~
A bracelet made from sapphire~
~
9 32768 0 0 0 4097 0 0 0
5 0 0 0
6 1000 85
A
3 1
A
5 1
B
0 0 0 0
#18308
staff redwood~
a Redwood Staff~
A branch from a redwood tree lies here~
~
5 3457089 0 0 0 8193 0 0 0
0 4 4 5
10 1000 130
A
2 1
A
12 10
B
0 0 0 0
#18309
Emerald Ring~
a Small Emerald Ring~
A small emerald ring lies here~
~
9 161 0 0 0 3 0 0 0
3 0 0 0
2 500 65
A
13 5
A
5 1
B
0 0 0 0
#18310
Grey Robe~
a Grey Elven Robe~
A grey robe lies balled in a corner~
~
9 2539617 0 0 0 1025 0 0 0
5 0 0 0
5 500 79
A
4 1
A
12 6
B
0 0 0 0
#18311
Belt Crimson~
a Crimson Belt~
A crimson belt lies here~
~
11 65 0 0 0 2049 0 0 0
0 0 0 0
5 300 60
A
19 1
A
28 -3
B
0 0 0 0
#18312
Mithril Breast Plate~
a Mithril Breast Plate~
A mithril breast plate is here~
~
9 549953 0 0 0 9 0 0 0
5 0 0 0
10 20000 85
A
19 1
B
0 0 0 0
#18313
Helm Mithril~
a Great Mithril Helm~
A helm made from shining mithril sits here~
~
9 549953 0 0 0 17 0 0 0
3 0 0 0
8 15000 105
A
19 1
A
4 1
B
0 0 0 0
#18314
Mithril Leg Plates~
a Pair of Mithril Leg Plates~
A pair of mithril leg plates lies here~
~
9 549953 0 0 0 33 0 0 0
4 0 0 0
6 20000 110
A
19 1
A
1 1
B
0 0 0 0
#18315
Mithril Boots~
Mithril Boots~
A pair of mithril boots lies here~
~
9 550465 0 0 0 65 0 0 0
10 0 0 0
14 20000 160
A
19 1
B
0 0 0 0
#18316
Mithril Gauntlets~
Mithril Gauntlets~
A pair of mithril gauntlets lies here~
~
9 5009473 32 0 0 129 0 0 0
5 0 0 0
9 300 85
A
1 1
A
2 1
B
0 0 0 0
#18317
Mithril Arm Plates~
a Pair of Mithril Arm Plates~
A pair of mithril arm plates lies here~
~
9 5009473 32 0 0 257 0 0 0
5 0 0 0
10 400 115
A
19 1
A
2 1
B
0 0 0 0
#18318
Shield Solamnia~
Shield of Solamnia~
A shield lies here~
~
9 4743425 0 0 0 513 0 0 0
7 0 0 0
15 20000 85
A
28 -3
A
5 1
B
0 0 0 0
#18319
titanium blade~
a titanium blade~
A titanium blade lies here~
~
5 12353 32 0 0 8193 0 0 0
0 4 4 22
9 1500 250
A
19 2
A
3 1
B
0 0 0 0
#18320
Key Red~
a Red Key~
A red key lies here~
~
18 65 0 0 0 16385 0 0 0
2 0 0 0
5 20000 0
B
0 0 0 0
#18321
key blue o18321~
a Blue Key~
A blue key lies here~
~
18 65 0 0 0 16385 0 0 0
2 0 0 0
5 20000 0
B
0 0 0 0
#18322
key purple o18322~
a Purple Key~
A purple key lies here~
~
18 65 0 0 0 16385 0 0 0
2 0 0 0
5 20000 0
B
0 0 0 0
#18323
Key rasberry~
a Rasberry Colored Key~
A Rasberry colored key lies here~
~
18 65 0 0 0 16385 0 0 0
2 0 0 0
5 20000 0
B
0 0 0 0
#18324
Key white~
a White Key~
A white key lies here~
~
18 65 0 0 0 16385 0 0 0
2 0 0 0
5 20000 0
B
0 0 0 0
#18325
Key Bronze~
a Bronze Key~
A Bronze Key lies here~
~
18 65 0 0 0 16385 0 0 0
2 0 0 0
5 20000 0
B
0 0 0 0
#18326
Key Silver~
a Silver Key~
A Silver Key lies here~
~
18 65 4096 0 0 16385 0 0 0
2 0 0 0
5 20000 0
B
0 0 0 0
#18327
Staff Oak~
an Oak Staff~
A branch from an oak tree lies here~
~
5 3137 0 0 0 8193 0 0 0
0 3 4 6
15 25000 110
A
19 1
A
12 5
B
0 0 0 0
#18328
glass ring ~
a small glass ring~
A small circle of glass lies here~
~
11 49217 0 0 0 3 0 0 0
0 0 0 0
2 350 105
A
19 1
A
12 5
A
17 -5
B
0 0 0 0
#18329
Grey Robe~
a Grey Elven Robe~
A grey robe lies balled in a corner~
~
9 3137 0 0 0 1025 0 0 0
3 0 0 0
10 25000 195
A
6 1
A
24 -3
B
0 0 0 0
#18330
crimson belt pouch~
a crimson belt with pouches~
A &01crimson&00 belt lies here.~
~
15 1622113 0 0 0 2049 0 0 0
200 1 -1 0
5 200 390
A
12 15
A
18 1
A
19 1
B
0 0 0 0
#18331
leather soft shirt~
a shirt of soft &07black&00 leather~
Some soft &07black&00 leather lies here.~
~
9 3715072 32 0 0 9 0 0 0
5 0 0 0
3 400 155
A
19 1
A
2 1
A
18 1
B
0 0 0 0
#18332
dagger black thin~
a &07black dagger&00~
A slender dagger has been dropped here.~
~
5 3846209 32 0 0 8193 0 0 0
0 4 4 11
5 500 90
A
2 1
B
0 0 0 0
#18333
Mace Uranium~
a Uranium mace~
A Uranium mace is here~
~
5 279526 0 0 0 8193 0 0 0
0 10 2 6
15 10000 895
A
19 1
A
1 -5
B
0 0 0 0
#18334
Necklace Bead ~
a necklace of prayer beads~
A pile of beads are here~
~
9 7766081 0 0 0 32769 0 0 0
5 0 0 0
2 600 95
A
12 10
A
6 1
B
0 0 0 0
#18335
red onyx bracelet~
a Red Onyx Bracelet~
A bracelet made from Red Onyx~
~
11 65 0 0 0 4097 0 0 0
0 0 0 0
2 500 180
A
19 2
A
17 -4
B
0 0 0 0
#18336
Golden Breast Plate~
a Golden Breast Plate~
A golden breast plate is here~
~
9 525377 0 0 0 9 0 0 0
5 0 0 0
16 8000 85
A
19 1
B
0 0 0 0
#18337
Helm Golden~
a Great Golden Helm~
A helm made from shining gold sits here~
~
9 134743107 0 0 0 17 0 0 0
3 0 0 0
14 15000 75
A
19 1
B
0 0 0 0
#18338
Golden Leg Plates~
a Pair of Golden Leg Plates~
A pair of golden leg plates lies here~
~
9 525377 0 0 0 33 0 0 0
3 0 0 0
14 8000 100
A
19 1
A
14 5
B
0 0 0 0
#18339
Golden Boots~
Golden Boots~
A pair of golden boots lies here~
~
9 525312 0 0 0 65 0 0 0
3 0 0 0
14 20000 75
A
19 1
B
0 0 0 0
#18340
Golden Gauntlets~
Golden Gauntlets~
A pair of golden gauntlets lies here~
~
9 525377 0 0 0 129 0 0 0
3 0 0 0
15 20000 45
A
2 1
B
0 0 0 0
#18341
Golden Arm Plates~
a Pair of Golden Arm Plates~
A pair of golden arm plates lies here~
~
9 525377 0 0 0 257 0 0 0
3 0 0 0
15 20000 75
A
19 1
B
0 0 0 0
#18342
shield strength~
Shield of Strength~
A shield lies here~
~
11 1 0 0 0 513 0 0 0
0 0 0 0
10 1000 350
A
19 2
A
1 2
A
17 -10
B
0 0 0 0
#18343
Thorn~
Black Bladed "Thorn"~
A black bladed sword lies here~
~
5 65 0 0 0 8193 0 0 0
0 4 4 11
10 4000 220
A
19 2
B
0 0 0 0
#18344
shirt crimson leather~
a shirt of &01dark crimson&00 leather~
A &01dark crimson&00 shirt lies here.~
~
11 3702849 0 0 0 9 0 0 0
0 0 0 0
4 500 235
A
19 1
A
13 15
A
17 -5
B
0 0 0 0
#18345
Dragon Talon~
a Dragon Talon~
A large talon lies here~
~
5 530433 32 0 0 8193 0 0 0
0 3 4 3
12 500 120
A
2 1
A
19 1
B
0 0 0 0
#18346
Bloody Mace~
a Bloody Mace~
A Bloody mace is here~
~
5 65 0 0 0 8193 0 0 0
0 5 3 6
15 25000 150
A
19 1
A
1 1
B
0 0 0 0
#18347
symbol alerr~
a Unholy Symbol of Alerr~
An evil looking symbol lies here~
~
9 65 0 0 0 32769 0 0 0
5 0 0 0
3 600 165
A
31 5
A
12 20
B
0 0 0 0
#18348
Bone Bracelet~
a Bone Bracelet~
A bone bracelet lies here in the dirt~
~
9 2625 0 0 0 4097 0 0 0
2 0 0 0
10 300 70
A
19 1
B
0 0 0 0
#18349
Staff Lor~
the Staff of Lor~
A rune covered staff lies here~
~
5 8307009 0 0 0 8193 0 0 0
0 3 6 6
15 400 160
A
19 1
A
12 10
B
0 0 0 0
#18350
pearl earring~
a small pearl earring~
A small pearl lies here.~
~
11 32833 0 0 0 262145 0 0 0
0 0 0 0
1 300 90
A
12 5
A
18 1
A
3 1
B
0 0 0 0
#18351
Rich Robe~
a Rich Robe~
A rich robe lies balled in a corner~
~
9 577 0 0 0 1025 0 0 0
5 0 0 0
10 500 185
A
19 2
B
0 0 0 0
#18352
Diamond Belt~
a Diamond Studded Belt~
A diamond studded belt lies here~
~
9 2625 0 0 0 2049 0 0 0
3 0 0 0
10 100 45
A
1 1
B
0 0 0 0
#18353
Corpse~
a corpse~
A bloody corpse lies here~
~
15 0 0 0 0 1 0 0 0
1000 5 -1 0
1000 20000 1000
B
0 0 0 0
#18354
Corpse~
a skeletal corpse~
A skeletal corpse is here~
~
15 0 0 0 0 0 0 0 0
1000 5 -1 0
1000 10 1000
B
0 0 0 0
#18355
Corpse~
a dying man~
A dying man lies here~
~
15 0 0 0 0 0 0 0 0
1000 5 -1 0
1000 10 1000
B
0 0 0 0
#18356
Chest~
Chest of the gods~
A chest lies forgotten here~
~
15 0 0 0 0 1 0 0 0
150 1 -1 0
1000 10000 150
B
0 0 0 0
#18357
Titanium Breast Plate~
a Titanium Breast Plate~
A titanium breast plate is here~
~
9 535040 0 0 0 9 0 0 0
4 0 0 0
16 100 80
A
19 1
B
0 0 0 0
#18358
Helm Titanium~
a Great Titanium Helm~
A helm made from shining titanium sits here~
~
9 535040 0 0 0 17 0 0 0
4 0 0 0
14 400 60
A
18 1
B
0 0 0 0
#18359
Titanium Leg Plates~
a Pair of Titanium Leg Plates~
A pair of titanium leg plates lies here~
~
9 535040 0 0 0 33 0 0 0
3 0 0 0
14 400 35
A
13 5
B
0 0 0 0
#18360
Titanium Boots~
Titanium Boots~
A pair of titanium boots lies here~
~
9 5074944 32 0 0 65 0 0 0
4 0 0 0
5 500 210
A
18 1
A
2 2
A
19 1
B
0 0 0 0
#18361
Titanium Gauntlets~
Titanium Gauntlets~
A pair of titanium gauntlets lies here~
~
9 535040 0 0 0 129 0 0 0
3 0 0 0
15 500 165
A
1 2
A
19 1
B
0 0 0 0
#18362
Titanium Arm Plates~
a Pair of Titanium Arm Plates~
A pair of titanium arm plates lies here~
~
9 532992 0 0 0 257 0 0 0
3 0 0 0
15 100 75
A
19 1
B
0 0 0 0
#18363
Shield Titanium~
Shield of Titanium~
A shield lies here~
~
9 535040 0 0 0 513 0 0 0
7 0 0 0
15 200 115
A
19 1
B
0 0 0 0
#18364
Elf Cleaver~
Elf Cleaver~
A wicked looking axe lies here~
~
5 10752 0 0 0 8193 0 0 0
0 4 4 3
15 300 120
A
19 1
B
0 0 0 0
#18365
Small Chest~
a Small Chest~
A small chest lies here~
~
15 0 0 0 0 1 0 0 0
120 1 -1 0
10000 1000 120
B
0 0 0 0
#18366
orb black shadow~
a &07black orb&00~
A &07black orb&00 fades into the shadows.~
~
1 97 0 0 0 16385 0 0 0
0 0 -1 0
2 2500 1360
A
19 2
A
1 2
A
18 2
B
0 0 0 0
#18367
red onyx ring~
a Red Onyx Ring~
A little circle of red onyx is on the floor~
~
11 97 0 0 0 3 0 0 0
0 0 0 0
2 1500 220
A
18 1
A
13 15
A
3 1
B
0 0 0 0
#18368
Amethyst Ring~
an Amethyst Ring~
A stone lies here~
~
9 97 0 0 0 3 0 0 0
3 0 0 0
10 200 105
A
19 1
A
5 1
B
0 0 0 0
#18369
Flowing Gold Cloak~
a Flowing Gold Cloak~
A pile of gold cloth is here~
~
9 97 0 0 0 5 0 0 0
10 0 0 0
10 100000 700
A
19 3
A
13 20
B
0 0 0 0
#18370
Glowing Necklace~
a Glowing Necklace~
A necklace glimmers here~
~
9 97 0 0 0 5 0 0 0
10 0 0 0
10 100000 190
A
5 2
B
0 0 0 0
#18371
shimmer mist cloak~
a &07shimmering robe&00~
A pile of shimmering &07black&00 cloth has been left here.~
~
15 97 0 0 0 13 0 0 0
500 1 -1 0
5 1000 775
A
19 2
A
1 2
A
17 -5
B
0 0 0 0
#18372
Winged Helmet~
a Winged Helmet~
A winged helmet lies here~
~
9 524385 0 0 0 17 0 0 0
15 0 0 0
12 100000 620
A
19 3
B
0 0 0 0
#18373
rose black tattoo~
a &07black rose tattoo&00~
A small shimmer beckons to you.~
~
11 97 0 0 0 131073 0 0 0
0 0 0 0
1 500 240
A
19 1
A
18 1
A
12 20
B
0 0 0 0
#18374
slipper shadow~
a pair of &07shadowy slippers&00~
A pair of &07black slippers&00 have been left here.~
~
9 3702881 0 0 0 65 0 0 0
6 0 0 0
2 500 380
A
19 2
A
3 2
A
12 15
B
0 0 0 0
#18375
Gloves Gold 18375~
a Pair of Golden Gloves~
A pair of golden gloves lies here~
~
9 524385 0 0 0 129 0 0 0
12 0 0 0
12 100000 690
A
19 3
A
1 3
B
0 0 0 0
#18376
arm plates god~
the Arm Plates of the Gods~
A pair of arm plates are here~
~
9 524385 0 0 0 257 0 0 0
5 0 0 0
5 600 460
A
19 2
A
13 15
A
9 5
B
0 0 0 0
#18377
Shield God~
Shield of the Gods~
A shield lies here giving off power~
~
9 524385 0 0 0 513 0 0 0
15 0 0 0
14 100000 650
A
19 3
A
1 1
B
0 0 0 0
#18378
Amethyst Belt~
an Amethyst Belt~
An amethyst studded belt lies here~
~
11 97 0 0 0 2049 0 0 0
0 0 0 0
5 500 265
A
5 2
A
19 2
A
17 -3
B
0 0 0 0
#18379
Flowing Black Cloak~
a Flowing Black Robe~
A pile of black cloth lies here~
~
9 97 0 0 0 1025 0 0 0
10 0 0 0
12 10000 170
A
13 10
B
0 0 0 0
#18380
Sapphire Bracelet~
a Sapphire Bracelet~
A large circular piece of sapphire is here~
~
9 97 0 0 0 4097 0 0 0
10 0 0 0
12 100000 1920
A
19 3
A
13 40
B
0 0 0 0
#18381
Turqoise Bracelet~
a Turqoise Bracelet~
A bracelet made from turqoise s here~
~
9 97 0 0 0 4097 0 0 0
10 0 0 0
12 100000 420
A
19 3
B
0 0 0 0
#18382
Scepter God~
Scepter of the Gods~
A sceptre lies collecting dust~
~
9 97 0 0 0 16385 0 0 0
12 0 0 0
12 100000 1280
A
19 3
A
13 30
B
0 0 0 0
#18383
Key~
Dirty Key~
A dirty key lies here~
~
18 65548 0 0 0 16385 0 0 0
2 0 0 0
3 0 0
B
0 0 0 0
#18384
Key~
a small key~
A key lies here~
~
18 65548 0 0 0 16385 0 0 0
2 0 0 0
2 0 0
B
0 0 0 0
#18385
Key~
Iron Key~
A key made of iron lies here~
~
18 0 0 0 0 1 0 0 0
2 0 0 0
3 20000 0
B
0 0 0 0
#18386
Key~
Skull Headed Key~
A key with a skull and bones lies here~
~
18 0 0 0 0 1 0 0 0
2 0 0 0
3 20000 0
B
0 0 0 0
#18387
Key 18387~
Gate Key~
A key lies buried in the dirt~
~
18 0 0 0 0 1 0 0 0
2 0 0 0
3 20000 0
B
0 0 0 0
#18388
key jewelled gate~
Jewelled Key~
A jewelled studded key lies here~
~
18 0 0 0 0 1 0 0 0
2 0 0 0
3 20000 0
B
0 0 0 0
#18389
Key~
Ancient Key~
An ancient looking key lies here~
~
18 0 0 0 0 1 0 0 0
2 0 0 0
3 20000 0
B
0 0 0 0
#18390
Key~
Titanium key~
A titanium key lies here~
~
18 0 0 0 0 1 0 0 0
2 0 0 0
3 20000 0
B
0 0 0 0
#18391
Key~
Blackened key~
A blackened key lies here~
~
18 0 0 0 0 1 0 0 0
2 0 0 0
3 20000 0
B
0 0 0 0
#18392
Key~
Bloody Key~
A key drips with blood~
~
18 0 0 0 0 1 0 0 0
2 0 0 0
3 20000 0
B
0 0 0 0
#18393
Key~
Stone Key~
A piece of stone lies here~
~
18 0 0 0 0 1 0 0 0
2 0 0 0
3 20000 0
B
0 0 0 0
#18394
Key~
Silver Key~
A silver key lies here tarnishing~
~
18 0 0 0 0 1 0 0 0
2 0 0 0
3 20000 0
B
0 0 0 0
#18395
Key~
Gold Key~
A gold key lies here~
~
18 0 0 0 0 1 0 0 0
2 0 0 0
3 20000 0
B
0 0 0 0
#18396
Key Black Heart~
Black Heart~
A black heart lies here pulsing~
~
18 0 0 0 0 1 0 0 0
2 0 0 0
3 20000 0
B
0 0 0 0
#18397
Demons Finger Key~
Demons Finger~
A crooked finger lies here~
~
18 0 0 0 0 1 0 0 0
2 0 0 0
3 20000 0
B
0 0 0 0
#18398
Key~
Key to the temple~
A key lies here on a table~
~
18 0 0 0 0 1 0 0 0
2 0 0 0
3 20000 0
B
0 0 0 0
#18399
Orb of Power Key~
Orb of Power~
An orb lies here glowing~
~
18 0 0 0 0 1 0 0 0
2 0 0 0
3 20000 0
B
0 0 0 0
#18400
Key~
Demon's eye~
An eyeball lies here~
~
18 0 0 0 0 1 0 0 0
2 0 0 0
3 20000 0
B
0 0 0 0
#18401
key skull~
a skull~
A skull lies here grinning~
~
18 0 0 0 0 1 0 0 0
2 0 0 0
3 20000 0
B
0 0 0 0
#18402
sweater~
a low cut sweater~
A soft piece of cloth lies here.~
~
11 65 0 0 0 9 0 0 0
0 0 0 0
5 100 190
A
6 3
B
0 0 0 0
#18403
tie stained~
a food stained tie~
An ugly and dirty piece of cloth lies here.~
~
11 128 0 0 0 32769 0 0 0
0 0 0 0
3 10 5820
A
13 -100
B
0 0 0 0
#18404
fountain~
a fountain~
A small stone fountain stands here.~
~
23 0 0 0 0 0 0 0 0
1000 1000 0 0
1000 0 0
B
0 0 0 0
#18405
chest iron~
an iron chest~
A small iron chest sits in the corner.~
~
15 0 0 0 0 0 0 0 0
500 15 18384 0
1000 2000 560
A
19 1
B
0 0 0 0
#18406
loot~
some loot~
A pile of loot has been hidden here.~
~
20 0 0 0 0 1 0 0 0
5000 0 0 0
7 0 0
B
0 0 0 0
#18407
Sword~
Two Handed Sword~
A sword lies here rusting~
~
5 65 0 0 0 8193 0 0 0
0 2 5 3
14 200 80
A
19 1
B
0 0 0 0
#18408
Black Robe~
Black Robe~
A black robe lies there~
~
9 4115137 0 0 0 9 0 0 0
6 0 0 0
10 400 110
A
12 10
A
3 1
B
0 0 0 0
#18409
Stone Ring~
a stone ring~
A ring of stone lies here~
~
9 2017985 0 0 0 3 0 0 0
5 0 0 0
3 200 65
A
12 10
B
0 0 0 0
#18410
white hooded cloak~
a white hooded cloak~
A long white cloak has been left here.~
~
9 2542657 0 0 0 5 0 0 0
3 0 0 0
7 100 43
A
12 7
B
0 0 0 0
#18411
fish filet~
a fish filet~
A fish filet lies here~
~
19 0 0 0 0 1 0 0 0
12 0 0 0
7 200 36
B
0 0 0 0
#18412
devil ribcage~
a devil's ribcage~
A bloody ribcage lies here~
~
9 539201 32 0 0 9 0 0 0
5 0 0 0
12 100 105
A
19 1
A
13 5
B
0 0 0 0
#18413
devil's tail~
a devil's tail~
A devil's spiked tail lies here~
~
5 12865 32 0 0 8193 0 0 0
0 4 3 2
15 300 390
A
18 4
B
0 0 0 0
#18414
Silvery Sword~
a silvery sword~
A silvery sword lies here~
~
5 65 0 0 0 8193 0 0 0
0 5 4 3
12 300 110
B
0 0 0 0
#18415
Huge Axe~
a Huge Axe~
A huge axe lies here forgotten~
~
5 4993089 32 0 0 8193 0 0 0
0 5 4 5
16 200 170
A
19 1
B
0 0 0 0
#18416
minor highlord armor~
Minor highlord's armor~
A set of a dragon highlord's armor sits here~
~
9 524865 0 0 0 9 0 0 0
6 0 0 0
13 700 130
A
19 1
A
1 1
B
0 0 0 0
#18417
helm dragon shaped~
a helm shaped like a dragon's head~
A helm shaped like a dragon lays on a table here~
~
9 524865 0 0 0 17 0 0 0
4 0 0 0
12 600 100
A
19 1
A
13 5
B
0 0 0 0
#18418
Halberd Black~
a black halberd~
A black halberd lies here rusting~
~
5 65 0 0 0 8193 0 0 0
0 4 4 3
12 300 220
A
19 2
B
0 0 0 0
#18419
Coins~
a pile of coins~
A pile of coins lie here~
~
20 0 0 0 0 1 0 0 0
5000 0 0 0
5 0 0
B
0 0 0 0
#18420
lynx hide~
a lynx hide~
A lynx hide lies here~
~
9 524288 0 0 0 9 0 0 0
5 0 0 0
8 400 25
B
0 0 0 0
#18421
Wyvern Hide~
a wyvern hide~
A wyvern hide lies here~
~
9 524288 0 0 0 9 0 0 0
5 0 0 0
8 400 25
B
0 0 0 0
#18422
Dragon Tooth~
a dragon's tooth~
A dragon's incisor lies here~
~
5 513 0 0 0 8193 0 0 0
0 7 3 1
13 20000 320
A
19 2
B
0 0 0 0
#18423
Scale Mail~
Scale mail~
Dragon scales have been forged into a suit of armor~
~
9 528449 32 0 0 9 0 0 0
10 0 0 0
14 10000 190
A
19 1
A
1 1
B
0 0 0 0
#18424
boots darkness~
Boots of Darkness~
A set of boots made out of darkness itself lies here~
~
9 526913 0 0 0 65 0 0 0
12 0 0 0
12 30000 370
A
19 2
A
1 1
B
0 0 0 0
#18425
Hoopak~
a hoopak~
A hoopak lies here~
~
5 65 0 0 0 8193 0 0 0
0 3 5 2
12 2000 110
A
19 1
B
0 0 0 0
#18426
Protractor~
a protractor~
A protractor lies here~
~
9 524353 0 0 0 9 0 0 0
4 0 0 0
5 1000 20
B
0 0 0 0
#18427
Mithril Axe~
a Mithril Axe~
A mithril axe lies here~
~
5 12323 32 0 0 8193 0 0 0
0 4 5 5
13 10000 170
A
19 1
B
0 0 0 0
#18428
LongBow Elven~
an elven longbow~
A finely crafted longbow lays here.~
~
5 12323 32 0 0 8193 0 0 0
0 5 5 7
10 15000 245
A
19 1
B
0 0 0 0
#18429
Mithril Longsword~
a mithril longsword~
A mithril longsword lies here~
~
5 12323 32 0 0 8193 0 0 0
0 5 5 3
14 25000 345
A
19 2
B
0 0 0 0
#18430
Pitchfork~
a pitchfork~
A pitchfork lies here in a pile of hay~
~
5 12323 32 0 0 8193 0 0 0
0 5 5 3
10 10000 245
A
19 1
B
0 0 0 0
#18431
cloak dragon brass~
a cloak made from a brass dragon's hide~
A cloak made from a brass dragon's corpse lies here~
~
9 65 0 0 0 32773 0 0 0
10 0 0 0
10 250000 260
A
19 2
B
0 0 0 0
#18432
Helm Copper Dragon~
a helm made from a copper dragon's hide~
A helm made from a copper dragon's corpse lies here~
~
9 524353 0 0 0 17 0 0 0
10 0 0 0
10 25000 260
A
19 2
B
0 0 0 0
#18433
gauntlets bronze dragon~
Gauntlets made from bronze dragon hide~
Gauntlets made from a bronze dragon's corpse~
~
9 524353 0 0 0 129 0 0 0
12 0 0 0
10 30000 330
A
19 1
A
1 2
B
0 0 0 0
#18434
silver dragon soul~
the soul of a silver dragon~
A silver dragon's soul is trapped here~
~
9 65 0 0 0 16385 0 0 0
0 0 0 0
6 40000 230
A
19 2
A
1 1
A
18 1
B
0 0 0 0
#18435
gold dragon breast plate~
Breast plate made from gold dragon hide~
A large chunk of dragon scales is here~
~
9 524353 0 0 0 9 0 0 0
15 0 0 0
15 50000 460
A
19 2
B
0 0 0 0
#18436
Solamnic Breast Plate~
a Solamnic Breast Plate~
A breast plate bearing the symbol of a rose is here~
~
9 7109632 32 0 0 9 0 0 0
10 0 0 0
16 20000 160
A
19 1
B
0 0 0 0
#18437
Helm Solamnic~
a Great Solamnic Helm~
A helm made from blue steel sits here~
~
9 7109632 32 0 0 17 0 0 0
10 0 0 0
14 15000 250
A
19 1
A
1 2
B
0 0 0 0
#18438
Solamnic Leg Plates~
a Pair of Solamnic Leg Plates~
A pair of solamnic leg plates lies here~
~
9 7109632 32 0 0 33 0 0 0
10 0 0 0
14 20000 190
A
19 1
A
1 1
B
0 0 0 0
#18439
blue steel boots~
Boots of Blue Steel~
A pair of steel boots lies here~
~
9 527360 0 0 0 65 0 0 0
10 0 0 0
14 20000 160
A
19 1
B
0 0 0 0
#18440
Solamnic Gauntlets~
Solamnic Gauntlets~
A pair of solamnic gauntlets lies here~
~
9 7109632 32 0 0 129 0 0 0
10 0 0 0
15 20000 250
A
1 2
A
19 1
B
0 0 0 0
#18441
Solamnic Arm Plates~
a Pair of Solamnic Arm Plates~
A pair of steel arm plates lies here~
~
9 7109632 32 0 0 257 0 0 0
10 0 0 0
15 20000 160
A
19 1
B
0 0 0 0
#18442
shield huma~
Shield of Huma~
A shield bearing the symbol of huma lies here~
~
9 527360 0 0 0 513 0 0 0
10 0 0 0
15 20000 260
A
19 2
B
0 0 0 0
#18443
Wyrmsbane~
Wyrmsbane~
A mighty looking sword lies here~
~
5 5009473 32 0 0 8193 0 0 0
0 5 5 12
15 20000 325
A
1 1
A
18 2
B
0 0 0 0
#18444
Cloak Dark Queen~
the &07Cloak of the Dark Queen&00~
A &07cloak&00 lies here.~
~
11 65 0 0 0 5 0 0 0
0 0 0 0
5 20000 260
A
17 -10
A
19 2
B
0 0 0 0
#18445
Robes Raistlin~
Raistlin's Robes~
A pile of black cloth lies here~
~
9 526659 0 0 0 13 0 0 0
8 0 0 0
10 300 180
A
12 10
A
13 10
B
0 0 0 0
#18446
raistlin skull~
Raistlin's Skull~
A skull lies here~
~
9 526659 0 0 0 16385 0 0 0
8 0 0 0
10 100 240
A
18 2
A
19 1
B
0 0 0 0
$~
