#19101
ring earth~
the earth ring~
A dark ring which seems to absorb all the light around it lies here.~
~
11 256 0 0 0 3 0 0 0
0 0 0 0
2 100 60
A
3 1
A
4 1
B
0 0 0 0
#19102
breastplate stoney breast plate~
a stoney breastplate~
A breastplate made of the stone from deep within the earth lies here.~
~
9 524288 0 0 0 9 0 0 0
5 0 0 0
10 200 55
A
5 1
B
0 0 0 0
#19103
dagger fiery~
a fiery dagger~
A dagger made of fire crackles mysteriously here.~
~
5 1 0 0 0 8193 0 0 0
0 4 4 11
4 400 150
A
2 2
B
0 0 0 0
#19104
flame red scarf~
a flame &08red&00 scarf~
A scarf made of ethereal red fiber lies neatly folded on the ground here.~
~
11 1 0 0 0 2053 0 0 0
0 0 0 0
1 300 90
A
5 2
B
0 0 0 0
#19105
boots wind~
the wind boots~
A pair of boots that look fast standing still are here.~
~
9 524352 0 0 0 65 0 0 0
3 0 0 0
4 200 105
A
2 2
B
0 0 0 0
#19106
helmet hurricane~
a humming hurricane helmet~
A helmet that looks like it has weathered many storms has been set here.~
~
9 524290 0 0 0 17 0 0 0
4 0 0 0
5 300 250
A
23 -4
A
4 1
B
0 0 0 0
#19107
sword lightning bolt~
a sparking lightning sword~
A lightning bolt fashioned into a sword spits sparks here.~
~
5 3 0 0 0 8193 0 0 0
0 6 3 3
7 400 180
A
18 -1
A
3 1
B
0 0 0 0
#19108
shield electric~
an electric shield~
A shield made entirely of energy buzzes here.~
~
9 524290 0 0 0 513 0 0 0
7 0 0 0
8 300 115
A
1 -1
A
5 1
B
0 0 0 0
#19109
girth icy~
an icy girth~
A girth made of magical ice has been left here.~
~
11 0 0 0 0 2049 0 0 0
0 0 0 0
5 200 90
A
5 -2
B
0 0 0 0
#19110
cloak waterfall~
a waterfall cloak~
A cloak fashioned from a small magical waterfall is here.~
~
11 0 0 0 0 5 0 0 0
0 0 0 0
5 300 120
A
2 2
A
1 1
B
0 0 0 0
#19111
amulet elemental~
an elemental amulet~
An amulet depicting fire, water, lightning, earth, and air lies here.~
~
11 1 0 0 0 32769 0 0 0
0 0 0 0
2 350 280
A
23 -5
A
3 1
B
0 0 0 0
#19112
bracelet elemental~
an elemental bracelet~
A bracelet made of elemental magic lies here.~
~
11 49152 0 0 0 4097 0 0 0
0 0 0 0
2 600 220
A
12 25
B
0 0 0 0
#19113
armbands platinum bands~
some platinum arm bands~
A pair of platinum arm bands, once worn by the Cyclops, lie here.~
~
9 524288 0 0 0 257 0 0 0
4 0 0 0
3 300 140
A
1 1
A
4 -2
B
0 0 0 0
#19114
legbands platinum bands~
some platinum leg bands~
A pair of platinum leg bands, once worn by the Cyclops, lie here.~
~
9 524288 0 0 0 33 0 0 0
4 0 0 0
4 300 140
A
2 1
A
3 -2
B
0 0 0 0
#19115
wand~
elemental wand of fire~
A fire wand lies forgotten on the ground.~
~
3 1 0 0 0 16385 0 0 0
15 1 1 26
2 1900 190
B
0 0 0 0
#19116
staff ice~
an ice staff~
A ice staff lies forgotten on the ground.~
~
3 1 0 0 0 16385 0 0 0
20 1 1 56
5 1900 190
B
0 0 0 0
#19117
staff earthquake~
elemental staff of earthquake~
A earthquake staff lies forgotten on the ground.~
~
3 1 0 0 0 16385 0 0 0
20 1 1 23
4 100 10
B
0 0 0 0
#19118
wand air wind~
elemental wand of wind and air~
An air wand lies forgotten on the ground.~
~
3 1 0 0 0 16385 0 0 0
10 1 1 52
5 200 20
B
0 0 0 0
#19119
wand~
elemental wand of lightning~
A lightning wand lies forgotten on the ground.~
~
3 1 0 0 0 16385 0 0 0
9 1 1 30
2 200 20
B
0 0 0 0
#19120
stone club~
a stone club~
A large stone club lies on the ground.~
~
5 64 0 0 0 8193 0 0 0
0 1 12 7
16 1000 50
A
5 1
B
0 0 0 0
#19121
lode load lodestone loadstone stone~
a lodestone~
A dull red rock lies here amid the weeds.~
~
3 0 0 0 0 16385 0 0 0
15 1 1 38
1 600 60
B
0 0 0 0
#19122
lava lamp~
a lava lamp~
A lantern which glows with a red glowing light has been dumped.~
~
1 1 0 0 0 1 0 0 0
0 0 50 0
4 100 50
B
0 0 0 0
#19123
energy scroll~
an energy scroll~
A scroll of energy replacement lies here.~
~
2 2 0 0 0 1 0 0 0
10 55 0 0
2 2100 210
B
0 0 0 0
#19124
water jug~
a water jug~
A large but surprisingly light jug of water stands here.~
~
17 0 0 0 0 1 0 0 0
150 150 0 0
5 100 1500
B
0 0 0 0
#19125
magic dust~
magic dust~
A pile of dust of appearance has gathered here.~
~
27 0 0 0 0 1 0 0 0
20 19 0 0
1 100 10
B
0 0 0 0
#19126
flame lance~
a flame lance~
A lance of blue flame burns the ground around it.~
~
5 1 0 0 0 8193 0 0 0
0 2 15 22
5 700 675
A
13 -20
A
18 2
B
0 0 0 0
#19127
icicle dagger ice~
an icicle~
A glowing icicle dagger lies here amid a patch of frost.~
~
5 1 0 0 0 8193 0 0 0
0 7 3 11
2 400 350
A
19 2
A
1 -1
B
0 0 0 0
#19128
avalanche~
the Avalanche~
An avalanche is about to crush you!~
~
5 64 0 0 0 8193 0 0 0
0 1 30 6
15 300 225
A
18 -1
B
0 0 0 0
#19129
star morning~
the Morning Star~
A chain with a star on the end lies here.~
~
5 1 0 0 0 8193 0 0 0
0 6 3 11
10 400 375
A
23 -5
A
17 -3
B
0 0 0 0
#19130
shock whip~
the Shock Whip~
A whip hums innocently too itself.~
~
5 2 0 0 0 8193 0 0 0
0 4 4 2
5 500 310
A
19 2
A
1 -2
B
0 0 0 0
#19131
elixir anti~
anti-cyclops elixir~
An elixir to ward off cyclopi has been bought then left behind here.~
~
10 0 0 0 0 1 0 0 0
15 29 0 0
2 100 10
B
0 0 0 0
$~
