#2000
spear jagged~
a jagged spear~
A jagged spear has been left here.~
~
5 0 0 0 0 8193 0 0 0
3 2 5 22
15 4000 20
B
0 0 0 0
#2001
dagger silver~
a silver dagger~
A silver dagger is lying here.~
~
5 0 4096 0 0 8193 0 0 0
2 2 4 11
10 1000 10
B
0 0 0 0
#2002
knife tooth dragon~
a dragon's tooth knife~
A dangerous looking knife made from a dragon's tooth has been left here.~
~
5 0 0 0 0 8193 0 0 0
2 3 5 11
8 10000 80
A
2 1
B
0 0 0 0
#2003
bracelet dragon~
a dragon skin bracelet~
A scaly bracelet lies on the ground.~
~
9 0 0 0 0 4097 0 0 0
6 0 0 0
10 4000 40
B
0 0 0 0
#2004
belt silk black~
a black silk belt~
A black belt made of the finest silk is hanging here.~
~
9 0 0 0 0 2049 0 0 0
6 0 0 0
25 1000 130
A
5 2
B
0 0 0 0
#2010
belt silk white~
a white silk belt~
A white belt made of the finest silk is hanging here.~
~
9 0 0 0 0 2049 0 0 0
6 0 0 0
25 1000 130
A
1 2
B
0 0 0 0
#2011
bracelet platinum~
a platinum bracelet~
A tarnished platinum bracelet has been dropped here.~
~
9 1 0 0 0 4097 0 0 0
7 0 0 0
5 5000 55
B
0 0 0 0
#2020
symbol holy~
a holy symbol~
A golden holy symbol is here.~
~
9 1 131584 0 0 16389 0 0 0
4 0 0 0
2 5000 110
A
12 15
B
0 0 0 0
#2021
robe black~
a plain black robe~
A black robe is hanging on a hook on the wall.~
~
9 0 0 0 0 1025 0 0 0
5 0 0 0
3 5000 85
A
19 1
B
0 0 0 0
#2022
sword emerald~
an emerald sword~
An emerald long sword is leaning against the wall.~
~
5 0 0 0 0 8193 0 0 0
1 3 6 3
24 20000 60
B
0 0 0 0
#2023
club stone~
a stone club~
A heavy looking stone club is here.~
~
5 0 0 0 0 8193 0 0 0
4 3 5 8
18 75 50
B
0 0 0 0
#2024
ring diamond~
a diamond ring~
A diamond ring lies gleaming on the ground.~
~
9 67108864 0 0 0 3 0 0 0
4 0 0 0
6 50000 645
A
18 3
A
19 3
A
14 15
A
33 39
A
2 1
B
0 0 0 0
#2030
ring copper~
a copper ring~
A copper ring is here.~
~
9 0 0 0 0 3 0 0 0
1 0 0 0
1 10000 95
A
4 2
B
0 0 0 0
#2031
key steel~
a steel key~
A steel key.~
~
18 0 0 0 0 1 0 0 0
0 0 0 0
1 500 0
B
0 0 0 0
#2032
key ruby~
a ruby key~
A ruby key.~
~
18 0 0 0 0 1 0 0 0
0 0 0 0
1 500 0
B
0 0 0 0
#2033
key white~
a white key~
A white key.~
~
18 0 0 0 0 1 0 0 0
0 0 0 0
1 500 0
B
0 0 0 0
#2034
key grey~
a grey key~
A grey key is resting on the ground here.~
~
18 0 0 0 0 1 0 0 0
0 0 0 0
1 500 0
B
0 0 0 0
#2037
key stone 2037~
a stone key~
A stone key.~
~
18 0 0 0 0 1 0 0 0
0 0 0 0
1 500 0
B
0 0 0 0
#2040
key black~
a black key~
A black key.~
~
18 0 0 0 0 1 0 0 0
0 0 0 0
1 500 0
B
0 0 0 0
#2041
key platinum~
a platinum key~
A platinum key.~
~
18 0 0 0 0 1 0 0 0
0 0 0 0
1 500 0
B
0 0 0 0
#2042
shield crested~
a crested shield~
A large crested shield draws your attention.~
~
9 524288 0 0 0 513 0 0 0
8 0 0 0
20 20000 100
A
5 1
B
0 0 0 0
#2043
wand golden~
a golden wand~
A golden wand has been dropped here.~
~
3 1 0 0 0 16385 0 0 0
25 2 2 25
5 1000 100
B
0 0 0 0
#2044
staff silver~
a silver staff~
A silver staff.~
~
4 65 4096 0 0 16385 0 0 0
25 2 2 28
5 1000 0
B
0 0 0 0
#2045
staff dragon~
the staff of the dragon~
A powerful oak staff has been left here.~
~
4 65 0 0 0 16385 0 0 0
25 10 10 6
5 10000 0
B
0 0 0 0
#2046
mail scale~
scale mail~
A set of scale mail has been abandoned here.~
~
9 524289 0 0 0 9 0 0 0
8 0 0 0
20 10000 350
A
13 20
B
0 0 0 0
#2050
staff black~
a black staff~
You notice the faint outline of a staff.~
~
4 513 0 0 0 16385 0 0 0
30 3 3 25
25 7500 0
B
0 0 0 0
#2051
potion cyan~
a cyan potion~
A small cyan potion has been left here.~
~
10 0 0 0 0 1 0 0 0
30 4 27 0
1 4000 400
B
0 0 0 0
#2052
potion magenta~
a magenta potion~
A magenta potion.~
~
10 128 0 0 0 1 0 0 0
30 15 34 0
1 2000 200
B
0 0 0 0
#2054
gauntlets spiked~
a pair of spiked gauntlets~
A pair of spiked gauntlets.~
~
9 524353 0 0 0 129 0 0 0
4 0 0 0
10 5000 110
A
19 1
A
1 1
B
0 0 0 0
#2060
scimitar golden~
a golden scimitar~
A golden scimitar.~
~
5 1 0 0 0 8193 0 0 0
1 3 5 3
10 4000 110
A
3 1
A
4 1
B
0 0 0 0
#2061
brooch diamond~
a diamond brooch~
A diamond brooch.~
~
9 64 0 0 0 32769 0 0 0
4 0 0 0
2 1000 240
A
12 25
B
0 0 0 0
#2070
scroll~
a runed scroll~
A runed scroll.~
~
2 64 0 0 0 16385 0 0 0
30 1 34 67
1 5000 500
B
0 0 0 0
#2071
gloves dragon~
a pair of dragon skin gloves~
A pair of dragon skin gloves are lying on the ground.~
~
9 524288 0 0 0 129 0 0 0
6 0 0 0
5 4000 200
A
2 2
A
13 10
B
0 0 0 0
#2075
helm dragon~
a helm of dragon kind~
A helm made of a dragon's skull is lying on the ground.~
~
9 134742016 0 0 0 17 0 0 0
8 0 0 0
15 3000 90
A
13 5
B
0 0 0 0
#2076
fur cloak~
a fur cloak~
A large mound of fur is lying here.~
~
9 0 0 0 0 1025 0 0 0
6 0 0 0
10 2500 170
A
1 1
A
18 1
A
19 1
B
0 0 0 0
#2080
leggings dragon scale~
a pair of dragon scale leggings~
A pair of dragon scale leggings is lying on the ground.~
~
9 524288 0 0 0 33 0 0 0
7 0 0 0
15 3500 55
B
0 0 0 0
#2081
sleeves dragon scale~
a set of dragon scale sleeves~
A set of dragon scale sleeves is lying on the ground.~
~
9 524288 0 0 0 257 0 0 0
7 0 0 0
12 3000 155
A
18 1
A
19 1
B
0 0 0 0
#2085
whip dragon tail~
a dragon tailed whip~
A dragon tailed whip is lying on the ground.~
~
5 514 0 0 0 8193 0 0 0
7 4 5 4
14 4000 210
A
18 1
A
19 1
B
0 0 0 0
#2086
hammer copper~
a copper hammer~
A copper hammer is lying on the ground.~
~
5 0 0 0 0 8193 0 0 0
4 3 5 8
12 3000 50
B
0 0 0 0
#2097
key skeleton~
a skeleton head key~
A key with a grinning skeleton head lies here.~
~
18 0 0 0 0 1 0 0 0
0 0 0 0
1 500 0
B
0 0 0 0
#2099
key gold tarnished~
a tarnished gold key~
A tarnished gold key lies here.~
~
18 0 0 0 0 1 0 0 0
0 0 0 0
1 500 0
B
0 0 0 0
$~
