#20501
key gatekey~
a gate key~
A cast iron key lays here.~
~
18 4 0 0 0 16385 0 0 0
2 0 0 0
2 1 0
B
0 0 0 0
#20502
key ornate~
a very ornate key~
A very ornate key lays here.~
~
18 4 0 0 0 16385 0 0 0
2 0 0 0
2 1 0
B
0 0 0 0
#20503
stump tree~
an old tree stump~
A knotted old tree stump is here.~
~
15 0 0 0 0 0 0 0 0
1000 15 20504 0
30 1 1000
B
0 0 0 0
#20504
key green~
a tiny green key~
A tiny green key is here.~
~
18 4 0 0 0 16385 0 0 0
2 0 0 0
2 1 0
B
0 0 0 0
#20505
locker foot footlocker~
a footlocker~
A long rectangular footlocker is here.~
~
15 0 0 0 0 0 0 0 0
1000 15 20502 0
1 1 1000
B
0 0 0 0
#20506
egg~
a golden Kenku egg~
A shiny golden Kenku egg lays here.~
~
8 0 0 0 0 1 0 0 0
0 0 0 0
5 10000 0
B
0 0 0 0
#20507
nightstand stand~
a nightstand~
A small nightstand is standing here.~
~
15 0 0 0 0 0 0 0 0
100 5 -1 0
1 1 100
B
0 0 0 0
#20508
clover four~
a four leaf clover~
A tiny four-leaf clover is here.~
~
12 1344 0 0 0 16385 0 0 0
0 0 0 0
2 5000 180
A
4 2
A
3 2
B
0 0 0 0
#20509
coin gold~
a huge pile of gold is hidden here.~
A huge pile of gold~
~
20 0 0 0 0 1 0 0 0
12485 0 0 0
1 1 0
B
0 0 0 0
#20510
coin gold~
a small pile of gold~
A small pile of gold is here.~
~
20 0 0 0 0 1 0 0 0
2000 0 0 0
1 1 0
B
0 0 0 0
#20511
bow ~
a kenku bow~
A kenku bow lays forgotten here.~
~
5 0 0 0 0 8193 0 0 0
0 3 6 11
5 1000 130
A
2 1
A
18 1
B
0 0 0 0
#20512
kenku long sword~
a kenku longsword~
A curved kenku longsword is here.~
~
5 0 0 0 0 8193 0 0 0
0 4 4 3
11 2000 60
B
0 0 0 0
#20513
staff rod Kenku metal~
the Kenku staff~
A long metal rod lays here.~
~
5 64 0 0 0 8193 0 0 0
0 5 6 6
12 12000 655
A
18 2
A
19 2
B
0 0 0 0
#20514
coin gold~
a large pile of gold~
A large pile of gold is here.~
~
20 0 0 0 0 1 0 0 0
12453 0 0 0
1 1 0
B
0 0 0 0
#20515
sign~
a sign~
A small wooden sign is staked firmly in the ground.~
~
12 0 0 0 0 0 0 0 0
0 0 0 0
1 1 0
E
sign~
  +==========================================================+
  0                                                          0 
  0                       The Kenku Keep                     0 
  0                                                          0 
  0        WARNING: This area is for upper levels only.      0 
  0              Idealy for levels 15+ Please bear with      0 
  0              me as this is the first area I've ever      0 
  0              done. If you like it, please tell me.       0 
  0                                                          0 
  0                                        -Thanatos         0
  +==========================================================+
~
B
0 0 0 0
$~
