#20601
scale eye~
Scale of the enforcer~
A brown scale glitters somewhat in the lighting~
~
9 1585152 32 0 0 9 0 0 0
8 0 0 0
5 2000 170
A
1 1
A
13 10
B
0 0 0 0
#20602
blood eye~
Blood shot eye~
A blood shot eye that looks half mad~
~
3 1049096 0 0 0 16385 0 0 0
25 1 1 65
3 2400 240
B
0 0 0 0
#20603
eye slime~
Slime of the enforcing eye~
Brown putrid slime~
~
10 64 0 0 0 1 0 0 0
23 19 28 44
1 0 0
B
0 0 0 0
#20604
eye justice~
a huge eye of justice~
The ripped out eye of the enforcer beholder~
~
3 75 0 0 0 16385 0 0 0
45 3 3 64
1 8000 800
E
eye~
The bloody eye of the enforcer feels like it is charged with some awsome power.
~
B
0 0 0 0
#20605
eye stalk beholder~
Beholder's eyestalk~
An eyestalk of a beholder~
~
4 9 0 0 0 16385 0 0 0
50 3 3 76
3 20000 220
A
12 25
B
0 0 0 0
#20606
gnome mace~
Glinting gnome mace~
A dull greyish mace of gnomish design~
~
5 6210048 0 0 0 8193 0 0 0
0 4 4 7
4 1340 230
A
13 10
A
18 1
A
19 1
B
0 0 0 0
#20607
drow sword darkness~
Sword of darkness~
A drow blade seems to cast a shadow of darkness around it~
~
5 5782016 32 0 0 8193 0 0 0
0 5 6 19
4 3450 525
A
1 1
A
18 2
B
0 0 0 0
#20608
grey helm~
Dark grey helm~
A helm of duergar make lies abandoned off to the side~
~
9 140276224 32 0 0 17 0 0 0
8 0 0 0
3 2210 160
A
1 1
A
19 1
B
0 0 0 0
#20609
sleeves knowledge~
Sleeves of knowledge~
Sleeves that bear many arcane signs rest here~
~
11 3179008 0 0 0 257 0 0 0
0 0 0 0
3 9762 410
A
3 3
A
12 25
B
0 0 0 0
#20610
blood stone~
a piece of polished blood stone~
A small polished stone that has flecks of red in a dark green base~
~
8 4 0 0 0 16385 0 0 0
0 0 0 0
1 25000 480
A
13 25
B
0 0 0 0
#20611
breast plate~
Breast plate of strength~
A breast plate emits an aura of power~
~
9 1585731 32 0 0 9 0 0 0
5 0 0 0
4 12000 315
A
1 3
A
18 1
A
19 1
B
0 0 0 0
#20612
holy symbol xerxes~
a unholy symbol of Xerxes~
A holy symbol of Xerxes floats above the ground~
~
11 898 0 0 0 32769 0 0 0
0 0 0 0
3 4380 335
A
4 2
A
12 25
A
17 -5
B
0 0 0 0
#20613
leather pants ripped~
Ripped leather pants~
A pair of dirty ripped leather pants lies abandoned on the floor~
~
9 8155144 32 0 0 33 0 0 0
5 0 0 0
5 500 275
A
1 2
A
19 2
B
0 0 0 0
#20614
purple worm scale~
Small purple worm scale~
A small scale from a purple looks as if it can be worn on the arm~
~
11 256 0 0 0 4097 0 0 0
0 0 0 0
1 30000 190
A
13 15
A
18 1
B
0 0 0 0
#20615
huge purple worm scale~
Huge purple worm scale~
A huge purple worm scale lies discarded off to the side~
~
11 1061387 32 0 0 513 0 0 0
0 0 0 0
4 5000 200
E
shield scale worm purple~
A huge scale from a purple worm vibrates with a strange force.
~
A
18 1
A
19 2
B
0 0 0 0
#20616
gauntlet eye~
Gauntlets of the eye~
A pair of gauntlets with the design of an eye on them rest here~
~
9 1573451 0 0 0 129 0 0 0
5 0 0 0
3 3000 215
E
gauntlets eye~
Black chain gauntlets seem to be looking back at you.
~
A
1 2
A
18 1
A
19 1
B
0 0 0 0
#20617
helm eye~
Helm of the eye~
A helm lies here with a huge eye centred on it~
~
9 140436035 0 0 0 17 0 0 0
9 0 0 0
4 4000 335
A
5 2
A
12 15
A
13 10
B
0 0 0 0
#20618
pin~
a very sharp pin~
A small pin glints in the light~
~
5 32 0 0 0 8193 0 0 0
0 3 5 11
1 300 500
A
1 -3
A
13 -15
A
18 2
B
0 0 0 0
#20619
muck branch~
Very muddy branch~
A branch covered in muck lies discarded off to the side~
~
5 195 0 0 0 8193 0 0 0
0 2 4 6
15 100 810
A
2 -2
A
18 -5
A
19 2
B
0 0 0 0
#20620
dart~
a small deadly dart~
A little dart lies on the ground~
~
5 32 0 0 0 8193 0 0 0
0 6 2 11
1 400 250
A
1 -2
A
18 2
B
0 0 0 0
#20621
wand, black, inlaid, gold, symbols~
a black wand inlaid with gold symbols~
A small black wand waits to be tested~
~
3 2 0 0 0 16385 0 0 0
45 2 2 64
2 1000 100
B
0 0 0 0
#20622
girth protection~
Girth of protection~
A girth lies here glowing softly with power~
~
9 1573443 0 0 0 2049 0 0 0
6 0 0 0
3 2000 130
E
girth protection~
Blessed with magical powers, this girth give you the feeling of strength and protection.
~
A
1 2
B
0 0 0 0
#20623
eyes~
Dull eyes~
Two small eyes that have lost their shine wait to be used~
~
9 1572995 0 0 0 524289 0 0 0
2 0 0 0
1 100 240
A
4 -3
A
12 10
B
0 0 0 0
#20624
iron sword~
an Iron Sword~
A very large sword made out of iron lies ready~
~
5 2 0 0 0 8193 0 0 0
0 4 7 3
25 4800 485
A
1 -1
A
18 2
A
19 1
B
0 0 0 0
#20625
stone mace~
a Huge Stone Mace~
A large mace made completely of stone waits to be used~
~
5 1049091 0 0 0 8193 0 0 0
0 4 6 7
5 2000 230
A
1 1
A
18 1
B
0 0 0 0
#20626
shield~
Black Shield of Protection~
A black shield waits to protect it's owner~
~
9 1585731 32 0 0 513 0 0 0
7 0 0 0
4 2300 155
A
17 -10
B
0 0 0 0
#20627
stone~
a small black stone~
A very small black stone almost escapes your notice~
~
12 2148 0 0 0 16385 0 0 0
0 0 0 0
1 1000 440
A
1 3
A
14 50
B
0 0 0 0
#20628
horn~
Demon Horn~
A glowing demon horn waits to be wielded~
~
5 1573443 0 0 0 24577 0 0 0
0 4 6 22
4 6666 460
A
17 -10
A
18 1
A
19 2
B
0 0 0 0
#20629
translucent shirt black~
a &07black translucent shirt&00~
A semi-transparent piece of cloth lies here.~
~
11 256 0 0 0 1033 0 0 0
0 0 0 0
2 400 160
A
5 2
A
13 10
B
0 0 0 0
#20630
belt~
Belt of pleasure~
A thin belt lies on the ground offering you much joy~
~
11 256 0 0 0 2049 0 0 0
0 0 0 0
1 300 30
A
2 1
B
0 0 0 0
#20631
noble ring~
Ring of nobility~
A small beautiful ring is ready to worn~
~
11 256 0 0 0 3 0 0 0
0 0 0 0
1 400 240
A
3 -2
A
13 15
B
0 0 0 0
#20632
gold teeth~
Gold Teeth~
A couple of golden teeth have been dropped here~
~
9 524544 0 0 0 524289 0 0 0
3 0 0 0
1 1000 545
E
teeth grill~
           ______
        .-"      "-.
       /            \
      |              |
      |,  .-.  .-.  ,|
      | )(__/  \__)( |
      |/     /\     \|
      (_     ^^     _)
       \__|&10IIIIII&00|__/
        | \&10IIIIII&00/ |
        \          /
         `--------`


This set of gold teeth gives the most hideous looking monster a
beautiful set of choppers. Let me see your grillZ?
~
A
1 2
A
6 3
A
9 -10
B
0 0 0 0
#20633
broken bottle~
a broken bottle~
A broken bottle lies on the ground~
~
5 8 0 0 0 8193 0 0 0
0 4 3 3
2 100 130
A
2 -1
A
19 1
B
0 0 0 0
#20634
dusty boots~
a pair of dusty boots~
A pair of dusty boots lie forgotten on the ground~
~
9 528388 32 0 0 65 0 0 0
-12 0 0 0
2 1 940
A
2 -3
A
14 -50
A
19 -3
B
0 0 0 0
#20635
gnome hat~
a gnome hat~
A gnome hat rests here just waiting to be taken~
~
9 524290 0 0 0 17 0 0 0
4 0 0 0
2 101 220
A
2 2
A
18 2
B
0 0 0 0
#20636
supple black boots~
supple black boots~
A pair of soft, black boots are lying here~
~
11 96 0 0 0 65 0 0 0
0 0 0 0
1 3000 300
A
19 2
A
18 1
A
17 -10
B
0 0 0 0
#20637
bracer strength~
Bracer of strength~
A very powerful looking bracer hums on the ground~
~
11 1049155 0 0 0 257 0 0 0
0 0 0 0
3 3000 190
A
1 3
B
0 0 0 0
#20638
slaver whip~
Slaver's Whip~
A long dangerous looking whip waits to used against a slave~
~
5 514 0 0 0 8193 0 0 0
0 8 2 4
2 2650 170
A
2 -1
A
4 -1
B
0 0 0 0
#20639
manacles~
a pair of manacles~
A pair of manacles waits to be worn~
~
9 528386 32 0 0 129 0 0 0
4 0 0 0
10 10 400
A
1 -3
A
5 -3
B
0 0 0 0
#20640
cloak~
a mage cloak~
A long flowing cloak that glows lies here~
~
9 8314883 0 0 0 5 0 0 0
3 0 0 0
2 3000 235
A
12 25
B
0 0 0 0
#20641
jagged long sword~
a jagged long sword~
A jagged long sword rests on the ground~
~
5 2 0 0 0 8193 0 0 0
0 8 3 3
5 3000 395
A
18 2
B
0 0 0 0
#20642
ebony dagger~
an ebony dagger~
An ebony dagger lies off to your side~
~
5 66 0 0 0 8193 0 0 0
0 7 4 11
4 23000 495
A
18 2
B
0 0 0 0
#20643
glowing sphere~
a glowing sphere~
A glowing sphere lights up the room~
~
3 65615 0 0 0 16385 0 0 0
40 1 1 99
3 1000 190
A
12 15
B
0 0 0 0
#20644
blue bracer~
a midnight blue bracer~
A dark blue bracer lies on the ground~
~
11 2 0 0 0 4097 0 0 0
0 0 0 0
3 400 30
A
2 1
B
0 0 0 0
#20645
ebony morning star~
an ebony morning star~
An ebony morning star rests on the ground~
~
5 2 0 0 0 8193 0 0 0
0 5 5 6
6 4500 275
A
5 1
A
19 1
B
0 0 0 0
#20646
drow chainmail~
Black drow chainmail~
A black suit of chainmail lies ready to be taken~
~
9 1572994 0 0 0 9 0 0 0
7 0 0 0
5 2000 235
A
2 1
A
13 15
B
0 0 0 0
#20647
drow sword~
a drow sword~
A dark sword lies on the ground~
~
5 64 0 0 0 8193 0 0 0
0 5 5 3
5 3000 285
A
18 1
A
19 1
B
0 0 0 0
#20648
drow dagger~
a drow dagger~
A dark dagger lies on the ground~
~
5 64 0 0 0 8193 0 0 0
0 6 4 11
3 2000 355
A
18 2
A
19 1
B
0 0 0 0
#20649
drow mace~
a drow mace~
A dark mace lies on the ground~
~
5 64 0 0 0 8193 0 0 0
0 7 3 7
4 2500 360
A
18 1
A
19 2
B
0 0 0 0
#20650
duergar breastplate~
Duergar breastplate~
A breastplate of duergar make lies ready~
~
9 524352 0 0 0 8 0 0 0
10 0 0 0
4 6000 125
A
17 -5
B
0 0 0 0
#20651
duergar helm~
a duergar helm~
A helm of duergar make lies ready~
~
9 134742080 0 0 0 16 0 0 0
10 0 0 0
2 5000 115
A
17 -3
B
0 0 0 0
#20652
duergar shield~
a duergar shield~
A shield of duergar designs lies ready~
~
9 524352 0 0 0 512 0 0 0
10 0 0 0
3 7000 110
A
17 -2
B
0 0 0 0
#20653
duergar leggings~
Duergar leggings~
A pair of leggings lie ready~
~
9 524352 0 0 0 32 0 0 0
8 0 0 0
4 4000 80
A
17 -2
B
0 0 0 0
#20654
duergar bracer~
a duergar bracer~
A bracer of duergar design lies ready~
~
9 64 0 0 0 4096 0 0 0
8 0 0 0
3 4000 80
A
17 -2
B
0 0 0 0
#20655
brown mushroom~
a brown mushroom~
A brown mushroom lies here looking tasty~
~
19 67109120 0 0 0 1 0 0 0
12 40 54 0
1 10000 36
B
0 0 0 0
#20656
large mushroom~
a large mushroom~
A large mushroom lies on the ground~
~
19 256 0 0 0 1 0 0 0
24 0 0 0
1 200 72
B
0 0 0 0
#20657
red moss~
Red moss~
Some red moss lies on the ground~
~
19 256 0 0 0 1 0 0 0
10 30 55 0
2 30000 30
B
0 0 0 0
#20658
dirty root~
a dirty root~
A dirty root lies on the ground~
~
19 256 0 0 0 1 0 0 0
10 40 52 0
1 40000 30
B
0 0 0 0
#20659
scroll reveal~
Scroll of reveal~
A scroll lies on the ground~
~
2 0 0 0 0 1 0 0 0
40 117 0 0
1 4000 400
B
0 0 0 0
#20660
hand shocking grasp~
Hand of shocking grasp~
A hand lies on the ground~
~
3 1 0 0 0 20985 0 0 0
50 4 4 37
2 5410 541
B
0 0 0 0
#20661
potion detection~
Potion of detection~
A potion of detection waits to be used~
~
10 0 0 0 0 1 0 0 0
15 44 19 20
2 30000 3000
B
0 0 0 0
#20662
svirfneblin leggings~
Svirfneblin leggings~
A pair of svirfneblin leggings lies on the ground waiting to be taken~
~
9 524352 0 0 0 33 0 0 0
7 0 0 0
3 1231 85
A
1 1
B
0 0 0 0
#20663
necklace nobility~
Necklace of nobility~
A beautiful necklace waits to be worn~
~
11 64 0 0 0 5 0 0 0
0 0 0 0
3 2000 90
A
1 1
A
3 1
A
4 1
B
0 0 0 0
#20664
broadsword vision~
a broadsword named 'Vision'~
A beautifully crafted broadsword lies on the ground~
~
5 1581635 0 0 0 8193 0 0 0
0 6 5 1
4 3000 735
A
2 1
A
13 5
A
18 1
A
19 2
B
0 0 0 0
#20665
thieve's thieves eye patch eyepatch~
Thieve's eyepatch~
A small patch lies on the ground~
~
9 3846656 32 0 0 524289 0 0 0
6 0 0 0
2 2010 110
A
2 1
A
18 1
B
0 0 0 0
#20666
thieve's gloves~
Thieve's gloves~
A pair of thin leather gloves rests on the ground~
~
9 3846656 32 0 0 129 0 0 0
4 0 0 0
2 1200 200
A
2 2
A
1 2
B
0 0 0 0
#20667
gold chain~
a gold chain~
A gold chain glints in the light~
~
9 64 0 0 0 32773 0 0 0
5 0 0 0
2 1410 145
A
1 1
A
2 1
A
3 1
A
4 1
B
0 0 0 0
#20668
lucky dice~
Lucky dice~
A pair of dice glow softly~
~
11 65 0 0 0 49153 0 0 0
0 0 0 0
2 1000 250
Z 71
A
21 -1
A
22 -1
A
23 -2
A
24 -1
B
0 0 0 0
#20669
dark cloak~
a dark cloak~
A very dark cloak lies in the shadows~
~
11 1049088 0 0 0 32773 0 0 0
0 0 0 0
3 2500 200
A
2 2
A
18 2
B
0 0 0 0
#20670
golden earring~
Golden earring~
A small golden earring glints softly in the light~
~
9 64 0 0 0 262145 0 0 0
0 0 0 0
1 1000 150
A
2 1
A
3 1
A
12 15
B
0 0 0 0
#20671
jewelled dagger~
a jewelled dagger~
A jewelled dagger looks as if it could cut through anything~
~
5 2 0 0 0 24577 0 0 0
0 6 6 11
3 3000 1060
A
2 2
A
17 -5
A
19 1
B
0 0 0 0
#20672
hand~
a hand grasping an orb~
A hand grasping an orb lies on the ground~
~
1 6824515 0 0 0 16385 0 0 0
0 0 -1 0
3 33100 1360
A
12 30
A
19 1
B
0 0 0 0
#20673
robe~
a long flowing robe~
A beautiful robe lies pooled on the ground~
~
9 64 0 0 0 1025 0 0 0
8 0 0 0
4 22100 200
A
12 10
A
3 2
B
0 0 0 0
#20674
blade of poison~
a blade of poison~
A dark blade rests here humming quietly~
~
5 3846723 32 0 0 8193 0 0 0
0 5 6 11
3 2310 585
A
18 1
A
19 2
B
0 0 0 0
#20675
assassin's sleeves~
Assassin's sleeves~
A pair of black sleeves rests here~
~
9 8056832 32 0 0 257 0 0 0
6 0 0 0
3 2100 140
A
18 1
A
19 1
B
0 0 0 0
#20676
skull tattoo~
Skull tattoo~
A weird glimmer lies on the ground, shaped like a skull~
~
11 1749504 32 0 0 4097 0 0 0
0 0 0 0
1 5410 100
A
18 1
A
19 1
B
0 0 0 0
#20677
choke wire~
a choke wire~
A thin wire lies on the ground humming~
~
5 8056832 32 0 0 8193 0 0 0
0 6 4 15
1 5000 385
A
18 1
A
19 2
B
0 0 0 0
#20678
assassin's mask~
an assassin's mask~
A mask keeps changing on the ground~
~
9 1748992 32 0 0 524289 0 0 0
0 0 0 0
3 2000 120
A
1 1
A
5 1
A
19 1
B
0 0 0 0
#20679
flaming dagger tattoo~
Flaming dagger tattoo~
A weird glimmer lies on the ground, shaped like a dagger~
~
11 3846656 32 0 0 4097 0 0 0
0 0 0 0
1 2400 160
A
19 2
B
0 0 0 0
#20680
wyvern tattoo~
Wyvern tattoo~
A weird glimmer lies on the ground, shaped like a wyvern~
~
11 1225216 32 0 0 4097 0 0 0
0 0 0 0
1 2700 100
A
18 1
A
19 1
B
0 0 0 0
#20681
dragon tattoo~
Dragon tattoo~
A weird glimmer lies on the ground, shaped like a dragon~
~
11 3322435 32 0 0 257 0 0 0
0 0 0 0
1 23000 160
A
19 2
B
0 0 0 0
#20682
diamond helm~
a diamond helm~
A helm sparkles and glints in the light~
~
9 134742016 0 0 0 17 0 0 0
10 0 0 0
2 1000 740
A
13 25
A
19 2
B
0 0 0 0
#20683
keeper's shield~
the keeper's shield~
A large shield that looks as if it were made of stone lies here~
~
9 524352 0 0 0 513 0 0 0
7 0 0 0
10 22110 355
A
20 -2
A
21 -2
A
23 -2
B
0 0 0 0
#20684
clan ring~
a demon clan signet ring~
A red and black ring glows and hums softly on the ground~
~
11 1049099 0 0 0 3 0 0 0
0 0 0 0
1 5000 165
A
13 10
A
18 1
A
17 -7
B
0 0 0 0
#20685
demon bracer~
Demon bracer~
A black and red bracer lies on the ground~
~
11 1049099 0 0 0 4097 0 0 0
0 0 0 0
3 3000 250
A
19 2
A
1 2
B
0 0 0 0
#20686
demon blade~
a demon blade~
A black blade hums on the ground~
~
5 1573376 0 0 0 8193 0 0 0
0 5 6 19
3 2500 565
A
13 10
A
18 2
B
0 0 0 0
#20687
gem fear~
Gem of fear~
A large black gem lies on the ground~
~
3 82 0 0 0 16385 0 0 0
40 1 1 90
3 12000 1200
B
0 0 0 0
#20688
demon plate~
Demon Plate~
A black suite of plate mail rests on the ground~
~
9 524867 0 0 0 9 0 0 0
11 0 0 0
9 2000 300
A
19 2
B
0 0 0 0
#20689
demon fire shield~
Demon &01Fire&00 Shield~
A strange looking disc burns the very ground it sits on. ~
~
9 102238275 0 0 0 513 0 0 0
12 0 0 0
5 2500 625
E
demon fire shield~
   Decades past, Demogorgon reached through the abyss and touched the shield of
Irmugar.  The ordinary shield that Irmugar held erupted into a fireball of
unholy flames.  Shortly after Irmugar killed the leader of the demon clan and
seized power for himself.  The flames on his shield still burn and serve as a
reminder to any clan member that would dare cross him.    
~
A
17 -7
A
19 3
A
13 10
A
33 35
B
0 0 0 0
#20690
fire gem~
a fire gem~
A large red gem seems to be on fire~
~
3 65 0 0 0 16385 0 0 0
35 3 3 26
3 10000 1000
B
0 0 0 0
#20691
statue alien god~
the Statue of an Alien God~
A hideous statue stands here, peering down at you~
~
15 32 0 0 0 0 0 0 0
100 47 20717 0
810 2 100
E
statue alien god~
   This hideous statue is devoted to an alien god.  The head is huge, with
three gaping maws, a line of spikes cresting it's skull, and eight mis-shapen
eyes.  The body and legs are mostly covered by its furled, stone wings.    
Examining the head closely, you notice that it appears to be missing a tooth.
~
B
0 0 0 0
#20692
brains god~
the brains of an alien god~
A foul, pulsing brain sits here~
~
10 1 0 0 0 16385 0 0 0
50 36 54 64
1 100000 10180
A
4 2
A
3 2
B
0 0 0 0
#20693
gold pile merchants~
merchant's gold~
Merchant's gold sits here in a pile~
~
20 0 0 0 0 1 0 0 0
50000 0 0 0
1 0 0
B
0 0 0 0
#20694
gold pile~
not so rich merchant gold~
A small pile of gold~
~
20 0 0 0 0 1 0 0 0
25000 0 0 0
1 0 0
B
0 0 0 0
#20695
beer mug~
a mug~
A earthenware mug sits here, unattended.~
~
17 0 0 0 0 1 0 0 0
1 1 1 0
4 10 10
B
0 0 0 0
#20696
ale mug~
a mug~
A earthenware mug sits here, unattended.~
~
17 0 0 0 0 1 0 0 0
1 1 3 0
4 8 10
B
0 0 0 0
#20697
darkale mug~
a mug~
A earthenware mug sits here, unattended.~
~
17 0 0 0 0 1 0 0 0
1 1 4 0
4 6 10
B
0 0 0 0
#20698
whisky shot glass~
a shot~
A shot glass has been left here.~
~
17 0 0 0 0 1 0 0 0
1 1 5 0
3 30 10
B
0 0 0 0
#20699
specialty local mug finest~
a mug~
A earthenware mug sits here, unattended.~
~
17 0 0 0 0 1 0 0 0
1 1 8 0
4 12 10
B
0 0 0 0
#20700
wine bottle~
a bottle~
A wine bottle has been dropped here.~
~
17 0 0 0 0 1 0 0 0
4 4 2 0
12 80 40
B
0 0 0 0
#20701
firebreather flask moonshine~
a flask~
A small hip flask has been left here.~
~
17 0 0 0 0 1 0 0 0
3 3 7 0
10 60 30
B
0 0 0 0
#20702
scale mail~
scalemail~
A suit of armor has been left here.~
~
9 524288 0 0 0 9 0 0 0
8 0 0 0
10 60 230
E
scale armor suit~
Dull and dented, smelling of rust and sweat, you can tell this suit of armor has seen better days.
~
A
3 2
A
13 10
B
0 0 0 0
#20703
scale coif~
scale coif~
A piece of headgear has been left here.~
~
9 524288 0 0 0 17 0 0 0
8 0 0 0
10 60 190
E
scale coif~
An old scale coif turns your hands a rust color.
~
A
3 2
A
1 1
B
0 0 0 0
#20704
scale leggings~
scale leggings~
Some leggings have been left here.~
~
9 524288 0 0 0 33 0 0 0
8 0 0 0
5 100 160
A
2 2
B
0 0 0 0
#20705
scale sleeves~
scale sleeves~
Some scale sleeves have been left here.~
~
9 524288 0 0 0 257 0 0 0
8 0 0 0
10 100 100
A
1 1
B
0 0 0 0
#20706
elemental bracelet~
elemental bracelet~
A bracelet has been left here.~
~
11 0 0 0 0 4097 0 0 0
0 0 0 0
10 100 150
A
1 1
A
2 1
A
5 2
B
0 0 0 0
#20707
tower shield~
tower shield~
A shield has been left here.~
~
9 524288 0 0 0 513 0 0 0
9 0 0 0
10 60 85
B
0 0 0 0
#20708
battle axe~
battle axe~
An axe has been left here.~
~
5 0 0 0 0 8193 0 0 0
0 5 6 3
10 60 485
A
18 1
A
19 1
B
0 0 0 0
#20709
chromium dagger~
chromium dagger~
An dagger has been left here.~
~
5 0 0 0 0 8193 0 0 0
0 5 6 11
10 800 485
A
18 1
A
19 1
B
0 0 0 0
#20710
deep blue robe~
deep blue robe~
A robe has been left here.~
~
11 0 0 0 0 1025 0 0 0
0 0 0 0
10 400 170
A
3 1
A
12 20
B
0 0 0 0
#20711
silver sword~
silver sword~
A blade that shines has been left here.~
~
5 6212163 4096 0 0 8193 0 0 0
0 6 5 4
4 2000 655
A
18 2
A
19 1
B
0 0 0 0
#20712
leggings~
leggings~
Some armor has been left here.~
~
11 67 0 0 0 33 0 0 0
0 0 0 0
10 200 65
A
17 -5
A
18 1
B
0 0 0 0
#20713
truesilver bracelet~
truesilver bracelet~
A bracelet has been left here.~
~
11 67 0 0 0 4097 0 0 0
0 0 0 0
10 400 220
A
19 1
A
13 10
A
12 15
B
0 0 0 0
#20714
ancient sword~
Ancient Sword~
A blade that hums has been left here.~
~
5 8286787 32 0 0 8193 0 0 0
0 6 6 9
10 60 1055
A
18 2
A
19 1
B
0 0 0 0
#20715
underdark scroll~
a Scroll of the Under Dark~
A black scroll lies on the ground here.~
~
2 0 0 0 0 1 0 0 0
50 42 20684 20684
2 10000 1000
B
0 0 0 0
#20716
scroll identify~
a scroll of identify~
A small scroll lies on the ground here.~
~
2 0 0 0 0 1 0 0 0
50 117 0 0
1 2000 200
B
0 0 0 0
#20717
stone tooth~
a stone tooth~
A long, petrified tooth lies here.~
~
18 67108896 0 0 0 16385 0 0 0
0 0 0 0
1 5000 0
B
0 0 0 0
#20718
spider pendant necklace tarnished silver~
a spider pendant~
A spider-shaped pendant made of tarnished silver lies here.~
~
11 -134217728 8388639 0 0 32769 0 0 0
0 0 0 0
1 50000 240
A
12 10
A
19 2
A
18 1
B
0 0 0 0
#20719
sleeves shadows something bit shadowy~
Sleeves of Shadows~
A shadowy bit of something is lying here.~
~
11 70779392 0 0 0 257 0 0 0
0 0 0 0
0 50000 310
A
18 2
A
19 2
A
17 -6
B
0 0 0 0
#20720
small obsidian sphere~
a small obsidian sphere~
A small obsidian sphere is lying here.~
~
8 104788672 32 0 0 16385 0 0 0
0 0 0 0
1 500000 960
A
19 4
A
18 2
A
33 35
A
12 20
A
13 15
B
1073741824 0 0 0
#20721
thief key guildhall~
the UnderDark Thief guildhall key~
A key lies on the ground here.~
~
18 0 0 0 0 1 0 0 0
0 0 0 0
0 0 0
B
0 0 0 0
#20901
a drow bow~
a drow bow~
A delicate bow has been left behind~
~
6 8155136 32 0 0 16385 0 0 0
1 3 2 0
3 41667 460
A
14 20
A
5 2
A
19 2
A
18 2
B
0 0 0 0
$~
