#21101
stone sarcophagus~
a stone sarcophagus~
A stone sarcophagus lies here in the middle of the crypt.~
~
15 0 0 0 0 0 0 0 0
1 4 -1 0
0 0 1
Z 21138
Z 21140
B
0 0 0 0
#21102
stone sarcophagus~
a stone sarcophagus~
A stone sarcophagus lies here in the middle of the crypt.~
~
15 0 0 0 0 0 0 0 0
1 4 -1 0
0 0 1
Z 21152
B
0 0 0 0
#21103
pile bones~
a pile of bones~
A pile of bones lies here.~
~
12 0 0 0 0 1 0 0 0
0 0 0 0
10 0 0
B
0 0 0 0
#21104
leather duster coat~
a long black leather duster~
A crumpled coat lies in a small pile.~
~
9 302579720 49153 0 0 1033 0 0 0
15 0 0 0
5 100000 690
A
19 3
A
13 10
A
29 10
A
31 5
B
4194304 0 0 0
#21199
test~
test item~
An unfinished object is lying here.~
~
11 0 0 0 0 9 0 0 0
0 0 0 0
0 0 0
B
0 0 0 0
$~
