#21301
key stone large~
a large stone key~
A very large stone key is here blending in with the ground.~
~
18 4096 32 0 0 16385 0 0 0
2 0 0 0
1 50000 0
B
0 0 0 0
#21302
key iron black 21302~
an iron key~
A wrought iron key is here.~
~
18 4096 32 0 0 16385 0 0 0
2 0 0 0
1 300 0
E
key iron wrought~
The key is composed of several patterns in wrought iron.
~
E
Patterns pattern~
The patterns look like they form a tower.
~
B
0 0 0 0
#21303
skull dragon~
a horned dragon's skull~
A large skull of a great dragon has been left here.~
~
9 524352 0 0 0 17 0 0 0
15 0 0 0
10 20000 610
A
19 2
A
13 15
B
0 0 0 0
#21304
belt pouch~
a belt of pouches which contain spell components~
A belt full of pouches is here.~
~
15 0 0 0 0 2049 0 0 0
50 5 -1 0
5 30000 290
A
12 20
A
24 -2
B
0 0 0 0
#21305
robe black velvet~
a black velvet robe~
A pitch black robe is lying here on the ground.~
~
9 64 0 0 0 1025 0 0 0
10 0 0 0
4 30000 430
A
12 25
A
18 2
B
0 0 0 0
#21306
horn unicorn~
a unicorn's horn~
A long ivory-colored horn is here.~
~
5 3392 0 0 0 8193 0 0 0
0 4 10 11
8 100000 470
A
19 2
A
12 30
B
0 0 0 0
#21307
stone~
a small stone~
There is a small stone on the ground.~
~
12 0 0 0 0 1 0 0 0
0 0 0 0
1 1 0
B
0 0 0 0
#21309
moonstone moon stone~
the Moonstone~
A small black stone, polished smooth, is here.~
~
18 64 0 0 0 16385 0 0 0
2 0 0 0
2 15000 0
B
0 0 0 0
#21310
trident~
a silver trident~
A long silver spear with three prongs on the end is leaning against the wall.~
~
5 0 0 0 0 8193 0 0 0
0 2 8 3
10 6500 310
A
18 2
A
13 15
B
0 0 0 0
#21312
band shimmering energy~
a shimmering band of energy~
A circular band of light is glowing here.~
~
9 65 0 0 0 4097 0 0 0
9 0 0 0
3 20000 285
A
19 1
A
12 20
B
0 0 0 0
#21313
seaweed~
some seaweed~
There is some seaweed lying here in a heap.~
~
22 4 0 0 0 17 0 0 0
0 0 0 0
1 1000 0
B
0 0 0 0
#21314
gem emerald green~
a sparkling emerald gem stone~
A fist-sized green gem is lying in the dirt.~
~
1 514 0 0 0 16385 0 0 0
0 0 -1 0
2 150000 1600
A
12 40
A
18 1
B
0 0 0 0
#21315
pipes pan panpipes~
pipes-of-pan~
A set of reeds that have been made into an instrument lie here, forgotten.~
~
4 4096 32 0 0 16385 0 0 0
15 3 3 7
1 8000 0
B
0 0 0 0
#21316
treasure gold coins sac sack~
a bag of treasure~
A large sack of gold coins is here.~
~
20 0 0 0 0 1 0 0 0
45000 0 0 0
1 45000 0
B
0 0 0 0
#21317
lionskin skin sash lion~
a large lionskin sash~
A large piece of hide from a lion lies here forgotten.~
~
12 64 0 0 0 1025 0 0 0
0 0 0 0
10 2000 505
A
13 25
A
17 -5
B
0 0 0 0
$~
