#21500
saddle~
a riding saddle~
This saddle is made for Drow riding lizards.
~
~
15 0 0 0 0 1 0 0 0
50 1 -1 0
25 100 120
A
17 -8
B
0 0 0 0
#21501
drow cloak~
a drow cloak~
A black Drow cloak is crumpled on the floor here.
~
~
9 4 0 0 0 1025 0 0 0
5 0 0 0
3 5000 165
A
18 1
A
23 -1
A
24 -1
B
0 0 0 0
#21502
drow boots~
a pair of drow boots~
A pair of black drow boots is here.
~
~
9 524292 0 0 0 65 0 0 0
5 0 0 0
3 5000 305
A
2 1
A
14 50
B
0 0 0 0
#21503
drow chain chainmail~
a suit of drow chainmail~
A suit of finely crafted adamantite chainmail is here.
~
~
9 524352 0 0 0 9 0 0 0
5 0 0 0
13 5000 155
A
5 1
A
17 -10
B
0 0 0 0
#21504
drow short sword~
a drow short sword~
An adamantite short sword with a razor sharp blade is here.
~
~
5 64 0 0 0 8193 0 0 0
0 1 1 11
23 5000 172
A
18 2
A
19 1
B
0 0 0 0
#21505
crossbow~
a drow hand crossbow~
A Drow hand crossbow is here.
~
~
3 0 0 0 0 16385 0 0 0
20 10 10 33
9 100 10
B
0 0 0 0
#21506
bar silver~
a bar of silver~
A bar of silver has been left here.~
~
8 0 4096 0 0 1 0 0 0
0 0 0 0
10 10000 0
B
0 0 0 0
#21507
bar gold~
a bar of gold~
A bar of gold has been left here.~
~
8 0 0 0 0 1 0 0 0
0 0 0 0
21 50000 0
B
0 0 0 0
#21508
bar mithril~
a bar of mithril~
A bar of mithril has been left here.~
~
8 0 0 0 0 1 0 0 0
0 0 0 0
12 3000 0
B
0 0 0 0
#21509
bar adamantite~
a bar of adamantite~
A bar of adamantite has been left here.~
~
8 0 0 0 0 1 0 0 0
0 0 0 0
15 5000 0
B
0 0 0 0
#21510
morning star~
an adamantite morning star~
This drow-fashioned morning star grants its wielder superior accuracy.
~
~
5 64 0 0 0 8193 0 0 0
0 1 1 8
20 10000 172
A
18 2
A
19 1
B
0 0 0 0
#21511
spear~
a spear~
This throwing spear has a barbed tip.~
~
5 0 0 0 0 8193 0 0 0
0 1 1 0
10 400 112
A
18 2
B
0 0 0 0
#21512
pick axe~
a svirfneblin pick axe~
This pick axe is extraordinarily well made.
~
~
5 64 0 0 0 8193 0 0 0
0 1 1 7
20 10 102
A
18 1
A
19 1
B
0 0 0 0
#21513
chain chainmail~
a suit of svirfneblin chainmail~
A suit of finely crafted adamantite chainmail is here.
~
~
9 524352 0 0 0 9 0 0 0
0 0 0 0
5 4000 215
A
1 2
A
13 10
A
17 -7
B
0 0 0 0
#21514
stone~
an earth stone~
This earth stone has potent magical properties.
~
~
9 64 0 0 0 16385 0 0 0
7 0 0 0
1 3000 255
A
3 1
A
4 1
A
12 20
B
0 0 0 0
#21515
gem~
a sparkling gem~
A gem sparkles here.
~
~
8 1 0 0 0 16385 0 0 0
0 0 0 0
11 7000 0
B
0 0 0 0
#21516
mineral pill~
a mineral pill~
When eaten, this mineral pill heals and repairs the wounded.
~
~
10 0 0 0 0 1 0 0 0
30 43 1 0
1 2000 200
B
0 0 0 0
#21517
net~
a net~
This net snares fleeing foes.
~
~
4 0 0 0 0 16385 0 0 0
35 1 1 124
1 300 0
B
0 0 0 0
#21518
trident~
a barbed trident~
A barbed trident is stuck in the ground here.
~
~
5 0 0 0 0 8193 0 0 0
0 1 1 11
10 500 102
A
18 1
A
19 1
B
0 0 0 0
#21519
harness~
a leather body harness~
A leather body harness lies here.
~
~
9 524288 0 0 0 9 0 0 0
6 0 0 0
15 1000 140
A
18 1
A
19 1
B
0 0 0 0
#21520
battle axe~
a battle axe~
A battle axe lies here.
~
~
5 64 0 0 0 8193 0 0 0
0 1 1 1
20 4500 162
A
19 2
B
0 0 0 0
#21521
wand~
a wand~
A magic wand glows brightly here.
~
~
3 65 0 0 0 16385 0 0 0
40 3 0 47
1 1501 150
B
0 0 0 0
#21522
jewelry~
some expensive jewelry~
This is very expensive jewelry.
~
~
8 1 0 0 0 5 0 0 0
0 0 0 0
1 3000 0
B
0 0 0 0
#21523
chest~
an oak chest~
A solid oak chest sits here.
~
~
15 0 0 0 0 16385 0 0 0
1000 2 1024 0
100 10 1000
B
0 0 0 0
#21524
key~
a key~
A bronze key lies here.
~
~
18 0 0 0 0 16385 0 0 0
2 0 0 0
1 10 0
B
0 0 0 0
#21525
scroll~
a scroll~
A scroll lies here.
~
~
2 64 0 0 0 16385 0 0 0
40 4 0 27
1 500 50
B
0 0 0 0
#21526
jewelry~
some expensive jewelry~
This is very expensive jewelry.
~
~
8 1 0 0 0 4097 0 0 0
0 0 0 0
1 2500 0
B
0 0 0 0
#21527
lesser tentacle rod~
a Lesser Tentacle Rod~
A Lesser Tentacle Rod writhes menacingly about here.
~
~
5 64 0 0 0 8193 0 0 0
0 1 1 10
25 1800 172
A
18 2
A
19 1
B
0 0 0 0
#21528
brooch~
a Drow brooch~
A brooch bearing the insignia of Barrison del'Armgo lies here.
~
~
9 0 0 0 0 16385 0 0 0
5 0 0 0
4 1300 305
A
3 1
A
4 1
A
12 25
B
0 0 0 0
#21529
key~
a key~
A mithril key lies here.
~
~
18 0 0 0 0 16385 0 0 0
2 0 0 0
1 10 110
A
18 2
B
0 0 0 0
#21530
hessian sack~
a hessian sack~
This sturdy sack is used for holding ore.~
~
15 0 0 0 0 16385 0 0 0
100 1 -1 0
1 10 100
B
0 0 0 0
#21531
ore~
ore~
Some valuable ore is here.
~
~
8 1 0 0 0 16385 0 0 0
0 0 0 0
10 10 0
B
0 0 0 0
#21532
portal~
a dark portal~
A dark portal to the Drow homeland is here.~
~
24 3 0 0 0 0 0 0 0
5151 -1 100 0
1 10 0
B
0 0 0 0
$~
