#2200
key bloody~
a bloody key~
A bloody key is stuck to the floor.~
~
18 0 0 0 0 1 0 0 0
2 0 0 0
1 1000 0
B
0 0 0 0
#2201
key dirty~
a dirty key~
A dirty key lies here.~
~
18 0 0 0 0 1 0 0 0
2 0 0 0
1 1050 0
B
0 0 0 0
#2202
toy boomerang~
a toy boomerang~
A toy boomerang wants to be picked up.~
~
5 0 0 0 0 8193 0 0 0
0 2 4 7
5 5 10
B
0 0 0 0
#2203
staff gnarled~
a gnarled staff~
A gnarled staff is here.~
~
5 0 0 0 0 8193 0 0 0
0 1 9 7
15 600 10
B
0 0 0 0
#2204
sword gnome~
a gnome sword~
A gnome sword catches your eye.~
~
5 0 0 0 0 8193 0 0 0
1 3 3 3
15 4000 20
B
0 0 0 0
#2205
shield studded~
a studded shield~
A studded wooden shield lies here.~
~
9 524288 0 0 0 513 0 0 0
4 0 0 0
16 3000 20
B
0 0 0 0
#2206
potion bloody~
a bloody potion~
A bloody potion lies here.~
~
10 0 0 0 0 1 0 0 0
15 14 15 39
22 1500 150
B
0 0 0 0
#2207
cloak bloody~
a bloody cloak~
A bloody cloak lies in a corner.~
~
9 64 0 0 0 5 0 0 0
4 0 0 0
15 2000 20
B
0 0 0 0
#2208
ring bat~
a bat ring~
A ring in the shape of a bat lies here.~
~
9 64 0 0 0 3 0 0 0
3 0 0 0
2 2500 90
A
14 15
B
0 0 0 0
#2209
necklace bead~
a bead necklace~
A string of beads is here.~
~
9 0 0 0 0 32769 0 0 0
3 0 0 0
8 400 125
A
18 2
B
0 0 0 0
#2210
sword electrum~
an electrum sword~
An electrum sword lies here.~
~
5 65 0 0 0 8193 0 0 0
0 4 4 3
20 10000 60
B
0 0 0 0
#2211
basket wicker~
a wicker basket~
A wicker basket sits here.~
~
15 0 0 0 0 1 0 0 0
90 0 -1 0
5 45 90
B
0 0 0 0
#2212
peanuts~
some peanuts~
Peanuts lie here.~
~
19 0 0 0 0 1 0 0 0
16 0 0 0
9 25 48
B
0 0 0 0
#2213
grain~
some grain~
There is some grain here.~
~
19 0 0 0 0 1 0 0 0
15 0 0 0
8 22 45
B
0 0 0 0
#2214
skiff~
a skiff~
A small skiff is here.~
~
22 0 0 0 0 1 0 0 0
0 0 0 0
24 1500 0
B
0 0 0 0
#2215
boots gnome~
a pair of gnome boots~
You notice a pair of Gnome Boots.~
~
9 524288 0 0 0 65 0 0 0
4 0 0 0
12 120 70
A
14 10
B
0 0 0 0
#2216
coins~
a pile of coins~
A pile of coins.~
~
20 0 0 0 0 1 0 0 0
5000 0 0 0
3 1 0
B
0 0 0 0
#2217
coins~
a pile of coins~
A pile of coins.~
~
20 0 0 0 0 1 0 0 0
500 0 0 0
2 1 0
B
0 0 0 0
#2218
coins~
a pile of coins~
A pile of coins.~
~
20 0 0 0 0 1 0 0 0
10 0 0 0
1 1 0
B
0 0 0 0
#2219
shield stone~
a stone shield~
A stone slab lies here.~
~
9 524288 0 0 0 513 0 0 0
4 0 0 0
35 900 110
A
1 2
B
0 0 0 0
#2220
mail heavy banded~
heavy banded mail~
A large suit of heavy banded mail is here~
~
9 524288 0 0 0 9 0 0 0
6 0 0 0
30 3500 110
A
13 10
B
0 0 0 0
#2221
club large~
a large club~
A large club sits here.~
~
5 0 0 0 0 8193 0 0 0
4 4 3 7
22 200 40
B
0 0 0 0
#2222
banana~
a banana~
There is a banana here.~
~
19 0 0 0 0 1 0 0 0
6 0 0 0
5 9 18
B
0 0 0 0
#2223
life potion~
a potion of life healing~
A potion of life healing has left here.~
~
10 128 0 0 0 1 0 0 0
32 43 3 0
1 1 0
B
0 0 0 0
#2227
hoop earring gnome~
&07&21a silver hoop earring.&00~
&07&21a silver hoop earring.&00~
~
12 0 0 0 0 262145 0 0 0
0 0 0 0
1 1600 280
E
earring silver hoop~
This was given to you by the gnome chiefs wife for finding her son.
~
A
3 2
A
4 2
A
19 1
A
18 1
B
0 0 0 0
$~
