#22901
key old~
an old key~
An old key is lying on the ground.~
~
18 65548 0 0 0 1 0 0 0
0 0 0 0
2 0 0
B
0 0 0 0
#22902
tongue lizard blue~
a blue lizard tongue~
A blue lizard tongue is here.~
~
19 0 0 0 0 1 0 0 0
12 20 87 0
1 0 36
B
0 0 0 0
#22903
tongue red lizard~
a red lizard tongue~
A red lizard tongue is here.~
~
19 0 0 0 0 1 0 0 0
12 20 4 1
1 0 36
B
0 0 0 0
#22904
tongue green lizard~
a green lizard tongue~
A green lizard tongue is here.~
~
19 0 0 0 0 1 0 0 0
12 20 16 0
1 0 36
B
0 0 0 0
#22905
watchfire~
a watchfire~
A watchfire is here, burning brightly.~
~
1 0 0 0 0 0 0 0 0
0 0 -1 0
0 0 1000
B
0 0 0 0
#22906
pole fishing~
a fishing pole~
A fishing pole is here, hooked and baited.~
~
28 67108864 0 0 0 16385 0 0 0
0 0 0 0
5 12000 130
A
18 1
A
19 1
A
5 1
B
0 0 0 0
#22908
globe patrol~
a patrol globe~
A glowing globe has been left here.~
~
1 0 0 0 0 16385 0 0 0
0 0 -1 0
5 1000 1000
B
0 0 0 0
#22909
scale mail~
scale mail~
A suit of scale mail is here.~
~
9 524288 0 0 0 9 0 0 0
5 0 0 0
10 1000 25
B
0 0 0 0
#22910
trident~
a trident~
A trident lies here.~
~
5 0 0 0 0 8193 0 0 0
0 5 6 22
10 1000 445
A
2 1
A
5 1
B
0 0 0 0
#22911
pie meat~
a meat pie~
A steaming meat pie is here.~
~
19 0 0 0 0 1 0 0 0
24 0 0 0
1 10 72
B
0 0 0 0
#22912
grog sailor's~
a mug of sailor's grog~
A mug of sailor's grog is here.~
~
17 0 0 0 0 1 0 0 0
2 2 4 0
2 10 20
B
0 0 0 0
#22913
wafer holy~
a holy wafer~
A holy wafer is here.~
~
10 0 131584 0 0 1 0 0 0
5 111 0 0
1 9000 900
B
0 0 0 0
#22914
plate silver~
a silver plate~
A silver plate rests here.~
~
11 2098176 4096 0 0 513 0 0 0
0 0 0 0
10 12000 105
A
19 1
A
1 1
A
17 -3
B
0 0 0 0
#22915
tapestry~
a tapestry~
A fine looking tapestry lies here.~
~
8 0 0 0 0 1 0 0 0
0 0 0 0
5 12000 0
E
tapestry~
The tapestry is of knights locked in battle in the Battleplain
of Arden.
~
B
0 0 0 0
#22916
armor emerald~
emerald armor~
A suit of fine emerald armor rests here.~
~
9 524288 0 0 0 9 0 0 0
5 0 0 0
10 1200 115
A
3 1
A
4 1
A
2 1
B
0 0 0 0
#22917
hammer dwarven thrower~
a dwarven thrower~
A dwarven throwing hammer is here.~
~
5 0 0 0 0 8193 0 0 0
0 5 6 7
15 1200 445
A
2 1
A
5 1
B
0 0 0 0
#22918
eye mystic~
a mystic eye~
A strange looking crystal is lying here.~
~
9 524355 0 0 0 257 0 0 0
5 0 0 0
2 2500 125
A
1 1
A
2 1
A
12 10
B
0 0 0 0
#22919
recall freeport recall~
a Freeport Scroll of Recall~
A finely scribed scroll sits here.~
~
2 67 0 0 0 1 0 0 0
50 42 22953 22953
2 3500 350
B
0 0 0 0
#22920
wine red~
a glass of Freeport burgundy~
A glass of Freeport burgundy sits here.~
~
17 0 0 0 0 1 0 0 0
1 1 2 0
1 50 10
B
0 0 0 0
#22921
dumplings plate gravy~
a plate of gravy and dumplings~
A plate of gravy and dumplings sits here.~
~
19 0 0 0 0 1 0 0 0
24 0 0 0
5 20 72
B
0 0 0 0
#22922
wine white~
a glass of Freeport chablis~
A glass of Freeport chablis sits here.~
~
17 0 0 0 0 1 0 0 0
3 3 2 0
1 100 30
B
0 0 0 0
#22923
crate~
a huge box crate~
A huge box crate sits here.~
~
13 0 0 0 0 0 0 0 0
0 0 0 0
10 0 0
B
0 0 0 0
#22925
longsword emerald~
an emerald longsword~
A emerald longsword is lying here.~
~
5 0 0 0 0 8193 0 0 0
0 5 6 3
5 1200 505
A
2 2
A
3 1
B
0 0 0 0
#22926
helm emerald~
an emerald helmet~
An emerald helmet is lying here.~
~
9 524288 0 0 0 17 0 0 0
5 0 0 0
10 1200 145
A
3 2
A
4 1
B
0 0 0 0
#22927
wristguard emerald~
an emerald wristguard~
An emerald wristguard is lying here.~
~
11 0 0 0 0 4097 0 0 0
0 0 0 0
5 1200 190
A
2 2
A
13 10
A
1 1
B
0 0 0 0
#22928
weed devil's~
a pinch of devil's weed~
A pinch of devil's weed is lying here.~
~
10 0 0 0 0 1 0 0 0
40 4 33 76
0 1000 100
B
0 0 0 0
#22929
cape admiral's~
an admiral's cape~
A cape with the emblem of Freeport is here.~
~
11 128 0 0 0 5 0 0 0
0 0 0 0
5 2000 340
A
1 2
A
9 -10
B
0 0 0 0
#22930
signet ring freeport~
an admiral's signet~
A ring with the seal of Freeport is here.~
~
11 193 0 0 0 3 0 0 0
0 0 0 0
4 60000 190
A
19 2
A
4 1
B
0 0 0 0
#22931
purse heavy~
a very heavy purse~
A very heavy purse is lying here.~
~
20 0 0 0 0 1 0 0 0
75000 0 0 0
10 0 0
B
0 0 0 0
#22932
bladed boots~
a pair of bladed boots~
A pair of boots with a spring action blade lie here.~
~
11 1196168 0 0 0 65 0 0 0
0 0 0 0
5 5000 320
A
19 2
A
2 2
A
13 10
B
0 0 0 0
#22933
cape dimensional~
a dimensional cape~
A hole in reality lies here.~
~
15 1049219 0 0 0 32769 0 0 0
500 1 -1 0
15 40000 900
A
18 2
A
3 3
A
17 -10
B
0 0 0 0
#22934
prism bending~
a prism of bending~
A prism shimmers on the ground here.~
~
3 65676 0 0 0 16385 0 0 0
10 1 1 99
10 5000 500
B
0 0 0 0
#22939
key brass~
a brass key~
A brass key has been carelessly left here.~
~
18 6 0 0 0 1 0 0 0
0 0 0 0
1 100 0
B
0 0 0 0
#22940
teller bank_atm cage~
a bank tellers cage~
A tellers cage divides the room in half.~
~
12 3 0 0 0 0 0 0 0
0 0 0 0
0 0 0
E
cage teller bank_atm~
A typical tellers cage with bars and a window for service.
~
B
0 0 0 0
#22941
sextant~
the Sextant~
A sextant has been left here.~
~
1 3932227 0 0 0 16385 0 0 0
0 0 -1 0
2 10000 1150
A
4 2
A
19 1
B
0 0 0 0
$~
