#2300
gloves combat~
a pair of minotaur combat gloves~
A pair of metal plated gloves lie here.~
~
9 524288 0 0 0 129 0 0 0
5 0 0 0
2 50 135
E
gloves combat~
These gloves are plated with metal plates that provide strength and 
protection.
~
A
18 1
A
5 1
A
12 -10
B
0 0 0 0
#2301
spiked armor garde~
a suit of spiked garde armor~
A pile of spiked chainmail lies here.~
~
9 524288 0 0 0 9 0 0 0
7 0 0 0
8 5000 240
A
19 2
A
17 -5
B
0 0 0 0
#2302
greaves black~
a pair of black minotaur greaves~
Some black metal greaves lie here.~
~
9 524288 0 0 0 33 0 0 0
9 0 0 0
10 5000 255
A
18 2
A
19 1
B
0 0 0 0
#2303
vambraces black~
a pair of black minotaur vambraces~
Some black metal vambraces lie here.~
~
9 524288 0 0 0 257 0 0 0
3 0 0 0
10 5000 205
A
1 1
A
19 2
B
0 0 0 0
#2304
rod weaponry~
the rod of weaponry~
A shiny metal rod lies here.~
~
5 321 0 0 0 8193 0 0 0
0 5 5 6
5 5000 445
A
18 2
A
13 15
B
0 0 0 0
#2305
cloak pitch black~
a pitch black cloak~
A pile of black cloth lies here.~
~
15 64 0 0 0 1029 0 0 0
500 0 -1 0
3 5000 750
E
cloak pitch black~
It appears to have pockets inside it.
~
A
5 2
A
19 2
B
0 0 0 0
#2306
neckguard neck guard black plate~
a black plate neckguard~
A black plate collar rests here.~
~
9 531008 32 0 0 32769 0 0 0
9 0 0 0
4 5000 145
A
19 1
B
0 0 0 0
#2307
spiked gauntlets~
a pair of spiked gauntlets~
A pair of spiked gauntlets lies here.~
~
9 524288 0 0 0 129 0 0 0
5 0 0 0
2 5000 205
E
spiked gauntlets~
They look pretty damaging.
~
A
18 2
A
13 10
B
0 0 0 0
#2308
shield shadow 2308~
the shadow shield~
A shadowy shield rests here.~
~
9 526913 0 0 0 513 0 0 0
7 0 0 0
5 5000 365
E
shield shadow~
You look into the depths of the shield and shiver at the evil it
contains.
~
A
19 2
A
13 15
B
0 0 0 0
#2309
nightbringer short sword shortsword~
a shortsword named "Nightbringer"~
A very evil looking shortsword lies here.~
~
5 2624 0 0 0 8193 0 0 0
0 7 5 3
5 50000 1085
E
nightbringer short sword shortsword~
The runes "NiGHtBrINgeR" are scrawled along the blade.
~
A
18 2
A
12 15
B
0 0 0 0
#2310
visor helm golden~
a golden helm and visor~
A helm and visor made of pure gold rests here.~
~
9 134749249 32 0 0 17 0 0 0
5 0 0 0
5 5000 325
A
18 2
A
3 3
B
0 0 0 0
#2311
breast plate gilded gold~
a gilded gold breast plate~
A large golden breast plate lies here.~
~
9 7101505 32 0 0 9 0 0 0
5 0 0 0
5 5000 255
A
19 2
A
13 10
B
0 0 0 0
#2312
cape white billowing silk~
a billowing white cape~
A pile of white silk lies here.~
~
9 6602817 0 0 0 5 0 0 0
5 0 0 0
3 5000 325
A
19 2
A
12 20
B
0 0 0 0
#2313
shield huge tower~
a huge tower shield~
A huge shield lies here.~
~
9 5140545 32 0 0 513 0 0 0
7 0 0 0
10 5000 360
E
shield huge tower~
A pure white shield with a gold cross emblazoned across it.
~
A
17 -5
A
13 20
B
0 0 0 0
#2314
dawnbringer mace huge~
a huge mace named "Dawnbringer"~
A huge mace lies here. It radiates an aura of power.~
~
5 3137 0 0 0 8193 0 0 0
0 7 5 4
7 50 1145
E
dawnbringer mace huge~
The runes "DAwNbRIngER" are scrawled along the handle.
~
A
18 2
A
13 15
B
0 0 0 0
#2315
spectacles wire rimmed~
a pair of wire rimmed spectacles~
A small pair of wire rimmed spectacles rests here.~
~
11 524352 0 0 0 524289 0 0 0
0 0 0 0
2 5000 380
E
spectacles wire rimmed~
They'll make you look smart.
~
A
4 3
A
3 3
B
0 0 0 0
#2316
ring banded~
a banded ring~
A small ring made of gold and silver bands lies here.~
~
11 65 0 0 0 3 0 0 0
0 0 0 0
1 5000 230
E
ring banded~
The ring has entwined bands of gold and silver.
~
A
12 20
A
1 2
B
0 0 0 0
#2317
globe minor~
a minor globe of invulnerability~
A small globe rests here. It shimmers and radiates power.~
~
9 65 0 0 0 1025 0 0 0
7 0 0 0
5 5000 190
E
globe minor~
Shimmering colors move inside the globe.
~
A
17 -5
A
29 25
A
13 10
A
12 10
B
0 0 0 0
#2318
staff gnarled magius~
a gnarled magius staff~
A gnarled staff lies here.~
~
5 64 0 0 0 8193 0 0 0
0 7 5 5
5 5000 1155
E
staff gnarled magius~
It appears to be simply a gnarled old limb. It feels powerful though.
~
A
18 2
A
19 2
B
0 0 0 0
#2319
girdle pouches many~
a girdle of many pouches~
A girdle lies here.~
~
15 0 0 0 0 2049 0 0 0
500 0 -1 0
2 5000 590
E
girdle pouches many~
It appears to be full of tiny pockets.
~
A
1 2
B
0 0 0 0
#2320
robe heavy woolen~
a heavy woolen robe~
A heavy pile of wool lies here.~
~
11 64 0 0 0 1025 0 0 0
0 0 0 0
5 5000 130
A
17 -10
A
1 1
B
0 0 0 0
#2321
broach warrior granite~
a broach of the warrior~
A small broach made of granite lies here.~
~
9 5009474 32 0 0 32769 0 0 0
2 0 0 0
2 5000 490
A
13 25
B
0 0 0 0
#2322
manual arts healing book~
a manual of healing arts~
A small book lies here.~
~
2 0 0 0 0 16385 0 0 0
30 28 0 0
2 5000 500
E
manual arts healing book~
It appears to be a book of anatomy and medicine.
~
B
0 0 0 0
#2323
mace huge mithril~
a huge mithril mace~
A huge mace made of mithril metal lies here.~
~
5 65 0 0 0 8193 0 0 0
0 7 5 5
10 50000 1055
A
18 2
A
19 1
B
0 0 0 0
#2324
symbol holy golden~
a golden holy symbol~
A small holy symbol on a golden chain lies here.~
~
9 1344 131584 0 0 32769 0 0 0
2 0 0 0
1 5000 310
A
12 20
A
19 2
B
0 0 0 0
#2325
ring marble thick~
a thick marble ring~
A thick ring made of marble~
~
9 64 0 0 0 3 0 0 0
4 0 0 0
1 5000 170
A
1 2
A
19 1
B
0 0 0 0
#2326
bracelet thick marble~
a thick marble bracelet~
A thick bracelet made of marble lies here.~
~
9 64 0 0 0 4097 0 0 0
4 0 0 0
2 5000 150
A
5 2
A
18 1
B
0 0 0 0
#2327
boots striding~
boots of striding~
A lithe pair of leather boots have been left here.~
~
11 64 0 0 0 65 0 0 0
0 0 0 0
2 5000 215
E
boots striding~
They look comfortable to walk in.
~
A
14 25
A
2 2
B
0 0 0 0
#2328
cloak icy white~
an icy white cloak~
A cold pile of white cloth lies here.~
~
9 65 0 0 0 1029 0 0 0
8 0 0 0
2 5000 250
E
cloak icy white~
Smoke rises from it almost like it's made of dry ice.
~
A
5 2
A
12 15
B
0 0 0 0
#2329
staff ice~
an ice staff~
A staff made of ice rests here.~
~
5 64 0 0 0 8193 0 0 0
0 7 5 19
5 50000 1155
E
staff ice~
The runes "FrIgID" are inscribed in the icy staff.
~
A
18 2
A
19 2
B
0 0 0 0
#2330
ring carved wooden~
a carved wooden ring~
A wooden ring is on the floor.~
~
11 64 0 0 0 3 0 0 0
0 0 0 0
2 5000 240
A
13 15
A
1 2
B
0 0 0 0
#2331
horn life~
the horn of life~
A severed minotaur horn lies here.~
~
3 64 0 0 0 16385 0 0 0
30 3 3 28
5 5000 500
E
horn life~
The horn is capped at both ends with gold. Unreadable runes are
scrawled on it.
~
B
0 0 0 0
#2332
belt life~
the belt of life~
A strange belt lies here.~
~
9 64 0 0 0 2049 0 0 0
3 0 0 0
2 5000 205
A
5 3
B
0 0 0 0
#2333
stone blood red~
a blood red stone~
A blood red stone lies here collecting dust.~
~
1 66 0 0 0 16385 0 0 0
0 0 -1 0
2 5000 1240
E
stone blood red~
The stone pulses with your own heart beat.
~
A
13 15
A
2 2
B
0 0 0 0
#2334
crossbow huge~
a huge crossbow~
A huge crossbow rests here.~
~
6 64 0 0 0 16385 0 0 0
1 2 1 0
10 5000 180
A
18 2
A
13 10
B
0 0 0 0
#2335
pack leather small~
a small leather pack~
A small leather pack rests here.~
~
15 64 0 0 0 1025 0 0 0
150 0 0 0
2 50 240
E
pack leather small~
It looks pretty big on the inside.
~
A
1 2
B
0 0 0 0
#2336
hood black leather~
a black leather hood~
A hood made of black leather rests here.~
~
9 134742080 0 0 0 17 0 0 0
5 0 0 0
2 5000 205
A
4 2
A
3 2
B
0 0 0 0
#2337
sleeves black leather~
a pair of black leather sleeves~
Some leather sleeves lie here.~
~
9 524288 0 0 0 257 0 0 0
7 0 0 0
2 5000 215
A
19 2
B
0 0 0 0
#2338
pants black leather~
a pair of black leather pants~
Some leather pants lie here.~
~
9 524352 0 0 0 33 0 0 0
5 0 0 0
2 5000 225
E
pants black leather~
They look sneaky.
~
A
3 2
A
18 2
B
0 0 0 0
#2339
dagger wicked~
a wicked dagger~
A wicked looking dagger lies here.~
~
5 64 0 0 0 8193 0 0 0
0 4 8 11
2 50000 715
E
dagger wicked~
It looks just perfect for backstabbing.
~
A
19 2
A
13 10
B
0 0 0 0
#2340
globe major~
a major globe of invulnerability~
A large globe rests here, pulsing uneasily.~
~
9 67 0 0 0 1025 0 0 0
10 0 0 0
5 5000 315
E
globe major~
Shimmering colors move inside the globe.
~
A
19 2
A
17 -7
B
0 0 0 0
#2341
chain chainmail black suit~
a suit of black minotaur chainmail~
A huge pile of black chainmail rests here.~
~
9 524352 0 0 0 9 0 0 0
10 0 0 0
10 5000 300
A
18 2
A
1 2
B
0 0 0 0
#2342
buckler spiked~
a spiked buckler~
A small spiked buckler rests here.~
~
9 524288 0 0 0 513 0 0 0
10 0 0 0
5 5000 325
A
18 2
A
17 -5
A
2 2
B
0 0 0 0
#2343
ring studded~
a studded ring~
A small studded ring lies here.~
~
11 64 0 0 0 3 0 0 0
0 0 0 0
2 5000 200
A
19 2
A
18 1
B
0 0 0 0
#2344
helm horned~
a horned minotaur helm~
A small horned helm rests here.~
~
9 524288 0 0 0 17 0 0 0
5 0 0 0
5 5000 230
A
4 2
A
3 2
A
17 -5
B
0 0 0 0
#2345
axe great~
Mahn-Tor's Great Axe~
An extremely huge axe is resting here.~
~
5 5009474 32 0 0 8193 0 0 0
5 10 3 3
15 50 955
E
axe great~
The runes "DeAtH" are scrawled along the blade.
~
A
18 2
A
19 2
B
0 0 0 0
#2346
plate ethereal suit~
a suit of ethereal plate~
A suit of shimmering plate rests here.~
~
11 513 0 0 0 9 0 0 0
0 0 0 0
2 5000 560
E
plate ethereal suit~
You can almost see through it.
~
A
24 -3
A
17 -15
A
18 2
B
0 0 0 0
#2347
helm ethereal~
an ethereal helm~
A shimmering helm rests here.~
~
11 134218241 0 0 0 17 0 0 0
0 0 0 0
2 5000 380
E
helm ethereal~
You can almost see through it.
~
A
4 3
A
3 3
B
0 0 0 0
#2348
blade ethereal~
an ethereal blade~
A shimmering blade lies here.~
~
5 577 0 0 0 8193 0 0 0
0 7 5 11
3 5000 1085
E
blade ethereal~
You can almost see through it.
~
A
18 2
A
3 2
B
0 0 0 0
#2349
branch willow~
a willow branch~
A small willow branch lies here.~
~
3 64 0 0 0 16385 0 0 0
20 3 3 53
3 50 5
B
0 0 0 0
#2350
key keep~
the keep key~
A small key lies here.~
~
18 0 0 0 0 1 0 0 0
2 0 0 0
1 0 0
B
0 0 0 0
#2351
key red~
a red key~
A small red key lies here.~
~
18 0 0 0 0 1 0 0 0
2 0 0 0
1 0 0
B
0 0 0 0
#2352
key black~
a black key~
A small black key lies here.~
~
18 0 0 0 0 1 0 0 0
2 0 0 0
1 0 0
B
0 0 0 0
#2353
key white~
a white key~
A small white key lies here.~
~
18 0 0 0 0 1 0 0 0
2 0 0 0
1 0 0
B
0 0 0 0
#2354
key brown~
a brown key~
A small brown key lies here.~
~
18 0 0 0 0 1 0 0 0
2 0 0 0
1 0 0
B
0 0 0 0
#2355
key yellow~
a yellow key~
A small yellow key lies here.~
~
18 0 0 0 0 1 0 0 0
2 0 0 0
1 0 0
B
0 0 0 0
#2356
key maroon~
a maroon key~
A small maroon key lies here.~
~
18 0 0 0 0 1 0 0 0
2 0 0 0
1 0 0
B
0 0 0 0
#2357
key green~
a green key~
A small green key lies here.~
~
18 0 0 0 0 1 0 0 0
2 0 0 0
1 0 0
B
0 0 0 0
#2358
key grey~
a grey key~
A small grey key lies here.~
~
18 0 0 0 0 1 0 0 0
2 0 0 0
1 0 0
B
0 0 0 0
#2359
key runed~
a runed key~
A small runed key lies here.~
~
18 0 0 0 0 1 0 0 0
2 0 0 0
1 0 0
E
key runed~
The key looks like it was made for royalty.
~
B
0 0 0 0
#2360
boots fur lined~
a pair of fur lined boots~
A pair of boots are on the floor.~
~
9 524352 0 0 0 65 0 0 0
3 0 0 0
5 1000 65
A
14 10
B
0 0 0 0
#2361
pelt yeti white~
the white pelt of a yeti~
A white pelt lies here.~
~
9 0 0 0 0 1025 0 0 0
8 0 0 0
9 50 85
A
17 -3
B
0 0 0 0
#2362
sword kopesh~
a kopesh sword~
A sword with a curved blade lies here.~
~
5 0 0 0 0 8193 0 0 0
1 4 5 3
5 50 140
E
sword kopesh~
The sword looks like it would be grasped so that the blade extended
along the
forearm of the wielder.
~
A
1 1
B
0 0 0 0
#2363
vambraces steel~
a pair of steel vambraces~
A gleaming pair of vambraces lies here.~
~
9 524288 0 0 0 257 0 0 0
5 0 0 0
5 50 55
A
1 1
B
0 0 0 0
#2364
greaves steel~
a pair of steel greaves~
A gleaming pair of greaves lie here.~
~
9 524288 0 0 0 33 0 0 0
6 0 0 0
7 50 70
A
5 1
B
0 0 0 0
#2365
axe battle battleaxe~
a battle axe~
A dangerous looking battle axe rests here.~
~
5 64 0 0 0 8193 0 0 0
0 6 6 3
10 5000 995
A
18 2
B
0 0 0 0
#2366
plate steel breast~
a steel breast plate~
A breast plate of thick steel rests here.~
~
9 524288 0 0 0 9 0 0 0
5 0 0 0
5 5000 140
A
17 -5
A
3 2
B
0 0 0 0
#2367
helm steel~
a steel helm~
A steel helm has been left here.~
~
9 134742016 0 0 0 17 0 0 0
3 0 0 0
3 5000 45
A
4 1
B
0 0 0 0
#2368
halberd huge~
a huge halberd~
A huge halberd has been left here.~
~
5 64 0 0 0 8193 0 0 0
8 9 2 3
15 5000 165
A
3 1
B
0 0 0 0
#2369
visor blue steel helm~
a blue steel helm and visor~
A helm and visor of blue steel rests here.~
~
9 134742016 0 0 0 17 0 0 0
5 0 0 0
5 5 55
A
4 1
B
0 0 0 0
#2370
greaves blue steel~
a pair of blue steel greaves~
Some greaves made of blue steel rest here.~
~
9 524288 0 0 0 33 0 0 0
5 0 0 0
5 5000 55
A
4 1
B
0 0 0 0
#2371
vambraces blue steel~
a pair of blue steel vambraces~
Some vambraces made of blue steel rest here.~
~
9 524288 0 0 0 257 0 0 0
3 0 0 0
5 5000 45
A
4 1
B
0 0 0 0
#2372
sword two two-handed~
a two-handed sword~
A large sword lies here.~
~
5 64 0 0 0 8193 0 0 0
1 4 5 3
15 5000 150
A
18 1
B
0 0 0 0
#2373
visor helm steel red~
a red steel helm and visor~
A helm and visor made of red steel rests here.~
~
9 524288 0 0 0 17 0 0 0
5 0 0 0
5 5000 70
A
5 1
A
17 -3
B
0 0 0 0
#2374
greaves red steel~
a pair of red steel greaves~
Some greaves made of red steel rest here.~
~
9 524288 0 0 0 33 0 0 0
9 0 0 0
5 5000 115
A
5 1
B
0 0 0 0
#2375
vambraces red steel~
a pair of red steel vambraces~
Some vambraces made of red steel rest here.~
~
9 524288 0 0 0 257 0 0 0
9 0 0 0
5 5000 130
A
5 1
A
17 -3
B
0 0 0 0
#2376
glaive~
a minotaur glaive~
A very large glaive rests here.~
~
5 64 0 0 0 8193 0 0 0
8 4 5 11
15 5000 150
A
18 1
B
0 0 0 0
#2377
visor helm crimson steel~
a crimson steel helm and visor~
A helm and visor made of crimson steel rests here.~
~
9 134742016 0 0 0 17 0 0 0
5 0 0 0
4 5000 85
A
4 1
A
3 1
B
0 0 0 0
#2378
greaves crimson steel~
a pair of crimson steel greaves~
Some greaves made of crimson steel rest here.~
~
9 524288 0 0 0 33 0 0 0
5 0 0 0
5 5000 55
A
3 1
B
0 0 0 0
#2379
vambraces crimson steel~
a pair of crimson steel vambraces~
Some vambraces made of crimson steel rest here.~
~
9 524288 0 0 0 257 0 0 0
5 0 0 0
3 5000 55
A
1 1
B
0 0 0 0
#2380
star morning morningstar~
a huge morningstar~
A huge morningstar rests here.~
~
5 64 0 0 0 8193 0 0 0
4 4 5 6
10 5000 180
E
star morning morningstar~
It looks damaging.
~
A
18 1
A
2 1
B
0 0 0 0
#2381
spiked brass knuckles~
some huge spiked brass knuckles~
A set of spiked brass knuckles lies here.~
~
5 0 0 0 0 8321 0 0 0
0 4 3 1
5 5000 160
E
spiked brass knuckles~
A band held in the hand that has spikes on the front side.
~
A
18 1
A
13 5
A
19 1
B
0 0 0 0
#2382
ring key multi colored multi-colored~
a multi-colored key ring~
A ring of multi-colored keys rests here.~
~
15 0 0 0 0 32769 0 0 0
10 0 0 0
3 500 10
E
ring key multi colored multi-colored~
It has several keys of different colors on it.
~
B
0 0 0 0
#2383
maul huge wooden~
a huge wooden maul~
A huge wooden maul rests here.~
~
5 0 0 0 0 8193 0 0 0
4 4 5 6
15 5000 180
A
18 1
A
2 1
B
0 0 0 0
#2384
potion misty~
a misty potion~
A small misty potion rests here.~
~
10 8257 0 0 0 1 0 0 0
20 28 0 0
1 5000 500
B
0 0 0 0
#2385
pouch belt~
a belt pouch~
A belt pouch lies here.~
~
15 0 0 0 0 2049 0 0 0
75 0 0 0
2 5000 85
A
17 -2
B
0 0 0 0
#2386
spear ogre~
an ogre spear~
A crude spear rests here.~
~
5 0 0 0 0 8193 0 0 0
0 5 5 22
5 5000 315
A
1 2
A
18 1
B
0 0 0 0
#2387
club ogre war~
an ogre war club~
A large, crude club rests here.~
~
5 0 0 0 0 8193 0 0 0
4 2 6 6
7 5000 60
A
2 1
B
0 0 0 0
#2388
cloak bear skin bearskin~
a bearskin cloak~
A rough bearskin rests here.~
~
9 0 0 0 0 1025 0 0 0
8 0 0 0
10 5000 155
A
17 -3
A
13 10
B
0 0 0 0
#2389
ear ring earring feathered~
a pair of feathered earrings~
Some feathered earrings rest here.~
~
11 65 0 0 0 262145 0 0 0
0 0 0 0
2 5000 190
A
4 3
B
0 0 0 0
#2390
gauntlets ogre power~
gauntlets of ogre power~
Some heavy gauntlets lie here.~
~
9 524354 0 0 0 129 0 0 0
5 0 0 0
13 50 215
E
gauntlets ogre power~
They look very "handy".
~
A
1 2
A
18 1
A
19 1
B
0 0 0 0
#2391
club massive~
a massive club~
A massive club lies here, discarded.~
~
5 0 0 0 0 8193 0 0 0
0 5 3 6
19 50 100
A
18 1
B
0 0 0 0
#2392
cape thick fur~
a thick fur cape~
A thick pile of fur lies here.~
~
9 0 0 0 0 5 0 0 0
6 0 0 0
5 50 55
A
17 -3
B
0 0 0 0
#2393
tunic fur lined~
a fur lined tunic~
A fur lined tunic rests here.~
~
9 524288 0 0 0 9 0 0 0
6 0 0 0
6 50 55
A
17 -3
B
0 0 0 0
#2394
white fur polar bear skin~
a bear skin~
The fur of a white bear lies here.~
~
11 0 0 0 0 5 0 0 0
0 0 0 0
10 900 115
A
1 2
A
17 -5
B
0 0 0 0
#2395
bear meat food jerkey~
a piece of dried meat~
A small piece of dried meat is on the floor.~
~
19 0 0 0 0 16385 0 0 0
10 0 0 0
5 10 30
B
0 0 0 0
#2396
cocoa cup~
a cup of hot cocoa~
A cup of hot cocoa sits here.~
~
10 67108864 0 0 0 16385 0 0 0
20 55 0 0
1 2500 250
B
0 0 0 0
#2397
sky walker fly foaming shot~
a foaming shot of sky walker~
A small foaming shot sits here.~
~
10 0 0 0 0 16385 0 0 0
20 52 0 0
1 20000 2000
B
0 0 0 0
#2398
fur pants pair~
a pair of fur pants~
A pair of warm fur pants have been discarded here.~
~
11 0 0 0 0 33 0 0 0
0 0 0 0
7 200 145
A
17 -7
A
5 2
B
0 0 0 0
#2399
fur pair gloves worn~
a pair of fur gloves~
A pair of warm fur gloves has been discarded here.~
~
11 67108864 0 0 0 129 0 0 0
0 0 0 0
5 200 115
A
5 2
A
17 -5
B
0 0 0 0
$~
