#23200
maker tooth~
a maker tooth~
A milky white crecent glitters here.~
~
5 3192328 32 0 0 24577 0 0 0
0 12 2 11
0 0 735
A
1 2
A
19 2
B
0 0 0 0
#23201
steel helm black~
a black steel helm~
A matte black helm lies here half buried in the dust.~
~
9 6126088 32 0 0 17 0 0 0
8 0 0 0
1 1 250
A
5 2
A
1 2
B
0 0 0 0
#23202
harkonnen livery tunic~
harkonnen livery~
A pile of black and green cloth lies here.~
~
11 1063560 32 0 0 9 0 0 0
0 0 0 0
0 0 470
A
17 -15
A
18 2
A
19 1
B
0 0 0 0
#23203
serrated knife~
a long serrated knife~
An evil looking black knife is stuck in the ground here.~
~
5 6125576 32 0 0 8193 0 0 0
0 3 12 16
0 0 855
A
13 10
A
19 2
A
18 1
B
0 0 0 0
#23204
green handkerchief cloth~
a dull green handkerchief~
A small tattered strip of green cloth lies here on the ground.~
~
18 12 0 0 0 4097 0 0 0
0 0 0 0
0 0 0
B
0 0 0 0
#23205
milky white knife~
a small milky white knife~
A small sliver of maker tooth lies here.~
~
5 3911752 32 0 0 8193 0 0 0
0 4 9 11
0 0 715
A
5 1
B
0 0 0 0
#23206
kindjal white~
a milky white kindjal~
A large fragment of wormtooth glimmers in the light.~
~
5 3911688 32 0 0 8193 0 0 0
0 3 10 11
0 0 395
A
13 5
A
2 2
B
0 0 0 0
#23207
markers coffee service~
markers for Jamis' coffee service~
A small pile of threaded stones lies on the ground.~
~
18 4 0 0 0 1 0 0 0
0 0 0 0
0 0 0
B
0 0 0 0
#23208
nezhoni scarf~
a nezhoni scarf~
A thickly padded scarf lies here.~
~
11 4550920 32 0 0 32785 0 0 0
0 0 0 0
0 0 670
A
13 20
A
17 -8
A
19 3
B
0 0 0 0
#23209
atreides gom jabbar needle~
the Atreidies Gom Jabbar~
A long needle lies here half burried in the dust.~
~
11 4177928 0 0 0 3 0 0 0
0 0 0 0
0 0 700
A
12 35
A
19 2
A
18 2
B
0 0 0 0
#23210
watercounters counters discs cord~
a strand of water counters~
A cord with several small discs of various sizes lies here, forgotten.~
~
18 4 0 0 0 1 0 0 0
0 0 0 0
0 0 0
B
0 0 0 0
#23211
teardrop key~
a teardrop shaped key lies here.~
A thin piece of steel lies here in the shape of a teardrop.~
~
18 4 0 0 0 1 0 0 0
0 0 0 0
0 0 0
B
0 0 0 0
#23212
jubba cloak~
a jubba cloak~
A thick pile of tan cloth lies here on the ground.~
~
11 3321864 32 0 0 5 0 0 0
0 0 0 0
0 0 290
A
19 2
A
17 -10
A
2 1
B
0 0 0 0
#23213
bloodred stillsuit red~
a &01Blood Red&00 Stillsuit~
A thickly padded suit made from woven fibers lies here on the ground.~
~
9 3715080 32 0 0 9 0 0 0
10 0 0 0
0 0 920
A
19 3
A
23 -5
A
24 -5
B
0 0 0 0
#23214
water life ~
the water of life~
A heavy leather waterskin lies here, smelling strongly of melange.~
~
10 0 0 0 0 1 0 0 0
50 309 113 0
0 0 0
B
0 0 0 0
#23215
sha-nama zensunni wanderers book~
the Sha-Nama of the Zensunni Wanderers~
A small delicate book lies here.~
~
12 68141128 0 0 0 16385 0 0 0
0 0 0 0
0 0 845
A
12 40
A
9 5
A
19 2
B
0 0 0 0
#23216
kerchief handkerchief bakka~
the kerchief of the Bakka~
A pale green strip of cloth, wet with tears lies here.~
~
11 3654728 0 0 0 32769 0 0 0
0 0 0 0
1 0 750
A
12 35
A
19 3
A
30 30
B
0 0 0 0
#23217
crysknife~
&14a crysknife&00~
A &14milky white&00 blade lies here on the ground.~
~
5 2733320 32 0 0 8193 0 0 0
0 15 2 11
14 0 1995
A
19 4
A
18 4
B
0 0 0 0
#23218
eyes ibad blue~
&04eyes of the ibad&00~
A bluish tint floats here before your eyes.~
~
11 100671496 0 0 0 524289 0 0 0
0 0 0 0
3 0 380
A
33 45
A
19 2
A
13 10
A
12 10
A
18 2
B
131072 0 0 0
#23219
ring signet red duke~
a Signet ring of the Red Dukes~
A large ring with the head of an eagle carved into it lies here on the ground.~
~
11 38301696 32 0 0 3 0 0 0
0 0 0 0
1 0 855
A
19 4
A
13 20
A
17 -3
B
0 0 0 0
#23220
sack spice~
a sack of raw, unrefined melange~
A sack, smelling strongly of spice lies here on the ground.~
~
8 0 0 0 0 1 0 0 0
0 0 0 0
0 0 0
B
0 0 0 0
#23221
opafire gems black~
a large pile of opafire gems~
A large pile of opafire gems lies here waiting to be picked up.~
~
20 0 0 0 0 1 0 0 0
500000 0 0 0
0 0 0
B
0 0 0 0
#23222
coffee spice cup~
a cup of spice coffee~
A small cup filled with rich black coffee lies on a table here.~
~
10 0 0 0 0 1 0 0 0
50 27 33 0
0 0 0
B
0 0 0 0
#23223
flask refined spiced~
a small flask of refined melange~
A small flask half full of a brown murky liquid~
~
10 0 0 0 0 1 0 0 0
50 44 0 0
0 0 0
B
0 0 0 0
#23224
junk~
an oddly shaped boulder~
An oddly shaped boulder stands here blocking the way east.~
~
0 0 0 0 0 0 0 0 0
0 0 0 0
0 0 0
E
boulder~
this large chunk of rock looks almost tear shaped...
~
B
0 0 0 0
#23225
black key grey cord~
a black key on a thin grey cord.~
A black key on a thin grey cord lies here.~
~
18 0 0 0 0 1 0 0 0
0 0 0 0
0 0 0
B
0 0 0 0
#23226
smuggler robe~
a smuggler's robe~
A dirty brown pile of cloth lies here.~
~
15 1159176 32 0 0 1025 0 0 0
500 1 -1 0
0 0 950
A
2 3
A
19 2
A
17 -10
B
0 0 0 0
#23227
key stone disc~
a small stone disc~
A round piece of stone lies on the ground here.~
~
18 67108876 0 0 0 1 0 0 0
0 0 0 0
0 0 0
B
0 0 0 0
#23228
disc metal key~
a smooth metal disc~
A small metal disc lies on the ground here.~
~
18 0 0 0 0 1 0 0 0
0 0 0 0
0 0 0
B
0 0 0 0
#23292
anklet anyanwu~
a braided hemp strand anklet~
Long strings of rough material lie here, forgotten.~
~
9 67108864 0 0 0 131073 0 0 0
15 0 0 0
0 0 3190
A
33 51
A
17 -20
A
19 4
A
19 4
A
19 4
A
19 4
B
0 0 0 0
#23293
silver anyanwu~
a silver bracelet~
A shiny bracelet has been dropped here.~
~
9 67108864 4096 0 0 4097 0 0 0
15 0 0 0
0 0 3190
A
33 51
A
17 -20
A
19 4
A
19 4
A
19 4
A
19 4
B
0 0 0 0
#23294
feather anyanwu headband~
a feathery headband~
Multicolored feathers are scattered here.~
~
9 67633152 0 0 0 17 0 0 0
-15 0 0 0
0 0 3550
A
33 51
A
17 -20
A
17 -20
A
17 -20
A
17 -20
A
17 -20
B
0 0 0 0
#23295
ring anyanwu~
a ring of Alexandrite~
A ring of everchanging colors lies here.~
~
9 67108897 0 0 0 3 0 0 0
15 0 0 0
0 0 2470
A
33 51
A
18 4
A
18 4
A
18 4
A
19 4
A
19 4
B
0 0 0 0
#23296
pendant Anyanwu~
a glowing dragon pendant~
A dragon-shaped prism has been dropped here.~
~
9 67108897 0 0 0 32769 0 0 0
15 0 0 0
0 0 2900
A
33 51
A
30 100
A
17 -20
A
17 -20
A
17 -20
A
17 -20
B
4194304 0 0 0
#23297
skirt Anyanwu~
a velvet skirt~
Beautiful velvet cloth lies here.~
~
9 67633152 0 0 0 33 0 0 0
15 0 0 0
0 0 3550
A
33 51
A
17 -20
A
17 -20
A
17 -20
A
17 -20
A
17 -20
B
0 0 0 0
#23299
shirt Anyanwu ~
a shirt~
A bundle of cloth~
~
9 524288 0 0 0 9 0 0 0
15 0 0 0
0 0 2470
A
33 51
A
18 4
A
18 4
A
19 4
A
19 4
A
18 4
B
1081472 32 0 0
$~
