#23903
keruzet signet ring~
the Keruzet signet ring~
A keruzet ring lies here.~
~
11 524288 0 0 0 3 0 0 0
0 0 0 0
0 200000 210
A
1 5
A
2 5
A
3 5
A
4 5
A
5 5
A
6 5
B
0 0 0 0
#23904
cloak teleportation~
the Cloak of Teleportation~
A cloak dissapears!~
~
3 0 32 0 0 5 0 0 0
50 5 1 2
1000 1000 330
A
4 2
A
17 -11
B
0 0 0 0
#23905
rabbit fur leggings~
a pair of leggings made from soft white rabbit fur~
A pair of leggings made from soft white rabbit fur lie here.~
~
11 589824 0 0 0 33 0 0 0
0 0 0 0
0 100000 100
A
17 -10
A
33 25
B
0 0 0 0
#23906
wings~
&04a &06p&11a&13i&04r&06 o&11v&13 l&00&04i&06q&11u&13i&00&04d&06 b&11l&13u&00&04e&06 w&11i&13n&00&04g&06s&00~
You see a tiara.~
~
11 0 0 0 0 1025 0 0 0
0 0 0 0
0 1500 90
A
5 2
B
0 0 0 0
#23907
wings dreams~
the Wings of Dreams~
The Wings of Dreams can take you anywhere.~
~
4 65536 0 0 0 131073 0 0 0
50 2 2 2
1111 150000 60
A
19 1
B
0 0 0 0
#23908
busy busy fingertips!~
busy fingertips~
Busy busy fingertips touch you all over!~
~
19 0 0 0 0 129 0 0 0
3 0 0 0
0 0 9
B
0 0 0 0
#23909
tattoo woman naked~
a tattoo of a beautiful naked woman~
A tattoo of a beautiful naked woman lies here.~
~
1 0 0 0 0 257 0 0 0
0 0 5000 0
0 0 1000
B
0 0 0 0
#23910
shield mortalslayer~
&11Shield of the Mortalslayer&00~
&11Shield of the Mortalslayer&00 lies here.~
~
9 524288 0 0 0 513 0 0 0
15 0 0 0
1000 1 400
A
17 -10
B
0 0 0 0
#23911
bracelet of d'oh~
Bracelet of D'oh~
Bracelet of D'oh lies here~
~
11 1 0 0 0 4097 0 0 0
0 0 0 0
0 60 0
A
1 5
A
2 5
A
3 5
A
4 5
A
5 5
A
6 5
B
0 0 0 0
$~
