#2400
rainbow staff~
the rainbow staff~
The rainbow staff lies here.~
~
1 64 0 0 0 1 0 0 0
0 0 -1 0
8 5000 1070
A
4 1
A
12 10
B
0 0 0 0
#2401
sting~
Sting~
Sting lies here.~
~
5 2106371 0 0 0 8193 0 0 0
0 5 5 11
1 10000 385
A
18 3
B
0 0 0 0
#2402
sign~
a sign~
A sign demands your attention.~
~
12 0 0 0 0 0 0 0 0
0 0 0 0
0 0 0
E
sign~

Welcome to the Shire.  As you enter the Shire from Haon-Dor you come under
the jurisdiction of the Thain, the peacekeeper of the Shire.  Consequently,
by entering these lands you agree to obey our laws.  If you break these laws,
you will be severely punished.  We do not like riff raff in our peaceful
town.

					The Thain
					Peacekeeper of the Shire

~
B
0 0 0 0
#2403
pipeweed bread~
a pipeweed bread~
A loaf of pipeweed bread arouses your hunger.~
~
19 0 0 0 0 1 0 0 0
24 0 0 0
1 13 72
B
0 0 0 0
#2404
silvery cloak~
a silvery cloak~
A silvery cloak lies here.~
~
9 1088 0 0 0 1025 0 0 0
7 0 0 0
3 10000 175
A
24 -2
A
17 -4
B
0 0 0 0
#2405
one ring~
the One Ring~
The One Ring is here.~
~
9 64 0 0 0 3 0 0 0
0 0 0 0
3 2500 155
A
17 -7
A
18 1
A
19 1
B
2 0 0 0
#2406
elven bow~
an elven bow~
An elven bow lies here.~
~
6 8155202 32 0 0 16385 0 0 0
1 1 4 0
10 2000 30
A
2 1
B
0 0 0 0
#2407
mithril axe~
a mithril axe~
A mithril axe lies here.~
~
5 6844481 0 0 0 8193 0 0 0
0 4 6 3
12 4000 320
A
19 2
B
0 0 0 0
#2408
thain girth~
the thain girth~
The girth of the thain lies here.~
~
9 0 0 0 0 2049 0 0 0
7 0 0 0
4 1000 145
A
1 2
B
0 0 0 0
#2409
tiny dagger~
a tiny dagger~
A tiny dagger lies here.~
~
5 0 0 0 0 8193 0 0 0
0 2 7 11
3 40 40
B
0 0 0 0
#2410
egg~
an egg~
An egg lies here.~
~
19 0 0 0 0 1 0 0 0
12 0 0 0
1 9 36
B
0 0 0 0
#2411
bag~
a bag~
A bag is on the floor.~
~
15 0 0 0 0 1 0 0 0
50 0 0 0
5 50 50
B
0 0 0 0
#2412
lantern~
a lantern~
A lantern is on the floor.~
~
1 0 0 0 0 1 0 0 0
0 0 20 0
4 50 20
B
0 0 0 0
#2413
bardiche~
a bardiche~
A long weapon with a sharp end is on the floor.~
~
5 4222976 0 0 0 8193 0 0 0
8 3 4 3
10 1000 30
B
0 0 0 0
#2414
flail~
a flail~
A flail is on the floor.~
~
5 0 0 0 0 8193 0 0 0
0 2 8 7
8 300 50
B
0 0 0 0
#2415
toddler id necklace~
a toddler's ID necklace~
A toddler's ID necklace lies here.~
~
8 64 0 0 0 32769 0 0 0
0 0 0 0
1 2500 30
A
5 1
B
0 0 0 0
#2416
polished medallion~
a polished medallion~
A polished medallion lies here.~
~
8 64 0 0 0 32769 0 0 0
0 0 0 0
1 2500 30
A
3 1
B
0 0 0 0
#2417
gloves studded leather~
a pair of studded leather gloves~
A pair of studded leather gloves is lying on the ground.~
~
9 524288 0 0 0 129 0 0 0
5 0 0 0
3 75 55
A
2 1
B
0 0 0 0
#2418
pants studded leather~
a pair of studded leather pants~
A pair of studded leather pants is lying on the ground.~
~
9 524288 0 0 0 33 0 0 0
5 0 0 0
8 100 25
B
0 0 0 0
#2419
jacket studded leather~
a studded leather jacket~
A studded leather jacket is lying on the ground.~
~
9 524288 0 0 0 9 0 0 0
5 0 0 0
10 150 25
B
0 0 0 0
#2420
studded helmet leather~
a studded leather helmet~
A studded leather helmet is lying on the ground.~
~
9 134742016 0 0 0 17 0 0 0
5 0 0 0
3 75 25
B
0 0 0 0
#2421
bronze breast plate~
a bronze breast plate~
A bronze breast plate is lying on the ground.~
~
9 524288 0 0 0 9 0 0 0
6 0 0 0
30 2000 40
B
0 0 0 0
#2422
helmet bronze~
a bronze helmet~
A bronze helmet is lying on the ground.~
~
9 134742016 0 0 0 17 0 0 0
6 0 0 0
8 750 40
B
0 0 0 0
#2423
gauntlets bronze~
a pair of bronze gauntlets~
A pair of bronze gauntlets is lying on the ground.~
~
9 524288 0 0 0 129 0 0 0
6 0 0 0
8 500 40
B
0 0 0 0
#2424
a magical arrow~
a magical arrow~
A magical arrow shimmers on the ground~
a magical arrow~
7 0 0 0 0 1 0 0 0
1 1 14 5
1 10 0
A
33 5
B
0 0 0 0
#2434
Amulet of the Dead~
the Amulet of the Dead~
A golden amulet forged by the walking dead lies here.~
~
2 67174528 1088 0 0 32769 0 0 0
50 101 101 101
1 40000 5270
E
new_item~
2436
~
E
insert_item~
2435
~
E
insert_to_character~
You smell burning metal and suddenly the two pieces meld!
~
E
insert_to_room~
The two pieces hum then glow brightly as they fuse together!
~
E
insert_fail_character~
the gold glows then fades to dullness.
~
E
insert_fail_room~
the gold glows briefly then fades to dullness.
~
A
19 2
A
18 2
A
20 -20
A
31 10
A
31 10
A
28 -10
B
33554432 512 0 0
#2435
Key to the Loch of the Dead~
the key to the loch of the dead~
A dull metal key lies here.~
~
18 65 128 0 0 1 0 0 0
0 0 0 0
1 200000 0
B
0 0 0 0
$~
