#24001
Retaliator sword Forest~
a Retaliator~
A glowing sword of brilliant blue illuminates the area.~
~
5 74349577 32 0 0 8193 0 0 0
0 16 2 21
15 5000 2095
E
Retaliator sword forest~
Dark blue elven runes cover the blade.
~
A
24 -4
A
5 2
A
19 3
B
0 0 0 0
#24002
amulet elven realms forest~
the Amulet of the Elven Realms~
A shiny mithril amulet glows brightly.~
~
11 74206217 0 0 0 32769 0 0 0
0 0 0 0
4 500 195
A
29 20
A
12 20
A
17 -7
B
0 0 0 0
#24003
sunburst shield forest~
a sunburst shield~
A shield emblazoned with a sunburst image fills the room with light.~
~
9 74349569 32 0 0 513 0 0 0
10 0 0 0
17 1000 650
E
shield sunburst~
A large exploding sun seems to come out of the shield.
~
A
18 2
A
13 20
A
19 2
B
0 0 0 0
#24004
plate undead slayer forest~
the Plate of the Undead Slayer~
A suit of fantastically bright metal armor glows with a brilliant hue.~
~
9 74347593 32 0 0 9 0 0 0
15 0 0 0
12 2000 925
A
17 -5
A
13 20
A
19 3
B
0 0 0 0
#24005
brand brilliance forest~
Fiery Brand of Brilliance~
A flaming rod of white metal is scorching the ground beneath it.~
~
1 67633160 0 0 0 16385 0 0 0
0 0 -1 0
2 1000 1270
A
18 2
A
19 2
A
29 30
B
0 0 0 0
#24006
wraithblade forest~
Wraithblade~
A shimmering sword of evil energy shifts in and out of existence here.~
~
5 73321128 0 0 0 8193 0 0 0
0 15 2 21
7 1000 1285
A
1 1
A
5 -1
A
12 20
B
0 0 0 0
#24007
claws damned forest~
Claws of the Damned~
A pair of twisted metal claws sour the ground they taint.~
~
9 67633664 0 0 0 129 0 0 0
6 0 0 0
4 1000 375
A
17 -5
A
13 15
A
19 2
B
0 0 0 0
#24008
cowl black cresslix forest~
the Black Cowl of Cresslix~
A cowl of black cloth is draped on the floor.~
~
9 68872712 0 0 0 17 0 0 0
7 0 0 0
2 1000 345
A
3 2
A
12 20
A
19 1
A
29 30
B
0 0 0 0
#24009
tears saint forest~
Tears of the Saint~
A blackened shard of crystal lies here.~
~
11 67109185 0 0 0 32769 0 0 0
0 0 0 0
2 1000 250
A
23 -2
A
28 -3
A
20 -3
B
0 0 0 0
#24010
falchion forest~
a shining falchion~
A magical flachion shimmers here.~
~
5 68684288 0 0 0 8193 0 0 0
0 1 5 3
8 500 206
A
18 -3
B
0 0 0 0
#24011
tattered cloak forest~
a tattered cloak~
A tattered cloak is draped on the ground.~
~
11 69207113 0 0 0 5 0 0 0
0 0 0 0
3 1000 415
A
5 3
A
17 5
A
24 -4
B
0 0 0 0
#24012
weatherbeaten sign forest~
a weatherbeaten sign~
A weatherbeaten sign is nailed to a tree.~
~
13 0 0 0 0 0 0 0 0
0 0 0 0
1000 0 0
E
sign weatherbeaten~
The Forest of the Dead is a dangerous place,and not for novice Adventurers,
or those who are weak of heart. Certainly one should be no less than level 45,
even those much higher than this should still show care.
~
B
0 0 0 0
#24013
jewelled band ring forest~
a jewelled band~
A gold band encrusted with tiny gems gleam brightly.~
~
9 0 0 0 0 4097 0 0 0
0 0 0 0
2 4000 0
B
0 0 0 0
#24014
iron torc forest~
an iron torc~
A circular piece of iron lies here.~
~
9 67633152 0 0 0 32769 0 0 0
3 0 0 0
0 0 545
A
1 1
A
9 20
B
0 0 0 0
#24015
battered mace forest~
a battered mace~
This mace has seen more battles than you...~
~
5 67108864 0 0 0 8193 0 0 0
0 2 3 7
10 50 8
B
0 0 0 0
#24016
buckler iron forest~
an iron buckler~
An iron buckler has been dropped here.~
~
9 67633152 0 0 0 513 0 0 0
2 0 0 0
5 0 10
B
0 0 0 0
#24017
gaping pit forest~
a gaping pit~
A gaping pit serves as a lair for some horrid beast.~
~
15 0 0 0 0 0 0 0 0
100 0 -1 0
1000 100 100
B
0 0 0 0
#24018
splint mail forest~
splint mail~
A suit of splint mail has been tossed aside here.~
~
9 67633152 0 0 0 9 0 0 0
1 0 0 0
5 100 5
B
0 0 0 0
#24019
circlet thorns forest~
circlet of thorns~
Someone has fashioned a wreath from thorn and thistle.~
~
11 67108992 0 0 0 17 0 0 0
0 0 0 0
2 50 600
A
2 -3
A
18 -1
A
3 -4
B
0 0 0 0
#24020
bark leggings forest~
bark leggings~
A pair of leggings crafted from tree bark has been left here.~
~
9 75296768 32 0 0 33 0 0 0
8 0 0 0
5 1000 670
A
3 3
A
19 3
A
1 2
B
0 0 0 0
#24021
spear forest~
an ironshod spear~
An ironshod spear is thrust into the ground.~
~
5 0 0 0 0 8193 0 0 0
0 2 3 22
8 100 108
A
18 1
A
19 1
B
0 0 0 0
#24022
leather girdle forest~
a leather girdle~
A leather girdle studded with rusted iron studs hangs from a hook.~
~
9 67633152 0 0 0 2049 0 0 0
3 0 0 0
5 100 75
A
10 10
A
19 1
B
0 0 0 0
#24023
mildew sandals forest~
mildewed sandals~
A pair of sandals covered in mold and other substances lies here.~
~
11 67108864 0 0 0 65 0 0 0
0 0 0 0
9 50 430
A
2 -3
A
6 -3
A
14 -10
B
0 0 0 0
#24024
cold steel broadsword forest~
Cold Steel Broadsword~
A broadsword forged in cold instead of heat glows strangely.~
~
5 67108864 0 0 0 8193 0 0 0
0 3 4 3
7 100 150
A
1 1
A
2 2
B
0 0 0 0
#24025
cold steel gauntlets forest~
Cold Steel Gauntlets~
A pair of icy cold blue steel gauntlets chill the surrounding air.~
~
9 68710913 32 0 0 129 0 0 0
8 0 0 0
5 1000 670
A
1 3
A
19 3
A
3 -2
B
0 0 0 0
#24026
sapphire bracelet forest~
sapphire bracelet~
A delicate sapphire bracelet has been carelessly tossed aside.~
~
9 68710912 32 0 0 4097 0 0 0
8 0 0 0
5 1000 680
A
18 3
A
1 -2
A
19 3
B
0 0 0 0
#24027
glassy panel forest~
a glassy panel~
A glassy panel is set into one of the grimy stone walls.~
~
13 67108864 0 0 0 0 0 0 0
0 0 0 0
1750 1000000 0
B
0 0 0 0
#24028
goblin spy forest~
a newly created goblin spy~
Some god dropped a newly created goblin spy here.~
~
13 67108864 0 0 0 1 0 0 0
0 0 0 0
3 50 0
B
0 0 0 0
#24029
spyglass forest~
a spyglass~
A small brass spyglass has been left behind.~
~
9 70955048 32 0 0 16385 0 0 0
3 0 0 0
3 100 395
A
3 3
A
4 3
B
0 0 0 0
#24030
map forest~
a faded and torn map~
A faded and torn map of the forest lies here, unwanted.~
~
13 67108864 0 0 0 1 0 0 0
0 0 0 0
1 10 0
E
map~
Goblins aren't renowned navigators at the best of times,and this fact,
coupled with the exceptionally poor condition of the map, makes most of
it highly suspect. However, several of the markings seem
to fit with what little you know of local geography, and doubtless some of
the landmarks are general knowledge to the locals.


     Cresslix?
        
        
                                       Stair Thingy
        
                                                             Tower
        
        
        
                                                                   R
HEre bE    -------------
sLime...
                                                                I
                         G?
Ruins n                                                         V
stuff                                    |
                                         |
                                      Startz   
~
B
0 0 0 0
#24031
moss sleeve forest~
sleeves of moss~
Sleeves covered with damp moss cover the ground.~
~
9 75291648 32 0 0 257 0 0 0
4 0 0 0
5 1000 500
A
12 30
A
1 2
A
3 2
B
0 0 0 0
#24032
maple leaf forest~
a perfect maple leaf~
A perfectly formed maple leaf lies on the floor.~
~
9 75291648 32 0 0 16385 0 0 0
2 0 0 0
1 50 660
A
12 40
A
31 10
A
1 2
B
0 0 0 0
#24033
amber earring forest~
amber earring~
Drops of hardened tree sap lie here.~
~
9 7656771 32 0 0 262145 0 0 0
0 0 0 0
2 1000 440
A
3 3
A
12 20
A
18 2
B
0 0 0 0
#24034
plain brown robes forest~
plain brown robes~
A pile of brown cloth has been dumped here.~
~
11 74764288 32 0 0 1025 0 0 0
0 0 0 0
5 1000 605
A
12 30
A
9 -10
A
17 -7
B
0 0 0 0
#24035
spider silk belt forest~
a spider silk belt~
A belt fashioned from spider web can barely be seen.~
~
15 3190816 32 0 0 2049 0 0 0
400 1 -1 0
2 1000 750
A
2 2
A
13 15
A
18 2
B
0 0 0 0
#24036
elven skeleton forest~
an elven skeleton~
The skeletal remains of an elven sentry are slumped over the edge.~
~
15 0 0 0 0 0 0 0 0
100 5 -1 0
1000 0 100
B
0 0 0 0
#24037
key forest~
a small key~
A small key has been dropped here.~
~
18 65548 0 0 0 1 0 0 0
0 0 0 0
1 0 0
B
0 0 0 0
#24038
key forest~
a key~
A small key has been dropped here.~
~
18 65548 0 0 0 1 0 0 0
0 0 0 0
1 0 0
B
0 0 0 0
#24039
claw nightbeast forest~
the Claw of the Nightbeast~
A twisted, mangled claw drips blood onto the floor.~
~
5 1051296 0 0 0 8193 0 0 0
0 15 2 16
4 1000 1515
A
18 2
A
19 3
B
0 0 0 0
#24040
behemoth hide forest~
a behemoth hide~
A strip of thick leathery skin lies here.~
~
9 8155136 32 0 0 5 0 0 0
12 0 0 0
15 1000 1010
A
5 3
A
13 25
A
19 2
B
0 0 0 0
#24041
silk leggings forest~
some silk leggings~
A pair of silken leggings lies here.~
~
11 3846208 32 0 0 33 0 0 0
0 0 0 0
2 1000 450
A
2 3
A
19 2
A
24 -2
B
0 0 0 0
#24042
purse small forest~
a small purse~
Someone dropped their purse here.~
~
20 0 0 0 0 1 0 0 0
500000 0 0 0
2 0 0
B
0 0 0 0
#24043
manifestation evil forest~
a manifestation of evil~
A glowing black sphere floats here.~
~
1 2688 0 0 0 16385 0 0 0
0 0 -1 0
1 1000 4060
A
9 100
A
19 4
B
0 0 0 0
#24044
insane look forest~
an insane look~
A glowing object hovers close to the floor.~
~
9 524416 0 0 0 524289 0 0 0
15 0 0 0
1 500 18770
A
13 -100
A
19 -4
A
18 -4
A
17 -10
A
13 -100
A
13 -100
B
0 0 0 0
#24045
black earthsilk bracelet~
a Black Earthsilk Bracelet~
A small pile of black silk lies here.~
~
9 8190530 32 0 0 4097 0 0 0
8 0 0 0
5 15000 820
A
19 4
A
13 15
A
12 10
B
0 0 0 0
#24046
quiver darkened arrows~
a quiver of darkened arrows~
A small concealed quiver hides in the darkness~
A darkened arrow~
7 2560 0 0 0 1 0 0 0
1 50 1 20
8 26500 0
A
33 25
B
0 0 0 0
$~
