#24200
beer budweiser junk~
a Budweiser~
A can of beer sits here.~
~
17 0 0 0 0 1 0 0 0
1 1 1 0
0 0 10
E
beer can budweiser~
  .-"`` _``"-.
 /'.   '.(##)'\
 |'.`'----'`.'|
 | .-'""""'-. |
 |\ _.====._ /|
 |'--.&08/^^\&00.--'|
 |&08__.-\__/-.__&00|
 |&08| Budweiser|&00|
 |&08| :::::::: |&00|
 |&08|%&%&%&%&%&|&00|
 |&08| %&%&%&%% |&00|
 \&08'=-.,__,.-='&00/
  `-.______.-'
  
~
B
0 0 0 0
#24205
phone xmas~
a phone~
Someone has lost their cell phone here.~
~
13 0 0 0 0 1 0 0 0
0 0 0 0
1 0 0
B
0 0 0 0
#24206
pear xmas~
a pear~
A piece of fruit lies here.~
~
13 0 0 0 0 1 0 0 0
0 0 0 0
1 0 0
B
0 0 0 0
#24207
egg goose xmas~
a goose egg~
A goose egg is just-a-laying here.~
~
19 0 0 0 0 1 0 0 0
12 0 0 0
1 0 36
B
0 0 0 0
#24208
feather wet xmas~
a wet feather~
A small wet feather lies here.~
~
13 0 0 0 0 1 0 0 0
0 0 0 0
1 0 0
B
0 0 0 0
#24209
buck milk xmas~
a milk bucket~
A bucket has been kicked here.~
~
13 0 0 0 0 1 0 0 0
0 0 0 0
1 0 0
B
0 0 0 0
#24210
dance card xmas~
a dance card~
A small card has fallen here.~
~
13 0 0 0 0 1 0 0 0
0 0 0 0
1 0 0
B
0 0 0 0
#24211
lion tail xmas~
a lion tail~
An animal lost his tail here.~
~
13 0 0 0 0 1 0 0 0
0 0 0 0
1 0 0
B
0 0 0 0
#24224
glass sliver key 8th kd~
a sliver of glass~
Someone seems to have broken a mirror here.~
~
18 65548 0 0 0 1 0 0 0
0 0 0 0
2 0 0
B
0 0 0 0
$~
