#24303
anaconda leggings~
anaconda leggings~
A layer of snake skin lies on the ground here.~
The leggings are made of a thick, colorful scale that was removed from the dreaded
mother of all Anacondas.
~
9 3682816 32 0 0 33 0 0 0
6 0 0 0
1 0 400
A
19 3
A
18 1
B
0 0 0 0
#24310
flying dagger~
a flying dagger~
A dagger is floating above the ground here.~
~
5 67108864 0 0 0 1 0 0 0
0 1 1 11
0 0 2
B
0 0 0 0
#24332
potion 24332 glowing~
a glowing potion~
A vial of liquid lies on the ground here.~
~
10 67108864 0 0 0 1 0 0 0
50 98 98 98
1 1 0
B
0 0 0 0
#24333
potion 24333~
a potion~
A small vial lies on the floor here.~
~
10 0 0 0 0 1 0 0 0
50 3 69 70
1 10 1
B
0 0 0 0
#24334
potion 24334~
a potion~
A small vial lies on the ground here.~
~
10 0 0 0 0 1 0 0 0
1 0 0 0
1 100 10
B
0 0 0 0
#24349
pumpkin pie thanksgiving~
a pumpkin pie with whipped cream~
A fresh pumpkin pie smothered with whipped cream rests here for anybody to eat.~
~
19 4 0 0 0 1 0 0 0
15 50 98 0
1 50 45
B
0 0 0 0
#24350
turkey thanksgiving leftovers 24350~
some Thanksgiving Leftovers~
A Thanksgiving Turkey lies on a platter here, for you!~
Mmmmmmmmmmmmmmmmmmmmmm
~
19 67108868 0 0 0 1 0 0 0
24 50 77 0
1 0 72
B
0 0 0 0
#24351
tube top~
a tube top stretches beyond belief with Panzer's breasts~
A small piece of clothing lies on the ground here.~
~
11 0 0 0 0 9 0 0 0
0 0 0 0
1 1 60
A
3 1
A
2 1
B
0 0 0 0
#24355
crystal chest~
a crystal chest~
A beautiful crystal chest lies on the ground here.~
~
14 67108864 0 0 0 0 0 0 0
0 0 0 0
50 100000 0
B
0 0 0 0
#24390
diamond~
a large diamond~
A large diamond lies on the ground here.~
~
8 100728836 0 0 0 1 0 0 0
0 0 0 0
1 1000000 0
B
0 0 0 0
#24391
t-shirt 24391 baal~
a t-shirt labeled "Do I seem as though I care?"~
A huge t-shirt lies on the ground here!~
~
11 67108864 0 0 0 9 0 0 0
0 0 0 0
1 0 3360
A
19 4
A
19 4
A
19 4
A
19 4
A
19 4
A
19 4
B
0 0 0 0
#24392
tie ~
a &20nifty tie with a picture of Goofy tripping in mid-air&00~
A &20nifty tie with a picture of Goofy tripping in mid-air&00 lies on the ground here.~
~
11 67108864 0 0 0 32769 0 0 0
0 0 0 0
1 0 2240
A
30 100
A
19 4
A
19 4
A
29 100
A
19 4
A
19 4
B
1310848 0 0 0
$~
