#24500
key enclave~
a key~
A key has been left here.~
~
18 67174412 0 0 0 1 0 0 0
0 0 0 0
3 0 0
B
0 0 0 0
#24501
manacles o24501~
a set of manacles~
A set of iron manacles lie here.~
~
11 0 0 0 0 4097 0 0 0
0 0 0 0
15 200 1410
A
2 -4
A
13 -25
A
19 -4
B
0 0 0 0
#24502
shackles~
a pair of shackles~
A pair of shackles lie here.~
~
11 0 0 0 0 33 0 0 0
0 0 0 0
15 200 1090
A
2 -4
A
5 -4
A
18 4
B
0 0 0 0
#24503
bottle green mixture vial~
a vial of green yuck~
A small vial of green yucky stuff sits here.~
~
10 0 0 0 0 1 0 0 0
45 2 42 2
1 5000 500
B
0 0 0 0
#24504
club wooden~
a club~
A crude wooden club sits here.~
~
5 67108864 0 0 0 8193 0 0 0
0 2 13 5
5 200 250
A
5 2
B
0 0 0 0
#24505
Starkblade knife dagger blade~
Starkblade~
A knife hums with eternal energy here.~
~
5 75426499 0 0 0 24577 0 0 0
0 2 2 11
5 10000 6
B
0 0 0 0
#24510
crown oak leaves~
a crown of oak leaves~
A bunch of leaves woven into a circle have been dropped here.~
~
11 67108864 0 0 0 17 0 0 0
0 0 0 0
3 200 180
A
3 2
A
4 2
B
0 0 0 0
$~
