#24801
A halo of Divinity~
a halo of Divinity~
A halo hovers gently above the ground.~
~
11 58720324 0 0 0 65537 0 0 0
0 0 0 0
7 10 210
A
19 1
A
18 1
A
13 10
A
12 10
B
128 0 0 0
D600
#24802
a halo of destruction~
a halo of destruction~
A halo hovers gently above the ground.~
~
11 58720324 0 0 0 65537 0 0 0
0 0 0 0
7 7 210
A
19 1
A
18 1
A
13 10
A
12 10
B
1048576 0 0 0
D600
#24803
a halo of momentum~
a halo of momentum~
A halo hovers gently above the ground.~
~
11 58720324 0 0 0 65537 0 0 0
0 0 0 0
7 10 550
A
19 2
A
18 2
A
13 20
B
17104960 0 0 0
D600
#24804
a halo of protection~
a halo of protection~
A halo hovers above the ground softly.~
~
10 58720324 0 0 0 65537 0 0 0
50 97 125 54
7 10 301
A
17 -15
B
4206592 24576 0 0
D600
#24805
a halo of regeneration~
a halo of regeneration~
A halo hovers softly above the ground.~
~
11 58720324 0 0 0 65537 0 0 0
0 0 0 0
7 10 760
A
12 25
A
13 25
A
19 1
B
131072 2107392 0 0
D600
#24806
a halo of vision~
a halo of vision~
A halo hovers softly above the ground.~
~
11 58720324 0 0 0 65537 0 0 0
0 0 0 0
7 10 380
A
19 2
A
18 2
A
13 10
A
12 10
B
1084 1048576 0 0
D600
#24807
a halo of charisma~
a halo of charisma~
A halo hovers softly above the ground.~
~
10 58720324 0 0 0 65537 0 0 0
50 132 91 147
7 7 0
B
786496 0 0 0
D600
#24808
wings of the ch&01r&04o&13m&00a&14t&00ic dragon~
wings of the ch&01r&04o&13m&00a&14t&00ic dragon~
A set of wings lay on the ground.~
~
11 33557329 0 0 0 1025 0 0 0
0 0 0 0
10 769000 610
A
19 2
A
18 1
A
13 10
A
12 10
A
17 -15
A
33 35
B
536870912 0 0 0
#24809
a mirage of myriad color~
a mirage of myriad color~
A mirage flickers a thousand colors.~
~
11 33556305 0 0 0 1025 0 0 0
0 0 0 0
10 750000 610
A
19 2
A
18 1
A
13 10
A
12 10
A
17 -15
A
33 35
B
536870912 0 0 0
#24811
ankle blades kaij meek~
&07the a&14n&00k&14l&07e&00 &07b&14l&00ad&14e&07s of K&14a&00i&07j the M&00e&14e&07k&00~
Some ankle blades have been placed on the floor.~
~
11 12368 16777248 0 0 131073 0 0 0
0 0 0 0
7 100000 600
A
19 4
A
18 1
A
33 50
B
0 0 0 0
$~
