#2600
chainmail chain mail~
elven chainmail~
A shiny metallic shirt is on the floor.~
~
9 -2012741632 16390 0 0 9 0 0 0
8 0 0 0
25 100 250
A
1 2
A
1 2
B
0 0 0 0
#2601
elven boots~
a pair of elven boots~
Some soft boots are on the floor.~
~
9 -2012741632 16390 0 0 65 0 0 0
5 0 0 0
3 10 240
A
14 25
A
2 2
B
0 0 0 0
#2602
longsword sword long~
an elven longsword~
A shiny blade is on the floor.~
~
5 64 0 0 0 8193 0 0 0
0 5 5 3
15 150 295
A
18 2
B
0 0 0 0
#2603
elven cloak~
an elven cloak~
An elven cloak lies here.~
~
9 64 0 0 0 5 0 0 0
6 0 0 0
3 50 100
A
2 1
A
5 1
B
0 0 0 0
#2604
key~
a key~
A shiny key is on the floor.~
~
18 0 0 0 0 1 0 0 0
2 0 0 0
1 0 0
B
0 0 0 0
#2605
key~
a key~
A shiny key is on the floor.~
~
18 0 0 0 0 1 0 0 0
2 0 0 0
1 0 0
B
0 0 0 0
#2606
tiny golden ring~
a tiny golden ring~
A golden ring is on the floor.~
~
11 -2012299200 16390 0 0 3 0 0 0
0 0 0 0
2 1000 220
A
12 25
B
0 0 0 0
#2607
black crystal staff~
a black crystal staff~
A black crystal staff lies here.~
~
5 8380480 0 0 0 8193 0 0 0
0 10 3 7
12 1000 905
A
28 -2
A
12 25
B
0 0 0 0
#2608
vial dogwood sap~
a vial of dogwood sap~
A vial of treesap lies here.~
~
10 64 0 0 0 1 0 0 0
40 1 29 0
1 5000 500
B
0 0 0 0
#2609
vial aspen sap~
a vial of aspen sap~
A vial of tree sap lies here.~
~
10 64 0 0 0 1 0 0 0
40 46 28 0
1 5000 500
B
0 0 0 0
#2610
vial oak sap~
a vial of oak sap~
A vial of tree sap lies here.~
~
10 64 0 0 0 1 0 0 0
40 20 44 0
1 5000 500
B
0 0 0 0
#2611
vial pine sap~
a vial of pine sap~
A vial of tree sap lies here.~
~
10 64 0 0 0 1 0 0 0
40 105 0 0
1 5000 500
B
0 0 0 0
#2612
vial maple sap~
a vial of maple sap~
A vial of tree sap lies here.~
~
10 64 0 0 0 1 0 0 0
40 77 0 0
1 5000 500
B
0 0 0 0
#2613
vial hemlock sap~
a vial of hemlock sap~
A vial of tree sap lies here.~
~
10 64 0 0 0 1 0 0 0
40 33 93 38
1 5000 500
B
0 0 0 0
#2614
redwood sap~
a vial of redwood sap~
A vial of tree sap lies here.~
~
10 64 0 0 0 1 0 0 0
40 3 69 53
1 5000 500
B
0 0 0 0
#2615
vial cedar sap~
a vial of cedar sap~
A vial of tree sap lies here.~
~
10 64 0 0 0 1 0 0 0
40 87 91 0
1 5000 500
B
0 0 0 0
#2616
vial sequoia sap~
a vial of sequoia sap~
A vial of tree sap lies here.~
~
10 64 0 0 0 1 0 0 0
40 109 132 0
1 1000 100
B
0 0 0 0
#2617
leaf rhododendron~
a rhododendron leaf~
A leaf has fallen to the ground.~
~
2 64 0 0 0 1 0 0 0
40 15 15 15
1 5000 500
B
0 0 0 0
#2619
poppy leaf~
a poppy leaf~
A leaf has fallen to the ground.~
~
2 64 0 0 0 1 0 0 0
40 18 88 0
1 5000 500
B
0 0 0 0
#2620
leaf aquatic lilium~
a leaf of aquatic lilium~
A leaf has fallen to the ground.~
~
2 64 0 0 0 1 0 0 0
40 13 0 0
1 5000 500
B
0 0 0 0
#2621
ashen blackberry leaf~
an ashen blackberry leaf~
A leaf has fallen to the ground.~
~
2 64 0 0 0 1 0 0 0
40 26 0 0
1 5000 500
B
0 0 0 0
#2622
lotus leaf~
a lotus leaf~
A leaf has fallen to the ground.~
~
2 64 0 0 0 1 0 0 0
40 8 56 0
1 5000 500
B
0 0 0 0
#2623
leaf athelas~
a leaf of athelas~
A leaf has fallen to the ground.~
~
2 64 0 0 0 1 0 0 0
40 28 0 0
1 5000 500
B
0 0 0 0
#2624
rod light~
the Rod of Neutrality~
A dull iron shaft is on the floor.~
~
1 1600 0 0 0 1 0 0 0
0 0 -1 0
1 1000 1160
A
19 2
B
0 0 0 0
#2625
sticky bag~
a sticky black bag~
A black bag sticks to the ground.  EWWW!!!~
~
15 0 0 0 0 1 0 0 0
25 5 -1 0
10 50 25
B
0 0 0 0
#2626
dagger valley~
a dagger of the valley~
A tiny steel dagger lies half-buried in leaves.~
a dagger~
7 0 0 0 0 1 0 0 0
2 6 6 1
3 100 0
B
0 0 0 0
#2627
black aspen dagger~
a black aspen dagger~
A small black dagger with an aspen handle lies here.~
~
5 576 0 0 0 1 0 0 0
0 6 6 11
10 5000 1110
A
24 -3
A
14 15
B
0 0 0 0
#2628
unused~
unused~
Unused~
~
15 0 0 0 0 1 0 0 0
10 0 -1 0
25 100 10
B
0 0 0 0
#2698
little something reward enki~
little something reward~
Bring this to Enki and you will get a little something.  Grats on being 1st to the zone!~
~
0 67108864 0 0 0 1 0 0 0
0 0 0 0
1 1 0
B
0 0 0 0
$~
