#27811
bow~
a strongbow~
A bow, made of toughened oak, lies here unattended.~
~
5 273169473 32768 0 0 8193 0 0 0
0 3 8 11
6 2000 335
A
2 1
A
31 1
A
18 2
A
19 1
B
0 0 0 0
#27812
a warning sign~
Mother Natures Warning~
A warning sign is mounted on a nearby tree.~
WARNING - DO NOT HARM THE WILDLIFE! - MN -~
16 0 0 0 0 0 0 0 0
0 0 0 0
5000 0 0
E
WARNING!~
A large wooden sign, made of Olivewood - is nailed to a nearby Oak
using rustic nails.  The sign is scorched with the following:


     Do NOT trespass.  Anyone found harming the wildlife will
     be punished by me.
     -MN-
~
B
0 0 0 0
#27813
&04Icing&00&01Death&00~
&04Icing&00&01Death&00~
A glowing scimitar rests here, dripping blood from a recent battle.~
Forged from blooms of steel, this scimitar is unbreakable.~
5 6583491 32 0 0 8193 0 0 0
0 8 6 3
12 100000 3755
Z 70
A
1 2
A
6 4
A
19 2
A
18 5
B
0 0 0 0
#27815
&16Forest guardians wristband&00~
&16Forest guardians wristband&00~
A wristband made from woven vines is lying here.~
Made from vines entertwined together.~
11 7107712 8388608 0 0 4097 0 0 0
0 0 0 0
4 8000 650
A
13 15
A
18 2
A
19 3
A
17 -8
B
0 0 0 0
#27816
Canoti's treehouse key~
a small greenish-gold key~
A small greenish-golden key has been tossed aside.~
~
18 12 0 0 0 1 0 0 0
0 0 0 0
3 0 0
B
0 0 0 0
#27817
&03bark&00 earrings~
&03bark&00 earrings~
A small pair of wooden earrings lie here.~
~
11 8307712 0 0 0 262145 0 0 0
0 0 0 0
4 18950 555
A
9 5
A
28 2
A
12 35
A
29 15
B
0 0 0 0
#27818
mother natures shard~
&10a glowing shard&00~
A bright - glowing shard is lying here.~
~
11 8307712 0 0 0 16385 0 0 0
0 0 0 0
10 20000 740
A
19 2
A
12 35
A
13 15
A
29 22
B
0 0 0 0
#27819
Canoti's wings~
&19&08Wings of a fairy&00~
A pair of small, fragile wings is lying here.~
~
11 8307712 0 0 0 1025 0 0 0
0 0 0 0
4 0 1120
A
24 4
A
12 40
A
18 3
A
19 2
A
29 10
B
0 0 0 0
#27820
A dark well~
a &06dark&00 well.~
A &06dark&00 well made of stone is here.~
Swirling with &06dark&00 magic, the well draws you near.~
24 0 0 0 0 0 0 0 0
18001 -1 2 0
10000 0 0
B
0 0 0 0
#27821
mother natures chest~
a small treasure chest.~
A small &10golden&00 chest rests here - covered in pixie dust.~
~
15 0 0 0 0 0 0 0 0
10000 15 27816 0
10000 0 10000
B
0 0 0 0
#27822
a massive pile of gold~
a pile of gold~
A pile of gold.~
~
20 0 0 0 0 1 0 0 0
100000 0 0 0
0 0 0
B
0 0 0 0
#27823
water hole~
a &11water&00 hole~
A large &11water&00 hole.~
~
23 0 0 0 0 0 0 0 0
1000000 1000000 0 0
10000 0 0
B
0 0 0 0
#27824
A &25&10bright light&00~
a &25&10bright light&00~
A &25&10bright light&00 catches your attention.~
~
0 0 0 0 0 0 0 0 0
0 0 0 0
0 0 0
B
0 0 0 0
#27825
ring of the &03Ranger&00~
ring of the &03Ranger&00~
An old ring made of brass is lying here.~
Made from brass - this old ring has seen better days.~
9 8155136 32 0 0 3 0 0 0
5 0 0 0
3 17500 585
A
31 2
A
14 20
A
19 3
A
18 1
A
17 -10
B
0 0 0 0
#27826
a walking stick~
a walking &04s&00&05tic&00&04k&00~
A warped branch is lying here.~
~
4 0 0 0 0 16385 0 0 0
35 5 5 82
0 0 0
A
28 5
A
31 5
A
27 -10
B
0 0 0 0
#27827
shield of Salamandridae~
Shield of &07Salaman&01d&07r&01i&07da&01e&00~
A massive shield covered in slime is placed here on the ground.~
~
9 5011456 32 0 0 513 0 0 0
10 0 0 0
9 100000 1675
A
13 35
A
19 3
A
1 2
A
17 -5
B
0 0 0 0
#27828
a slimy key~
a &02slimy&00 key~
A key covered in &02slime&00 was placed here.~
~
18 140 0 0 0 1 0 0 0
0 0 0 0
0 0 0
B
0 0 0 0
D30
#27829
Claws of Salamandridae~
Claws of &07Salaman&08d&07r&08i&07da&08e&00~
The claws of a guardian were placed here.~
~
9 72890368 32 0 0 129 0 0 0
8 0 0 0
6 100000 925
A
19 4
A
18 2
A
13 10
A
17 -5
A
12 15
B
0 0 0 0
#27830
attic key~
a key to the attic~
A small key forged from pixie dust is lying here.~
~
18 12 0 0 0 1 0 0 0
0 0 0 0
0 0 0
B
0 0 0 0
#27831
a fire~
a &10fire&00~
A small camp &08f&10i&08r&10e&00 - surrounded by stones - warms the cool humid air around you.~
Surrounded by stones from the cave itself, the &10fire&00 puts out great heat.  The fuel source is unknown, but seems to be everlasting.~
26 0 0 0 0 0 0 0 0
18 19 0 0
1000 0 0
B
0 0 0 0
#27832
claws of djinn~
Claws of &01Djinn&00~
A set of sharp claws - covered in slime - lay unattended here.~
~
11 6257280 32 0 0 129 0 0 0
0 0 0 0
15 100000 1040
A
19 4
A
18 1
A
13 20
A
1 2
A
17 -8
B
0 0 0 0
#27833
anklets of djinn~
&15Anklets of Djinn&00~
Anklets encrusted with rare gems and sapphires lay here unattended.~
~
9 72763904 0 0 0 131073 0 0 0
3 0 0 0
12 75000 645
A
18 3
A
12 35
A
29 25
B
0 0 0 0
#27834
Jewel encrusted crown~
&10J&11e&08w&10e&11l&00 encrusted crown~
A large crown made of gems and sapphires was gently placed here.~
~
11 75416064 0 0 0 17 0 0 0
0 0 0 0
12 75999 790
A
19 3
A
18 1
A
29 30
A
12 35
B
0 0 0 0
#27835
a small sapphire~
a small &01s&00&08apphir&00&01e&00~
A small gemstone is lying here.~
~
18 12 0 0 0 1 0 0 0
0 0 0 0
2 0 0
B
0 0 0 0
D15
#27836
Armor made of &03leaves&00~
Armor made of &03leaves&00~
A leafy armor lays here unattended.~
~
9 524288 0 0 0 9 0 0 0
12 0 0 0
8 1000 365
A
19 1
A
18 2
A
10 -10
A
17 -3
B
0 0 0 0
#27837
ancient gem~
ancient gem~
An ancient gem has been tossed here in the dirt.~
~
18 12 0 0 0 1 0 0 0
0 0 0 0
0 0 0
B
0 0 0 0
#27838
a golden chest~
a &10golden&00 chest~
A chest made of pure &10gold&00 is here - unprotected.~
~
15 0 0 0 0 0 0 0 0
10000 15 27837 0
1000 0 10000
B
0 0 0 0
#27839
slime ring~
&10Golden&00 ring covered in &03slime&00~
A small, golden ring - covered in slime - was left behind.~
~
11 8306816 0 0 0 3 0 0 0
0 0 0 0
4 90000 500
A
29 25
A
13 10
A
12 35
B
0 0 0 0
#27840
&03snake&00 charmers bracelet~
&03snake&00 charmers bracelet~
A bracelet made from snake skin was gently placed here.~
~
11 74906112 2097184 0 0 4097 0 0 0
0 0 0 0
3 25000 820
A
19 4
A
12 10
A
13 15
A
31 2
A
17 -8
B
0 0 0 0
#27841
ring of the serpent~
Ring of the &03Serpent&00~
A silver ring with a snakes head on it was gently placed here.~
~
11 74905600 32 0 0 3 0 0 0
0 0 0 0
0 0 1050
A
19 4
A
13 20
A
18 2
A
17 -10
B
0 0 0 0
#27842
Eye of the &03Serpent&00~
Eye of the &03Serpent&00~
Eye of the &03Serpent&00~
~
11 74904576 32 0 0 16385 0 0 0
0 0 0 0
16 80000 535
A
19 2
A
18 2
A
17 -5
A
2 2
A
13 15
B
1024 0 0 0
#27843
&15Leggings of Djinn&00~
&15Leggings of Djinn&00~
A pair of slime-covered leggings are laid here.~
~
9 69124736 0 0 0 33 0 0 0
5 0 0 0
11 100000 395
A
12 30
A
29 25
A
13 10
B
0 0 0 0
#27844
robe of concealment~
robe of &06c&00&07o&00&06n&00&07c&00&06e&00&07a&00&06l&00&07m&00&06e&00&07n&00&06t&00~
A smokey robe was tossed on the ground here.~
~
9 3846144 32 0 0 1025 0 0 0
11 0 0 0
6 75000 920
A
19 4
A
13 10
A
17 -10
A
14 10
B
262144 0 0 0
#27845
Robe of Energy~
Robe of &07E&10n&07e&10r&07g&10y&00~
A shimmering robe lays here unattended.~
~
11 8306688 0 0 0 1033 0 0 0
0 0 0 0
7 25000 460
A
19 2
A
12 30
A
29 25
B
0 0 0 0
#27848
a flute~
a flute~
A sparkling flute lays here unattended - waiting to be played.~
~
4 0 0 0 0 16385 0 0 0
40 5 5 7
4 10000 0
B
0 0 0 0
#27849
hawk feather~
feather of a &02hawk&00~
A large feather is lying here unattended.~
~
3 11 0 0 0 16385 0 0 0
20 3 3 2
3 100 10
B
0 0 0 0
#27850
feathered key~
feathered key~
A feathery key has been tossed to the ground.~
~
18 12 0 0 0 1 0 0 0
0 0 0 0
1 0 0
B
0 0 0 0
#27851
potion of slime~
Potion of &03slime&00~
Potion of &03slime&00~
~
10 0 0 0 0 1 0 0 0
50 36 77 129
1 0 0
B
0 0 0 0
#27852
Sica dagger spinebreaker~
&20Sica, the spinebreaker&00~
A long dagger with a curved blade was dropped in the dirt.~
~
5 3846784 32 0 0 8193 0 0 0
0 9 6 11
13 150000 3955
A
19 2
A
31 5
A
18 2
A
33 30
B
0 0 0 0
#27853
&07D&14a&07c&14i&07a&14n&00 &07robe&00~
&06robe&00 of the &07D&14a&07c&14i&07a&14n&00~
A long &07black&00 robe lay crumpled on the ground.~
~
9 8041088 32 0 0 1033 0 0 0
11 0 0 0
8 150000 1160
A
19 4
A
18 2
A
13 20
A
31 2
A
17 -8
B
536870912 0 0 0
#27854
a teardrop~
a &04te&11ar&12dr&00&13op&00~
A tear drop has been shed here.~
~
11 8307712 32 0 0 524289 0 0 0
0 0 0 0
2 10000 960
A
12 50
A
32 20
B
0 0 0 0
#27855
Chains of forever~
&08Chains of &15Forever&00~
A set of chains have been discarded on the ground.~
~
11 8307200 32 0 0 4097 0 0 0
0 0 0 0
8 150500 1140
A
12 50
A
19 2
A
17 -4
B
0 0 0 0
#27856
rusty key~
a rusty key~
An old rusty key has been discarded here.~
~
18 12 0 0 0 1 0 0 0
0 0 0 0
2 0 0
B
0 0 0 0
#27857
A rusty chest~
a rusty chest~
A rusty chest belonging to a thief lays here in a corner.~
~
15 0 0 0 0 0 0 0 0
10000 15 27856 0
10000 0 10000
B
0 0 0 0
#27858
Braqs loot~
Braqs loot~
Braqs loot~
~
20 0 0 0 0 1 0 0 0
350000 0 0 0
0 0 0
B
0 0 0 0
#27859
a steel key~
a steel key~
A large key made of steel has been tossed to the ground.~
~
18 0 0 0 0 1 0 0 0
0 0 0 0
8 0 0
B
0 0 0 0
#27860
Egress key~
a ruby key~
A small ruby key lies here.~
~
18 12 0 0 0 1 0 0 0
0 0 0 0
3 0 0
B
0 0 0 0
#27861
A glowing key~
a glowing key~
A glowing key lies here unattended.~
~
18 12 0 0 0 1 0 0 0
0 0 0 0
3 0 0
B
0 0 0 0
#27862
A brick key~
a reddish-brown key~
A reddit-brown key has been tossed here.~
~
18 12 0 0 0 1 0 0 0
0 0 0 0
3 0 0
B
0 0 0 0
#27863
the hatch key~
a crimson key~
A crimson colored key has been gently placed on the ground.~
~
18 12 0 0 0 1 0 0 0
0 0 0 0
3 0 0
B
0 0 0 0
#27864
a mahogany key~
a small wooden key~
A small wooden key lies here unattended.~
~
18 12 0 0 0 1 0 0 0
0 0 0 0
3 0 0
B
0 0 0 0
#27865
double key~
Iron key~
A large iron key has been gently placed here.~
~
18 12 0 0 0 1 0 0 0
0 0 0 0
3 0 0
B
0 0 0 0
#27866
ring of khal~
&01Ring of Khal&00~
A bright glowing ring lays here unattended.~
~
11 5140480 32 0 0 3 0 0 0
0 0 0 0
4 250000 1985
A
13 45
A
17 -5
A
19 1
A
18 1
B
0 0 0 0
#27867
Bracelet of Khal~
&20bracelet carved of &21&06bone&00~
A pile of bones strung together with string is lying here.~
~
9 5009408 32 0 0 4097 0 0 0
8 0 0 0
6 175000 2355
A
13 50
A
18 1
A
17 -5
B
0 0 0 0
#27868
khal shaft of life~
shaft of &07l&00&14i&00&07f&00&14e&00~
A large shaft has been discarded.~
~
11 5009408 32 0 0 16385 0 0 0
0 0 0 0
10 300000 2345
A
13 50
A
19 1
A
18 1
A
17 -5
B
0 0 0 0
#27869
khal drogo key~
a key marked "Beginning of the End"~
A large key made from bronze lies here.~
~
18 12 0 0 0 1 0 0 0
0 0 0 0
4 0 0
B
0 0 0 0
#27870
a &11blue&00 tipped sword~
a &11blue&00 tipped sword~
A long sword with a blue tip has been placed here.~
~
5 0 0 0 0 8193 0 0 0
0 6 5 3
12 150000 980
A
19 3
A
13 15
A
17 5
B
0 0 0 0
#27871
the &06Shadow&00~
the &06Shadow&00~
A dark shadow is here.~
~
5 0 0 0 0 8193 0 0 0
0 5 6 3
0 0 775
A
19 3
A
13 10
A
31 2
B
0 0 0 0
#27872
a flap of skin~
a flap of skin~
A flap of skin is lying here.~
~
11 140 0 0 0 16385 0 0 0
0 0 0 0
3 0 6010
A
19 -10
A
1 -5
A
4 -5
A
3 -5
A
6 -5
B
0 0 0 0
#27873
A dragonscale~
a &01d&08ragon&00&01s&08cale&00~
A large dragonscale has been left here.~
~
11 815104 32 0 0 513 0 0 0
0 0 0 0
12 155000 730
A
19 2
A
13 25
A
1 2
B
0 0 0 0
#27874
a &06black&00 helm~
a &06black&00 helm~
A large black helm has been foolishly left here.~
~
11 0 0 0 0 17 0 0 0
0 0 0 0
8 150000 440
A
19 2
A
13 20
A
31 3
B
0 0 0 0
#27875
a golden cape~
a &10golden&00 cape~
A long golden cape has been tossed aside.~
~
11 544 0 0 0 1025 0 0 0
0 0 0 0
4 150000 160
A
29 15
A
13 10
A
12 15
B
0 0 0 0
#27876
a golden anklet~
a &10golden&00 anklet~
A golden anklet lies here unattended.~
~
11 8308224 0 0 0 131073 0 0 0
0 0 0 0
5 250000 460
A
29 25
A
12 30
A
19 2
B
0 0 0 0
#27877
robe of forever~
&19&02Robe of Forever&00~
A long wavy robe has been placed here.~
~
9 8307200 0 0 0 1033 0 0 0
12 0 0 0
6 200000 640
A
12 30
A
29 25
A
19 2
B
0 0 0 0
#27878
&06black&00 leather wristguard~
&06black&00 leather wristguard~
A leather wristguard has been left here.~
~
9 3846144 32 0 0 4097 0 0 0
6 0 0 0
5 25000 860
A
19 4
A
18 2
A
31 2
A
13 15
B
0 0 0 0
#27879
Braq's bag~
&15&06Braq's bag&00~
A large sack has been foolishly left here.~
~
15 3846144 32 0 0 16385 0 0 0
1000 1 -1 0
9 150000 1980
A
19 4
A
18 4
A
13 10
A
31 2
B
0 0 0 0
#27880
A long rope~
a long rope~
A long &03rope&00 dangles from a tree branch high above.~
~
26 0 0 0 0 0 0 0 0
0 0 0 0
10000 0 0
B
0 0 0 0
#27881
stone key~
stone key~
A key made of stone has been left here.~
~
18 4 0 0 0 1 0 0 0
0 0 0 0
12 0 0
B
0 0 0 0
#27886
metatest~
metatest~
A piece of junk lies here.~
~
8 0 0 0 0 1 0 0 0
0 0 0 0
0 0 3900
A
1 5
A
2 5
A
3 5
A
4 5
A
5 5
A
6 5
B
0 0 0 0
#27887
&10golden&00 tiara~
a &10golden&00 tiara~
A large round object hovers nearby.~
~
11 0 0 0 0 65537 0 0 0
0 0 0 0
15 777 0
A
32 20
A
32 20
A
32 20
A
32 20
A
32 20
A
32 20
B
1902097642 2100256 0 0
#27888
paintball ammo~
paintball ammo~
Some brightly colored paintball ammo is here. ~
~
7 65548 0 0 0 1 0 0 0
0 35 35 10
0 0 0
B
0 0 0 0
#27889
Paint ball gun~
paint ball gun~
A flimsy paintball lies here unused. ~
~
6 0 0 0 0 16385 0 0 0
0 4 1 0
0 0 0
B
0 0 0 0
#27890
a &01f&10i&08e&00&01r&10y&00 mask~
a &01f&10i&08e&00&01r&10y&00 mask~
A flaming mask has been cautiously set aside.~
~
11 1442869248 368672 0 0 524289 0 0 0
0 0 0 0
8 250000 920
A
19 4
A
18 2
A
13 15
A
17 -10
B
8 0 0 0
#27891
an orb of fire~
an orb of &01f&00&08i&00&01r&00&08e&00~
A fiery ball has been left here.~
~
1 100663296 64 0 0 16385 0 0 0
0 0 0 0
4 250000 170
E
insert_fail_char~
You fool, those don't belong together.
~
E
insert_to_room~
A bolt of lightning flashes, melding two items into one.
~
E
insert_to_char~
A bolt of lightning flashes before you, melding to items into one.
~
E
insert_item~
27892
~
E
new_item~
27890
~
A
19 1
A
18 1
A
13 10
B
0 0 0 0
#27892
a phoenix spark~
a phoenix spark~
A flaming spark has been carelessly dropped here.~
~
11 100663296 128 0 0 524289 0 0 0
0 0 0 0
6 200000 170
A
13 10
A
19 1
A
18 1
B
0 0 0 0
#27893
the flask of mathayus~
a &18flask&00 belonging to &15Mathayus&00~
A large stainless-steel &18flask&00 has been misplaced here.~
It is rumored that when returned to the rightful owner, this flask will grant a reward.~
17 100663299 0 0 0 16385 0 0 0
25 25 5 0
4 666 250
E
exam flask~
It is rumored, that when returned to its rightful owner, a reward may be given.
~
B
0 0 0 0
#27894
life size statue of mathayus~
a life-sized statue of &15Mathayus&00~
A large granite statue of &15Mathayus&00 stares back at you.~
It is rumored that when returned to the rightful owner, a handsome reward is given.~
8 100663296 0 0 0 1 0 0 0
0 0 0 0
12 666 0
E
exam stat~
Embedded on the back of the statue is the phrase "If found, please return promptly".
~
E
exam math~
Extremely valuable to the right person, perhaps you should return it.
~
B
0 0 0 0
#27895
Brain of a Scarecrow~
Brain of a Scarecrow~
A small brain lies here, pulsating. ~
~
11 0 0 0 0 17 0 0 0
0 0 0 0
0 600 3900
A
3 5
A
3 5
A
3 5
A
4 5
A
4 5
A
4 5
B
0 0 0 0
#27896
A slightly used condom~
a slightly used condom~
Gross.  What a mess!~
~
28 0 0 0 0 16385 0 0 0
0 0 0 0
0 0 0
B
0 0 0 0
#27897
Fight club sign~
&01FIGHT CLUB RULES&00~
A rustic metal sign hangs on a nearby wall with the words &08READ ME&00 written in blood.~
~
16 0 0 0 0 0 0 0 0
0 0 0 0
10000 0 0
E
look sign exam sign~
First Rule:  You DO NOT talk about &01FIGHT CLUB&00

Second Rule:  You DO NOT talk about &01FIGHT CLUB&00

~
B
0 0 0 0
#27898
testing~
test object~
A powerful stinch rises from worn clothing~
~
9 524288 0 0 0 1048575 0 0 0
15 0 0 0
0 0 1250
A
19 5
A
18 1
B
1114240 0 0 0
#27899
a feather~
Feather of a Turkey~
A feather floats around in the breeze. ~
GOBBLE GOBBLE~
11 109051916 0 0 0 65537 0 0 0
0 0 0 0
1 1234 3680
A
27 50
A
13 50
A
19 5
A
29 30
A
18 5
B
1633629352 2108448 0 0
D300
$~
