#28200
empty casket~
an empty casket~
A large wooden casket has been gently placed here.~
NOACTDESC~
15 0 0 0 0 0 0 0 0
1000 5 -1 0
10000 0 1000
B
0 0 0 0
#28201
a muddy key~
a muddy key~
A small key covered in mud has been tossed aside.~
NOACTDESC~
18 12 0 0 0 1 0 0 0
0 0 0 0
3 0 0
B
0 0 0 0
#28202
chain of ears~
&07Chain made from human ears&00~
A long necklace made from human ears has been tossed to the ground.~
NOACTDESC~
11 1415084744 16842800 0 0 32769 0 0 0
0 0 0 0
5 200000 820
A
19 4
A
13 15
A
18 2
A
33 35
B
0 0 0 0
#28203
shackles of the undead~
&07Shackles of the Undead&00~
A pair of wrought-iron shackles lay in the dirt.~
NOACTDESC~
11 5339784 16777248 0 0 131073 0 0 0
0 0 0 0
12 250000 675
A
19 3
A
18 1
A
13 15
A
33 40
A
14 -15
A
1 2
B
0 0 0 0
#28204
Ring of Thieves~
Ring of &21T&00&07h&00&21i&00&07e&00&21v&00&07e&00&21s&00~
A small silver ring lays here unattended.~
NOACTDESC~
11 75405952 16777248 0 0 1 0 0 0
0 0 0 0
4 199500 825
A
19 3
A
13 25
A
31 3
A
17 -5
B
0 0 0 0
#28205
staff named dawnbreaker~
&14Staff named &00&20&05Dawnbreaker&00~
A long staff is resting against the wall.~
NOACTDESC~
5 75422720 16777248 0 0 1 0 0 0
0 9 4 19
12 245678 2155
A
12 50
A
32 15
A
18 2
B
131072 0 0 0
#28206
tarnished silver key~
a tarnished silver key~
A small silver key has been thrown here.~
NOACTDESC~
18 12 0 0 0 1 0 0 0
0 0 0 0
3 0 0
B
0 0 0 0
#28207
a blood stained knife~
a &08blood&00 stained knife~
A large bloody knife lies here.~
~
5 70957704 0 0 0 24577 0 0 0
0 6 7 3
3 666 2005
A
19 3
A
18 3
B
0 0 0 0
#28208
portrait family~
the family portrait~
A large family portrait hangs on the eastern wall.~
~
15 0 0 0 0 0 0 0 0
500 13 -1 0
10000 0 0
B
0 0 0 0
$~
