#29801
talon talons sargonnas~
the Talons of Sargonnas~
A set of bird talons lie here.~
NOACTDESC~
5 5009874 32 0 0 8193 0 0 0
0 9 8 16
15 1200000 9635
A
19 4
A
18 2
A
13 30
B
0 0 0 0
#29802
cupids dust~
&08Cupid &10D&07u&10s&07t&00~
A pile of &10yellow &00and &07grey&00 &02dust is on the ground.~
~
27 109117452 0 0 0 1 0 0 0
50 44 125 77
1 1 0
B
0 0 0 0
D50
#29803
cupid dust 2~
&08Cupid &07D&10u&07s&10t&00~
A small pile of &07grey &00and &10yellow &00&02dust is on the ground.~
~
27 109117452 0 0 0 1 0 0 0
50 140 115 161
1 0 0
B
0 0 0 0
D50
#29810
small replica world cup trophy~
&10a replica of the World Cup trophy&00~
GOOOOOOOOOOOOOOOOOOOAAAAAAAAAAAAALLLLLLLLLLLLLLLLLLL!!~
NOACTDESC~
12 109117772 0 0 0 65537 0 0 0
0 0 0 0
0 0 960
A
12 50
B
1096778984 1240096 0 0
D300
#29811
a small rock~
a small rock~
A small rock has been left here.~
~
12 0 0 0 0 65537 0 0 0
0 0 0 0
1 1 960
A
12 50
A
27 -5
B
16974888 2097152 0 0
#29812
RavenMUD Badge of Honor~
&00&03a RavenMUD badge of honor&00~
Someone left their badge unattended.~
~
11 109117772 33554432 0 0 65537 0 0 0
0 0 0 0
1 777 4640
A
13 50
A
12 50
A
19 5
A
18 5
B
1633617128 2100256 0 0
D2400
#29820
Gloves of Healing_cleric_quest_gear~
Gloves of Healing~
A pair of small gloves lay here collecting dust.~
NOACTDESC~
9 109039752 32 0 0 129 0 0 0
13 0 0 0
8 2000 3400
A
12 50
A
13 50
A
29 30
B
0 0 0 0
#29835
lost tourist gold stash~
a lost tourist's stash~
An unfortunate tourist has left their stash here!~
~
20 0 0 0 0 1 0 0 0
250000 0 0 0
0 0 0
B
0 0 0 0
#29880
piglet potion~
&12a piglet potion&00~
&00&03A &12pink&00&03 and &09green &00&03potion stinks up the joint.&00~
~
1 12 0 0 0 1 0 0 0
0 0 0 0
1 1 0
Z 29839
E
green~
There is a sickly green colored liquid inside.
~
E
pink~
The potion has a fleshy pink liquid inside.
~
E
potion~
Try SMASHING the potion.  You'll have to put in down first!
~
E
piglet~
You can't drink it.  You can't quaff it.  Have you looked at it?
~
B
0 0 0 0
#29896
candy corn~
a piece of &08C&10a&08n&10d&08y &10C&08o&10r&08n&00~
A small piece of candy floats in mid-air.~
~
1 109117444 33554432 0 0 65537 0 0 0
0 0 0 0
1 1 240
A
14 10
A
12 10
A
14 10
A
18 1
A
19 1
A
29 3
B
0 0 0 0
D460
#29897
spooky light~
a &07s&14p&07o&14o&07k&14y &00light~
A spooky looking light hovers here.~
A spooky looking light hovers here.~
1 109117444 33554432 0 0 65537 0 0 0
0 0 0 0
1 1 260
A
29 3
A
12 10
A
13 10
A
14 10
A
18 1
A
19 1
B
0 0 0 0
D460
#29898
halloween candle~
a &08h&10a&08l&10l&08o&10w&08e&10e&08n&00 candle~
A small candle burns here.~
~
1 109117440 33554432 0 0 65537 0 0 0
0 0 0 0
1 1 260
A
19 1
A
18 1
A
13 10
A
14 10
A
12 10
A
29 3
B
0 0 0 0
D460
#29899
munchkin treasure~
a&14 gleaming piece of &10t&14r&10e&14a&10s&14u&10r&14e&00~
Someone has left their treasure here! How unfortunate...for them!~
~
13 67108872 0 0 0 1 0 0 0
0 0 0 0
1 1 0
B
0 0 0 0
$~
