#29901
Flea November Munchkin Quest Trophy Blessing~
&14Blessing of the &10G&14o&10d&14s&00~
Flea has left his blessing here!~
~
12 100663296 33554432 0 0 65537 0 0 0
0 0 0 0
0 0 495
A
13 15
A
14 15
A
18 2
A
19 2
B
0 32 0 0
D100000
#29902
Vical November Munchkin Quest Trophy~
the &14BIGGEST, &11BLUEST&00 turtle shell~
Vical has left his turtle shell here!~
~
12 100663296 33554432 0 0 65537 0 0 0
0 0 0 0
0 0 950
A
13 25
A
18 2
A
19 2
A
14 40
B
0 32 0 0
D100000
#29903
Thog November Munchkin Quest Trophy~
greased &10l&14i&10g&14h&10t&14n&10i&14n&10g&00~
Thog has left his bolt of lighting here!~
~
12 100663296 33554432 0 0 65537 0 0 0
0 0 0 0
0 0 2790
A
18 2
A
19 2
A
13 50
A
14 60
B
0 32 0 0
D100000
#29904
crest villanova~
&18&14The Crest of Villanova&00~
The remnants of Champions lay here...~
~
12 0 33554432 0 0 65537 0 0 0
0 0 0 0
1 1 2990
A
18 3
A
19 3
A
14 50
A
13 50
A
27 -5
B
65536 32 0 0
D72000
#29905
smoking basketball~
&22&24a smoking basketball&00~
A basketball is here, smoking....~
~
12 0 33554432 0 0 65537 0 0 0
0 0 0 0
1 1 875
A
13 25
A
14 25
A
18 2
A
19 2
A
27 -5
B
65536 32 0 0
D72000
#29906
referee whistle~
&21&11a referee's whistle&00~
A referee has left their whistle here.~
~
12 0 33554432 0 0 65537 0 0 0
0 0 0 0
1 0 495
A
13 15
A
14 15
A
18 2
A
19 2
B
65536 32 0 0
D72000
#29907
commemorative villanova patch~
&14a commemorative &11Villanova &14patch&00~
A small patch lays on the ground.~
~
12 0 33554432 0 0 65537 0 0 0
0 0 0 0
1 1 220
A
14 10
A
13 10
A
18 1
A
19 1
A
31 5
B
553714728 1056 0 0
D36000
$~
