#30701
french fries~
some french fries~
A bag of greasy fried potatoes sits here.~
~
19 0 0 0 0 1 0 0 0
8 0 0 0
1 100 24
B
0 0 0 0
#30702
fried cheese sticks~
some fried cheese sticks~
Some fried cheese sticks have been dropped in the dirt here.~
~
19 0 0 0 0 1 0 0 0
8 0 0 0
1 100 24
B
0 0 0 0
#30703
fried ice cream~
a scoop of fried ice cream~
Someone has dropped their ice cream in the dust here.~
~
19 0 0 0 0 1 0 0 0
12 0 0 0
1 100 36
B
0 0 0 0
#30704
toss salad~
a tossed salad~
A small salad sits here.~
~
19 0 0 0 0 1 0 0 0
8 0 0 0
1 100 24
B
0 0 0 0
#30705
pie cherry piece~
a piece of cherry pie~
A piece of cherry pie waits to be eaten.~
~
19 0 0 0 0 1 0 0 0
12 0 0 0
1 100 36
B
0 0 0 0
#30706
milkshake~
a milkshake~
Someone dropped their milkshake here.~
~
19 0 0 0 0 1 0 0 0
24 0 0 0
1 100 72
B
0 0 0 0
#30707
elven sword~
a sword~
A finely crafted Elven sword is stuck in the dirt here.~
~
5 0 0 0 0 8193 0 0 0
0 3 7 3
5 200 170
A
2 1
A
5 1
B
0 0 0 0
#30708
elven dagger~
a fine dagger~
A fine looking dagger sticks in the dirt here.~
~
5 0 0 0 0 8193 0 0 0
0 3 7 14
3 300 170
A
2 1
A
3 1
B
0 0 0 0
#30709
cast 'fly' potion dust~
some dragonfly dust~
A small bag of dust sits here.~
~
10 0 0 0 0 1 0 0 0
40 52 0 0
1 40000 4000
B
0 0 0 0
#30710
juice carrot~
some carrot juice~
Some orange liquid sits in a glass here.~
~
10 0 0 0 0 1 0 0 0
30 19 0 0
1 30000 3000
B
0 0 0 0
#30711
ground coffee beans~
some ground coffee beans~
Some brown dust is scattered on the ground here.~
~
10 0 0 0 0 1 0 0 0
40 55 0 0
1 40000 4000
B
0 0 0 0
#30712
small bowl clay~
a small clay bowl~
A small clay bowl has been dropped here.~
~
17 0 0 0 0 1 0 0 0
16 16 0 0
2 100 160
B
0 0 0 0
#30713
tall clay urn~
a tall clay urn~
Someone has dropped an urn here.~
~
17 0 0 0 0 1 0 0 0
32 32 0 0
3 150 320
B
0 0 0 0
#30714
statue dolphin clay~
a statue of a dolphin~
A tiny clay fish has been dropped here.~
~
17 0 0 0 0 1 0 0 0
72 72 0 0
1 200 720
B
0 0 0 0
#30738
a fine elven bow~
a fine elven bow~
A fine elven bow has been left behind~
~
6 0 0 0 0 16385 0 0 0
1 1 2 0
4 910 160
A
13 10
A
3 2
B
0 0 0 0
#30739
a quiver of arrows~
a quiver of arrows~
A small quiver lies on the ground~
A well crafted arrow~
7 0 0 0 0 1 0 0 0
1 25 1 20
3 182 0
A
33 20
B
0 0 0 0
$~
