#31100
ninja to~
a ninja-to~
A sharp ninja-to rests here in its scabbard.~
~
5 64 0 0 0 1 0 0 0
0 1 1 3
8 0 2
B
0 0 0 0
#31101
tiger claws ninja~
a pair of ninja tiger claws~
A pair of a ninja's tiger claws lie here.~
~
11 7532560 32 0 0 129 0 0 0
0 0 0 0
2 1000 410
A
2 2
A
19 3
B
0 0 0 0
#31102
shuriken ninja~
a small shuriken on a chain~
A sharp shuriken is deply imbedded in the wall here.~
~
9 41152520 32 0 0 32769 0 0 0
3 0 0 0
1 0 275
A
19 2
A
17 -10
B
0 0 0 0
#31103
ninja sensei armplates~
Armplates of the Sensei~
A pair of lacquered armplates lie here~
~
9 8124690 32 0 0 257 0 0 0
4 0 0 0
5 1000 530
A
2 3
A
19 3
B
0 0 0 0
#31104
long knife~
a long knife~
A long knife lies on the floor here.~
~
5 0 0 0 0 1 0 0 0
0 1 1 11
5 1000 2
B
0 0 0 0
#31105
flask water~
a flask of water~
A flask of water lies here.~
~
17 0 0 0 0 1 0 0 0
8 8 0 0
2 0 80
B
0 0 0 0
#31106
rice palm leaf~
rice wrapped in palm leaf~
Some rice wrapped in palm leaf sits here.~
~
19 0 0 0 0 1 0 0 0
4 0 0 0
1 0 12
B
0 0 0 0
#31107
jar healing ointment~
a jar of healing ointment~
A jar of healing ointment rests here.~
~
4 64 0 0 0 16385 0 0 0
30 3 3 48
2 1000 0
E
jar healing ointment~
There is enough of this herbal mixture for five applications.
~
B
0 0 0 0
#31108
diamond 31108~
a beautiful diamond~
A beautiful diamond has been tossed aside here.~
~
18 1 0 0 0 1 0 0 0
0 0 0 0
1 8000 0
E
diamond~
It appears to be some sort of key.
~
B
0 0 0 0
#31109
basket~
a large basket~
A large basket affixed to a rope allows people to be hauled up.~
~
12 0 0 0 0 0 0 0 0
0 0 0 0
100 0 0
B
0 0 0 0
#31110
bone~
a bone~
A bone. Go on, have a gnaw.~
~
19 0 0 0 0 1 0 0 0
6 0 0 0
3 0 18
B
0 0 0 0
#31111
broken stool~
a broken stool~
A broken stool rests crazily on its remaining three legs.~
~
5 0 0 0 0 1 0 0 0
0 1 1 7
6 0 2
B
0 0 0 0
#31112
collar~
a spiked dog collar~
A spiked dog collar lies here.~
~
15 0 0 0 0 32769 0 0 0
100 1 -1 0
5 200 350
E
collar~
The collar appears to have a small secret compartment.
~
A
5 2
A
19 2
B
0 0 0 0
#31113
shield magnificent~
a magnificent shield~
A maginificent shield lies here, gleaming.~
~
9 4997121 0 0 0 513 0 0 0
15 0 0 0
10 1000 920
A
3 3
A
18 2
A
19 3
B
0 0 0 0
#31114
cupboard~
a bare cupboard~
This cupboard appears to be rather bare...~
~
15 0 0 0 0 0 0 0 0
100 1 0 0
700 0 100
B
0 0 0 0
#31115
metal capsule~
a metal capsule~
A small metal capsule lies here.~
~
9 1 0 0 0 1 0 0 0
1 0 0 0
1 0 5
B
0 0 0 0
#31116
leather armor~
a suit of leather armor~
(Smelly) A suit of Orcish armor lies here.~
~
9 0 0 0 0 1 0 0 0
0 0 0 0
7 0 0
B
0 0 0 0
#31117
animal hides~
animal hides~
Some uncured animal hides are stinking up the room here.~
~
9 0 0 0 0 1 0 0 0
0 0 0 0
12 0 0
E
hides~
They STINK!
~
B
0 0 0 0
#31118
gold ring~
a gold ring~
A gold ring gleams here.~
~
9 2 0 0 0 3 0 0 0
5 0 0 0
1 500 305
A
2 2
A
5 1
A
19 2
B
0 0 0 0
#31119
mandibles~
a pair of mandibles~
A pair of stone-crushing mandibles lie here.~
~
5 0 0 0 0 8193 0 0 0
0 5 6 6
10 500 685
A
18 2
A
19 2
A
3 1
B
0 0 0 0
#31120
mallet~
a wooden mallet~
A wooden mallet rests here.~
~
5 0 0 0 0 8193 0 0 0
0 5 6 7
3 500 565
A
1 2
A
3 2
B
0 0 0 0
#31121
iron spike~
an iron spike~
An iron spike rests here.~
~
5 0 0 0 0 8193 0 0 0
0 5 6 14
5 500 825
A
18 4
A
2 2
B
0 0 0 0
#31122
cupboard~
a small cupboard~
A small cupboard rests near one wall.~
~
15 0 0 0 0 1 0 0 0
100 1 0 0
100 0 100
B
0 0 0 0
#31123
orc corpse~
the corpse of an orc~
The corpse of one of the dungeon's Orcish guards lies here.~
~
13 0 0 0 0 1 0 0 0
0 0 0 0
75 0 0
E
corpse orc~
From the look of it, this Orc was slain by a large fellow wielding a heavy
axe. Seems a barbarian competitor is still going...
~
B
0 0 0 0
#31124
orc corpse~
the corpse of an orc~
The corpse of one of the dungeon's Orcish guards lies here.~
~
13 0 0 0 0 1 0 0 0
0 0 0 0
75 0 0
E
corpse orc~
From the look of it, this Orc was slain by a large fellow wielding a heavy
axe. Seems a barbarian competitor is still going...
~
B
0 0 0 0
#31125
bone necklace amulet strength~
an amulet of strength~
A bone necklace has been discarded here.~
~
11 66 0 0 0 32769 0 0 0
0 0 0 0
1 500 250
A
1 3
A
19 1
B
0 0 0 0
#31126
test chamber key~
a test chamber key~
This key will allow you to open the door leading north from the chambers.~
~
18 2 0 0 0 1 0 0 0
0 0 0 0
1 0 0
B
0 0 0 0
#31127
dungeon key~
a dungeon key~
This key will allow you to proceed into the next stage of the dungeon.~
~
18 2 0 0 0 1 0 0 0
0 0 0 0
1 0 0
B
0 0 0 0
#31128
brooch garnet~
a brooch set with a large garnet~
A brooch set with a large garnet lies here.~
~
3 0 0 0 0 16385 0 0 0
35 1 1 76
1 2452 475
A
5 3
A
18 1
B
0 0 0 0
#31129
shell~
a basket shell~
This shell allows you to travel up in the basket. Unlock it now!~
~
18 0 0 0 0 1 0 0 0
0 0 0 0
2 1000 0
E
shell~
Don't stare at it! USE IT!!!
~
B
0 0 0 0
#31130
lots money~
lots of money!~
Piled all around is lots and lots of money!~
~
20 0 0 0 0 1 0 0 0
1000000 0 0 0
2 0 0
B
0 0 0 0
#31131
chute~
a chute~
This filthy chute leads into a sewer. You sure you wanna enter?~
~
13 0 0 0 0 0 0 0 0
0 0 0 0
1 0 0
B
0 0 0 0
$~
