#31200
chainmail tunic~
a chainmail tunic~
A chainmail tunic has been left here.~
~
9 524288 0 0 0 9 0 0 0
3 0 0 0
6 200 45
A
5 1
B
0 0 0 0
#31201
leather breeches~
a pair of leather breeches~
A pair of leather breeches has been left here.~
~
11 0 0 0 0 33 0 0 0
0 0 0 0
2 200 30
A
2 1
B
0 0 0 0
#31202
helmet iron~
an iron helmet~
An iron helmet is here.  It looks heavy.~
~
9 134742016 0 0 0 17 0 0 0
2 0 0 0
5 200 40
A
3 1
B
0 0 0 0
#31203
mithril gauntlets~
a pair of mithril gauntlets~
A pair of mithril gauntlets are here.~
~
9 524288 0 0 0 129 0 0 0
2 0 0 0
2 200 70
A
2 1
A
1 1
B
0 0 0 0
#31204
scimitar~
a scimitar~
A scimitar has been dropped here.~
~
5 64 0 0 0 8193 0 0 0
0 6 5 3
5 300 555
A
3 1
A
18 1
B
0 0 0 0
#31205
shamsheer~
a huge shamsheer~
A huge shamsheer is lying on the ground here.~
~
5 64 0 0 0 8193 0 0 0
0 6 5 3
10 300 555
A
3 1
A
18 1
B
0 0 0 0
#31206
spear~
a short spear~
A short spear is stuck in the ground here.~
~
5 64 0 0 0 8193 0 0 0
0 6 5 22
4 300 555
A
3 1
A
18 1
B
0 0 0 0
#31207
dagger~
a silver dagger~
A dagger lined with silver to increase accuracy is here.~
~
5 64 0 0 0 8193 0 0 0
0 6 5 11
1 300 555
A
3 1
A
18 1
B
0 0 0 0
#31208
blanket~
a coarse blanket~
A coarse blanket lies here.~
~
11 0 0 0 0 1029 0 0 0
0 0 0 0
3 200 40
A
5 1
A
17 -2
B
0 0 0 0
#31209
torch~
a torch~
A torch has been discarded here.~
~
1 0 0 0 0 16385 0 0 0
0 0 24 0
1 50 84
A
4 1
A
3 1
B
0 0 0 0
#31210
brass lantern~
a brass lantern~
A brass lantern has been discarded here.~
~
1 0 0 0 0 16385 0 0 0
0 0 24 0
2 50 84
A
4 1
A
3 1
B
0 0 0 0
#31211
pouch belt~
a pouch belt~
A pouch belt lies here.~
~
15 0 0 0 0 2049 0 0 0
100 1 -1 0
2 50 160
A
3 1
A
2 1
B
0 0 0 0
#31212
felafel~
a felafel~
A tasty felafel lies here.~
~
19 0 0 0 0 1 0 0 0
4 0 0 0
1 4 12
B
0 0 0 0
#31213
beef shish kebab~
a beef shish kebab~
(Hot) A beef shisk kebab steams away here.~
~
19 0 0 0 0 1 0 0 0
6 0 0 0
1 6 18
B
0 0 0 0
#31214
lamb doner kebab~
a lamb doner kebab~
(Tasty) A lamb doner kebab is here.~
~
19 0 0 0 0 1 0 0 0
12 0 0 0
1 12 36
B
0 0 0 0
#31215
fried capsicum~
fried capsicum~
(Hmmm) Fried capsicum lies here.~
~
19 0 0 0 0 1 0 0 0
24 0 0 0
1 24 72
B
0 0 0 0
#31216
bone staff~
a bone staff~
A bone staff is here.~
~
4 2 0 0 0 16385 0 0 0
25 1 1 19
5 1200 0
E
bone staff~
An inscription reads- "Let them SEE!"
~
B
0 0 0 0
#31217
ivory wand~
a slender ivory wand~
A slender ivory wand lies here.~
~
3 1 0 0 0 16385 0 0 0
25 1 1 18
3 500 50
E
ivory wand~
An inscription reads- "See what is not seen!"
~
B
0 0 0 0
#31218
oak staff~
an oak staff~
An oak staff lays here.~
~
4 2 0 0 0 16385 0 0 0
25 1 1 1
2 25000 0
E
oak staff~
An inscription reads- "Let them be armored!"
~
B
0 0 0 0
#31219
black wand~
a short black wand~
A short black wand hums strangely here.~
~
3 2 0 0 0 16385 0 0 0
25 1 1 67
1 2100 210
E
black wand~
An inscription reads- "Let them be stricken!"
~
B
0 0 0 0
#31220
yellow herb~
a yellow herb~
A yellow herb is here.~
~
10 64 0 0 0 1 0 0 0
30 1 3 0
2 12000 1200
E
yellow herb~
This herb will increase your defenses and engender the blessing of the Gods.
~
B
0 0 0 0
#31221
red herb~
a red herb~
A red herb is here.~
~
10 64 0 0 0 1 0 0 0
30 19 18 87
2 15000 1500
E
red herb~
This herb will greatly increase your powers of perception.
~
B
0 0 0 0
#31222
green herb~
a green herb~
A green herb is here.~
~
10 64 0 0 0 1 0 0 0
30 29 69 0
2 15000 1500
E
green herb~
This herb will conceal and protect you.
~
B
0 0 0 0
#31223
white herb~
a white herb~
A white herb is here.~
~
10 64 0 0 0 1 0 0 0
30 15 87 0
2 17000 1700
E
white herb~
This herb will heal and refresh you.
~
B
0 0 0 0
#31224
fez~
a bright red fez~
A bright red fez with a yellow tassel sits here.~
~
11 134217728 0 0 0 17 0 0 0
0 0 0 0
2 200 60
A
3 1
A
4 1
B
0 0 0 0
#31225
camelhair jacket~
a camelhair jacket~
Someone has left their very fashionable camelhair jacket here.~
~
11 0 0 0 0 1025 0 0 0
0 0 0 0
2 200 55
A
17 -5
A
1 1
B
0 0 0 0
#31226
silk trousers~
a pair of silk trousers~
A pair of silk trousers has been left here.~
~
11 0 0 0 0 33 0 0 0
0 0 0 0
2 500 60
A
2 1
A
5 1
B
0 0 0 0
#31227
curled boots~
a pair of curled boots~
A pair of curled boots are here.~
~
11 0 0 0 0 65 0 0 0
0 0 0 0
2 500 110
A
2 1
A
3 1
A
14 10
B
0 0 0 0
#31228
scroll~
a scroll~
A scroll. That's it. A SCROLL.~
~
2 64 0 0 0 1 0 0 0
30 49 0 0
3 10000 1000
B
0 0 0 0
#31229
scroll~
a scroll~
A scroll. That's it. A SCROLL.~
~
2 64 0 0 0 1 0 0 0
30 119 0 0
2 38000 3800
B
0 0 0 0
#31230
scroll~
a scroll~
A scroll. That's it. A SCROLL.~
~
2 64 0 0 0 1 0 0 0
30 47 0 0
2 40000 4000
B
0 0 0 0
#31231
scroll~
a scroll~
A scroll. That's it. A SCROLL.~
~
2 64 0 0 0 1 0 0 0
30 112 0 0
2 42000 4200
B
0 0 0 0
#31232
skiff~
a skiff~
A skiff sits here, unwanted.~
~
22 0 0 0 0 16385 0 0 0
0 0 0 0
10 500 0
B
0 0 0 0
#31233
junk~
a chinese junk~
A chinese junk with sail down sits here.~
~
22 0 0 0 0 16385 0 0 0
0 0 0 0
30 1000 0
B
0 0 0 0
#31234
small galley~
a small galley~
A small galley with battering ram lies on its side here.~
~
22 0 0 0 0 16385 0 0 0
0 0 0 0
20 500 0
B
0 0 0 0
#31235
scow~
a scow~
A scow full of crap is here.~
~
22 2 0 0 0 16385 0 0 0
0 0 0 0
30 500 0
B
0 0 0 0
#31236
tomato~
an overripe tomato~
An overripe tomato squelches here.~
~
19 0 0 0 0 1 0 0 0
6 0 0 0
1 4 18
B
0 0 0 0
#31237
juicy pear~
a juicy pear~
A juicy pear rolls about on the ground.~
~
19 0 0 0 0 1 0 0 0
12 0 0 0
1 15 36
B
0 0 0 0
#31238
crunchy apple~
a crunchy apple~
A red crunchy apple is here.~
~
19 0 0 0 0 1 0 0 0
18 0 0 0
1 1 54
B
0 0 0 0
#31239
melon~
a juicy melon~
A juicy melon has been left here.~
~
19 0 0 0 0 1 0 0 0
24 0 0 0
1 25 72
B
0 0 0 0
#31240
tin cup~
a tin cup~
A tin cup lies here.~
~
17 0 0 0 0 1 0 0 0
20 0 -1 0
2 10 20
B
0 0 0 0
#31241
rusty knife~
a rusty knife~
A rusty knife lies here.~
~
5 0 0 0 0 1 0 0 0
0 4 3 11
1 10 70
A
6 1
B
0 0 0 0
#31242
potion~
a potion~
A murky potion is here.~
~
10 2 0 0 0 1 0 0 0
30 43 0 0
1 500 50
B
0 0 0 0
#31243
pouch~
a small pouch~
A small pouch has been tossed aside here.~
~
15 0 0 0 0 1 0 0 0
100 0 -1 0
5 10 100
B
0 0 0 0
#31244
mysterious powder~
a mysterious powder~
A mysterious powder is scattered about here.~
~
10 2 0 0 0 1 0 0 0
30 4 33 0
1 100 10
B
0 0 0 0
#31245
vest~
a studded vest~
A studded vest lies here.~
~
9 524288 0 0 0 1025 0 0 0
3 0 0 0
2 500 195
A
5 2
A
4 2
B
0 0 0 0
#31246
veil~
a veil~
A silk veil lies here.~
~
11 0 0 0 0 524289 0 0 0
0 0 0 0
1 500 180
A
12 15
A
1 2
B
0 0 0 0
#31247
slippers~
a pair of soft slippers~
A pair of soft slippers rests here.~
~
11 0 0 0 0 65 0 0 0
0 0 0 0
2 500 180
A
12 15
A
2 2
B
0 0 0 0
#31248
nipple ring~
a gold nipple ring~
A gold nipple ring from the breast of a princess lies here.~
~
11 0 0 0 0 9 0 0 0
0 0 0 0
1 500 180
A
12 15
A
6 2
B
0 0 0 0
#31249
sachet spice~
a sachet of exotic spices~
A sachet of exotic spices has been left here.~
~
19 0 0 0 0 1 0 0 0
24 30 59 0
1 50 72
B
0 0 0 0
#31250
sachet spice~
a sachet of exotic spices~
A sachet of exotic spices has been left here.~
~
1 0 0 0 0 1 0 0 0
0 0 48 0
1 100 48
B
0 0 0 0
#31251
sachet spice~
a sachet of exotic spices~
A sachet of exotic spices has been left here.~
~
8 0 0 0 0 1 0 0 0
0 0 0 0
1 1000 0
B
0 0 0 0
#31252
sachet spice~
a sachet of exotic spices~
A sachet of exotic spices has been left here.~
~
15 0 0 0 0 1 0 0 0
100 1 -1 0
5 100 100
B
0 0 0 0
#31253
flower wildflower~
a wildflower~
A wildflower has been left here.~
~
11 0 0 0 0 17 0 0 0
0 0 0 0
1 100 90
A
3 2
B
0 0 0 0
#31254
rose~
a rose~
A red rose has been left here.~
~
11 0 0 0 0 9 0 0 0
0 0 0 0
1 100 90
A
1 2
B
0 0 0 0
#31255
carnation~
a carnation~
A carnation has been left here.~
~
11 0 0 0 0 16385 0 0 0
0 0 0 0
1 100 90
A
2 2
B
0 0 0 0
#31256
daisy~
a daisy~
A daisy has been left here.~
~
1 0 0 0 0 16385 0 0 0
0 0 -1 0
1 100 1030
A
3 1
B
0 0 0 0
#31257
crystal dark bracelet~
a &01dark crystal bracelet&00~
A ring of &01crystal&00 lies here.~
~
11 0 0 0 0 4097 0 0 0
0 0 0 0
2 100 45
A
17 -3
A
5 1
B
0 0 0 0
#31258
sun jewel~
a &10sun jewel&00~
A sun jewel is here.~
~
1 0 0 0 0 16385 0 0 0
0 0 -1 0
2 10000 1090
A
4 2
B
0 0 0 0
#31259
strange ring stone~
a &05strange stone ring&00~
A strange stone lies here.~
~
11 0 0 0 0 3 0 0 0
0 0 0 0
1 10000 215
A
1 2
A
9 5
B
0 0 0 0
#31260
string black pearl~
a string of &07tiny black pearls&00~
A sting of tiny beads sit in the dust.~
~
11 0 0 0 0 17 0 0 0
0 0 0 0
2 1000 120
A
3 2
A
4 1
B
0 0 0 0
#31261
turban~
a turban~
A turban sits here.~
~
11 0 0 0 0 17 0 0 0
0 0 0 0
1 500 180
A
3 2
A
4 2
B
0 0 0 0
#31262
sitar~
a sitar~
A sitar has been left here.~
~
11 0 0 0 0 16385 0 0 0
0 0 0 0
5 500 180
A
5 2
A
2 2
B
0 0 0 0
#31263
basket~
a wicker basket~
A wicker basket sits on the floor here.~
~
15 0 0 0 0 1 0 0 0
100 0 0 0
5 500 100
B
0 0 0 0
#31264
flute~
a flute~
A flute is lying on the floor here.~
~
3 0 0 0 0 16385 0 0 0
30 1 1 7
1 100 10
B
0 0 0 0
#31270
hasana my junk wing~
a pair of &07black silk wings&00~
A pile of silk has been dropped here.~
~
11 0 0 0 0 257 0 0 0
0 0 0 0
1 100 0
A
33 51
B
524288 0 0 0
#31271
hasana junk charm~
a tiny &03gold charm&00~
A tiny piece of gold has been dropped here.~
~
11 0 0 0 0 32769 0 0 0
0 0 0 0
1 0 0
B
0 0 0 0
#31272
hasana junk ring~
a band of &07black&00~
A circle of black sits in the dust.~
~
11 0 0 0 0 3 0 0 0
0 0 0 0
1 0 0
B
0 0 0 0
$~
