#31600
stone club~
a stone club~
A piece of stone five feet long has been fashioned into a crude weapon.~
~
5 8187904 32 0 0 8193 0 0 0
0 5 5 7
14 300 305
A
1 1
A
5 2
B
0 0 0 0
#31601
visions chaos~
Visions of Chaos~
The all pervasive vista of Chaos itself lies before you!~
~
9 0 0 0 0 1 0 0 0
3 0 0 0
1 0 15
B
0 0 0 0
#31602
visions order~
Visions of Order~
A glowing shroud of pure white light and energy coalesces here.~
~
9 0 0 0 0 1 0 0 0
4 0 0 0
1 0 20
B
0 0 0 0
#31603
not used~
a jewelled amulet~
A magnificent jewelled amulet hangs from a golden chain.~
~
8 0 0 0 0 1 0 0 0
0 0 0 0
2 0 0
B
0 0 0 0
#31604
not used~
Chaos Amulet~
An amulet of Chaos burns a hole in the floor.~
~
9 0 0 0 0 1 0 0 0
8 0 0 0
1 0 70
B
0 0 0 0
#31605
statue~
a bronze statue~
A statue of bronze, depicting some ancient god of Chaos, stands here.~
~
13 0 0 0 0 0 0 0 0
0 0 0 0
1 0 0
E
statue~
One of the millions of grotesque Chaos deities, this one is unusual
in that it bears a small depression halfway up one side, where a cup
or similar could be pushed in...
~
B
0 0 0 0
#31606
gift shadows~
Gift of Shadows~
A swirling mass of shadows fills the room.~
~
9 71233536 32 0 0 5 0 0 0
10 0 0 0
2 5000 620
A
18 3
A
19 3
B
0 0 0 0
#31607
shard darkness~
a &07Shard of Darkness&00~
A dark shadow lingers in the corner.~
~
5 4124736 32 0 0 8193 0 0 0
0 8 7 11
2 50000 4705
A
19 3
A
18 3
B
0 0 0 0
#31608
torturer whip~
a torturer's whip~
A cat-o-nine tails hangs from a thong on the wall.~
~
5 0 0 0 0 8193 0 0 0
0 1 1 4
10 0 2
B
0 0 0 0
#31609
black leather harness~
black leather harness~
A pile of strips of studded leather has been dumped here.~
~
9 0 0 0 0 1 0 0 0
2 0 0 0
2 0 10
B
0 0 0 0
#31610
wand detection~
Wand of Detection~
A small metal wand has been dropped in the dust.~
~
3 0 0 0 0 16385 0 0 0
40 3 3 116
2 300 30
B
0 0 0 0
#31611
scroll~
a vellum scroll~
A sheet of vellum floats with the breeze.~
~
2 0 0 0 0 1 0 0 0
15 118 111 107
1 0 0
B
0 0 0 0
#31612
not used~
a sapphire~
A sapphire has fallen to the floor.~
~
8 0 0 0 0 1 0 0 0
0 0 0 0
1 0 0
B
0 0 0 0
#31613
lurker cloak~
a lurker cloak~
The hide of a lurker above has been nailed to the wall.~
~
9 0 0 0 0 1 0 0 0
1 0 0 0
7 0 5
B
0 0 0 0
#31614
not used~
a chaos sceptre~
A twisted lump of metal lies here.~
~
5 0 0 0 0 8193 0 0 0
0 1 1 7
1 0 2
B
0 0 0 0
#31615
elixir life~
Elixir of Life~
A large purple bottle sits here.~
~
10 0 0 0 0 1 0 0 0
20 112 112 112
2 5000 500
B
0 0 0 0
#31616
circlet priest king~
Circlet of the Priest King~
A humming band of metal flows with dark energies.~
~
9 8310784 32 0 0 3 0 0 0
2 0 0 0
3 1000 470
A
12 30
A
19 2
B
0 0 0 0
#31617
key~
a small key~
A small metal key lies in the dirt.~
~
18 65548 0 0 0 1 0 0 0
0 0 0 0
2 0 0
B
0 0 0 0
#31618
not used~
a mithril short sword~
This famous short sword of mithril has been lost for centuries.~
~
5 0 0 0 0 8193 0 0 0
0 1 1 11
3 0 2
B
0 0 0 0
#31619
knife jagged~
a jagged knife~
A knife with a serrated edge hums evilly.~
~
5 0 0 0 0 8193 0 0 0
0 9 3 16
1 500 1005
A
18 3
A
19 3
B
0 0 0 0
#31620
tattered robe~
a tattered robe~
A tattered robe lies unwanted on the floor.~
~
9 8310784 32 0 0 9 0 0 0
11 0 0 0
5 1000 860
A
19 2
A
12 40
B
0 0 0 0
#31621
imp tooth earring~
Imp's tooth~
An Imp's tooth earring gleams with reflected light.~
~
9 8310784 0 0 0 262145 0 0 0
0 0 0 0
2 500 140
A
29 20
A
12 20
B
0 0 0 0
#31622
foul concoction~
a foul concoction~
A foul concoction bubbles in a glass flask.~
~
10 0 0 0 0 1 0 0 0
6 33 107 110
1 0 0
B
0 0 0 0
#31623
murky brew~
a murky brew~
A flask of dark liquid rests here.~
~
10 0 0 0 0 1 0 0 0
40 108 38 0
2 500 50
B
0 0 0 0
#31624
clear liquid~
a clear liquid~
A beaker filled with clear liquid rests here.~
~
10 20 0 0 0 1 0 0 0
6 27 27 27
1 0 0
B
0 0 0 0
#31625
brown potion~
a brown potion~
The contents of this glass bottle have the smell and consistency of faeces...~
~
10 0 0 0 0 1 0 0 0
6 28 43 35
1 0 0
B
0 0 0 0
#31626
firewater~
firewater~
A bottle of firewater glows here.~
~
10 0 0 0 0 1 0 0 0
6 88 115 26
1 0 0
B
0 0 0 0
#31627
icewater~
icewater~
Crystalline shards of ice form on the edge of this freezing vial.~
~
10 0 0 0 0 1 0 0 0
6 121 113 102
1 0 0
B
0 0 0 0
#31628
aspect hydra~
Aspect of the Hydra~
A horrid reptillian mask lies here.~
~
9 0 0 0 0 1 0 0 0
2 0 0 0
1 0 10
B
0 0 0 0
#31629
iron wrist chains~
heavy iron chains~
These chains were used to bind someone.~
~
9 0 0 0 0 1 0 0 0
3 0 0 0
4 0 15
B
0 0 0 0
#31630
iron leg chains~
heavy iron chains~
These chains were used to bind someone.~
~
9 0 0 0 0 1 0 0 0
3 0 0 0
40 0 15
B
0 0 0 0
#31631
not used~
a grey cloak~
A pile of grey cloth covers part of the floor.~
~
9 0 0 0 0 1 0 0 0
11 0 0 0
1 0 140
B
0 0 0 0
#31632
not used~
an adamantium short sword~
A razor sharp sword of adamantium lies here.~
~
5 0 0 0 0 8193 0 0 0
0 1 1 11
4 0 2
B
0 0 0 0
#31633
leather pouch~
a leather pouch~
A leather pouch lies open on the ground.~
~
15 0 0 0 0 1 0 0 0
500 0 0 0
10 200 500
B
0 0 0 0
#31634
not used~
the crystal lens~
A piece of polished crystal rolls about.~
~
9 0 0 0 0 1 0 0 0
4 0 0 0
1 0 20
B
0 0 0 0
#31635
moss covered statue~
a moss covered statue~
A moss-covered stone statue serves as a reminder of more peaceful times.~
~
13 0 0 0 0 0 0 0 0
0 0 0 0
1000 0 0
B
0 0 0 0
#31636
thorn blade acid~
the Acid Thorn~
A wicked thorn burns the ground around it.~
~
5 70955072 32 0 0 8193 0 0 0
0 8 5 11
5 5000 1895
A
19 2
A
18 3
A
24 -1
B
0 0 0 0
#31637
bubbling fountain~
a bubbling fountain~
A bubbling fountain fills the center of the clearing.~
~
23 0 0 0 0 0 0 0 0
1000 1000 9 1
1000 0 0
B
0 0 0 0
#31638
tail forest fiend~
Tail of the Forest Fiend~
A forest fiend's severed tail twitches of its own accord.~
~
5 0 0 0 0 8193 0 0 0
0 1 1 4
1 0 2
B
0 0 0 0
#31639
not used~
the butcher's knife~
A gleaming steel blade drips with blood.~
~
5 0 0 0 0 8193 0 0 0
0 1 1 1
5 0 2
B
0 0 0 0
#31640
circlet vampyr~
Circlet of the Vampyr~
A bronze circlet glows with a dim radiance.~
~
9 70955008 32 0 0 4097 0 0 0
5 0 0 0
5 1000 735
A
19 3
A
22 -4
A
2 3
B
0 0 0 0
#31641
rapier shining~
a shining rapier~
A shining rapier lies impaled into the ground.~
~
5 0 0 0 0 8193 0 0 0
0 1 1 2
1 0 2
B
0 0 0 0
#31642
flowing black cape~
a flowing black cape~
A cape of darkest black moves of its own accord.~
~
11 1051136 0 0 0 1 0 0 0
0 0 0 0
5 5000 0
B
0 0 0 0
#31643
crystal monocle~
a crystal monocle~
A crystal monocle hangs from a platinum neck chain.~
~
9 8093696 32 0 0 524289 0 0 0
5 0 0 0
1 2000 495
A
29 20
A
12 25
A
3 2
A
19 2
B
0 0 0 0
#31644
velvet coat~
a &07velvet coat&00~
A black velvet coat lies crumpled on the ground.~
~
9 3911680 32 0 0 1025 0 0 0
11 0 0 0
5 5000 700
A
19 4
B
0 0 0 0
#31645
black riding boots~
black riding boots~
A pair of sturdy black leather riding boots await a wearer.~
~
9 69120000 32 0 0 65 0 0 0
10 0 0 0
5 5000 450
A
3 1
A
19 3
A
29 20
B
0 0 0 0
#31646
not used~
a black metal shield~
A shield of blackened metal lies here.~
~
9 0 0 0 0 1 0 0 0
3 0 0 0
4 0 15
B
0 0 0 0
#31647
not used~
a shattered helm~
This helm has been damaged beyond resonable hopes of repair.~
~
9 0 0 0 0 1 0 0 0
1 0 0 0
3 0 5
B
0 0 0 0
#31648
not used~
a tattered chain hauberk~
A tattered chain hauberk has been torn from a guard.~
~
9 0 0 0 0 1 0 0 0
1 0 0 0
3 0 5
B
0 0 0 0
#31649
not used~
a dull metal spear~
This spear hums with evil energy.~
~
5 0 0 0 0 8193 0 0 0
0 1 1 6
2 0 2
B
0 0 0 0
#31650
wooden stool~
a wooden stool~
A small wooden stool rests in the center of the chamber.~
~
13 0 0 0 0 0 0 0 0
0 0 0 0
50 40 0
B
0 0 0 0
#31651
bronze bracer~
ensorcelled bronze bracer~
A dull bronze bracer glows with an evil aura.~
~
9 524288 0 0 0 257 0 0 0
7 0 0 0
4 100 155
A
18 1
A
19 1
B
0 0 0 0
#31652
wooden shelf~
a wooden shelf~
A wooden shelf covers the northern wall.~
~
13 0 0 0 0 0 0 0 0
0 0 0 0
1 0 0
B
0 0 0 0
#31653
iron key 31653~
the iron key~
An iron key rests here.~
~
18 65548 0 0 0 32769 0 0 0
0 0 0 0
5 0 0
B
0 0 0 0
#31654
not used~
a wooden lance~
A long shaft of wood, 18' in length, has been thrust into the dirt.~
~
5 0 0 0 0 8193 0 0 0
0 1 1 11
4 0 2
B
0 0 0 0
#31655
not used~
a black visored helm~
A black visored helm with a purple plume rests here.~
~
9 0 0 0 0 1 0 0 0
2 0 0 0
3 0 10
B
0 0 0 0
#31656
knights tunic o31656~
a Knights Tunic~
A white tunic trimmed with gold has been tossed here.~
~
9 208599296 32 0 0 1025 0 0 0
6 0 0 0
7 1000 580
A
19 3
A
12 25
B
0 0 0 0
#31657
tabard purple~
a purple tabard~
A tabard of deep purple with gold trim is folded up here.~
~
9 208600320 32 0 0 5 0 0 0
11 0 0 0
7 1000 570
A
19 3
A
18 2
B
0 0 0 0
#31658
greaves honor~
the Greaves of Honor~
A pair of white greaves with gold trim sit here.~
~
9 208600320 32 0 0 33 0 0 0
11 0 0 0
7 1000 850
A
19 3
A
3 3
A
24 -4
B
0 0 0 0
#31659
quill key~
a Quill~
A small quill pen has been dropped here.~
~
18 65548 0 0 0 16385 0 0 0
0 0 0 0
2 0 0
E
quill pen key~
Well used and slightly battered, you can tell this pen has opened up a whole world of Knowlage for many people.
~
B
0 0 0 0
#31660
junk~
the Tome of S'trogg~
A thick, dusty tome covered in human skin hums darkly.~
~
9 0 0 0 0 1 0 0 0
6 0 0 0
12 0 40
E
tome strogg~
Inscribed with the wisdom of the great troll philosopher, this heavy
book contains little information of import to most, though it would
serve as a good bludgeoning weapon in a pinch. Mages, clerics and the
like may be able to draw from the power imbued in it by its author.
~
B
0 0 0 0
#31661
undead spirits~
Undead Spirits~
A vial filled with swirling white liquid hums softly.~
~
10 0 0 0 0 1 0 0 0
50 2 2 2
2 100 10
B
0 0 0 0
#31662
demon blood~
Demon Blood~
A vial of blackened liquid sits here.~
~
10 0 0 0 0 1 0 0 0
50 77 76 2
2 100 10
B
0 0 0 0
#31663
dragon ichor~
Dragon Ichor~
This glass vial contains ichor of Drake.~
~
10 0 0 0 0 1 0 0 0
50 86 49 116
2 100 10
B
0 0 0 0
#31664
corpse pandus~
Pandus~
The corpse of a mage, slain by some unknown assassin, lies on the beach.~
~
13 0 0 0 0 0 0 0 0
0 0 0 0
1 0 0
E
corpse~
This must be Pandus. Pity he didn't make it. Some agent of Chaos
hunted him down before he could complete his quest.
~
B
0 0 0 0
#31670
wooden gate key~
a wooden gate key~
A carved wooden key lies here.~
~
18 65548 0 0 0 1 0 0 0
0 0 0 0
3 0 0
B
0 0 0 0
#31671
feather flame fire golden~
a Feather of Fire~
A golden flame dances about here.~
~
1 0 0 0 0 16385 0 0 0
0 0 -1 0
2 500 1560
A
19 4
B
0 0 0 0
#31672
paper scrap~
a scrap of paper~
A small scrap of paper flutters in the wind.~
~
13 0 0 0 0 1 0 0 0
0 0 0 0
1 10 0
E
paper scrap~
            U'tella       
~
B
0 0 0 0
#31673
soul seeker~
the soul seeker~
A large darkened bow is lying here~
~
6 2560 0 0 0 16385 0 0 0
1 3 3 0
7 66666 980
E
soul gatherer~
   A vile, evil being has forged this bow.  Chiselled out of body parts and
strung together from loose human flesh it is a chaotic thing indeed.  
Engraving's can be observed down each edge of the bow, a small indent for each
kill it takes.  These indents cover over half of the bow.    
~
A
19 4
A
18 4
A
17 -8
B
0 0 0 0
#31674
human bone~
a human bone~
A piece of bone has been tossed aside~
a human bone~
7 0 0 0 0 1 0 0 0
1 65 1 20
8 666 0
A
33 35
B
0 0 0 0
$~
