#31800
Sword of the Warder~
sword of the Warder~
A powerful sword hums quietly here.~
~
5 538969344 16390 0 0 8193 0 0 0
0 4 7 3
11 3000 495
A
4 1
A
13 10
A
18 2
B
0 0 0 0
#31801
trolloc's soul crusher~
a Trolloc's Soul Crusher~
A huge soul crusher lays here.~
~
5 18944 1 0 0 8193 0 0 0
0 6 6 6
15 700 1335
A
14 -20
A
1 -1
A
19 3
B
0 0 0 0
#31802
Black Scale Armor~
black Scale Armor~
A suit of black scale armor lays here.~
~
9 403182146 32825 0 0 9 0 0 0
9 0 0 0
10 9500 1175
A
13 20
A
19 2
A
6 -5
B
0 0 0 0
#31803
draghkar wings of flight~
draghkar Wings of Flight~
A pair of huge wings lays here.~
~
9 2688 0 0 0 1025 0 0 0
12 0 0 0
5 4000 430
A
12 15
A
33 30
A
19 2
B
65536 0 0 0
#31804
idol sa'angreal~
sa'angreal~
A small idol lays forgotten.~
~
9 138315073 0 0 0 16385 0 0 0
7 0 0 0
5 700 355
A
12 30
B
0 0 0 0
#31805
small tree~
the shade of a small tree~
A small tree grows back against the Blight.~
~
13 0 0 0 0 0 0 0 0
0 0 0 0
5 700 0
B
0 0 0 0
#31806
oasis~
a small patch of greenery~
An oasis is shimmering in the desert sun.~
~
23 0 0 0 0 0 0 0 0
20 20 0 1
30 700 0
E
EMPTY_KEYWORD~

~
B
0 0 0 0
#31807
Warder's Cloak of Protection~
warder's Cloak of Protection~
A huge, protective looking cloak lays forgotten.~
~
9 0 0 0 0 5 0 0 0
12 0 0 0
5 700 910
A
24 -5
A
13 25
B
0 0 0 0
#31808
Sash of the Yellow Ajah~
sash of the Yellow Ajah~
A long yellow sash lays here.~
~
9 137266496 0 0 0 2049 0 0 0
7 0 0 0
5 700 225
A
12 20
A
4 1
B
0 0 0 0
#31809
mat's woolen scarf~
Mat's Woolen Scarf~
A woolen scarf lays here.~
~
9 2110464 32 0 0 32769 0 0 0
2 0 0 0
5 700 240
A
19 2
A
13 10
B
0 0 0 0
#31810
three river's long bow~
three River's Long Bow~
A huge long bow lays here.~
~
6 0 16389 0 0 24577 0 0 0
1 3 2 0
13 700 100
A
5 1
A
13 10
B
0 0 0 0
#31811
stedding door~
a stedding~
A small stone doorway leads off to parts unknown.~
~
24 0 0 0 0 0 0 0 0
18001 -1 7 0
5 700 0
B
0 0 0 0
#31812
Book of the Stedding~
book of the Stedding~
A book lays here.~
~
2 1353 0 0 0 16385 0 0 0
30 34 53 0
5 700 70
B
0 0 0 0
#31813
bone dagger~
Bone Dagger~
A dagger made of a shard of bone lays forgotten.~
~
5 138052866 0 0 0 8193 0 0 0
0 5 8 11
5 700 1355
A
19 2
A
18 2
B
0 0 0 0
#31814
Nynaeve's Braids~
nynaeve's Braids~
A pair of girl's braids have been cut off.~
~
9 134743040 0 0 0 17 0 0 0
2 0 0 0
5 700 240
A
3 2
A
12 20
B
0 0 0 0
#31815
dune~
the shade of the dune~
A large dune offers you shade.~
~
13 0 0 0 0 0 0 0 0
0 0 0 0
34 700 0
B
0 0 0 0
#31816
Trolloc's Bracer of Power~
trolloc's Bracer of Power~
A huge, powerful looking bracer lays here.~
~
9 2627 0 0 0 4097 0 0 0
2 0 0 0
5 700 290
A
1 2
A
5 1
A
19 2
B
0 0 0 0
#31817
black scimitar~
blackened scimitar~
A blackened scimitar blazes dully in the corner.~
~
5 1591810 0 0 0 8193 0 0 0
0 5 6 3
11 700 585
A
18 3
B
0 0 0 0
#31818
gloves desolate~
Gloves of the Desolate~
A pair of dark, evil looking gloves lays here.~
~
9 6224384 32 0 0 129 0 0 0
7 0 0 0
4 20000 305
A
33 35
A
19 2
A
12 15
B
8192 0 0 0
#31819
spring~
spring~
A spring bubbles with water.~
~
23 0 0 0 0 0 0 0 0
7 7 15 1
26 700 0
B
0 0 0 0
#31820
Ring of Malkier~
Ring of Malkier~
A ring with the Malkier symbol lays here.~
~
9 1056 0 0 0 3 0 0 0
1 0 0 0
5 700 515
A
19 2
A
18 4
A
33 30
B
16 0 0 0
#31821
Shawl of the blue Ajah~
shawl of the blue Ajah~
A long blue shawl lays here.~
~
9 5686530 0 0 0 1025 0 0 0
7 0 0 0
5 700 295
A
12 20
A
18 1
A
19 1
B
0 0 0 0
#31822
Heron Marked Blade~
heron Marked Blade~
A heron marked blade is here.~
~
5 2913539 32 0 0 8193 0 0 0
0 4 9 12
13 700 1115
A
19 3
A
18 2
B
0 0 0 0
#31823
Ba'alzamon's Aura of Evil~
ba'alzamon's Aura of Evil~
An aura of pure evil lays discarded.~
~
9 0 0 0 0 1025 0 0 0
10 0 0 0
9 4000 750
A
5 2
A
1 -2
A
24 -3
A
19 3
B
0 0 0 0
#31824
White Cloak~
white Cloak~
A white cloak hums softly on the ground.~
~
9 4732160 32 0 0 5 0 0 0
7 0 0 0
5 700 425
A
1 1
A
13 20
A
19 1
B
0 0 0 0
#31825
dun scarf~
a dun-colored scarf~
A yellowish-brown piece of cloth lies here~
~
11 0 0 0 0 32785 0 0 0
0 0 0 0
3 5000 500
A
5 2
A
2 2
A
31 3
A
19 3
B
0 0 0 0
$~
