#32300
32300 gold stash treasure~
the village gold~
The village emergency fund is here.~
~
20 65536 0 0 0 1 0 0 0
14000 0 0 0
1 100000 180
A
19 2
A
17 -4
B
0 0 0 0
#32301
gold 32301 treasure~
the gnome treasure~
A small pile of gold and jewels is here.~
~
20 264 0 0 0 1 0 0 0
21000 0 0 0
2 12013 115
A
2 1
A
17 -9
B
0 0 0 0
#32302
robes gnome mage 32602~
robes of the gnomish order~
A billowing pile of robes has been dropped here.~
~
9 142524416 32782 0 0 1025 0 0 0
7 0 0 0
2 34000 315
A
3 2
A
4 1
A
12 20
B
0 0 0 0
$~
