#33001
Sceptre of the Ivory Spirit~
the Sceptre of the Ivory Spirit~
A strange sceptre lies here, beckoning the fish to run up the river.~
~
1 321 0 0 0 16385 0 0 0
0 0 -1 0
0 0 1000
B
0 0 0 0
#33002
alligator hatchlings~
alligator hatchlings~
Young alligators slither about, snapping their jaws at you.~
~
9 7991816 32 0 0 1025 0 0 0
2 0 0 0
8 1 710
A
19 2
A
13 22
A
2 -2
A
6 -2
A
33 28
B
0 0 0 0
#33003
Vampire Saviour~
the Vampire Saviour~
A dark blade seems to promise you salvation in return for your body.~
~
5 0 0 0 0 8193 0 0 0
0 1 1 0
1 1000000 2
B
1048576 0 0 0
#33004
test plate~
Saliu's Magical Test Plate~
It looks super!~
~
9 524288 0 0 0 0 0 0 0
9 0 0 0
0 0 85
B
17958016 0 0 0
#33005
super scroll~
super scroll~
Super scroll!~
~
2 0 0 0 0 1 0 0 0
50 117 117 98
0 0 0
B
0 0 0 0
#33006
tiara purity~
the tiara of purity~
A gleaming tiara shines with a strange radiance that does not hurt your eyes.~
~
11 33555461 0 0 0 17 0 0 0
0 0 0 0
0 0 2088
A
13 31
A
12 31
A
19 -4
A
18 -4
A
29 -100
A
33 50
B
0 0 0 0
#33007
lush green weeds~
lush green weeds~
Lush green weeds grow everywhere.  Both in and out of the water.~
~
12 0 0 0 0 0 0 0 0
0 0 0 0
0 0 0
B
0 0 0 0
#33008
weathered fishing rod~
a weathered fishing rod~
An old fishing rod lies here, almost falling apart with you even touching it.~
~
28 67108864 0 0 0 16385 0 0 0
0 0 0 0
9 1200 164
A
2 -2
A
5 1
A
12 1
A
18 1
B
0 0 0 0
#33009
weeds~
vibrant green weeds~
Vibrant green weeds grow all around you.~
~
12 0 0 0 0 0 0 0 0
0 0 0 0
0 0 0
B
0 0 0 0
#33010
weeds~
eerie green weeds~
Eerie green weeds seem to draw you in towards them.~
~
24 0 0 0 0 0 0 0 0
33038 -1 11 0
1 0 0
B
0 0 0 0
#33011
shell snapping turtle~
the shell of a snapping turtle~
A gigantic turtle shell lies here.~
~
9 8155648 33 0 0 9 0 0 0
14 0 0 0
28 1 1000
A
19 2
A
13 25
A
2 -2
A
17 -2
A
33 28
B
0 0 0 0
#33012
corpse savage~
the corpse of a jungle man~
The body of a jungle man lies here ravaged by the fury of an alligator.~
~
15 0 0 0 0 1 0 0 0
200 0 -1 0
600 0 200
B
0 0 0 0
#33013
face paint~
fiery red face paint~
Some face paint is splattered on the floor here.~
~
11 12288 32 0 0 524289 0 0 0
0 0 0 0
11 0 210
A
1 1
A
19 2
A
13 5
B
0 0 0 0
#33014
scales barracuda~
the Scales of the Great Barracuda~
Silver scales gleam with a radiant light.~
~
11 74740801 32 0 0 5 0 0 0
0 0 0 0
32 0 610
A
19 3
A
2 3
A
17 -10
B
4194304 0 0 0
#33098
saliu~
Greetings from Saliu~
Along came a dk, then he died.~
~
0 0 0 0 0 1 0 0 0
0 0 0 0
0 0 0
B
0 0 0 0
#33099
mask disgraced~
the Mask of the Disgraced~
A grey mask lies here, telling you of all the sorrows of one man.~
Wonder what this flag does
~
9 2912449 0 0 0 524289 0 0 0
12 0 0 0
1 0 6530
A
13 30
A
19 3
A
33 40
B
512 0 0 0
$~
