#33100
fishing hole o33100~
a fishing hole~
A hole to a pool of water floats in the middle of the room.~
~
26 76 0 0 0 0 0 0 0
37 0 0 0
0 0 0
B
0 0 0 0
#33101
key 33101~
a key~
A key lies here, neglected.~
~
18 0 0 0 0 16385 0 0 0
0 0 0 0
5 60 0
B
0 0 0 0
#33102
hat floppy 33102~
a floppy hat~
A large hat with a wide, floppy brim provides shade to a patch of ground.~
~
11 0 0 0 0 17 0 0 0
0 0 0 0
6 530 0
B
0 0 0 0
#33103
canteen~
a water canteen~
A corked canteen lies on the ground.~
~
17 0 0 0 0 1 0 0 0
6 6 0 0
3 640 60
B
0 0 0 0
#33104
backpack 33104~
a backpack~
A large backpack sits on the ground.~
~
15 0 0 0 0 1 0 0 0
320 1 -1 0
25 1340 320
B
0 0 0 0
#33105
desk oaken large 33105~
a large desk~
A large oaken desk sits here.~
~
12 0 0 0 0 0 0 0 0
0 0 0 0
350 1200 0
B
0 0 0 0
#33106
mug ale 33106~
a mug~
A mug of foaming ale invites you to drink it.~
~
17 0 0 0 0 1 0 0 0
2 2 3 0
2 5 20
B
0 0 0 0
#33107
stew beef plate 33107~
a plate of beef stew~
A plate of beef stew gives off a delicious aroma.~
~
19 0 0 0 0 1 0 0 0
5 0 0 0
3 12 15
B
0 0 0 0
#33108
sandwich roast beef 33108~
a roast beef sandwich~
A roast beef sandwich rich in gravy lies here.~
~
19 0 0 0 0 1 0 0 0
4 0 0 0
9 15 12
B
0 0 0 0
#33109
rope coil 33109~
a coil of rope~
A rope lies coiled on the ground.~
~
12 0 0 0 0 1 0 0 0
0 0 0 0
12 120 0
B
0 0 0 0
#33110
sailcloth roll 33110~
a roll of sailcloth~
A roll of sailcloth sits on the ground.~
~
12 0 0 0 0 1 0 0 0
0 0 0 0
40 300 0
B
0 0 0 0
#33111
stew mutton plate 33107~
a plate of mutton stew~
A plate of mutton stew gives off a delicious armoa.~
~
19 0 0 0 0 1 0 0 0
5 0 0 0
3 12 15
B
0 0 0 0
#33112
sandwich mutton 33108~
a mutton sandwich~
A mutton sandwich lies here.~
~
19 0 0 0 0 1 0 0 0
4 0 0 0
9 15 12
B
0 0 0 0
#33114
dinghy rowboat boat 33114~
a dinghy~
A small rowboat rests on the ground, oars tucked in.~
~
22 0 0 0 0 1 0 0 0
0 0 0 0
50 540 0
B
0 0 0 0
#33115
kayak 33115~
a kayak~
A sea kayak sits on the ground.~
~
22 0 0 0 0 1 0 0 0
0 0 0 0
35 440 0
B
0 0 0 0
#33116
sugar tin 33116~
a tin of sugar~
A tin of sugar is lying here.~
~
19 0 0 0 0 1 0 0 0
1 0 0 0
5 15 3
B
0 0 0 0
#33117
tea tin 33117~
a tin of tea~
A tin of tea lies here unattended.~
~
19 0 0 0 0 1 0 0 0
1 0 0 0
5 25 3
B
0 0 0 0
#33118
bandages roll 33118~
a roll of bandages~
A roll of bandages is lying here.~
~
12 0 0 0 0 1 0 0 0
0 0 0 0
3 20 0
B
0 0 0 0
#33119
jerky beef 33119~
some beef jerky~
Some beef jerky has been left here.~
~
19 0 0 0 0 1 0 0 0
8 0 0 0
5 15 24
B
0 0 0 0
#33120
sausages pork 33120~
some pork sausages~
A string of pork sausages lies here.~
~
19 0 0 0 0 1 0 0 0
10 0 0 0
15 30 30
B
0 0 0 0
#33121
fillet rib eye 33121~
a rib eye fillet~
A rib eye fillet has been dropped here.~
~
19 0 0 0 0 1 0 0 0
12 0 0 0
8 45 36
B
0 0 0 0
#33122
ribs pork spare 33122~
some pork spare ribs~
Some pork spare ribs have been left here.~
~
19 0 0 0 0 1 0 0 0
10 0 0 0
9 40 30
B
0 0 0 0
#33123
cutlets lamb 33123~
some lamb cutlets~
Some lamb cutlets are lying here.~
~
19 0 0 0 0 1 0 0 0
9 0 0 0
35 35 27
B
0 0 0 0
#33124
wine glass 33124~
a glass~
A glass of the house red is lying here.~
~
17 0 0 0 0 1 0 0 0
2 2 2 0
3 90 20
B
0 0 0 0
#33125
chicken kiev plate 33125~
a plate of chicken kiev~
A plate of chicken kiev is lying here.~
~
19 0 0 0 0 1 0 0 0
11 0 0 0
12 55 33
B
0 0 0 0
#33126
sandwich steak 33126~
a steak sandwich~
A steak sandwich is lying here.~
~
19 0 0 0 0 1 0 0 0
8 0 0 0
7 50 24
B
0 0 0 0
#33127
beer cold pint 33127~
a cold pint~
A cold beer looks really refreshing.~
~
17 0 0 0 0 1 0 0 0
2 2 1 0
4 40 20
B
0 0 0 0
#33128
tumbler glass 33128~
a glass tumbler~
A finely crafted glass tumbler is lying here.~
~
17 0 0 0 0 1 0 0 0
3 0 0 0
4 60 30
B
0 0 0 0
#33129
decanter glass 33129~
a glass decanter~
A delicate glass decanter is lying here.~
~
17 0 0 0 0 1 0 0 0
20 0 0 0
12 350 200
B
0 0 0 0
#33130
bowl glass 33130~
a glass bowl~
A fine glass bowl has been left here.~
~
15 0 0 0 0 1 0 0 0
5 0 -1 0
15 540 5
B
0 0 0 0
#33131
rose blown glass 33131~
a blown glass rose~
A glass made of delicately blown glass is here.~
~
8 0 0 0 0 1 0 0 0
0 0 0 0
4 75000 0
B
0 0 0 0
#33132
clock small 33132~
a small clock~
A small clock is here.~
~
12 8388608 0 0 0 1 0 0 0
0 0 0 0
40 450000 0
Z 33101
B
0 0 0 0
#33133
clock tiny chain 33133~
a tiny clock on a chain~
A tiny clock on a fine gold chain lies here.~
~
11 8388608 0 0 0 1 0 0 0
0 0 0 0
15 950000 0
Z 33101
B
0 0 0 0
#33134
clock wall 33134~
a wall clock~
A wooden clock hangs on the wall here.~
~
12 8388608 0 0 0 1 0 0 0
0 0 0 0
90 500000 0
Z 33103
B
0 0 0 0
#33135
bottle ship 33135~
a ship in a bottle~
A glass bottle with a small ship inside it is lying here.~
~
12 0 0 0 0 1 0 0 0
0 0 0 0
15 3000 0
B
0 0 0 0
#33136
troll tin 33136~
a tin troll~
A tin figurine of a troll is lying here.~
~
12 0 0 0 0 1 0 0 0
0 0 0 0
5 2000 0
B
0 0 0 0
#33137
elf wooden carved 33137~
a carved wooden elf~
A wooden carving of an elf warrior is lying here.~
~
12 0 0 0 0 1 0 0 0
0 0 0 0
4 1500 0
B
0 0 0 0
#33138
sketch abenos 33138~
a sketch of Abenos~
A charcoal sketch on a piece of stiff paper is lying here.~
~
25 0 0 0 0 1 0 0 0
0 0 0 0
2 100 0
E
sketch abenos charcoal paper~
You see a charcoal sketch of the town of Abenos, as viewed from a ship
approaching the docks.  Surrounded by low stone walls, the town stretches
up the gentle hill, with neatly laid out streets running parallel to each
other up and down the hill.  The castle of Abenos is visible at the back
right of the sketch.
~
B
0 0 0 0
#33139
scroll recall abenos 33139~
an Abenos scroll of recall~
A scroll marked "Abenos" is lying here.~
~
2 0 0 0 0 1 0 0 0
25 42 33138 33138
3 3500 350
B
0 0 0 0
#33140
scroll recall freeport 33140~
an Freeport scroll of recall~
A scroll marked "Freeport" is lying here.~
~
2 0 0 0 0 1 0 0 0
25 42 22953 22953
3 3500 350
B
0 0 0 0
#33141
scroll recall turrian 33141~
a Turrian scroll of recall~
A scroll marked "Turrian" is lying here.~
~
2 0 0 0 0 1 0 0 0
25 42 27718 27718
3 3500 350
B
0 0 0 0
#33142
boots leather 33142~
a pair of leather boots~
A pair of sturdy leather boots are here.~
~
11 0 0 0 0 65 0 0 0
0 0 0 0
12 400 120
A
17 -4
A
14 20
B
0 0 0 0
#33143
shoes soft 33143~
a pair of soft shoes~
A pair of soft shoes is lying here.~
~
11 0 0 0 0 65 0 0 0
0 0 0 0
9 150 30
A
2 1
B
0 0 0 0
#33144
polish boot tin 33144~
a tin of boot polish~
A tin of boot polish is lying here.~
~
12 0 0 0 0 1 0 0 0
0 0 0 0
5 20 0
B
0 0 0 0
#33145
duster leather 33145~
a leather duster~
A long leather duster is lying here.~
~
11 0 0 0 0 5 0 0 0
0 0 0 0
20 250 100
A
5 1
A
17 -8
B
0 0 0 0
#33146
overcoat woolen 33146~
a woolen overcoat~
A heavy woolen overcoat lies crumpled here.~
~
11 0 0 0 0 5 0 0 0
0 0 0 0
25 300 145
A
17 -9
A
19 1
B
0 0 0 0
#33147
shinguards leather 33147~
leather shinguards~
A pair of stiff leather shinguards lies here.~
~
9 0 0 0 0 131073 0 0 0
7 0 0 0
15 400 135
A
13 5
A
19 1
B
0 0 0 0
#33148
vest silk 33148~
a silk vest~
A fine silk vest is lying here.~
~
11 0 0 0 0 9 0 0 0
0 0 0 0
4 600 60
A
6 1
A
2 1
B
0 0 0 0
#33149
potion clear 33149~
a clear potion~
A clear potion is lying here.~
~
10 0 0 0 0 1 0 0 0
30 29 0 0
4 900 90
B
0 0 0 0
#33150
potion sparkling 33150~
a sparkling potion~
A sparkling potion is lying here.~
~
10 0 0 0 0 1 0 0 0
30 19 44 0
4 60000 6000
B
0 0 0 0
#33151
fountain statue 33151~
a fountain~
A fountain with a statue is here, splashing water into a small pool.~
~
23 0 0 0 0 0 0 0 0
10000 10000 0 0
40 0 0
E
statue fountain~
The fountain consists of a small stone pool, and a statue of a loosely robed
human female looking towards the sky.  Her arms are upstretched, and from
the palm of her left hand water pours out into the pool.  She appears to be
calling upon an Immortal, as her pose indicates supplication, and her face
is calm and undemanding. 
~
B
0 0 0 0
#33152
potion fizzing 33152~
a fizzing potion~
A fizzing potion is lying here.~
~
10 0 0 0 0 1 0 0 0
30 52 0 0
4 900 90
B
0 0 0 0
#33153
sausage bun 33153~
a sausage in a bun~
A sausage in a long bun is lying here, looking a bit stale.~
~
19 0 0 0 0 1 0 0 0
8 0 0 0
5 40 24
B
0 0 0 0
#33154
sausage stick 33154~
a sausage on a stick~
A sausage on a thin wooden stick is lying here.~
~
19 0 0 0 0 1 0 0 0
6 0 0 0
5 35 18
B
0 0 0 0
#33155
pie meat 33155~
a hot meat pie~
A hot meat pie is lying here.~
~
19 0 0 0 0 1 0 0 0
8 0 0 0
5 45 24
B
0 0 0 0
#33156
mug ale 33156~
a mug~
A mug of foaming ale invites you to drink it.~
~
17 0 0 0 0 1 0 0 0
2 2 3 0
2 5 20
B
0 0 0 0
#33157
office chain 33157~
the chain of office~
A chain of golden links lies on the floor.~
~
11 0 0 0 0 4097 0 0 0
0 0 0 0
10 400000 250
A
19 2
A
3 2
B
0 0 0 0
#33180
pie pumpkin zombie o33180~
a piece of pumpkin pie~
A piece of pumpkin pie is cooling on the ground.~
~
19 117506060 0 0 0 1 0 0 0
10 50 77 0
5 50 30
B
0 0 0 0
#33181
pie pumpkin zombie o33181~
a piece of pumpkin pie~
A piece of pumpkin pie is cooling on the ground.~
~
19 117506060 0 0 0 1 0 0 0
10 50 27 0
0 0 30
B
0 0 0 0
#33182
candle halloween~
a halloween candle~
A halloween candle floats a little above the ground.~
~
1 125894668 0 0 0 81921 0 0 0
0 0 -1 0
1 1 1
A
19 1
A
18 1
A
13 10
A
12 10
A
14 10
B
1048576 32 0 0
D168
#33183
candle halloween~
a halloween candle~
A halloween candle floats a little above the ground.~
~
1 125894668 0 0 0 81921 0 0 0
0 0 -1 0
4 50 1260
A
19 -1
A
18 -1
A
13 -10
A
12 -10
A
14 -10
B
0 0 0 0
D20
#33184
candle halloween~
a halloween candle~
A halloween candle floats a little above the ground.~
~
1 125894796 0 0 0 1 0 0 0
0 0 -1 0
4 50 4600
A
3 -5
A
3 -5
A
3 -5
A
3 -5
A
14 -100
A
14 -100
B
176163328 4194328 0 0
D5
#33185
candy zombie o33185 halloween~
some candy~
Some brightly coloured candy lies here, looking delicious.~
~
19 125894668 0 0 0 1 0 0 0
5 50 36 0
3 50 15
B
0 0 0 0
D3
#33186
nog egg o33186~
egg nog~
A mug of egg nog has been left here.~
~
10 64 0 0 0 1 0 0 0
50 28 86 3
3 10 1
B
0 0 0 0
#33189
stick o33189~
the &10quest&00 stick~
A &10quest&00 stick is lying here.~
~
1 67174400 0 0 0 1 0 0 0
0 0 -1 0
1 1 1000
B
0 0 0 0
#33190
flour~
&08f&09l&08o&09u&08r&00 for your &08c&09h&08r&09i&08s&09t&08m&09a&08s&00 cake~
&00Flour that could be used to bake a &08c&09h&08r&09i&08s&09t&08m&09a&08s&00 cake.~
~
10 109117444 0 0 0 1 0 0 0
15 0 15 132
13 0 0
B
0 0 0 0
D200
#33191
eggs ~
Some eggs, possibly they can be good for baking.~
&10a few eggs, maybe they could be used to bake a cake.&00~
~
10 109117452 0 0 0 1 0 0 0
20 39 54 0
13 0 0
B
0 0 0 0
D200
#33192
butter~
&10butter&00~
&10Butter&00 use this for frosting for the &08c&09h&08r&09i&08s&09t&08m&09a&08s&00 cake.~
~
10 42008588 0 0 0 1 0 0 0
20 43 35 0
13 0 0
B
0 0 0 0
D200
#33193
sugar~
&08c&09h&08r&09i&08s&09t&08m&09a&08s&00 sugar~
&00Sugar that could be used for frosting a &08c&09h&08r&09i&08s&09t&08m&09a&08s&00 cake.~
~
27 109117452 0 0 0 1 0 0 0
50 44 97 119
0 0 0
B
0 0 0 0
D200
#33194
A baking pan~
a square baking pan.~
&00A square baking pan that would suit a &08c&09h&08r&09i&08s&09t&08m&09a&08s&00 cake nicely.~
~
5 109117516 0 0 0 8209 0 0 0
0 5 7 12
13 0 945
A
19 2
A
17 -10
B
0 0 0 0
D200
#33195
chocolate 33195~
&07Melted Chocolate&00~
&00Some &07melted chocolate&00 lies here.~
~
27 109117452 0 0 0 16385 0 0 0
35 0 23 138
1 50 5
B
0 0 0 0
D200
#33196
sprinkles 33196~
&08S&09p&08r&09i&08n&09k&08l&09e&08s&00~
&08S&09p&08r&09i&08n&09k&08l&09e&08s&00 for the final touch on the cake!~
~
19 109117452 0 0 0 1 0 0 0
5 30 138 0
1 600 15
B
0 0 0 0
D200
#33197
mistletoe~
a sprig of &08M&09i&08s&09t&08l&09e&08t&09o&08e&00~
A sprig of &08M&09i&08s&09t&08l&09e&08t&09o&08e&00 sits here being jolly.~
~
9 42008584 0 0 0 65537 0 0 0
15 0 0 0
1 10000 930
A
19 4
A
13 10
A
33 30
B
0 0 0 0
#33198
mistletoe~
a sprig of &08M&09i&08s&09t&08l&09e&08t&09o&08e&00~
A sprig of &08M&09i&08s&09t&08l&09e&08t&09o&08e&00 lies here.~
~
9 109117448 0 0 0 65537 0 0 0
15 0 0 0
1 10000 2100
A
13 35
A
17 -15
A
18 3
A
19 2
B
536870912 0 0 0
#33199
mistletoe~
a sprig of &08M&09i&08s&09t&08l&09e&08t&09o&08e&00~
A sprig of &08M&09i&08s&09t&08l&09e&08t&09o&08e&00 lies here.~
~
9 42008584 0 0 0 65537 0 0 0
0 0 0 0
1 10000 970
A
12 40
A
33 30
A
18 4
A
19 1
B
0 0 0 0
$~
