#34001
Icy Steel Dagger~
Icy Steel Dagger~
A icy dagger lies here.~
~
5 403182146 32825 0 0 8193 0 0 0
0 4 5 11
10 9500 580
A
13 20
A
2 -3
B
0 0 0 0
#34002
Draconian Helm~
Draconian's Helm~
A helm belonging to a draconian lies here.~
~
9 403182146 32825 0 0 17 0 0 0
5 0 0 0
10 9500 305
A
13 20
B
0 0 0 0
#34003
spellbook fistandantilus~
the SpellBook of Fistandantilus~
A spellbook with runes of silver stamped on the front lies here.~
~
5 0 0 0 0 8193 0 0 0
0 8 5 12
10 9500 1625
A
12 20
B
0 0 0 0
#34004
Discs Mishakal~
the Discs of Mishkal~
A pile of crystal plates lies here~
~
2 66700 0 0 0 16385 0 0 0
40 86 0 0
10 9500 950
B
0 0 0 0
#34005
khisanth winged anklets~
Khisanth's Winged Anklets~
A pair of winged anklets lies here~
~
11 1051329 1 0 0 131073 0 0 0
0 0 0 0
3 45000 500
A
13 10
A
19 3
A
18 2
A
33 30
B
0 0 0 0
#34006
shroud elf skin~
a Shroud of elvenskin~
A pile of skin lies here~
~
9 1073742530 0 0 0 1025 0 0 0
6 0 0 0
10 9500 930
A
13 15
A
2 2
A
6 -5
B
0 0 0 0
#34007
Blue crystal staff~
a Blue Crystal Staff~
A staff with something shiny at the top lies here~
~
4 65548 0 0 0 16385 0 0 0
35 5 5 48
10 9500 0
B
0 0 0 0
#34008
wyrmslayer~
WyrmSlayer~
A glowing enchanted sword of Kith-Kanan lies here.~
~
5 290816 32 0 0 8193 0 0 0
0 6 6 3
12 9500 1325
A
13 20
A
19 2
B
0 0 0 0
#34009
Light~
light~
A glowing lamp~
~
1 403182146 32825 0 0 16385 0 0 0
0 0 10 0
10 9500 10
B
0 0 0 0
#34010
mishakal blessing~
Mishkal's Blessing~
A small glowing amulet made of crystal lies here~
~
1 2098498 0 0 0 16385 0 0 0
0 0 -1 0
7 9500 1140
A
12 20
B
0 0 0 0
#34011
Jewel Key~
a jewel encrusted Key~
A key encrusted with jewel lies here~
~
18 67108930 0 0 0 1 0 0 0
2 0 0 0
10 9500 0
B
0 0 0 0
#34012
Crown HighBulp~
Crown of the HighBulp~
A crown belonging to the HighBulp lies here~
~
9 524288 16439 0 0 17 0 0 0
4 0 0 0
10 9500 890
A
13 10
A
19 1
A
1 2
A
6 -5
B
0 0 0 0
#34013
well~
well~
A circular well rises from the ground.~
~
24 66 0 0 0 0 0 0 0
34084 -1 8 0
14 9500 0
B
0 0 0 0
#34014
Silver Key~
silver Key~
A silver key lies here.~
~
18 512 4096 0 0 1 0 0 0
0 0 0 0
2 9500 0
B
0 0 0 0
#34015
bupu bag~
Bupu's Bag~
A big leather bag lies here.~
~
15 0 16390 0 0 16385 0 0 0
1000 1 -1 0
10 9500 1000
B
0 0 0 0
#34016
Ragged Dress~
Bupu's ragged dress~
A patched and ragged dress lies here~
~
11 0 0 0 0 33 0 0 0
0 0 0 0
5 9500 0
B
0 0 0 0
#34017
sturm blade~
Sturm's Blade~
A large heavy blade made of steel lies here.~
~
5 0 0 0 0 8193 0 0 0
0 3 10 9
12 9500 645
A
18 2
A
19 2
A
6 2
B
0 0 0 0
#34018
blood whip~
a blood-stained Whip~
A blood stained leather whip lies here~
~
5 512 0 0 0 8193 0 0 0
0 5 5 4
6 9500 185
B
0 0 0 0
#34019
Slave Cuff~
slave's cuff~
A cuff made of steel lies here~
~
9 403182146 32825 0 0 131073 0 0 0
0 0 0 0
10 9500 0
B
0 0 0 0
#34020
black hole~
a Black Hole~
A perfect circle of blackness that seems to absorb light~
~
24 203 0 0 0 1 0 0 0
18001 10 9 0
25 9500 0
B
0 0 0 0
#34021
Silver Chest~
a silver chest~
A Silver chest lies here.~
~
15 1024 4096 0 0 1 0 0 0
100 1 -1 0
10 9500 100
B
0 0 0 0
#34022
Stone Sarcophagus~
Stone Sarcophagus~
A Stone sarcophagus lies here in the middle of the crypt.~
~
12 0 0 0 0 1 0 0 0
0 0 0 0
27 9500 0
B
0 0 0 0
#34023
Bone Mace~
Bone Mace~
A mace made of Bones lies here.~
~
5 640 0 0 0 8193 0 0 0
0 5 5 5
11 9500 345
A
19 2
B
0 0 0 0
#34024
Bone Sword~
Bone Sword~
A sword made of bones lies here.~
~
5 578 0 0 0 8193 0 0 0
0 5 5 16
10 9500 185
B
0 0 0 0
#34025
Bone Shield~
Bone Shield~
A Shield made of bones lies here~
~
9 403182146 32825 0 0 513 0 0 0
9 0 0 0
10 9500 85
B
0 0 0 0
#34026
Shadow Cloak~
Shadow Cloak~
You see a cloak here.~
~
9 403182146 32825 0 0 13 0 0 0
9 0 0 0
10 9500 85
B
0 0 0 0
#34027
black diamond armor~
black Diamond Armor~
A suit of armor encrusted with black diamonds lies here~
~
9 268968514 32777 0 0 9 0 0 0
15 0 0 0
10 9500 650
A
13 15
A
19 2
A
17 -6
B
0 0 0 0
#34028
sandals winds~
Sandals of the Winds~
A pair of golden Sandals lies here.~
~
9 524288 16390 0 0 65 0 0 0
0 0 0 0
4 9500 500
A
14 100
B
0 0 0 0
#34029
magical bracer flames fire beast~
FireBeast bracer~
A Magical bracer made of flames lies here.~
~
9 403182146 32825 0 0 4097 0 0 0
0 0 0 0
6 9500 245
A
1 1
A
5 2
A
9 5
B
0 0 0 0
#34030
staff of magius~
Staff of the Magius~
A wooden staff shone with magical aura lies here.~
~
4 134218818 17 0 0 16385 0 0 0
35 2 2 71
5 9500 1090
A
13 20
A
19 2
A
6 -5
B
0 0 0 0
#34031
Helm Griffon~
Helm of the griffon~
A golden helm with the hair of the griffon on top.~
~
9 403190850 32809 0 0 17 0 0 0
8 0 0 0
12 9500 260
A
1 3
B
0 0 0 0
#34032
Hydra Scale~
Hydra Scales~
The Scales of the hydra lies here~
~
9 403182146 32825 0 0 9 0 0 0
5 0 0 0
13 9500 805
A
13 10
A
19 1
A
6 -5
B
0 0 0 0
#34033
crystal earrings~
Crystal Blue Earrings~
A earring made of blue crystal lies here~
~
9 405062722 32777 0 0 262145 0 0 0
0 0 0 0
10 9500 240
A
12 20
A
19 1
A
18 1
A
29 5
B
0 0 0 0
#34034
blood armband~
a blood-stained armband~
A armband stained with blood lies here.~
~
9 403182146 32825 0 0 257 0 0 0
9 0 0 0
10 9500 435
A
13 15
A
19 2
A
18 1
B
0 0 0 0
#34035
Rusty Key~
a small rusty key~
A small rusty key made of iron lies here~
~
18 66 0 0 0 1 0 0 0
2 0 0 0
10 9500 0
B
0 0 0 0
#34036
Staff Mystic~
Staff of the Mystic~
A staff made of wood lies here~
~
4 7717966 0 0 0 16385 0 0 0
25 5 5 78
10 9500 0
B
0 0 0 0
#34037
Golden Key~
Golden Key~
A key coated with gold lies here~
~
18 66 0 0 0 1 0 0 0
2 0 0 0
10 9500 0
B
0 0 0 0
#34038
spring~
a small spring~
A small spring flows from the ground~
~
17 403182146 32825 0 0 0 0 0 0
9 0 0 0
10 9500 1180
A
13 20
A
19 2
A
6 -5
B
0 0 0 0
#34039
Eye of the spectre~
the Eye of the Spectre~
A hourglass shaped eye lies here.~
~
9 403182146 32825 0 0 9 0 0 0
9 0 0 0
10 9500 1175
A
13 20
A
19 2
A
6 -5
B
0 0 0 0
#34040
poem~
a poem~
A piece of paper with a poem on it lies here~
~
16 67174540 0 0 0 1 0 0 0
0 0 0 0
1 0 0
E
poem~
Turning and turning in the widening gyre
The falcon cannot hear the falconer;
Things fall apart
the centre cannot hold;
Mere anarchy is loosed upon the world,
 
The blood-dimmed tide is loosed, and everywhere
The ceremony of innocence is drowned;
The best lack all conviction, while the worst
Are full of passionate intensity.
 
Surely some revelation is at hand;
Surely the Second Coming is at hand.
The Second Coming! Hardly are those words out
When a vast image out of Spiritus Mundi
 
Troubles my sight: somewhere in sands of the desert
A shape with lion body and the head of a man,
A gaze blank and pitiless as the sun, 
Is moving its slow thighs, while all about it
Reel shadows of the indignant desert birds.
 
The darkness drops again
but now I know
That twenty centuries of stony sleep
Were vexed to nightmare by a rocking cradle,
And what rough beast, its hour come round at last,
Slouches towards Bethlehem to be born?
 
~
B
0 0 0 0
#34041
a blue crystal~
a &11Blue&00 Crystal~
a small crystal lies on the ground~
~
18 0 0 0 0 32769 0 0 0
0 0 0 0
2 25000 15
B
0 0 0 0
$~
