#34100
gleam etherealness crystal aura~
a shimmering crystal aura~
A faint gleam of etherealness shines from the floor.~
~
9 539936067 16390 0 0 17 0 0 0
7 0 0 0
2 9500 105
A
12 5
A
4 1
B
0 0 0 0
#34101
plate crystals interlocking~
a plate of interlocking crystals~
A plate of crystal shines brilliantly here.~
~
9 525378 0 0 0 9 0 0 0
6 0 0 0
3 9500 60
A
13 5
B
0 0 0 0
#34102
crystalline leggings~
crystalline leggings~
A pair of crystalline leggings lays here.~
~
9 525378 0 0 0 33 0 0 0
7 0 0 0
3 9500 55
B
0 0 0 0
#34103
crystalline arm plates~
crystalline arm plates~
A few crystalline plates lay on the floor.~
~
9 524288 0 0 0 257 0 0 0
7 0 0 0
3 9500 105
A
13 5
A
3 1
B
0 0 0 0
#34104
crystal studded gloves~
crystal-studded gloves~
A pair of gloves with crystal studding lays here.~
~
9 524288 0 0 0 129 0 0 0
7 0 0 0
3 9500 85
A
1 1
B
0 0 0 0
#34105
helm crystalline~
a crystalline helm~
A helm of pure crystal lays here.~
~
9 525378 0 0 0 17 0 0 0
9 0 0 0
3 9500 85
B
0 0 0 0
#34106
amulet crystal tiny~
a crystal amulet~
A tiny amulet gleams softly in the light.~
~
3 1090 0 0 0 49153 0 0 0
15 3 3 6
3 9500 950
B
0 0 0 0
#34107
boots leather crystal studded~
crystal-studded boots~
A pair of leather boots, studded with glimmering crystals, is here.~
~
9 524288 0 0 0 65 0 0 0
3 0 0 0
3 9500 95
A
14 10
A
2 1
B
0 0 0 0
#34108
interlocking girth crystals crystalline~
a crystalline girth~
A girth made of interlocking crystals is here.~
~
9 0 0 0 0 2049 0 0 0
5 0 0 0
3 9500 75
A
5 1
A
12 5
B
0 0 0 0
#34109
cape crystal lined~
a crystal lined cape~
A cape, lined with the purest of crystals, lays here crumpled.~
~
9 1091 0 0 0 5 0 0 0
3 0 0 0
3 9500 60
A
12 5
A
9 1
B
0 0 0 0
#34110
crystal circlet arm band tiny~
a crystal arm band~
A tiny circlet of crystal is here.~
~
9 2540610 0 0 0 4097 0 0 0
3 0 0 0
2 5000 35
A
12 5
B
0 0 0 0
#34111
cleaver crystal~
a crystal cleaver~
A cleaver lays on the floor, glinting softly in the light.~
~
5 525378 0 0 0 8193 0 0 0
0 4 4 3
4 9500 310
A
19 1
A
2 -3
B
0 0 0 0
#34112
robes holy crystal thread silken cloth~
holy robes of crystal thread~
A pile of silken cloth lays here, shot with lines of crystal thread.~
~
9 268436546 164361 0 0 1025 0 0 0
0 0 0 0
3 9500 150
A
12 15
A
4 1
A
3 1
B
0 0 0 0
#34113
helm ruby crystals~
a helm carved of ruby crystals~
A ruby carved helm lays on the floor.~
~
9 134755394 32 0 0 17 0 0 0
7 0 0 0
3 9500 155
A
19 1
A
18 1
B
0 0 0 0
#34114
ruby breastplate rubies studded~
a breastplate studded with crimson rubies~
A ruby carved breastplate lays discarded.~
~
9 525378 0 0 0 9 0 0 0
9 0 0 0
3 9500 115
A
5 1
B
0 0 0 0
#34115
leather boots ruby shell~
leather boots coated with a shell of ruby~
A pair of ruby carved boots lays here.~
~
9 524288 0 0 0 65 0 0 0
3 0 0 0
3 500 145
A
14 20
A
2 1
B
0 0 0 0
#34116
gauntlets studded crimson ruby rubies~
gauntlets studded with crimson rubies~
A ruby carved pair of gauntlets lies here~
~
9 537666 32 0 0 129 0 0 0
6 0 0 0
3 9500 140
A
13 10
A
1 1
B
0 0 0 0
#34117
leggings leather ruby~
leather leggings with strips of pure ruby~
A ruby carved pair of leggings lays here.~
~
9 537666 32 0 0 33 0 0 0
6 0 0 0
3 9500 140
A
13 10
A
2 1
B
0 0 0 0
#34118
helm emeralds studded~
a helm studded with brilliant emeralds~
A emerald carved helm lays here.~
~
9 537666 32 0 0 17 0 0 0
9 0 0 0
3 9500 215
A
19 1
A
13 10
B
0 0 0 0
#34119
a breastplate with strips of pure emerald~
an emerald breastplate~
An emerald carved breastplate lays here.~
~
9 537666 32 0 0 9 0 0 0
9 0 0 0
3 9500 165
A
19 1
A
13 5
B
0 0 0 0
#34120
leather boots studded emerald~
leather boots studded with glittering emeralds~
A pair of emerald carved boots lays here.~
~
9 134755394 32 0 0 65 0 0 0
7 0 0 0
4 9500 235
A
13 10
A
18 2
B
0 0 0 0
#34121
gauntlets emerald~
gauntlets shot with strips of pure emerald~
A pair of emerald carved gauntlets lays here.~
~
9 525314 0 0 0 129 0 0 0
5 0 0 0
3 10000 135
A
18 2
B
0 0 0 0
#34122
leather leggings studded emeralds~
leather leggings studded with emeralds~
A pair of emerald carved leggings lays here.~
~
9 537666 32 0 0 33 0 0 0
6 0 0 0
3 9500 140
A
13 10
A
2 1
B
0 0 0 0
#34123
sapphire helm carved~
a helm carved of pure sapphire~
A sapphire carved helm lays here.~
~
9 525378 0 0 0 17 0 0 0
6 0 0 0
3 9500 110
A
12 10
A
5 1
B
0 0 0 0
#34124
sapphire breastplate~
a breastplate outlined with sapphires~
A jeweled piece of armor lies here~
~
9 525378 0 0 0 9 0 0 0
8 0 0 0
3 9500 210
A
18 2
A
2 -1
B
0 0 0 0
#34125
leather boots sapphire studs~
a pair of leather boots with sapphire studs~
A pair of sapphire carved boots lays here.~
~
9 524288 0 0 0 65 0 0 0
3 0 0 0
3 9500 175
A
14 20
A
19 1
B
0 0 0 0
#34126
leather gauntlets sapphire~
leather gauntlets with sapphire knuckles~
A pair of sapphire carved gauntlets lays here.~
~
9 525378 0 0 0 129 0 0 0
2 0 0 0
3 9500 190
A
1 2
A
5 2
B
0 0 0 0
#34127
leggings leather studded sapphires~
leggings of leather studded with sapphires~
A sapphire carved pair of leggings lays here.~
~
9 525378 0 0 0 33 0 0 0
8 0 0 0
3 9500 160
A
2 2
B
0 0 0 0
#34128
shortsword crystal edged~
a shortsword edged with crystal~
A shortsword glitters softly on the ground.~
~
5 525378 0 0 0 8193 0 0 0
0 4 5 16
4 9500 190
A
19 1
A
13 5
B
0 0 0 0
#34129
morningstar crystal spikes~
a morningstar with spikes of crystal~
A morningstar lays discarded.~
~
5 525378 0 0 0 8193 0 0 0
0 5 5 6
4 9500 245
A
19 1
B
0 0 0 0
#34130
crystalline spear~
a crystalline tipped spear~
A spear with a crystalline tip leans against the wall.~
~
5 525378 0 0 0 8193 0 0 0
0 4 5 11
4 9500 170
A
19 1
B
0 0 0 0
#34131
bardiche crystal blade~
a crystal bladed bardiche~
A bardiche with a shimmering crystal blade lays here.~
~
5 525378 0 0 0 8193 0 0 0
0 4 5 11
2 9500 170
A
19 1
B
0 0 0 0
#34132
crystal handled whip~
a crystal handled whip~
A whip with a brilliant crystal handle hums mysteriously.~
~
5 536642 32 0 0 8193 0 0 0
0 5 5 4
2 9500 245
A
19 1
B
0 0 0 0
#34133
poiniard~
a crystal-tipped poiniard~
A small thin blade lies here untouched.~
~
5 2785346 0 0 0 8193 0 0 0
0 4 7 11
2 9500 415
A
13 10
A
19 1
B
0 0 0 0
#34134
light holy protection~
the Holy Light of Protection~
A brightly gleaming light fills the room with glory.~
~
1 2542658 131584 0 0 16385 0 0 0
0 0 -1 0
1 9500 1170
A
12 20
A
1 -1
B
0 0 0 0
#34135
dove crystalline~
a crystalline dove~
A dove of pure crystal flaps its wings gently.~
~
3 1090 0 0 0 16385 0 0 0
20 3 3 22
3 9500 950
B
0 0 0 0
#34136
waterfall prismatic color water~
a waterfall of prismatic colors~
A tiny waterfall seems to glow with inner light.~
~
17 1090 0 0 0 16385 0 0 0
100 100 15 0
3 9500 1000
B
0 0 0 0
#34137
heavy silver bound book white leather blessed saints~
the Blessed Book of Saints~
A heavy silver bound book of white leather lies here, filling the room with holiness.~
~
2 3064898 0 0 0 16385 0 0 0
30 35 34 0
6 9500 950
B
0 0 0 0
#34138
shield crystal~
Shield of Crystal~
A tear shaped shield with a mirrored face rests here against the wall.~
~
9 525571 0 0 0 513 0 0 0
10 0 0 0
7 9500 140
A
12 5
A
13 5
B
0 0 0 0
#34139
brilliant sword sunblade sun blade~
SunBlade~
A brilliant sword burns here with all the radiance of the sun.~
~
5 7259202 0 0 0 8193 0 0 0
0 7 4 21
6 9500 545
A
19 2
B
0 0 0 0
#34140
length white satin rope~
a length of satin rope~
A length of white satin rope lies here in a heap.~
~
9 6734914 0 0 0 2049 0 0 0
5 0 0 0
1 9500 105
A
12 10
A
18 1
B
0 0 0 0
$~
