#35100
black dragonscale shield~
a black dragonscale shield~
A shield made from the skin of a black dragon lies here.~
~
9 524288 0 0 0 513 0 0 0
6 0 0 0
3 200000 310
A
13 10
A
18 1
A
19 2
B
0 0 0 0
#35101
gauntlets black dragonscale~
black dragonscale gauntlets~
Gauntlets made of the scales of a black dragon lie here.~
~
9 524288 0 0 0 129 0 0 0
6 0 0 0
3 200000 310
A
13 10
A
18 1
A
19 2
B
0 0 0 0
#35102
gold treasure~
a pile of gold coins, chains, and bars~
A huge pile of treasure lies here.~
~
8 140 0 0 0 1 0 0 0
0 0 0 0
15 200000 0
B
0 0 0 0
#35103
helm dragonscale black~
a black dragonscale helm~
A helmet made from a black dragon's head lies here.~
~
9 524288 0 0 0 17 0 0 0
6 0 0 0
3 200000 310
A
13 10
A
18 1
A
19 2
B
0 0 0 0
#35104
armor black dragonscale~
black dragonscale armor~
Armor made from a black dragons hide.~
~
9 524288 0 0 0 9 0 0 0
12 0 0 0
3 200000 450
A
13 10
A
18 1
A
19 2
B
0 0 0 0
#35105
sleeves black dragonscale~
black dragonscale sleeves~
Sleeves made from the hide of a black dragon lie here.~
~
9 524288 0 0 0 257 0 0 0
6 0 0 0
3 200000 310
A
13 10
A
18 1
A
19 2
B
0 0 0 0
#35106
leggings black dragonscale~
black dragonscale leggings~
Leggings made of black dragonscale lie here.~
~
9 524288 0 0 0 33 0 0 0
6 0 0 0
3 200000 310
A
13 10
A
18 1
A
19 2
B
0 0 0 0
#35107
girth black dragonscale~
a black dragonscale girth~
A belt made from the scales of a black dragon lie here.~
~
9 0 0 0 0 2049 0 0 0
6 0 0 0
3 200000 310
A
13 10
A
18 1
A
19 2
B
0 0 0 0
#35108
boots black dragonscale~
black dragonscale boots~
Boots made from the scales of a black dragon rest here.~
~
9 524288 0 0 0 65 0 0 0
6 0 0 0
3 200000 310
A
13 10
A
18 1
A
19 2
B
0 0 0 0
#35109
halberd wrath dragonslayer~
Wrath of the Dragonslayer~
A wickedly sharp halberd with a strong, black handle glows with power.~
~
5 5075592 32 0 0 8193 0 0 0
0 4 9 6
3 200000 955
A
13 10
A
18 1
A
19 2
B
0 0 0 0
#35110
icy fountain blood~
an icy fountain~
An ice covered fountain of semi-frozen blood gurgles merrily.~
~
23 65548 0 0 0 0 0 0 0
20 20 13 0
26 200000 0
B
0 0 0 0
#35111
key icy~
an icy key~
An intricate, but strong key carved of ice lies here.~
~
18 140 0 0 0 1 0 0 0
0 0 0 0
3 10 0
B
0 0 0 0
#35112
bone icy rib~
an icy rib bone~
A bone coated in ice lies here.~
~
5 0 0 0 0 8193 0 0 0
0 5 5 6
3 200 185
B
0 0 0 0
#35113
Winter Soul Wintersoul Sword Rapier~
a rapier named "WinterSoul"~
A beautiful ice blue rapier named WinterSoul lies here, waiting to draw blood.~
~
5 12424 32 0 0 8193 0 0 0
0 6 6 14
5 200000 1225
A
13 10
A
18 2
A
19 2
B
0 0 0 0
#35114
plate icy ice mail blue~
icy blue plate~
A set of plate mail made of ice freezes the air.~
~
9 817288 32 0 0 9 0 0 0
6 0 0 0
3 200000 310
A
13 10
A
18 1
A
19 2
B
0 0 0 0
#35115
morning star~
a morning star of pure ice~
A ball of impossibly strong ice, coated with spikes, lays on a chain attached to a piece of wood here.~
~
5 526472 0 0 0 8193 0 0 0
0 5 5 6
5 100000 425
A
12 10
A
18 1
A
19 2
B
0 0 0 0
#35116
maid's dress uniform~
a maid's dress~
A maid's uniform lies on the ground.~
~
11 136 0 0 0 33 0 0 0
0 0 0 0
3 500 0
B
0 0 0 0
#35117
chainmail blue~
icy blue chainmail~
Chain mail made from ice lies here.~
~
9 805000 0 0 0 9 0 0 0
6 0 0 0
3 100000 240
A
18 1
A
19 2
B
0 0 0 0
#35118
icy blue broadsword~
a blue broadsword~
A frost blue broadsword lies here.~
~
5 4487304 32 0 0 8193 0 0 0
0 3 11 3
7 200000 685
A
18 1
A
19 2
B
0 0 0 0
#35119
Blade Tsalmoth~
Tsalmoth's Blade~
The blade of Tsalmoth the Dragontamer lies here.~
~
5 4476104 0 0 0 8193 0 0 0
0 3 13 22
8 200000 1155
A
18 2
A
19 2
B
0 0 0 0
#35120
tiara ice coated~
an ice coated tiara~
A tiara made from ice lays here.~
~
11 137809032 0 0 0 17 0 0 0
0 0 0 0
3 200000 410
A
12 20
A
19 1
A
18 1
A
29 15
B
0 0 0 0
#35121
dagger ice coated~
an ice-coated dagger~
A dagger coated with ice lies here.~
~
5 3309704 0 0 0 8193 0 0 0
0 3 12 11
3 200000 895
A
18 2
A
19 2
A
12 10
B
0 0 0 0
#35122
corpse the injured soldier~
the corpse of a skeleton~
A gown, with the faintest shimmer of blue, reminds you of frosty ice sits here.~
~
11 0 0 0 0 9 0 0 0
0 0 0 0
8 200000 370
A
12 20
A
13 10
A
19 2
B
0 0 0 0
#35123
blue robes ice~
ice blue robes~
Blue robes the color of ice lie here.~
~
11 0 0 0 0 5 0 0 0
0 0 0 0
3 200000 340
A
18 1
A
12 20
A
19 2
B
0 0 0 0
#35124
frosty sceptre snow~
a frosty sceptre~
A sceptre the color of snow lies here.~
~
3 3208 0 0 0 16385 0 0 0
35 10 10 34
3 200000 20000
B
0 0 0 0
#35125
crown frost~
Crown of Frost~
The Crown of Ilvisan, the Frost Lord lies here.~
~
9 8308872 0 0 0 17 0 0 0
11 0 0 0
9 200000 790
A
12 25
A
18 2
A
19 3
B
0 0 0 0
#35126
Staff Fastillion~
Fastillion's Staff~
The staff of the wizard Fastillion floats in midair.~
~
5 8308872 0 0 0 8193 0 0 0
0 5 8 12
8 200000 1285
A
19 2
A
12 10
B
0 0 0 0
#35127
Iceningtongue sword elven~
Icening Tongue~
An ancient frozen elven sword lies here.~
~
5 5011656 32 0 0 8193 0 0 0
0 3 13 21
8 200000 1145
A
18 3
A
19 1
B
0 0 0 0
#35128
winter robes snow~
winter robes~
Robes the color of snow lie on the floor, pushing the heat away.~
~
9 3590280 0 0 0 1025 0 0 0
2 0 0 0
3 200000 430
A
12 25
A
18 3
B
0 0 0 0
#35129
headband white snowy~
a snowy white headband~
A headband which appears to be fashioned of snow lies on the ground.~
~
11 3180680 0 0 0 17 0 0 0
0 0 0 0
3 200000 550
A
12 30
A
24 -5
B
0 0 0 0
#35130
amulet brys~
an amulet of Brys~
An amulet with the eyes of Brys lies here.~
~
9 3312648 0 0 0 32769 0 0 0
3 0 0 0
3 200000 415
A
12 30
A
17 -10
B
0 0 0 0
#35131
coarse brown robes~
coarse brown robes~
Uncomfortable looking brown robes lie here.~
~
9 3178504 0 0 0 1025 0 0 0
12 0 0 0
3 500 250
A
17 -8
B
0 0 0 0
#35132
pile gems~
a pile of precious gems~
A huge mound of scintillating jewels flash and twinkle here~
~
8 141 0 0 0 1 0 0 0
0 0 0 0
8 200000 0
B
0 0 0 0
$~
