#35403
A large pearl~
a large Shiny Pearl~
A large pearl lies here.~
~
8 33554436 0 0 0 1 0 0 0
0 0 0 0
22 75000 0
E
pearl~
This is a perfectly round pearl. It looks extremely valuable.
~
B
0 0 0 0
#35404
beak octypus~
octypus's beak.~
An octypus's beak lays here.~
~
5 67108896 0 0 0 8193 0 0 0
0 3 12 14
30 40000 805
A
12 5
A
18 3
B
0 0 0 0
#35412
black swirling stars~
Black circle~
A circle of black with stars swirling within it lays here.~
~
24 0 0 0 0 1 0 0 0
35473 10 7 0
22 40000 0
E
circle black ~
You are mezmerized by the swirling stars. Powerful magic resides here.
~
B
0 0 0 0
#35413
sushi~
smelly fishmeat~
A putrid slab of fishmeat lies here.~
~
19 0 0 0 0 1 0 0 0
10 30 97 1
30 20000 30
B
0 0 0 0
#35414
jar plankton~
glowing jar~
A jar of glowing plankton sits here unattended.~
~
1 0 0 0 0 16385 0 0 0
0 0 100 0
13 400 405
A
9 -5
A
12 15
A
5 2
B
0 0 0 0
#35415
cup sweetwater~
a cup of sweetwater~
A cup of sweetwater sparkles here.~
~
10 0 0 0 0 1 0 0 0
15 16 87 0
5 3000 300
B
0 0 0 0
#35420
Greasy Joe burger~
a greasy Joe burger~
A joe burger slides across the floor.~
~
19 0 0 0 0 1 0 0 0
24 10 29 0
1 100 72
B
0 0 0 0
#35421
plant food~
Miracle grow~
Some plant food lies here waiting to be eaten.~
~
19 0 0 0 0 1 0 0 0
24 10 91 0
1 200 72
B
0 0 0 0
#35422
foul demon~
a foul demon concotion~
A nasty smelling cup lies here.~
~
10 0 0 0 0 1 0 0 0
35 106 126 70
1 10000 1000
B
0 0 0 0
#35423
shot whiskey~
a tall shot~
A tall shot of whiskey stands here.~
~
17 0 0 0 0 1 0 0 0
3 3 5 0
3 200 30
B
0 0 0 0
#35424
title felicia pwnage~
Felicia's title~
You have Felicia's title.~
uggh
~
13 0 0 0 0 1 0 0 0
0 0 0 0
18 0 0
E
felicia title~
present this to an imm to change felicia's title.
~
B
0 0 0 0
#35438
coral sharp sliver~
Sliver of coral~
A long slender shard of coral lies here.~
~
5 1152 4608 0 0 8193 0 0 0
0 13 2 14
9 2500 835
E
sliver coral~
A suprisingly smooth handled, extremely sharp piece of coral.
~
A
19 2
A
2 2
B
0 0 0 0
#35440
gloves zandoros~
Gloves of Zandoros~
A pair of gloves lie here untended.~
~
9 943693888 153603 0 0 129 0 0 0
6 0 0 0
3 25000 370
A
19 1
A
13 10
A
18 2
A
12 15
B
0 0 0 0
#35441
Wizards cap~
a Wizards cap~
A crumpled lump of cloth lies here.~
~
9 4112416 1536 0 0 17 0 0 0
13 0 0 0
2 15000 835
A
17 -8
A
18 2
A
12 20
A
13 20
A
14 3
B
0 0 0 0
#35442
cloak zandoros~
Cloak of Zandoros~
A cloak has been carefully laid out here.~
~
9 0 0 0 0 5 0 0 0
9 0 0 0
7 25000 410
A
13 8
A
17 -5
A
19 2
A
12 15
B
0 0 0 0
#35443
staff wizard~
a wizards staff~
A long wooden stave is planted firmly here.~
~
5 34775104 135680 0 0 8193 0 0 0
0 12 4 6
13 25000 3625
A
28 10
A
12 15
A
29 30
A
18 4
A
33 38
A
28 5
B
0 0 0 0
#35447
pearl~
a small pearl~
A beautifully rounded white pearl.~
~
8 0 0 0 0 1 0 0 0
0 0 0 0
1 35000 0
B
0 0 0 0
#35454
trident giant~
Giants trident~
An immense trident lies here, only the strongest can even lift it.~
~
5 0 0 0 0 8193 0 0 0
0 13 4 14
45 60000 6285
A
19 3
A
13 30
A
9 40
B
0 0 0 0
#35456
Amara blue~
&11Blue&00 scroll~
A &11Blue&00 scroll lies here unattended.~
~
2 8454148 0 0 0 1 0 0 0
25 42 35439 35439
9 25000 2500
B
0 0 0 0
D25
#35458
coral spire~
a coral spire~
A coral spire juts majestically from the depths.~
~
15 0 0 0 0 0 0 0 0
0 0 0 0
0 0 0
E
coral spire~
You see several openings in the coral that are not large enough to enter.
~
B
0 0 0 0
#35459
coral spire~
a coral spire.~
A coral spire emerges from the ocean floor.~
You notice a swirling black opening near the base. The coral continues towards the surface as far as you can see.
~
24 33554432 0 0 0 0 0 0 0
18001 -1 7 0
0 0 0
E
coral spire~
You notice a swirling black opening near the base. The coral continues towards the surface as far as you can see.
~
B
0 0 0 0
#35460
brutal mom~
Brutal's mom~
Brutal's mom is laying here.~
Nice and fat, a well rounded hunk of flesh.
~
13 0 0 0 0 1 0 0 0
0 0 0 0
0 0 0
B
0 0 0 0
#35461
green algae~
green algae~
A clump of green algae.~
~
19 0 0 0 0 1 0 0 0
10 35 120 0
15 500 30
B
0 0 0 0
#35462
hoard clam treasure~
treasure pile of the clam~
A pile of gold coins has accumulated here.~
~
20 0 0 0 0 1 0 0 0
350000 0 0 0
0 0 0
B
0 0 0 0
#35473
key~
key of energy~
A shimmering cylindar of energy lies here.~
~
18 0 0 0 0 1 0 0 0
0 0 0 0
45 20000 0
B
0 0 0 0
#35474
barbed trident 35474~
Barbed trident~
A polearm with 3 sharp tines lies here.~
~
5 401984 66560 0 0 24577 0 0 0
0 7 6 11
22 5000 1845
A
13 15
A
20 -3
A
19 1
B
0 0 0 0
#35476
shark tooth~
a sharks tooth~
A gleaming white tooth floats here.~
~
5 0 0 0 0 8193 0 0 0
0 4 5 14
12 50000 470
A
19 1
A
17 -15
B
0 0 0 0
#35480
net scroll green~
a green scroll~
A green scroll lies here.~
~
2 83886084 0 0 0 1 0 0 0
50 124 127 106
1 17000 1700
B
0 0 0 0
#35481
scroll brown~
a brown scroll~
A dirty brown scroll lies here.~
~
2 68 0 0 0 1 0 0 0
50 126 33 0
1 53000 5300
B
0 0 0 0
#35482
turquoise brown scroll~
a turquoise scroll~
A turquoise scroll lies here unattended.~
~
2 16777348 0 0 0 1 0 0 0
50 25 25 92
15 73000 7300
B
0 0 0 0
#35483
shark skin scroll green~
an inscribe sharkskin~
A sheet of sharkskin sits here.~
~
2 132 0 0 0 1 0 0 0
50 53 71 0
15 56000 5600
B
0 0 0 0
#35484
meltdown mom~
Meltdowns mom.~
Meltdowns mom lies here waiting for you.~
~
13 0 0 0 0 1 0 0 0
0 0 0 0
0 0 0
B
0 0 0 0
#35485
Turkey sandwich sammy sandich~
turkey sandwich~
YUMMY~
~
11 58720260 0 0 0 65793 0 0 0
0 0 0 0
9 0 4780
A
19 4
A
13 50
A
17 -30
A
4 5
B
0 2080 0 0
D100
#35492
umberlee~
Trident of Umberlee~
A Coral trident~
~
5 38719712 32 0 0 24577 0 0 0
0 15 3 14
30 300000 3635
A
11 50
A
13 15
A
19 2
A
12 15
A
14 -10
B
0 0 0 0
#35494
demon fang dagger~
a large demon fang~
A fang of a large demon lies here.~
~
5 0 0 0 0 8193 0 0 0
0 7 5 11
34 25000 1585
A
1 2
A
6 -3
A
9 4
A
19 3
B
0 0 0 0
#35495
shirt~
tee shirt~
A wad of crumpled cloth.~
~
12 0 0 0 0 9 0 0 0
0 0 0 0
1 50000 630
E
shirt~
&25&15I visited the amara city and all I got was this stupid T-shirt.&00
~
A
17 -10
A
19 2
A
4 -4
A
10 45
B
0 0 0 0
#35496
clam shell shard~
white chip~
A dull white piece of clamshell lies here.~
a clam shell shard~
7 0 0 0 0 16385 0 0 0
2 5 5 10
5 1800 180
A
19 2
A
13 5
B
0 0 0 0
#35498
Calamari~
fried calamari~
Some fried calamri resides on a plate here.~
~
19 0 0 0 0 1 0 0 0
24 25 0 0
1 25 72
B
0 0 0 0
#35499
Plankton~
a clump of plankton.~
A clump of plankton resides here.~
~
19 0 0 0 0 1 0 0 0
24 50 134 0
1 25000 72
B
0 0 0 0
$~
