#35701
large rock~
a large rock~
A nice large rock~
~
13 0 0 0 0 0 0 0 0
0 0 0 0
0 0 0
B
0 0 0 0
#35702
tide gloves woven~
Gloves of the &11Tides&00~
Something is here swaying like the sea.~
~
9 746505299 151566 0 0 129 0 0 0
6 0 0 0
18 750000 830
A
12 35
A
19 3
A
18 1
A
33 30
B
0 0 0 0
#35766
key rock rock_key key_rock~
a key made of rock~
A Key of Rock has been dropped here.~
~
18 100728838 0 0 0 1 0 0 0
0 0 0 0
26 250000 0
B
0 0 0 0
#35767
the &06Lunar&00 Sceptre~
the &06Lunar&00 Sceptre~
A sceptre of the moon levitates here, manipulating the tides.~
~
5 947831891 38 0 0 8193 0 0 0
0 7 6 10
13 825000 2515
A
19 2
A
18 2
A
12 45
B
0 0 0 0
#35795
pearl perfect~
a perfect &12pearl&00~
A absolutely stunning pearl has found its way here.~
~
18 391 0 0 0 1 0 0 0
0 0 0 0
10 50000 0
B
0 0 0 0
#35796
money gold hoarde~
Queen Califa's hoarde~
Queen Califa's hoarde has been nicely stacked up into a pile.~
~
20 0 0 0 0 1 0 0 0
1000000 0 0 0
0 0 0
B
0 0 0 0
#35797
sand speck ~
a Speck of Sand~
A speck of sand has fallen here.~
~
11 746569938 131118 0 0 262145 0 0 0
0 0 0 0
10 250000 580
A
19 3
A
18 1
A
12 25
B
0 0 0 0
#35798
a Giant clam.~
a Giant clam.~
A Giant clam is sealed tightly here.~
~
15 100728924 0 0 0 0 0 0 0
500 15 35795 0
5000 25 500
B
0 0 0 0
$~
