#39001
cowl black o39001~
a black cowl~
A black cowl is lying here.~
~
11 8318976 0 0 0 17 0 0 0
0 0 0 0
5 590 120
A
3 2
A
4 1
B
0 0 0 0
#39002
robe black m39002~
a black robe~
A black robe is lying here.~
~
11 8318976 0 0 0 9 0 0 0
0 0 0 0
13 1100 55
A
17 -5
A
5 1
B
0 0 0 0
#39003
gloves black o39003~
black gloves~
Black gloves are lying here.~
~
11 8318976 0 0 0 129 0 0 0
0 0 0 0
4 430 80
A
4 1
A
24 -1
B
0 0 0 0
#39004
rod black o39004~
a black rod~
A black rod is lying here.~
~
5 8318976 0 0 0 8193 0 0 0
0 4 4 5
9 890 120
A
2 1
A
2 1
B
0 0 0 0
#39010
lamp stand o39010~
a lamp stand~
A lamp stand occupies a corner of the room.~
~
5 64 0 0 0 0 0 0 0
0 1 1 5
30 0 2
B
0 0 0 0
$~
