#40100
oily hides~
oily hides~
A pile of oily hides fills the area with a foul stench.~
~
9 0 0 0 0 1025 0 0 0
7 0 0 0
5 50 155
A
5 1
A
13 10
B
0 0 0 0
#40101
gem set belt~
a gem set belt~
This leather belt is set with several large gems.~
~
9 0 0 0 0 2049 0 0 0
5 0 0 0
5 1400 175
A
24 -3
B
0 0 0 0
#40102
beaten silver comb~
a beaten silver comb~
This silver comb is clogged with giant hair.~
~
18 65548 4096 0 0 16385 0 0 0
0 0 0 0
5 300 90
A
6 2
B
0 0 0 0
#40103
copper mirror~
a copper mirror~
Used correctly, this mirror could dazzle your opponents.~
~
3 0 0 0 0 16385 0 0 0
30 1 1 4
5 200 20
B
0 0 0 0
#40104
large gold hair pin ~
a large gold hair pin~
A hair pin the size of a short sword lies on the ground.~
~
5 64 0 0 0 8193 0 0 0
0 14 2 11
2 800 1155
A
18 2
A
19 2
B
0 0 0 0
#40105
chest huge~
a huge chest~
A huge chest is visible underneath the bed.~
~
15 65548 0 0 0 0 0 0 0
1000 15 40102 0
1000 0 1000
B
0 0 0 0
#40106
money coins~
a pile of coins~
A pile of coins has been scattered across the floor.~
~
20 0 0 0 0 1 0 0 0
2000 0 0 0
1 0 0
B
0 0 0 0
#40107
leather pouch~
a leather pouch~
A leather pouch lies open on the ground.~
~
15 0 0 0 0 1 0 0 0
50 1 -1 0
2 40 50
B
0 0 0 0
#40108
money coins~
a pile of coins~
A pile of coins has been scattered across the floor.~
~
20 0 0 0 0 1 0 0 0
550 0 0 0
1 0 0
B
0 0 0 0
#40109
jewelled bracelet~
a jewelled bracelet~
A bracelet of considerable value has been discarded here.~
~
9 0 0 0 0 4097 0 0 0
4 0 0 0
5 24000 380
A
2 2
A
19 2
A
18 2
B
0 0 0 0
#40110
matron potion pot1~
the matron's potion~
An unremarkable brown bottle rolls around on the floor.~
~
10 0 0 0 0 1 0 0 0
30 28 0 0
1 1000 100
B
0 0 0 0
#40111
matron potion pot2~
the matron's potion~
An unremarkable brown bottle rolls around on the floor.~
~
10 0 0 0 0 1 0 0 0
30 33 0 0
1 1000 100
B
0 0 0 0
#40112
matron potion pot3~
the matron's potion~
An unremarkable brown bottle rolls around on the floor.~
~
10 0 0 0 0 1 0 0 0
30 61 0 0
1 1000 100
B
0 0 0 0
#40113
matron potion pot4~
the matron's potion~
An unremarkable brown bottle rolls around on the floor.~
~
10 64 0 0 0 1 0 0 0
30 7 0 0
1 1000 100
B
0 0 0 0
#40114
magical shield radiance~
the shield of radiance~
A magical shield of days long past has been rediscovered!~
~
9 7095360 0 0 0 513 0 0 0
11 0 0 0
5 50000 665
A
17 -7
A
13 15
A
19 3
B
0 0 0 0
#40115
skull~
a dwarven skull~
A gem has been wedged inside this dwarven skull.~
~
1 0 0 0 0 16385 0 0 0
0 0 -1 0
5 2000 1000
B
0 0 0 0
#40116
gem~
a large gem~
A large red gem lies on the floor, cracked.~
~
18 65548 0 0 0 1 0 0 0
0 0 0 0
5 2000 0
B
0 0 0 0
#40117
jewelled collar~
a studded collar set with jewels~
The menace of this studded collar is offset by the expensive gems set in it.~
~
9 0 0 0 0 32769 0 0 0
7 0 0 0
5 15000 525
A
19 3
A
20 -3
B
0 0 0 0
#40118
manticore~
a manticore hide~
A manticore hide hangs on the western wall.~
~
12 0 0 0 0 0 0 0 0
0 0 0 0
5 0 0
B
0 0 0 0
#40119
war hammer~
a dwarven war hammer~
A dwarven war hammer, covered in runes, lies on the floor.~
~
5 -67108800 8421399 0 0 24577 0 0 0
0 13 3 7
5 75000 1985
B
0 0 0 0
#40120
javelin lightning~
a javelin of lightning~
A sharp metal javelin is propped up against one wall.~
~
4 0 0 0 0 16385 0 0 0
35 3 3 6
5 5000 0
B
0 0 0 0
#40121
scroll tube~
a scroll tube~
A scroll tube rolls around on the floor.~
~
15 0 0 0 0 1 0 0 0
5 5 -1 0
5 10 5
E
tube~
The tube bears the mark of a triangle containing a Y.
~
B
0 0 0 0
#40122
scroll instructions~
strange instructions~
A scroll covered in strange instructions lies here.~
~
13 0 0 0 0 1 0 0 0
0 0 0 0
1 0 0
E
scroll instructions~
They appear to be written in giantish, and include a detailed map, far
too detailed to have been scribed by giants. It is signed- Eclavdra.
~
B
0 0 0 0
#40123
ballista~
a ballista~
A small ballista lies unwanted on the ground.~
~
5 0 0 0 0 8193 0 0 0
0 9 2 5
5 17500 705
A
2 2
A
13 20
A
18 3
B
0 0 0 0
#40124
chain office~
Nosnra's chain of office~
A heavy jewelled chain lies draped across the floor.~
~
9 0 0 0 0 32769 0 0 0
8 0 0 0
5 32000 420
A
4 1
A
12 20
A
24 -3
A
1 1
B
0 0 0 0
#40125
chain office~
the sub-chief's chain of office~
A heavy gold chain lies here.~
~
9 0 0 0 0 32769 0 0 0
7 0 0 0
5 4800 535
A
13 20
A
20 -2
A
22 -2
B
0 0 0 0
#40126
clouds plate~
plate of the clouds~
A lightly colored breastplate floats in mid-air.~
~
11 0 0 0 0 1033 0 0 0
0 0 0 0
5 125000 1180
A
17 -10
A
13 30
A
12 30
B
0 0 0 0
#40127
jewelled necklace~
a jewelled necklace~
A jewelled necklace hangs from a hook on the wall.~
~
8 0 0 0 0 32769 0 0 0
0 0 0 0
5 125000 0
B
0 0 0 0
#40128
giantslayer sword longsword~
Giantslayer~
A beautifully crafted longsword shimmers into view.~
~
5 4747328 32 0 0 8193 0 0 0
0 7 6 3
20 175600 2005
A
18 3
A
19 3
B
0 0 0 0
#40129
chest huge~
a huge chest~
A huge chest rests on a stool.~
~
15 0 0 0 0 1 0 0 0
1000 5 -1 0
1000 0 1000
B
0 0 0 0
#40130
elvenstone earring~
an elvenstone earring~
This pretty elvenstone bestows magical benefits to faeriekin.~
~
9 -1476393984 16414 0 0 262145 0 0 0
6 0 0 0
1 50000 690
A
12 20
A
24 -4
A
18 2
A
20 -4
B
0 0 0 0
#40131
carving knife~
a giant carving knife~
A giant carving knife drips blood onto the floor...~
~
5 64 0 0 0 8193 0 0 0
0 6 8 3
5 500 2605
A
19 3
B
0 0 0 0
#40132
iron frying pan~
a heavy iron frying pan~
This massive iron frying pan could crush a human skull.~
~
5 0 0 0 0 8193 0 0 0
0 8 1 5
5 500 560
A
19 3
A
18 3
B
0 0 0 0
#40133
iron pot~
a heavy iron pot~
This heavy iron pot would hurt those struck with it!~
~
5 64 0 0 0 8193 0 0 0
0 9 3 7
5 500 1045
A
19 4
B
0 0 0 0
#40134
table~
a table~
A low table rests between piles of hides.~
~
12 0 0 0 0 0 0 0 0
0 0 0 0
5 40 0
B
0 0 0 0
#40135
pile coins~
a pile of coins~
A pile of gold coins rests on one table.~
~
20 0 0 0 0 1 0 0 0
10000 0 0 0
1 0 0
B
0 0 0 0
#40136
leather sack~
a leather sack~
A large leather sack hangs from a hook set in the wall.~
~
15 0 0 0 0 1 0 0 0
60 5 -1 0
5 50 60
B
0 0 0 0
#40137
gray potion~
a gray potion~
A dull gray potion rests on the floor.~
~
10 0 0 0 0 1 0 0 0
50 39 0 0
1 1000 100
B
0 0 0 0
#40138
bubbling potion~
a bubbling potion~
The contents of this potion bottle are in a state of violent agitation.~
~
10 0 0 0 0 1 0 0 0
50 108 107 110
1 1000 100
B
0 0 0 0
#40139
whip~
a barbed whip~
A vicious barbed whip lies coiled on the ground.~
~
5 64 0 0 0 8193 0 0 0
0 6 7 2
5 1000 1845
A
18 3
A
19 2
B
0 0 0 0
#40140
sergeant chest~
the sergeant's chest~
A heavy, iron bound oak chest rests in the center of the room.~
~
15 0 0 0 0 0 0 0 0
10000 15 40173 0
1000 0 10000
B
0 0 0 0
#40141
boots wyvernhide~
wyvernhide boots~
These boots are crafted from the hide of a wyvern.~
~
9 536576 32 0 0 65 0 0 0
7 0 0 0
5 10000 1245
A
5 2
A
13 30
A
19 3
B
0 0 0 0
#40142
large iron chest~
a large iron chest~
A large iron chest bears the chief's symbol.~
~
15 0 0 0 0 1 0 0 0
1000 5 -1 0
1 0 1000
B
0 0 0 0
#40143
iron box~
an iron box~
An iron box rests near your feet.~
~
15 0 0 0 0 0 0 0 0
1000 15 40173 0
10000 0 1000
B
0 0 0 0
#40144
small coffer~
a small coffer~
A small coffer is positioned near the far wall.~
~
15 0 0 0 0 0 0 0 0
1000 5 -1 0
5 0 1000
B
0 0 0 0
#40145
chain metal~
a chain of adamantium~
A heavy chain of adamantium protrudes from the wall.~
~
13 0 0 0 0 0 0 0 0
0 0 0 0
1 0 0
E
chain metal~
The chain is too heavy to take with you. However, manipulating it may
produce some result; perhaps you will find a clue as to where next
to proceed to lay to rest the dark forces behind the giant raids!
~
B
0 0 0 0
#40146
spear iron~
an iron spear~
A seven foot spear of iron is leaning against one wall.~
~
5 64 0 0 0 1 0 0 0
0 3 2 22
5 75600 938
A
3 4
A
19 4
B
0 0 0 0
#40147
pile coins~
a pile of coins~
A pile of gold coins rests on one table.~
~
20 0 0 0 0 1 0 0 0
23840 0 0 0
1 0 0
B
0 0 0 0
#40148
pile coins~
a pile of coins~
A pile of gold coins rests on one table.~
~
20 0 0 0 0 1 0 0 0
25000 0 0 0
1 0 0
B
0 0 0 0
#40149
fabulous ruby~
a fabulous ruby~
A fabulous ruby sits here.~
~
8 0 0 0 0 1 0 0 0
0 0 0 0
1 40000 0
B
0 0 0 0
#40150
flaming blade~
a flaming blade~
Waves of heat radiate from this blade.~
~
5 2560 0 0 0 24577 0 0 0
0 1 1 6
5 150000 2
B
0 0 0 0
#40151
rune decay flesh~
the Rune of Decay~
A putrescent chunk of flesh covered in dark runes pulses evilly.~
~
1 2560 0 0 0 16385 0 0 0
0 0 -1 0
5 1000 1760
A
1 4
A
6 -3
A
18 3
B
0 0 0 0
#40152
band silvan~
a silvan band~
A delicate armband can be made out in a pile of straw.~
~
11 -1204288512 32769 0 0 257 0 0 0
0 0 0 0
5 1000 390
A
17 -8
A
19 3
B
0 0 0 0
#40153
axe keeper~
the Keeper's axe~
A horribly sharp, long-hafted black battleaxe is buried in a skull.~
~
5 539200 32 0 0 8193 0 0 0
0 7 6 9
27 74500 2005
A
19 3
A
18 3
B
0 0 0 0
#40154
potion watery~
a watery potion~
A vial of watery liquid rests here.~
~
10 0 0 0 0 1 0 0 0
50 72 72 56
5 800 80
B
0 0 0 0
#40155
mining pick~
a mining pick~
A heavy metal pick has been discarded here.~
~
5 0 0 0 0 8193 0 0 0
0 3 6 8
5 100 620
A
5 3
A
1 4
B
0 0 0 0
#40156
pool dark water~
a pool of dark water~
A deep pool of dark water fills the cistern.~
~
24 0 0 0 0 0 0 0 0
18001 -1 3 0
5 0 0
B
0 0 0 0
#40157
leather jack~
a leather jack~
A heavy leather garment rests here.~
~
9 0 0 0 0 1025 0 0 0
7 0 0 0
5 50 865
A
13 30
A
2 -1
B
0 0 0 0
#40158
morning star~
an adamantite morning star~
The entirety of this morning star is crafted from pure adamantium.~
~
5 64 0 0 0 8193 0 0 0
0 3 9 16
12 50000 875
A
19 3
A
3 -4
B
0 0 0 0
#40159
hand axe~
a hand axe~
A large metal handaxe lies here.~
~
5 0 0 0 0 8193 0 0 0
0 3 8 3
5 2100 225
A
2 2
B
0 0 0 0
#40160
flask oil~
a lit flask of oil~
This flask of oil has been lit, so as to serve as a crude grenade.~
~
3 0 0 0 0 1 0 0 0
50 2 2 26
1 0 0
B
0 0 0 0
#40161
metal war hammer~
a metal war hammer~
A metal war hammer leans against one wall.~
~
5 2912256 32 0 0 8193 0 0 0
0 4 9 3
28 7500 1695
A
2 -1
A
13 30
A
18 3
B
0 0 0 0
#40162
forge~
the forge~
A bed of coals burns red-hot in the forge.~
~
13 0 0 0 0 0 0 0 0
0 0 0 0
5 0 0
B
0 0 0 0
#40163
fire opal chain gold~
a gold chain set with a fire opal~
This gold chain is set with a fire opal.~
~
9 539136 32 0 0 5 0 0 0
15 0 0 0
5 50000 2200
A
9 30
A
4 -4
A
13 30
B
0 0 0 0
#40164
torturer whip~
the torturer's whip~
A vicious barbed whip lies coiled on the ground.~
~
5 2688 0 0 0 8193 0 0 0
0 6 6 2
5 5000 1275
A
1 3
A
18 3
B
0 0 0 0
#40165
cell key~
the cell key~
A large metal key lies here.~
~
18 0 0 0 0 1 0 0 0
0 0 0 0
1 0 0
B
0 0 0 0
#40166
altar yellow stone~
an altar of yellow stone~
An altar of greasy yellow stone rises before you.~
~
12 0 0 0 0 0 0 0 0
0 0 0 0
5 0 0
E
altar ~
The altar is devoid of inscription or design; it needs none, as just
glancing at it makes its function abundantly clear.
~
B
0 0 0 0
#40167
scarab insanity~
scarab of insanity~
This strange scarab bestows unusual benefits to those of dark minds.~
~
9 33557120 0 0 0 32769 0 0 0
1 0 0 0
5 75000 10085
A
18 -5
A
19 -5
A
24 6
A
30 -30
A
13 -100
A
9 100
B
0 8 0 0
#40168
stream~
an underground stream~
A swift-flowing stream cuts through the northeast corner of the cavern.~
~
23 0 0 0 0 0 0 0 0
1000000 1000000 15 0
5 0 0
B
0 0 0 0
#40169
brass shield~
shield of brass~
Despite being forged from a weak alloy, this shield seems remarkably durable.~
~
9 0 0 0 0 1 0 0 0
12 0 0 0
3 50000 180
B
0 0 0 0
#40170
ring blue steel o40170~
a ring of blue steel~
A ring of blue steel is suddenly visible!~
~
11 0 0 0 0 3 0 0 0
0 0 0 0
5 5000 550
A
12 20
A
17 -10
A
19 2
A
13 15
A
33 33
B
0 0 0 0
#40171
scroll returning~
a scroll of returning~
A curled up piece of parchment lies here.~
~
2 0 0 0 0 1 0 0 0
1 42 -1 -1
1 500 50
B
0 0 0 0
#40172
vial blue liquid~
a vial of bluish liquid~
A vial filled with a bluish liquid rolls about on the floor.~
~
10 0 0 0 0 1 0 0 0
40 136 0 0
5 1500 150
B
0 0 0 0
#40173
vial reddish liquid~
a vial of reddish liquid~
A vial filled with a reddish liquid rolls about on the floor.~
~
10 4 0 0 0 1 0 0 0
40 26 26 29
5 1500 150
B
0 0 0 0
#40174
vial green liquid~
a vial of greenish liquid~
A vial filled with a greenish liquid rolls about on the floor.~
~
10 0 0 0 0 1 0 0 0
40 87 99 99
5 1500 150
B
0 0 0 0
#40175
vial gray liquid~
a vial of grayish liquid~
A vial filled with a grayish liquid rolls about on the floor.~
~
10 0 0 0 0 1 0 0 0
40 88 29 4
5 1500 150
B
0 0 0 0
#40176
vial white liquid~
a vial of whitish liquid~
A vial filled with a whitish liquid rolls about on the floor.~
~
10 0 0 0 0 1 0 0 0
40 134 0 0
5 1500 150
B
0 0 0 0
#40178
rune dagger knife~
a rune dagger~
A small dagger with strange carvings on the handle lies here.~
~
5 68108 0 0 0 8193 0 0 0
0 3 10 11
5 10000 655
A
2 4
B
0 0 0 0
#40180
vortex locker black~
a locker~
A large black vortex floats here waiting to be filled.~
~
15 0 0 0 0 0 0 0 0
800 16 -1 0
1 0 800
E
black vortex~
Put your junk in here please!
~
B
0 0 0 0
#40181
scroll cleaning~
a scroll~
A clean scroll sits here.~
~
2 100663296 0 0 0 1 0 0 0
50 134 87 87
1 100 10
B
0 0 0 0
#40182
scroll defense~
a scroll of defense~
A thick scroll sits here.~
~
2 100663296 0 0 0 1 0 0 0
50 111 1 69
1 100 10
B
0 0 0 0
#40183
rock scroll~
a rock~
A rock sits here.~
~
2 100663296 0 0 0 1 0 0 0
50 54 3 132
1 100 10
B
0 0 0 0
#40184
red potion~
a red potion~
A red potion has been dropped here.~
~
10 100663296 0 0 0 1 0 0 0
50 19 44 50
1 100 10
B
0 0 0 0
#40185
spiked wooden club~
a spiked wooden club~
A massive wooden club with a metal spike through it is lying here.~
This large club could be what remains of a large tree the giant
decided to play with. A large spike covered in flaking blood is stuck
through the end of the club
~
5 64 32768 0 0 8193 0 0 0
0 7 8 7
18 23500 3685
B
0 0 0 0
#40186
locker leblanc~
a locker~
A locker belonging to Leblanc is here. ~
~
15 0 0 0 0 0 0 0 0
500 21 -1 0
1000 0 0
B
0 0 0 0
$~
