#40501
small elven ring~
a small elven ring~
A small ring has been dropped here.~
~
9 8302592 32 0 0 3 0 0 0
3 0 0 0
1 500 375
A
13 22
B
0 0 0 0
#40502
gloves gold embroidered silk~
a pair of gold embroidered silk gloves~
A pretty pairs of gloves have been dropped here.~
~
11 8314880 0 0 0 129 0 0 0
0 0 0 0
2 500 332
A
12 22
A
19 2
B
0 0 0 0
#40503
shield stone~
a Shield of Red Stone~
A large red stone lies here.~
~
9 8286208 32 0 0 513 0 0 0
10 0 0 0
10 500 620
A
13 22
A
19 2
B
0 0 0 0
#40504
knife kindjal~
a Kindjal~
A dagger with a curved blade and carved wooden handle lies here.~
~
5 8056896 32 0 0 8193 0 0 0
0 10 3 11
4 500 1205
A
18 3
A
19 3
B
0 0 0 0
#40505
gauntlets night~
the gauntlets of &07night&00~
Something casts a shadow here.~
~
9 4124672 32 0 0 129 0 0 0
7 0 0 0
2 500 215
A
19 2
B
0 0 0 0
#40506
sylvanis bracers~
a pair of Sylvanis bracers~
Someone has dropped a pair of bracers here.~
~
9 8187904 32 0 0 257 0 0 0
10 0 0 0
3 500 730
A
19 2
A
13 22
A
18 2
B
0 0 0 0
#40507
white silk sash~
a soft white sash of silk~
A beautiful piece of slk lies here.~
~
11 8310784 32 0 0 2049 0 0 0
0 0 0 0
2 500 645
A
19 3
A
12 30
A
17 -5
B
0 0 0 0
#40508
twin brands balance~
the Twin Brands of Balance~
Something formed of pure heat burns the ground here.~
Searing pain shoots through your arms.
~
11 7794688 32 0 0 257 0 0 0
0 0 0 0
1 500 370
A
18 2
A
19 2
A
17 -10
B
0 0 0 0
#40509
portal swirling black~
a swirling black portal~
A deep hole has been dug here.~
~
24 0 0 0 0 0 0 0 0
40300 -1 8 0
1000 0 0
B
0 0 0 0
#40510
key false skull~
a skull shaped key~
A strange key has been dropped here.~
~
18 65548 0 0 0 1 0 0 0
0 0 0 0
1 0 0
B
0 0 0 0
$~
