#41200
knife mine~
a knife~
A knife has been dropped here.~
~
5 33554432 0 0 0 8193 0 0 0
0 1 1 0
1 0 2
A
33 53
B
32768 0 0 0
#41201
locker bael~
a locker~
A locker labelled 'Bael' is here.~
~
15 0 0 0 0 0 0 0 0
80 21 -1 0
0 0 80
B
0 0 0 0
#41202
locker l41202 lKryte Kryte~
a locker~
A locker labelled 'Kryte' is here.~
~
15 0 0 0 0 0 0 0 0
20 21 -1 0
0 0 20
B
0 0 0 0
#41203
locker l41203 lente ente acadia~
a locker labelled 'Acadia'.~
A locker labelled 'Acadia' is here.~
~
15 0 0 0 0 0 0 0 0
300 21 -1 0
1200 0 300
E
note ente acadia knox irwin linx~
a locker containing cool stuff that you will never see, lies here.
~
B
0 0 0 0
#41204
locker l41204 lOrcan Orcan~
a locker~
A locker labelled 'Orcan' is here.~
~
15 0 0 0 0 0 0 0 0
20 21 -1 0
0 0 20
B
0 0 0 0
#41205
locker l41205 lRashiel Rashiel~
a locker~
A locker labelled 'Rashiel' is here.~
~
15 0 0 0 0 0 0 0 0
10 21 -1 0
0 0 10
B
0 0 0 0
#41206
locker l41206 lSliver Sliver~
a locker~
A locker labelled 'Sliver' is here.~
~
15 0 0 0 0 0 0 0 0
123 21 -1 0
0 0 123
B
0 0 0 0
#41207
locker l41207 lyomar yomar~
a locker~
A locker labelled 'Yomar' is here.~
~
15 0 0 0 0 0 0 0 0
150 21 -1 0
0 0 150
B
0 0 0 0
#41208
locker l41208 lSratk Sratk~
a locker~
A locker labelled 'Sratk' is here.~
~
15 0 0 0 0 0 0 0 0
20 21 -1 0
0 0 20
B
0 0 0 0
#41209
locker 141209 lAdrenaline Adrenaline~
a locker~
A locker labelled 'Adrenaline' is here.~
~
15 0 0 0 0 0 0 0 0
20 21 -1 0
0 0 20
B
0 0 0 0
#41210
unused locker~
an unused locker~
An unused locker is here.~
~
15 0 0 0 0 0 0 0 0
10 21 -1 0
0 0 10
B
0 0 0 0
#41211
unused locker~
an unused locker~
An unused locker is here.~
~
15 0 0 0 0 0 0 0 0
10 21 -1 0
0 0 10
B
0 0 0 0
#41212
locker l41212 lSmirnoff Smirnoff~
a locker~
A locker labelled 'Smirnoff' is here.~
~
15 0 0 0 0 0 0 0 0
20 21 -1 0
0 0 20
B
0 0 0 0
#41213
locker 141312 quinn statue~
a large statue of &11Quinn&00~
&00The statue of &11Quinn&00 stands here, humming with power~
~
15 0 0 0 0 0 0 0 0
10000 21 -1 0
0 0 10000
B
0 0 0 0
#41214
locker 141214 1jako 1tear 1reality Jako~
locker tear~
&07A small tear in reality floats here.&00~
~
15 0 0 0 0 0 0 0 0
339 21 -1 0
0 0 338
B
0 0 0 0
#41215
locker l41215 lNebuchadnezzar Nebuchadnezzar~
a locker~
A locker labelled 'Nebuchadnezzar' is here.~
~
15 0 0 0 0 0 0 0 0
20 21 -1 0
0 0 20
B
0 0 0 0
#41216
locker infernal portal shimmer airen~
a locker~
&00&02An &00&08Infernal &00&02Portal into the &00&07Unknown&00&02 shimmers here.&00~
~
15 0 0 0 0 0 0 0 0
40 21 -1 0
0 0 40
E
locker portal infernal unknown drak~
   Within is only darkness...  Sticking one's hand through the portal proves
the darkness to be viscous and exceedingly cold.  Any disturbance in the portal
summons forth pairs of glowing, white orbs that can only be speculated on
belonging to some hellish entities that reside within.  Further investigation
shows an ornately carved cairn within grasping distance of the portal.  Its
craftsmanship belies the skill for which only the dwarves are known and it is
decorated with infernal symbols that seem to be a testament to brief past life.
~
B
0 0 0 0
#41217
locker l41217 lKellik Kellik~
a locker~
A locker labelled 'Kellik' is here.~
~
15 0 0 0 0 0 0 0 0
20 21 -1 0
0 0 20
B
0 0 0 0
#41218
locker l41218 lEff Eff~
a locker~
A locker labelled 'Eff' is here.~
~
15 0 0 0 0 0 0 0 0
10 21 -1 0
0 0 10
B
0 0 0 0
#41219
locker spoils war~
a locker~
&15The spoils of &22War.&00~
~
15 0 0 0 0 0 0 0 0
111 21 -1 0
0 0 111
B
0 0 0 0
#41220
locker goliath cavern huge~
a huge cavern~
&03A huge cavern in which &05Goliath&00 &03resides is here.&00~
~
15 0 0 0 0 0 0 0 0
40 21 -1 0
0 0 40
B
0 0 0 0
#41221
locker l41221 lNavros Navros~
a locker~
A locker labelled 'Navros' is here.~
~
15 0 0 0 0 0 0 0 0
20 21 -1 0
0 0 20
B
0 0 0 0
#41222
locker alandria tear reality small~
&07A small&00 &01t&08e&14a&00&01r&00&07 in reality.&00~
&07A small&00 &01t&08e&14a&00&01r&00&07 in reality.&00~
~
15 0 0 0 0 0 0 0 0
10 21 -1 0
0 0 10
E
reality locker tear~
   This rip in the reality looks more like a mirror image of what Trona would
like to see or be close to.  The rip goes from one side of the world to the
other.  Anubis can be seen on the other side smiling happily, holding a long
stemmed rose.    
~
B
0 0 0 0
#41223
locker l41223 lKryke Kryke~
a locker~
A locker labelled 'Kryke' is here.~
~
15 0 0 0 0 0 0 0 0
20 21 -1 0
0 0 20
B
0 0 0 0
#41224
locker 41224 xandor_aidyn~
the statue of &03Xandor&00~
&00The statue of &03Xandor&00 stands here, clad in black armor.~
~
15 0 0 0 0 0 0 0 0
163 21 -1 0
0 0 163
B
0 0 0 0
#41225
locker l41225 lmorlock morlock~
a locker~
The statue of &07Morlock&00 stands here with a hellish look in his eyes.~
~
15 0 0 0 0 0 0 0 0
20 21 -1 0
0 0 20
E
statue morlock hellish locker eye~
From head to toe this being is swathed in &07pitch black clothing.&00
His &07black&00 hair shaved into a closely cropped mohawk stands in a
sharp contrast to his pale white flesh. He is poised in a crouching 
position as if preparing to leap out and sink is abnormaly long canine
teeth into your soft skin. On the bottom of the statue written in blood
is the phrase, "Incarta Denium Elastia Fin"
~
B
0 0 0 0
#41226
locker thog~
a locker~
A locker labelled 'Thog' is here.~
~
15 0 0 0 0 0 0 0 0
1001 21 -1 0
0 0 1001
B
0 0 0 0
#41227
locker l41227 lVictoria Victoria~
a locker~
A locker labelled 'Victoria' is here.~
~
15 0 0 0 0 0 0 0 0
20 21 -1 0
0 0 20
B
0 0 0 0
#41228
locker l41228 lKitiara Kitiara~
a locker~
A locker labelled 'Kitiara' is here.~
~
15 0 0 0 0 0 0 0 0
20 21 -1 0
0 0 20
B
0 0 0 0
#41229
locker l41229 lSparticus Sparticus~
a locker~
A locker labelled 'Sparticus' is here.~
~
15 0 0 0 0 0 0 0 0
20 21 -1 0
0 0 20
B
0 0 0 0
#41230
elderly womans bad tricks gutter locker~
a locker~
An &07Elderly&00 &12womans&00 bag of &10tricks&00 rests on a table.~
~
15 0 0 0 0 0 0 0 0
20 21 -1 0
0 0 20
B
0 0 0 0
#41231
darkness locker mayhem chaos disorder globe room~
&07the darkness&00~
&07A sphere of Chaos and Disorder fills the room.&00~
~
15 0 0 0 0 0 0 0 0
40 21 -1 0
0 0 40
B
0 0 0 0
#41232
locker l41232 lPyrokar Pyrokar~
a locker~
A locker labelled 'Pyrokar' is here.~
~
15 0 0 0 0 0 0 0 0
10 21 -1 0
0 0 10
B
0 0 0 0
#41233
locker l41233 lToi Toi~
a locker~
A locker labelled 'Toi' is here.~
~
15 0 0 0 0 0 0 0 0
10 21 -1 0
0 0 10
B
0 0 0 0
#41234
locker l41234 lOctavius Octavius~
a locker~
A locker labelled 'Octavius' is here.~
~
15 0 0 0 0 0 0 0 0
20 21 -1 0
0 0 20
B
0 0 0 0
#41235
locker l41235 lDione Dione~
a locker~
A locker labelled 'Dione' is here.~
~
15 0 0 0 0 0 0 0 0
20 21 -1 0
0 0 20
B
0 0 0 0
#41236
locker l41236 lIronfist Ironfist~
a locker~
A locker labelled 'Ironfist' is here.~
~
15 0 0 0 0 0 0 0 0
20 21 -1 0
0 0 20
B
0 0 0 0
#41237
locker 141237 lRon Ron tombstone~
a large tombstone~
A large tombstone rests here, protecting its grave.~
~
15 0 0 0 0 0 0 0 0
20 21 -1 0
0 0 20
E
large tombstone grave~
   You notice this grave is not used for corpses, but instead, for valuables
left behind.  Engraved in the center, are the names of the two creatures:
&00   Naosis/Blizzard - Brothers of Justice.
~
B
0 0 0 0
#41238
locker l41238 lAraqathus Araqathus~
a locker~
A locker labelled 'Araqathus' is here.~
~
15 0 0 0 0 0 0 0 0
20 21 -1 0
0 0 20
B
0 0 0 0
#41239
locker l41239 lRulakir Rulakir~
a locker~
A locker labelled 'Rulakir' is here.~
~
15 0 0 0 0 0 0 0 0
20 21 -1 0
0 0 20
B
0 0 0 0
#41240
locker~
locker~
A locker is here.~
~
15 0 0 0 0 0 0 0 0
0 0 -1 0
0 0 0
B
0 0 0 0
#41241
locker l41241 lKrudge Krudge~
a locker~
A locker labelled 'Krudge' is here.~
~
15 0 0 0 0 0 0 0 0
20 21 -1 0
0 0 20
B
0 0 0 0
#41242
sandtiger litter box litterbox locker~
a locker~
&09S&00&06andtiger's &00&09L&00&06itterbox&00~
~
15 0 0 0 0 0 0 0 0
20 21 -1 0
0 0 20
B
0 0 0 0
#41243
schisms fish bowl fishbowl~
a locker~
Schism's &11Fish &13Bowl&00~
~
15 0 0 0 0 0 0 0 0
20 21 -1 0
0 0 20
B
0 0 0 0
#41244
locker l41244 lgreygem greygem~
a locker~
&07An &00&01Unmarked &00&07Grave&00~
~
15 0 0 0 0 0 0 0 0
20 21 -1 0
0 0 20
B
0 0 0 0
#41245
locker l41245 lGeronimo Geronimo totem pole~
&14A&00 &06Totem&00 &07Pole&00~
&14A&00 &06Totem&00 &07Pole&00 lumbers here.~
~
15 0 0 0 0 0 0 0 0
60 21 -1 0
0 0 60
B
0 0 0 0
#41246
locker l41246 lNaosis Naosis~
a locker~
A locker labelled 'Naosis' is here.~
~
15 0 0 0 0 0 0 0 0
20 21 -1 0
0 0 20
B
0 0 0 0
#41247
locker 41247 karias~
a locker named Karias.~
&07The stomach of the &10Wolf &08Knight&00.~
~
15 0 0 0 0 0 0 0 0
70 21 -1 0
0 0 70
B
0 0 0 0
#41248
locker l41248 lAmethyst Amethyst~
a locker~
A locker labelled 'Amethyst' is here.~
~
15 0 0 0 0 0 0 0 0
20 21 -1 0
0 0 20
B
0 0 0 0
#41249
locker l41249 lIkarus Ikarus~
a locker~
A locker labelled 'Ikarus' is here.~
~
15 0 0 0 0 0 0 0 0
309 21 -1 0
0 0 309
B
0 0 0 0
#41250
locker l41250 lGarth Garth~
a locker~
A locker labelled 'Garth' is here.~
~
15 0 0 0 0 0 0 0 0
20 21 -1 0
0 0 20
B
0 0 0 0
#41251
locker l41251~
a locker~
An unowned locker is here.~
~
15 0 0 0 0 0 0 0 0
0 21 -1 0
0 0 0
B
0 0 0 0
#41252
locker l41252~
a locker~
An unowned locker is here.~
~
15 0 0 0 0 0 0 0 0
0 21 -1 0
0 0 0
B
0 0 0 0
#41253
locker l41253~
a locker~
An unowned locker is here.~
~
15 0 0 0 0 0 0 0 0
0 21 -1 0
0 0 0
B
0 0 0 0
#41254
locker l41254~
a locker~
An unowned locker is here.~
~
15 0 0 0 0 0 0 0 0
0 21 -1 0
0 0 0
B
0 0 0 0
#41255
locker l41255~
a locker~
An unowned locker is here.~
~
15 0 0 0 0 0 0 0 0
0 21 -1 0
0 0 0
B
0 0 0 0
#41256
locker l41256~
a locker~
An unowned locker is here.~
~
15 0 0 0 0 0 0 0 0
0 21 -1 0
0 0 0
B
0 0 0 0
#41257
locker l41257~
a locker~
An unowned locker is here.~
~
15 0 0 0 0 0 0 0 0
0 21 -1 0
0 0 0
B
0 0 0 0
#41258
locker l41258~
a locker~
An unowned locker is here.~
~
15 0 0 0 0 0 0 0 0
0 21 -1 0
0 0 0
B
0 0 0 0
#41259
locker l41259~
a locker~
An unowned locker is here.~
~
15 0 0 0 0 0 0 0 0
0 21 -1 0
0 0 0
B
0 0 0 0
#41260
locker l41260~
a locker~
An unowned locker is here.~
~
15 0 0 0 0 0 0 0 0
0 21 -1 0
0 0 0
B
0 0 0 0
#41261
locker l41261~
a locker~
An unowned locker is here.~
~
15 0 0 0 0 0 0 0 0
0 21 -1 0
0 0 0
B
0 0 0 0
#41262
locker l41262~
a locker~
An unowned locker is here.~
~
15 0 0 0 0 0 0 0 0
0 21 -1 0
0 0 0
B
0 0 0 0
#41263
locker l41263~
a locker~
An unowned locker is here.~
~
15 0 0 0 0 0 0 0 0
0 21 -1 0
0 0 0
B
0 0 0 0
#41264
locker l41264~
a locker~
An unowned locker is here.~
~
15 0 0 0 0 0 0 0 0
0 21 -1 0
0 0 0
B
0 0 0 0
#41265
locker l41265~
a locker~
An unowned locker is here.~
~
15 0 0 0 0 0 0 0 0
0 21 -1 0
0 0 0
B
0 0 0 0
#41266
locker l41266~
a locker~
An unowned locker is here.~
~
15 0 0 0 0 0 0 0 0
0 21 -1 0
0 0 0
B
0 0 0 0
#41267
locker l41267~
a locker~
An unowned locker is here.~
~
15 0 0 0 0 0 0 0 0
0 21 -1 0
0 0 0
B
0 0 0 0
#41268
locker l41268~
a locker~
An unowned locker is here.~
~
15 0 0 0 0 0 0 0 0
0 21 -1 0
0 0 0
B
0 0 0 0
#41269
locker l41269~
a locker~
An unowned locker is here.~
~
15 0 0 0 0 0 0 0 0
0 21 -1 0
0 0 0
B
0 0 0 0
#41270
locker l41270~
a locker~
An unowned locker is here.~
~
15 0 0 0 0 0 0 0 0
0 21 -1 0
0 0 0
B
0 0 0 0
#41271
locker l41271~
a locker~
An unowned locker is here.~
~
15 0 0 0 0 0 0 0 0
0 21 -1 0
0 0 0
B
0 0 0 0
#41272
locker l41272~
a locker~
An unowned locker is here.~
~
15 0 0 0 0 0 0 0 0
0 21 -1 0
0 0 0
B
0 0 0 0
#41273
locker l41273~
a locker~
An unowned locker is here.~
~
15 0 0 0 0 0 0 0 0
0 21 -1 0
0 0 0
B
0 0 0 0
#41274
locker l41274~
a locker~
An unowned locker is here.~
~
15 0 0 0 0 0 0 0 0
0 21 -1 0
0 0 0
B
0 0 0 0
#41275
locker l41275~
a locker~
An unowned locker is here.~
~
15 0 0 0 0 0 0 0 0
0 21 -1 0
0 0 0
B
0 0 0 0
#41276
locker l41276~
a locker~
An unowned locker is here.~
~
15 0 0 0 0 0 0 0 0
0 21 -1 0
0 0 0
B
0 0 0 0
#41277
locker l41277~
a locker~
An unowned locker is here.~
~
15 0 0 0 0 0 0 0 0
0 21 -1 0
0 0 0
B
0 0 0 0
#41278
locker l41278~
a locker~
An unowned locker is here.~
~
15 0 0 0 0 0 0 0 0
0 21 -1 0
0 0 0
B
0 0 0 0
#41279
locker l41279~
a locker~
An unowned locker is here.~
~
15 0 0 0 0 0 0 0 0
0 21 -1 0
0 0 0
B
0 0 0 0
#41280
locker l41280~
a locker~
An unowned locker is here.~
~
15 0 0 0 0 0 0 0 0
0 21 -1 0
0 0 0
B
0 0 0 0
#41281
locker l41281~
a locker~
An unowned locker is here.~
~
15 0 0 0 0 0 0 0 0
0 21 -1 0
0 0 0
B
0 0 0 0
#41282
locker l41282~
a locker~
An unowned locker is here.~
~
15 0 0 0 0 0 0 0 0
0 21 -1 0
0 0 0
B
0 0 0 0
#41283
locker l41283~
a locker~
An unowned locker is here.~
~
15 0 0 0 0 0 0 0 0
0 21 -1 0
0 0 0
B
0 0 0 0
#41284
locker l41284~
a locker~
An unowned locker is here.~
~
15 0 0 0 0 0 0 0 0
0 21 -1 0
0 0 0
B
0 0 0 0
#41285
locker l41285~
a locker~
An unowned locker is here.~
~
15 0 0 0 0 0 0 0 0
0 21 -1 0
0 0 0
B
0 0 0 0
#41286
locker l41286~
a locker~
An unowned locker is here.~
~
15 0 0 0 0 0 0 0 0
0 21 -1 0
0 0 0
B
0 0 0 0
#41287
locker l41287~
a locker~
An unowned locker is here.~
~
15 0 0 0 0 0 0 0 0
0 21 -1 0
0 0 0
B
0 0 0 0
#41288
locker l41288~
a locker~
An unowned locker is here.~
~
15 0 0 0 0 0 0 0 0
0 21 -1 0
0 0 0
B
0 0 0 0
#41289
locker l41289~
a locker~
An unowned locker is here.~
~
15 0 0 0 0 0 0 0 0
0 21 -1 0
0 0 0
B
0 0 0 0
#41290
locker l41290~
a locker~
An unowned locker is here.~
~
15 0 0 0 0 0 0 0 0
0 21 -1 0
0 0 0
B
0 0 0 0
#41291
locker l41291~
a locker~
An unowned locker is here.~
~
15 0 0 0 0 0 0 0 0
0 21 -1 0
0 0 0
B
0 0 0 0
#41292
locker l41292~
a locker~
An unowned locker is here.~
~
15 0 0 0 0 0 0 0 0
0 21 -1 0
0 0 0
B
0 0 0 0
#41293
locker l41293~
a locker~
An unowned locker is here.~
~
15 0 0 0 0 0 0 0 0
0 21 -1 0
0 0 0
B
0 0 0 0
#41294
locker l41294~
a locker~
An unowned locker is here.~
~
15 0 0 0 0 0 0 0 0
0 21 -1 0
0 0 0
B
0 0 0 0
#41295
locker l41295~
a locker~
An unowned locker is here.~
~
15 0 0 0 0 0 0 0 0
0 21 -1 0
0 0 0
B
0 0 0 0
#41296
locker psy~
a locker~
A locker labelled 'Psy' is here.~
~
15 0 0 0 0 0 0 0 0
70 21 -1 0
0 0 70
B
0 0 0 0
#41297
locker l41297~
a locker~
An unowned locker is here.~
~
15 0 0 0 0 0 0 0 0
0 21 -1 0
0 0 0
B
0 0 0 0
#41298
locker Hunters Cache~
a Beetle Ring~
The Hunters Cache is here.~
~
15 0 0 0 0 0 0 0 0
8001 16 -1 0
0 0 8001
E
locker hunter cache~
   Looted stuff we decided not to junk; potions, wands, staves, scrolls.  
Anything else that'd be useful to have access to.    
~
B
0 0 0 0
#41299
Necromancers board~
the Necromancers board~
A board for Necromancers is here~
~
13 67108864 0 0 0 0 0 0 0
0 0 0 0
1000 0 0
B
0 0 0 0
$~
