#41300
Delac ldelac locker l41300~
&00the likeness of &07Delac&00~
&00The likeness of &07Delac&00 stands here, glaring at you.~
~
15 0 0 0 0 0 0 0 0
420 21 -1 0
0 0 420
B
0 0 0 0
#41301
locker l41301 lKargoth Kargoth~
a locker~
A locker labelled 'Kargoth' is here.~
~
15 0 0 0 0 0 0 0 0
10 21 -1 0
0 0 10
B
0 0 0 0
#41302
locker l41302 lmasoku masoku~
the statue of Masoku~
&00The statue of &07Masoku&00 stands here, hidden by the darkness.~
~
15 0 0 0 0 0 0 0 0
407 21 -1 0
0 0 390
E
masoku~
   As you look upon this statue the lights suddenly dim and the shadows around
you begin to dance.  Something tells you that there is more to this Statue than
meets the eye.    
~
B
0 0 0 0
#41303
locker l41303 lLeonidas Leonidas~
a locker~
A locker labelled 'Leonidas' is here.~
~
15 0 0 0 0 0 0 0 0
20 21 -1 0
0 0 20
B
0 0 0 0
#41304
tainu ltainu l41304~
the statue of Tainu~
The statue of &13Tainu&00 is here deep in meditation.~
~
15 0 0 0 0 0 0 0 0
420 21 -1 0
0 0 420
B
0 0 0 0
#41305
locker yashiro statue l41305~
the statue of Yashiro~
The statue of &14Yashiro&00 levitates above the floor, deep in mediation.~
~
15 0 0 0 0 0 0 0 0
10 21 -1 0
0 0 10
B
0 0 0 0
#41306
locker l41306 lsham sham~
the statue of &08Sham&00~
&00The statue of &08Sham&00 stands here, waiting to be called upon.~
~
15 0 0 0 0 0 0 0 0
76 21 -1 0
0 0 76
E
locker sham statue~
   Before you stands a &03gold&00 statue of an &10Izarti&00.  The statue holds
a staff in one hand, and a spellbook in the other.  The statue seems to glow
with a &14Holy&00 aura.    
~
B
0 0 0 0
#41307
locker demascus arson bogan~
a locker~
Arson/Bogan's Treasure Chest~
~
15 0 0 0 0 0 0 0 0
142 21 -1 0
0 0 142
B
0 0 0 0
#41308
locker Aletto pool~
&07The Translucent Pool&00~
&07The Translucent Pool&00.~
~
15 0 0 0 0 0 0 0 0
60 21 -1 0
0 0 60
B
0 0 0 0
#41309
locker l41309 lSomeguy Someguy shrine sphinx~
&14A&00 &10Shrine&00 &14of the&00 &09Sphinx&00~
&14A&00 &10Shrine&00 &14of the&00 &09Sphinx&00 &11rests on the lakes edge&00~
~
15 0 0 0 0 0 0 0 0
20 21 -1 0
0 0 20
B
0 0 0 0
#41310
locker l41310 lMishaelon Mishaelon~
a locker~
A locker labelled 'Mishaelon' is here.~
~
15 0 0 0 0 0 0 0 0
20 21 -1 0
0 0 20
B
0 0 0 0
#41311
locker l41311 lXanthiana Xanthiana~
a locker~
&04N&00&03O&00&04T&00&03R&00&04E&00&03 &00&04D&00&03A&00&04M&00&03E&00&04 &00&03F&00&04I&00&03G&00&04H&00&03T&00&04I&00&03N&00&04G&00&03 &00&04I&00&03R&00&04I&00&03S&00&04H&00&03 &00&04R&00&03U&00&04L&00&03E&00&04S&00~
~
15 0 0 0 0 0 0 0 0
60 21 -1 0
0 0 60
E
xanthiana~
   The statue is made of marble with a hint of aqua gleaming from the wings of
the small faerie.  She is small in stature but appears to carry herself with
much pride.  Upon her head there is a crown donned, marking her as the Queen of
the Faeries.  Despite her size, an aura of calmness and restoration radiates
from even the statue she has left behind.    
~
B
0 0 0 0
#41312
locker l41312 lAltair Altair~
a locker~
A locker labelled 'Altair' is here.~
~
15 0 0 0 0 0 0 0 0
20 21 -1 0
0 0 20
B
0 0 0 0
#41313
locker l41313 lSudako Sudako~
a locker~
A locker labelled 'Sudako' is here.~
~
15 0 0 0 0 0 0 0 0
10 21 -1 0
0 0 10
B
0 0 0 0
#41314
locker l41314 llokki lokki~
a locker named Lokki.~
&07The pit of the &08Beast&00.~
~
15 0 0 0 0 0 0 0 0
185 21 -1 0
0 0 185
B
0 0 0 0
#41315
locker l41315 lshadowmax shadowmax~
a locker~
A locker labelled 'Shadowmax' is here.~
~
15 0 0 0 0 0 0 0 0
10 21 -1 0
0 0 10
B
0 0 0 0
#41316
locker l41316 lAkari Akari~
a locker~
&08Cave &00&07of the &00&03Lycanthrope&00~
~
15 0 0 0 0 0 0 0 0
84 21 -1 0
0 0 84
E
cave Lycanthrope~
It's a locker - not a whole cave you yutz!
~
B
0 0 0 0
#41317
locker lbenedict benedict l4317~
the statue of &05Benedict&00~
&00The statue of&00 &05Benedict&00 stands here, sharpening his sword.~
~
15 0 0 0 0 0 0 0 0
30 21 -1 0
0 0 30
E
benedict~
&07This is &00&06Benedict&00'&06s &05storage &07locker&00.  &01STAY OUT&00!
~
B
0 0 0 0
#41318
sirius lsirius l41318 locker statue~
the statue of Sirius~
The statue of &08Sirius&00 stands here surrounded by a demon aura.~
~
15 0 0 0 0 0 0 0 0
40 21 -1 0
0 0 40
E
sirius lsirius l41318~
   A Statue of Sirius is poised here, after his long journey from hell, to
fight for his friends and to be known as the &08Forsaken&00 One.    
~
B
0 0 0 0
#41319
locker l41319 lKalessin Kalessin~
a locker~
A locker labelled 'Kalessin' is here.~
~
15 0 0 0 0 0 0 0 0
10 21 -1 0
0 0 10
B
0 0 0 0
#41320
locker l41320 lArmus Armus~
a locker~
A locker labelled 'Armus' is here.~
~
15 0 0 0 0 0 0 0 0
40 21 -1 0
0 0 40
B
0 0 0 0
#41321
locker l41321 Boo Lion Corpse~
a locker~
A locker labelled 'Boo' is here.~
~
15 0 0 0 0 0 0 0 0
20 21 -1 0
0 0 20
B
0 0 0 0
#41322
an unused locker~
a locker~
An unused locker is here~
~
15 0 0 0 0 0 0 0 0
20 21 -1 0
0 0 20
B
0 0 0 0
#41323
locker Rocco magic bowl~
a locker~
&11Rocco's&00 &10Magic &11Bowl&00.~
~
15 0 0 0 0 0 0 0 0
173 21 -1 0
0 0 173
B
0 0 0 0
#41324
Zalara locker cauldron~
Zalara's locker~
&05Z&07alara&00&05s &08C&00&01auldro&08n&00~
~
15 0 0 0 0 0 0 0 0
20 21 -1 0
0 0 20
B
0 0 0 0
#41325
locker lanfear 41325~
a statue of Lanfear~
The statue of &08Lanfear&00 stands here made of white &14cuendillar&00 ready to serve her fellow &08Forsaken&00.~
~
15 0 0 0 0 0 0 0 0
31 21 -1 0
0 0 31
B
0 0 0 0
#41326
locker vash~
a used locker~
A locker belonging to the annoying creature otherwise known as Vash stands here~
~
15 0 0 0 0 0 0 0 0
17 21 -1 0
0 0 17
B
0 0 0 0
#41327
locker l41327~
a locker~
An unowned locker is here.~
~
15 0 0 0 0 0 0 0 0
0 21 -1 0
0 0 0
B
0 0 0 0
#41328
locker l41328~
a locker~
An unowned locker is here.~
~
15 0 0 0 0 0 0 0 0
0 21 -1 0
0 0 0
B
0 0 0 0
#41329
locker l41329~
a locker~
An unowned locker is here.~
~
15 0 0 0 0 0 0 0 0
0 21 -1 0
0 0 0
B
0 0 0 0
#41330
locker l41330~
a locker~
An unowned locker is here.~
~
15 0 0 0 0 0 0 0 0
0 21 -1 0
0 0 0
B
0 0 0 0
#41331
locker l41331 lArbaces Arbaces~
a locker~
A locker labelled 'Arbaces' is here.~
~
15 0 0 0 0 0 0 0 0
16 21 -1 0
0 0 16
B
0 0 0 0
#41332
locker l41332 lazoena azoena~
a locker~
A locker labelled 'Gama' is here.~
~
15 0 0 0 0 0 0 0 0
838 21 -1 0
0 0 838
B
0 0 0 0
#41333
locker l41333 lratza ratza~
a locker~
A locker labelled 'Ratza' is here.~
~
15 0 0 0 0 0 0 0 0
98 21 -1 0
0 0 98
B
0 0 0 0
#41334
locker l41334 lFain Fain~
a locker~
A locker labelled 'Fain' is here.~
~
15 0 0 0 0 0 0 0 0
58 21 -1 0
0 0 58
B
0 0 0 0
#41335
locker l41335~
a locker~
An unowned locker is here.~
~
15 0 0 0 0 0 0 0 0
0 21 -1 0
0 0 0
B
0 0 0 0
#41336
locker l41336~
a locker~
An unowned locker is here.~
~
15 0 0 0 0 0 0 0 0
0 21 -1 0
0 0 0
B
0 0 0 0
#41337
locker l41337 lEas Eas~
a locker~
A locker labelled 'Eas' is here.~
~
15 0 0 0 0 0 0 0 0
10 21 -1 0
0 0 10
B
0 0 0 0
#41338
locker l41338~
a locker~
An unowned locker is here.~
~
15 0 0 0 0 0 0 0 0
0 21 -1 0
0 0 0
B
0 0 0 0
#41339
locker l41339 lShadowskill Shadowskill~
a locker~
A locker labelled 'Shadowskill' is here.~
~
15 0 0 0 0 0 0 0 0
112 21 -1 0
0 0 112
B
0 0 0 0
#41340
locker l41340 lDragneel Dragneel~
a locker~
A locker labelled 'Dragneel' is here.~
~
15 0 0 0 0 0 0 0 0
93 21 -1 0
0 0 93
B
0 0 0 0
#41341
locker l41341 lGeronimo Geronimo~
a locker~
A locker labelled 'Geronimo' is here.~
~
15 0 0 0 0 0 0 0 0
26 21 -1 0
0 0 26
B
0 0 0 0
#41342
locker l41342~
a locker~
An unowned locker is here.~
~
15 0 0 0 0 0 0 0 0
0 21 -1 0
0 0 0
B
0 0 0 0
#41343
locker l41343~
a locker~
An unowned locker is here.~
~
15 0 0 0 0 0 0 0 0
0 21 -1 0
0 0 0
B
0 0 0 0
#41344
locker l41344 lWes Wes~
a locker~
A locker labelled 'Wes' is here.~
~
15 0 0 0 0 0 0 0 0
20 21 -1 0
0 0 20
B
0 0 0 0
#41345
locker l41345 lBalagtas Balagtas~
a locker~
A locker labelled 'Balagtas' is here.~
~
15 0 0 0 0 0 0 0 0
251 21 -1 0
0 0 251
B
0 0 0 0
#41346
locker l41346 lBelamros Belamros~
a locker~
A locker labelled 'Belamros' is here.~
~
15 0 0 0 0 0 0 0 0
40 21 -1 0
0 0 40
B
0 0 0 0
#41347
locker l41347~
a locker~
An unowned locker is here.~
~
15 0 0 0 0 0 0 0 0
0 21 -1 0
0 0 0
B
0 0 0 0
#41348
locker l41348~
a locker~
An unowned locker is here.~
~
15 0 0 0 0 0 0 0 0
0 21 -1 0
0 0 0
B
0 0 0 0
#41349
locker l41349 lZinc Zinc~
a locker~
A locker labelled 'Zinc' is here.~
~
15 0 0 0 0 0 0 0 0
30 21 -1 0
0 0 30
B
0 0 0 0
#41350
locker l41350 lfrith frith~
a locker~
A locker labelled 'Frith' is here.~
~
15 0 0 0 0 0 0 0 0
35 21 -1 0
0 0 35
B
0 0 0 0
#41351
locker l41351~
a locker~
An unowned locker is here.~
~
15 0 0 0 0 0 0 0 0
0 21 -1 0
0 0 0
B
0 0 0 0
#41352
locker l41352 lAcolyte Acolyte~
a locker~
A locker labelled 'Acolyte' is here.~
~
15 0 0 0 0 0 0 0 0
30 21 -1 0
0 0 30
B
0 0 0 0
#41353
locker l41353~
a locker~
An unowned locker is here.~
~
15 0 0 0 0 0 0 0 0
0 21 -1 0
0 0 0
B
0 0 0 0
#41354
locker l41354 lGollum Gollum~
a locker~
A locker labelled 'Gollum' is here.~
~
15 0 0 0 0 0 0 0 0
265 21 -1 0
0 0 265
B
0 0 0 0
#41355
locker l41355 lSurtur Surtur~
a locker~
A locker labelled 'Surtur' is here.~
~
15 0 0 0 0 0 0 0 0
20 21 -1 0
0 0 20
B
0 0 0 0
#41356
locker l41356~
a locker~
An unowned locker is here.~
~
15 0 0 0 0 0 0 0 0
0 21 -1 0
0 0 0
B
0 0 0 0
#41357
locker l41357~
a locker~
An unowned locker is here.~
~
15 0 0 0 0 0 0 0 0
0 21 -1 0
0 0 0
B
0 0 0 0
#41358
locker l41358 lIsh Ish~
a locker~
A locker labelled 'Ish' is here.~
~
15 0 0 0 0 0 0 0 0
513 21 -1 0
0 0 513
B
0 0 0 0
#41359
locker l41359 lAubec Aubec~
a locker~
A locker labelled 'Aubec' is here.~
~
15 0 0 0 0 0 0 0 0
20 21 -1 0
0 0 20
B
0 0 0 0
#41360
locker l41360~
a locker~
An unowned locker is here.~
~
15 0 0 0 0 0 0 0 0
0 21 -1 0
0 0 0
B
0 0 0 0
#41361
locker l41361~
a locker~
An unowned locker is here.~
~
15 0 0 0 0 0 0 0 0
0 21 -1 0
0 0 0
B
0 0 0 0
#41362
locker l41362~
a locker~
An unowned locker is here.~
~
15 0 0 0 0 0 0 0 0
0 21 -1 0
0 0 0
B
0 0 0 0
#41363
locker l41363 lLustitia Lustitia~
a locker~
A locker labelled 'Lustitia' is here.~
~
15 0 0 0 0 0 0 0 0
41 21 -1 0
0 0 41
B
0 0 0 0
#41364
locker l41364 lMaleficent Maleficent~
a locker~
A locker labelled 'Maleficent' is here.~
~
15 0 0 0 0 0 0 0 0
20 21 -1 0
0 0 20
B
0 0 0 0
#41365
locker l41365 lCrysto Crysto~
a locker~
&13Crysto's Liquor Cabinet&00 is here, collecting dust.~
~
15 0 0 0 0 0 0 0 0
12 21 -1 0
0 0 12
B
0 0 0 0
#41366
locker l41366 ltydeus tydeus~
a locker~
A locker labelled 'Tydeus' is here.~
~
15 0 0 0 0 0 0 0 0
176 21 -1 0
0 0 176
B
0 0 0 0
#41367
locker l41367~
a locker~
An unowned locker is here.~
~
15 0 0 0 0 0 0 0 0
0 21 -1 0
0 0 0
B
0 0 0 0
#41368
achios locker fez~
the fez of ogachiosden~
The &08fez&00 &00&02of Ogachiosden is laying here.&00~
~
15 0 0 0 0 0 0 0 0
111 21 -1 0
0 0 111
E
fez ogachiosden~
A tag in the tassel reads, 'Specially fit for the head of Ogden'. Everything
else you can see from looks of this fez is that it resembles the bright red fez
in the lounge.
~
B
0 0 0 0
#41369
locker l41369~
a locker~
An unowned locker is here.~
~
15 0 0 0 0 0 0 0 0
0 21 -1 0
0 0 0
B
0 0 0 0
#41370
locker l41370~
a locker~
An unowned locker is here.~
~
15 0 0 0 0 0 0 0 0
0 21 -1 0
0 0 0
B
0 0 0 0
#41371
locker l41371~
a locker~
An unowned locker is here.~
~
15 0 0 0 0 0 0 0 0
0 21 -1 0
0 0 0
B
0 0 0 0
#41372
locker l41372 lkenchiro kenchiro~
a locker~
The &08fez&00&02 of Kenchiro is laying here.~
~
15 0 0 0 0 0 0 0 0
208 21 -1 0
0 0 208
E
fez kenchiro~
The &08fez&00 has some unusual &00&03crusty&00 stains on it. There is a tag in the tassel
which reads 'Specially fit for the head of &09Kenchiro&00.' Everything else you can see from the looks
of this fez is that is resembles the bright &08red&00 fez in the lounge.
~
B
0 0 0 0
#41373
locker l41373~
a locker~
An unowned locker is here.~
~
15 0 0 0 0 0 0 0 0
0 21 -1 0
0 0 0
B
0 0 0 0
#41374
locker l41374~
a locker~
An unowned locker is here.~
~
15 0 0 0 0 0 0 0 0
0 21 -1 0
0 0 0
B
0 0 0 0
#41375
locker l41375~
a locker~
An unowned locker is here.~
~
15 0 0 0 0 0 0 0 0
0 21 -1 0
0 0 0
B
0 0 0 0
#41376
locker l41376~
a locker~
An unowned locker is here.~
~
15 0 0 0 0 0 0 0 0
0 21 -1 0
0 0 0
B
0 0 0 0
#41377
locker l41377 lchentu chentu trunk junk~
a locker~
&18The Trunk of Junk&00 is here.~
~
15 0 0 0 0 0 0 0 0
298 21 -1 0
0 0 298
E
trunk junk chentu~
A large trunk is here filled with various items that &10Chentu&00 has gathered in his travels.
Most of it looks like complete junk, but who doesn't like a little junk in the trunk?
~
B
0 0 0 0
#41378
locker l41378 lBoraj Boraj~
a locker~
A locker labelled 'Boraj' is here.~
~
15 0 0 0 0 0 0 0 0
20 21 -1 0
0 0 20
B
0 0 0 0
#41379
locker l41379 lFinneaus Finneaus~
a locker~
A locker labelled 'Finneaus' is here.~
~
15 0 0 0 0 0 0 0 0
52 21 -1 0
0 0 52
B
0 0 0 0
#41380
locker 41380 megnual eralos pink panda fuzzy~
a locker~
A fuzzy &12P&14i&12n&14k &12P&14a&12n&14d&12a&00 rests peacefully against the wall.~
~
15 0 0 0 0 0 0 0 0
251 21 -1 0
0 0 251
B
0 0 0 0
#41381
locker l41381~
a locker~
An unowned locker is here.~
~
15 0 0 0 0 0 0 0 0
0 21 -1 0
0 0 0
B
0 0 0 0
#41382
locker l41382~
a locker~
An unowned locker is here.~
~
15 0 0 0 0 0 0 0 0
0 21 -1 0
0 0 0
B
0 0 0 0
#41383
locker l41383~
a locker~
An unowned locker is here.~
~
15 0 0 0 0 0 0 0 0
0 21 -1 0
0 0 0
B
0 0 0 0
#41384
locker l41384~
a locker~
An unowned locker is here.~
~
15 0 0 0 0 0 0 0 0
0 21 -1 0
0 0 0
B
0 0 0 0
#41385
locker l41385 lKerwin Kerwin~
a locker~
&07Kerwin's Inner Soul &08pulsates &07with &08energy.&00~
~
15 0 0 0 0 0 0 0 0
20 21 -1 0
0 0 20
B
0 0 0 0
#41386
locker l41386 lHankey Hankey~
a locker~
A locker labelled 'Hankey' is here.~
~
15 0 0 0 0 0 0 0 0
112 21 -1 0
0 0 112
B
0 0 0 0
#41387
locker l41387~
a locker~
An unowned locker is here.~
~
15 0 0 0 0 0 0 0 0
0 21 -1 0
0 0 0
B
0 0 0 0
#41388
locker l41388 lCartman Cartman~
a locker~
&10A litter box belonging to C&00&14a&10r&14t&10m&14a&10n&00~
~
15 0 0 0 0 0 0 0 0
47 21 -1 0
0 0 47
B
0 0 0 0
#41389
locker l41389 lFenelyus Fenelyus~
a locker~
&02The statue of the First&00 &13Miralyith&00&02  proudly stands here.~
~
15 0 0 0 0 0 0 0 0
1000 21 -1 0
0 0 1000
B
0 0 0 0
#41390
locker l41390~
a locker~
An unowned locker is here.~
~
15 0 0 0 0 0 0 0 0
0 21 -1 0
0 0 0
B
0 0 0 0
#41391
locker l41391~
a locker~
An unowned locker is here.~
~
15 0 0 0 0 0 0 0 0
0 21 -1 0
0 0 0
B
0 0 0 0
#41392
locker l41392 lRisen Risen~
a locker~
A locker labelled 'Risen' is here.~
~
15 0 0 0 0 0 0 0 0
20 21 -1 0
0 0 20
B
0 0 0 0
#41393
locker l41393 lxanril xanril~
a locker~
A locker labelled 'Xanril' is here.~
~
15 0 0 0 0 0 0 0 0
75 21 -1 0
0 0 75
B
0 0 0 0
#41394
locker l41394~
a locker~
An unowned locker is here.~
~
15 0 0 0 0 0 0 0 0
0 21 -1 0
0 0 0
B
0 0 0 0
#41395
locker l41395~
a locker~
An unowned locker is here.~
~
15 0 0 0 0 0 0 0 0
0 21 -1 0
0 0 0
B
0 0 0 0
#41396
relentless locker statue~
a locker~
&07A large statue of Relentless rests here towering over you.&00~
~
15 0 0 0 0 0 0 0 0
22 21 -1 0
0 0 22
B
0 0 0 0
#41397
locker jet~
a locker~
A locker labelled 'Jet' is here.~
~
15 0 0 0 0 0 0 0 0
10 21 -1 0
100 0 10
B
0 0 0 0
#41398
locker lAggron Aggron~
a locker~
&02A &00&03wooden&00&02 chest sits here collecting dust and cobwebs.~
~
15 0 0 0 0 0 0 0 0
150 21 -1 0
0 0 150
B
0 0 0 0
#41399
locker daenin mirrored~
a locker~
&07Daenin's mirrored chamber is phasing in and out of existence.&00~
~
15 0 0 0 0 0 0 0 0
10 21 -1 0
100 1000000 10
B
0 0 0 0
$~
