#41400
loose brick lock l41400~
a loose brick~
A loose brick in the wall nearly evades your gaze.~
~
15 0 0 0 0 0 0 0 0
280 21 -1 0
0 0 277
E
loose brick~
This rectangular object appears to be both loose and brick-like in nature.
~
B
0 0 0 0
#41401
locker l41201~
a locker~
An unowned locker is here.~
~
15 0 0 0 0 0 0 0 0
20 21 -1 0
0 0 20
B
0 0 0 0
#41402
locker l41202~
a locker~
An unowned locker is here.~
~
15 0 0 0 0 0 0 0 0
20 21 -1 0
0 0 20
B
0 0 0 0
#41403
locker l41203~
a locker~
An unowned locker is here.~
~
15 0 0 0 0 0 0 0 0
20 21 -1 0
0 0 20
B
0 0 0 0
#41404
locker l41204~
a locker~
An unowned locker is here.~
~
15 0 0 0 0 0 0 0 0
20 21 -1 0
0 0 20
B
0 0 0 0
#41405
locker l41205~
a locker~
An unowned locker is here.~
~
15 0 0 0 0 0 0 0 0
20 21 -1 0
0 0 20
B
0 0 0 0
#41406
locker l41206~
a locker~
An unowned locker is here.~
~
15 0 0 0 0 0 0 0 0
20 21 -1 0
0 0 20
B
0 0 0 0
#41407
locker l41207~
a locker~
An unowned locker is here.~
~
15 0 0 0 0 0 0 0 0
20 21 -1 0
0 0 20
B
0 0 0 0
#41408
locker l41208~
a locker~
An unowned locker is here.~
~
15 0 0 0 0 0 0 0 0
20 21 -1 0
0 0 20
B
0 0 0 0
#41409
locker l41209~
a locker~
An unowned locker is here.~
~
15 0 0 0 0 0 0 0 0
20 21 -1 0
0 0 20
B
0 0 0 0
#41410
locker l41210~
a locker~
An unowned locker is here.~
~
15 0 0 0 0 0 0 0 0
20 21 -1 0
0 0 20
B
0 0 0 0
#41411
locker l41211~
a locker~
An unowned locker is here.~
~
15 0 0 0 0 0 0 0 0
20 21 -1 0
0 0 20
B
0 0 0 0
#41412
locker l41212~
a locker~
An unowned locker is here.~
~
15 0 0 0 0 0 0 0 0
20 21 -1 0
0 0 20
B
0 0 0 0
#41413
locker l41213~
a locker~
An unowned locker is here.~
~
15 0 0 0 0 0 0 0 0
20 21 -1 0
0 0 20
B
0 0 0 0
#41414
locker l41214~
a locker~
An unowned locker is here.~
~
15 0 0 0 0 0 0 0 0
20 21 -1 0
0 0 20
B
0 0 0 0
#41415
locker l41215~
a locker~
An unowned locker is here.~
~
15 0 0 0 0 0 0 0 0
20 21 -1 0
0 0 20
B
0 0 0 0
#41416
locker l41216~
a locker~
An unowned locker is here.~
~
15 0 0 0 0 0 0 0 0
20 21 -1 0
0 0 20
B
0 0 0 0
#41417
locker l41217~
a locker~
An unowned locker is here.~
~
15 0 0 0 0 0 0 0 0
20 21 -1 0
0 0 20
B
0 0 0 0
#41418
locker l41218~
a locker~
An unowned locker is here.~
~
15 0 0 0 0 0 0 0 0
20 21 -1 0
0 0 20
B
0 0 0 0
#41419
locker l41219~
a locker~
An unowned locker is here.~
~
15 0 0 0 0 0 0 0 0
20 21 -1 0
0 0 20
B
0 0 0 0
#41420
locker l41220~
a locker~
An unowned locker is here.~
~
15 0 0 0 0 0 0 0 0
20 21 -1 0
0 0 20
B
0 0 0 0
#41421
locker l41221~
a locker~
An unowned locker is here.~
~
15 0 0 0 0 0 0 0 0
20 21 -1 0
0 0 20
B
0 0 0 0
#41422
locker l41222~
a locker~
An unowned locker is here.~
~
15 0 0 0 0 0 0 0 0
20 21 -1 0
0 0 20
B
0 0 0 0
#41423
locker l41223~
a locker~
An unowned locker is here.~
~
15 0 0 0 0 0 0 0 0
20 21 -1 0
0 0 20
B
0 0 0 0
#41424
locker l41224~
a locker~
An unowned locker is here.~
~
15 0 0 0 0 0 0 0 0
20 21 -1 0
0 0 20
B
0 0 0 0
#41425
locker l41225~
a locker~
An unowned locker is here.~
~
15 0 0 0 0 0 0 0 0
20 21 -1 0
0 0 20
B
0 0 0 0
#41426
locker l41226~
a locker~
An unowned locker is here.~
~
15 0 0 0 0 0 0 0 0
20 21 -1 0
0 0 20
B
0 0 0 0
#41427
locker l41227~
a locker~
An unowned locker is here.~
~
15 0 0 0 0 0 0 0 0
20 21 -1 0
0 0 20
B
0 0 0 0
#41428
locker l41228~
a locker~
An unowned locker is here.~
~
15 0 0 0 0 0 0 0 0
20 21 -1 0
0 0 20
B
0 0 0 0
#41429
locker l41229~
a locker~
An unowned locker is here.~
~
15 0 0 0 0 0 0 0 0
20 21 -1 0
0 0 20
B
0 0 0 0
#41430
locker l41230~
a locker~
An unowned locker is here.~
~
15 0 0 0 0 0 0 0 0
20 21 -1 0
0 0 20
B
0 0 0 0
#41431
locker l41231~
a locker~
An unowned locker is here.~
~
15 0 0 0 0 0 0 0 0
20 21 -1 0
0 0 20
B
0 0 0 0
#41432
locker l41232~
a locker~
An unowned locker is here.~
~
15 0 0 0 0 0 0 0 0
20 21 -1 0
0 0 20
B
0 0 0 0
#41433
locker l41233~
a locker~
An unowned locker is here.~
~
15 0 0 0 0 0 0 0 0
20 21 -1 0
0 0 20
B
0 0 0 0
#41434
locker l41234~
a locker~
An unowned locker is here.~
~
15 0 0 0 0 0 0 0 0
20 21 -1 0
0 0 20
B
0 0 0 0
#41435
locker l41235~
a locker~
An unowned locker is here.~
~
15 0 0 0 0 0 0 0 0
20 21 -1 0
0 0 20
B
0 0 0 0
#41436
locker l41236~
a locker~
An unowned locker is here.~
~
15 0 0 0 0 0 0 0 0
20 21 -1 0
0 0 20
B
0 0 0 0
#41437
locker l41237~
a locker~
An unowned locker is here.~
~
15 0 0 0 0 0 0 0 0
20 21 -1 0
0 0 20
B
0 0 0 0
#41438
locker l41238~
a locker~
An unowned locker is here.~
~
15 0 0 0 0 0 0 0 0
20 21 -1 0
0 0 20
B
0 0 0 0
#41439
locker l41239~
a locker~
An unowned locker is here.~
~
15 0 0 0 0 0 0 0 0
20 21 -1 0
0 0 20
B
0 0 0 0
#41440
locker l41240~
a locker~
An unowned locker is here.~
~
15 0 0 0 0 0 0 0 0
20 21 -1 0
0 0 20
B
0 0 0 0
#41441
locker l41241~
a locker~
An unowned locker is here.~
~
15 0 0 0 0 0 0 0 0
20 21 -1 0
0 0 20
B
0 0 0 0
#41442
locker l41242~
a locker~
An unowned locker is here.~
~
15 0 0 0 0 0 0 0 0
20 21 -1 0
0 0 20
B
0 0 0 0
#41443
locker l41243~
a locker~
An unowned locker is here.~
~
15 0 0 0 0 0 0 0 0
20 21 -1 0
0 0 20
B
0 0 0 0
#41444
locker l41244~
a locker~
An unowned locker is here.~
~
15 0 0 0 0 0 0 0 0
20 21 -1 0
0 0 20
B
0 0 0 0
#41445
locker l41245~
a locker~
An unowned locker is here.~
~
15 0 0 0 0 0 0 0 0
20 21 -1 0
0 0 20
B
0 0 0 0
#41446
locker l41246~
a locker~
An unowned locker is here.~
~
15 0 0 0 0 0 0 0 0
20 21 -1 0
0 0 20
B
0 0 0 0
#41447
locker l41247~
a locker~
An unowned locker is here.~
~
15 0 0 0 0 0 0 0 0
20 21 -1 0
0 0 20
B
0 0 0 0
#41448
locker l41248~
a locker~
An unowned locker is here.~
~
15 0 0 0 0 0 0 0 0
20 21 -1 0
0 0 20
B
0 0 0 0
#41449
locker l41249~
a locker~
An unowned locker is here.~
~
15 0 0 0 0 0 0 0 0
20 21 -1 0
0 0 20
B
0 0 0 0
#41450
locker l41250~
a locker~
An unowned locker is here.~
~
15 0 0 0 0 0 0 0 0
20 21 -1 0
0 0 20
B
0 0 0 0
#41451
locker l41251~
a locker~
An unowned locker is here.~
~
15 0 0 0 0 0 0 0 0
20 21 -1 0
0 0 20
B
0 0 0 0
#41452
locker l41252~
a locker~
An unowned locker is here.~
~
15 0 0 0 0 0 0 0 0
20 21 -1 0
0 0 20
B
0 0 0 0
#41453
locker l41253~
a locker~
An unowned locker is here.~
~
15 0 0 0 0 0 0 0 0
20 21 -1 0
0 0 20
B
0 0 0 0
#41454
locker l41254~
a locker~
An unowned locker is here.~
~
15 0 0 0 0 0 0 0 0
20 21 -1 0
0 0 20
B
0 0 0 0
#41455
locker l41255~
a locker~
An unowned locker is here.~
~
15 0 0 0 0 0 0 0 0
20 21 -1 0
0 0 20
B
0 0 0 0
#41456
locker l41256~
a locker~
An unowned locker is here.~
~
15 0 0 0 0 0 0 0 0
20 21 -1 0
0 0 20
B
0 0 0 0
#41457
locker l41257~
a locker~
An unowned locker is here.~
~
15 0 0 0 0 0 0 0 0
20 21 -1 0
0 0 20
B
0 0 0 0
#41458
locker l41258~
a locker~
An unowned locker is here.~
~
15 0 0 0 0 0 0 0 0
20 21 -1 0
0 0 20
B
0 0 0 0
#41459
locker l41259~
a locker~
An unowned locker is here.~
~
15 0 0 0 0 0 0 0 0
20 21 -1 0
0 0 20
B
0 0 0 0
#41460
locker l41260~
a locker~
An unowned locker is here.~
~
15 0 0 0 0 0 0 0 0
20 21 -1 0
0 0 20
B
0 0 0 0
#41461
locker l41261~
a locker~
An unowned locker is here.~
~
15 0 0 0 0 0 0 0 0
20 21 -1 0
0 0 20
B
0 0 0 0
#41462
locker l41262~
a locker~
An unowned locker is here.~
~
15 0 0 0 0 0 0 0 0
20 21 -1 0
0 0 20
B
0 0 0 0
#41463
locker l41263~
a locker~
An unowned locker is here.~
~
15 0 0 0 0 0 0 0 0
20 21 -1 0
0 0 20
B
0 0 0 0
#41464
locker l41264~
a locker~
An unowned locker is here.~
~
15 0 0 0 0 0 0 0 0
20 21 -1 0
0 0 20
B
0 0 0 0
#41465
locker l41265~
a locker~
An unowned locker is here.~
~
15 0 0 0 0 0 0 0 0
20 21 -1 0
0 0 20
B
0 0 0 0
#41466
locker l41266~
a locker~
An unowned locker is here.~
~
15 0 0 0 0 0 0 0 0
20 21 -1 0
0 0 20
B
0 0 0 0
#41467
locker l41267~
a locker~
An unowned locker is here.~
~
15 0 0 0 0 0 0 0 0
20 21 -1 0
0 0 20
B
0 0 0 0
#41468
locker l41268~
a locker~
An unowned locker is here.~
~
15 0 0 0 0 0 0 0 0
20 21 -1 0
0 0 20
B
0 0 0 0
#41469
locker l41269~
a locker~
An unowned locker is here.~
~
15 0 0 0 0 0 0 0 0
20 21 -1 0
0 0 20
B
0 0 0 0
#41470
locker l41270~
a locker~
An unowned locker is here.~
~
15 0 0 0 0 0 0 0 0
20 21 -1 0
0 0 20
B
0 0 0 0
#41471
locker l41271~
a locker~
An unowned locker is here.~
~
15 0 0 0 0 0 0 0 0
20 21 -1 0
0 0 20
B
0 0 0 0
#41472
locker l41272~
a locker~
An unowned locker is here.~
~
15 0 0 0 0 0 0 0 0
20 21 -1 0
0 0 20
B
0 0 0 0
#41473
locker l41273~
a locker~
An unowned locker is here.~
~
15 0 0 0 0 0 0 0 0
20 21 -1 0
0 0 20
B
0 0 0 0
#41474
locker l41274~
a locker~
An unowned locker is here.~
~
15 0 0 0 0 0 0 0 0
20 21 -1 0
0 0 20
B
0 0 0 0
#41475
locker l41275~
a locker~
An unowned locker is here.~
~
15 0 0 0 0 0 0 0 0
20 21 -1 0
0 0 20
B
0 0 0 0
#41476
locker l41276~
a locker~
An unowned locker is here.~
~
15 0 0 0 0 0 0 0 0
20 21 -1 0
0 0 20
B
0 0 0 0
#41477
locker l41277~
a locker~
An unowned locker is here.~
~
15 0 0 0 0 0 0 0 0
20 21 -1 0
0 0 20
B
0 0 0 0
#41478
locker l41278~
a locker~
An unowned locker is here.~
~
15 0 0 0 0 0 0 0 0
20 21 -1 0
0 0 20
B
0 0 0 0
$~
