#43700
a key~
a key~
A key to the domain has been dropped here.~
~
18 33556992 0 0 0 16385 0 0 0
0 0 0 0
7 25675 0
B
0 0 0 0
#43701
a hooded black cloak~
&07a hooded black cloak&00~
A hooded black cloak lays crumpled in the dirt~
~
9 6289936 16777248 0 0 5 0 0 0
4 0 0 0
4 1000000 900
A
18 1
A
13 20
A
19 4
A
33 50
B
0 0 0 0
#43702
clasp of pain~
a &01Clasp&00 of &07Pain&00~
A painful looking object lies here.~
~
9 6281744 16777248 0 0 32769 0 0 0
6 0 0 0
23 75 710
A
19 4
A
13 10
A
18 1
A
30 20
A
33 50
B
0 0 0 0
#43703
pair of dark jodhpurs ~
&07a pair of dark jodphurs&00~
Someones riding pants have been left here.~
~
9 6265344 16777248 0 0 33 0 0 0
8 0 0 0
19 1000000 740
A
19 4
A
18 1
A
13 10
A
33 50
B
0 0 0 0
#43704
a pale-green chapeau ~
a &09pale-green&00 chapeau~
A dull green cap has been placed on the ground before you.~
~
9 4108368 16777248 0 0 17 0 0 0
10 0 0 0
3 1000000 770
A
18 2
A
19 3
A
13 15
A
3 2
A
31 5
A
33 50
B
0 0 0 0
#43705
a pair of dull-blue breeches ~
&13a pair of dull-blue breeches&00~
A very dull, ordinary looking pair of pants have been discarded here.~
~
9 8306768 16777216 0 0 33 0 0 0
9 0 0 0
5 1000000 945
A
19 1
A
18 1
A
12 45
A
33 50
B
0 0 0 0
#43706
a pair of furry mittens ~
&10a pair of furry mittens&00~
A bunch of fur lies in a pile on the ground.~
~
9 7262224 16777248 0 0 129 0 0 0
8 0 0 0
7 1000000 1100
A
19 2
A
18 2
A
12 45
A
33 50
B
0 0 0 0
#43707
a dirty old key~
a dirty old key~
A key twice the size of a mortals hand lies here in the dirt.~
~
18 7109634 0 0 0 1 0 0 0
0 0 0 0
14 1000000 1660
A
13 35
A
19 3
A
18 3
B
0 0 0 0
#43708
a &12veneer&00 of &05flowers&00~
&05a veneer of flowers&00~
A veneer of flowers is here.~
~
9 7794704 16777248 0 0 1029 0 0 0
8 0 0 0
31 1000000 940
A
19 4
A
13 15
A
12 15
A
17 -8
A
33 50
B
0 0 0 0
#43709
a circlet of distemper ~
a &01circlet&00 of &08distemper&00~
A circlet of distemper lies here.~
~
9 8316944 16777216 0 0 4097 0 0 0
4 0 0 0
11 1000000 772
A
19 3
A
18 2
A
12 25
A
13 12
A
33 50
B
0 0 0 0
#43710
a small hole~
a small hole~
A small hole dugout in the corner of the room catches your eye.~
~
15 0 0 0 0 0 0 0 0
1000 1 -1 0
1000 1 1000
B
0 0 0 0
#43714
a Patence of Nobility~
&04a Patence of Nobility&00~
A knight's patence of nobility has been lost or discarded here.~
~
12 7273552 16777248 0 0 16385 0 0 0
0 0 0 0
10 1000000 1180
A
19 4
A
18 4
A
12 5
A
13 15
A
33 50
A
17 -10
B
4194304 0 0 0
#43715
a peacock trimmed quill pen~
a &03peacock&00 &10trimmed&00 quill pen~
A magnificent scribing pen lays on the floor.~
~
21 8380424 16777248 0 0 16385 0 0 0
0 0 0 0
5 1000000 1150
A
12 15
A
13 15
A
27 -5
A
19 4
A
18 4
A
33 50
B
0 0 0 0
#43716
peridot shield~
a &10peridot&00 shield~
A yellowish-green colored shield lies here resting against the wall.~
~
9 8314960 16777248 0 0 513 0 0 0
15 0 0 0
13 1000000 1400
A
19 3
A
18 3
A
12 40
A
13 5
A
33 50
B
4194304 0 0 0
#43717
a band of mortality~
&08a band of mortality&00~
A band lies on the ground collecting dust.~
~
9 8384600 16777216 0 0 4097 0 0 0
5 0 0 0
10 1000000 775
A
19 3
A
18 3
A
13 10
A
12 20
A
17 -4
A
33 50
B
0 0 0 0
#43718
a portrait~
a portrait~
A large portrait hangs upon the wall.~
~
16 15 0 0 0 0 0 0 0
0 0 0 0
100 50 0
E
portrait~
   This portrait depicts a great Warrior holding a massive sword.  It is of a
design that was thought to have been lost even before the last great cataclysm.
~
A
33 50
B
0 0 0 0
#43719
a scroll of knowing~
a scroll of knowing~
A scroll of knowing~
~
2 65536 0 0 0 1 0 0 0
50 117 0 117
1 38105 3810
B
0 0 0 0
#43720
leggings of debility~
&06leggings of debility&00~
A pair of leggings lie crumpled in a heap.~
~
9 8319057 16777216 0 0 33 0 0 0
8 0 0 0
3 1000000 870
A
19 3
A
18 2
A
12 30
A
13 10
A
33 50
B
0 0 0 0
#43721
a key~
a key~
A key has been dropped here.~
~
18 31 0 0 0 1 0 0 0
0 0 0 0
10 250 0
B
0 0 0 0
#43722
a pair ischemic gloves~
a pair of &14ischemic&00 gloves~
A pair of pair colored gloves lay on the ground.~
~
9 8319056 16777216 0 0 129 0 0 0
4 0 0 0
6 1000000 790
A
19 2
A
18 2
A
12 35
A
13 10
A
33 50
B
0 0 0 0
#43723
boots of the shadow lurker~
&07boots of the shadow lurker&00~
A pair of shadowy boots have been dropped here.~
~
9 3846224 16777248 0 0 65 0 0 0
3 0 0 0
10 1000000 685
A
19 4
A
18 1
A
13 10
A
33 50
B
64 0 0 0
#43724
an air of disguisement~
an &14air&00 of &07disguisement&00~
A disguise of somekind lies discarded on the floor before you.~
~
11 8372304 16777248 0 0 524289 0 0 0
0 0 0 0
14 1000000 680
A
19 2
A
12 30
A
13 10
A
17 -6
A
18 2
A
33 50
B
0 0 0 0
#43725
a nameplate name plate~
a name plate~
A nameplate at the base of a statue has an inscription on it.~
~
16 223 0 0 0 0 0 0 0
0 0 0 0
100 1325 0
E
nameplate name plate~
Pookie
~
B
0 0 0 0
#43726
a pair of evergreen sleeves~
a pair of &09evergreen&00 sleeves~
A soft green aura eminates from some sleeves on the ground.~
~
11 8187984 16777248 0 0 257 0 0 0
0 0 0 0
7 1000000 1155
A
19 4
A
13 25
A
12 15
A
17 -5
A
33 50
B
0 0 0 0
#43727
an enameled silver disc~
&06an enameled silver disc&00~
A small silver disc lays on the ground.~
~
9 5009488 16777248 0 0 262145 0 0 0
2 0 0 0
1 100000 1050
A
13 30
A
18 3
A
19 1
A
33 50
B
0 0 0 0
#43728
a pair of stretched fur gloves~
a pair of stretched fur gloves~
A pair of stretched fur gloves are on the ground.~
~
9 5009488 16777248 0 0 129 0 0 0
4 0 0 0
14 1000000 2030
A
13 40
A
20 -3
A
24 -5
A
18 2
A
33 50
B
0 0 0 0
#43729
a diamond studded coronet~
&14a diamond studded coronet&00~
A diamond studded coronet is lying here.~
~
9 5009488 16777248 0 0 17 0 0 0
8 0 0 0
26 1000000 2130
A
18 3
A
13 45
A
33 50
B
0 0 0 0
#43730
a pair of stretched fur gloves~
a pair of stretched fur gloves~
A pair of stretched fur gloves lie here.~
~
9 5009488 16777248 0 0 129 0 0 0
3 0 0 0
10 11 1625
A
13 40
A
18 2
A
33 50
B
0 0 0 0
#43731
a small mystical pendant~
&14a small&00 &12mystical&00 &14pendant&00~
A small mystical pendant lies here.~
~
9 5009488 16777248 0 0 32769 0 0 0
8 0 0 0
14 100000 2190
A
19 1
A
18 3
A
13 45
A
33 50
B
0 0 0 0
#43732
a corrupt weave of thistles~
&03a corrupt weave of thistles&00~
Some thistles lie here.~
~
11 8319056 16777216 0 0 32769 0 0 0
0 0 0 0
6 1000000 620
A
19 3
A
30 30
A
12 30
A
33 50
A
27 -30
A
30 5
B
0 0 0 0
#43736
a Key of Marble~
a Key of Marble~
A piece of marble has been discarded and left here.~
~
18 31 0 0 0 1 0 0 0
0 0 0 0
12 343 0
B
0 0 0 0
#43737
a Templars Eye~
a Templars Eye~
An eye of a templar is floating in a puddle of blood.~
~
18 31 0 0 0 1 0 0 0
0 0 0 0
11 6831 0
B
0 0 0 0
#43742
a Halo of Fire~
a Halo of Fire~
A small glowing ring is laying here.~
~
11 33554432 0 0 0 65537 0 0 0
0 0 0 0
1 1000000 1710
A
19 4
A
18 2
A
12 10
A
27 -20
A
31 10
A
24 20
B
197800 2621440 0 0
#43749
enveloping sphere of darkness ~
&07an enveloping sphere of darkness&00~
A sphere of darkness blends in with your shadow.~
~
9 4124752 16777248 0 0 9 0 0 0
12 0 0 0
11 100000 940
A
19 4
A
18 1
A
12 15
A
13 10
A
33 50
B
0 0 0 0
#43750
a key of Black Onyx~
a key of Black Onyx~
A key of Black Onyx lies here.~
~
18 15 0 0 0 1 0 0 0
0 0 0 0
13 25000 0
B
0 0 0 0
#43751
Elru's tooth~
Elru's tooth~
The Tooth of Elru has been dropped here foolishly.~
~
18 15 0 0 0 1 0 0 0
0 0 0 0
10 450000 0
B
0 0 0 0
#43752
a Dungeon Key~
a Dungeon Key~
A key to the dungeon lies here.~
~
18 15 0 0 0 1 0 0 0
0 0 0 0
10 11 0
B
0 0 0 0
#43753
a note~
a note~
A note lies on the ground.~
~
16 0 0 0 0 1 0 0 0
0 0 0 0
1 10 0
E
note~
Alas, If you've found this letter, it means my poor demon is dead.
I am slightly amazed you've come this far within my realm.
If you think you are ready to face me, find Edjin my loyal titan and
let him know. He is the only way you may get to me.
~
B
0 0 0 0
#43755
a wand of neutrality~
a wand of neutrality~
A wand lies here, a soft blue aura eminating around it.~
~
3 1540 0 0 0 16385 0 0 0
50 10 10 99
12 4432 443
A
33 50
B
0 0 0 0
#43766
a key of Black Opal~
a key of Black Opal~
A key lies in the dirt.~
~
18 15 0 0 0 1 0 0 0
0 0 0 0
10 433 0
B
0 0 0 0
#43767
Tortured Souls~
Tortured Souls~
A key Tortured Souls cries out in agony.~
~
18 15 0 0 0 1 0 0 0
0 0 0 0
14 35000 0
B
0 0 0 0
#43791
an Onyx key~
an Onyx key~
A key of onyx is here.~
~
18 27 0 0 0 1 0 0 0
0 0 0 0
15 25000 0
B
0 0 0 0
#43792
a Silver key~
a Silver Key~
A silver key is on the ground.~
~
18 31 0 0 0 1 0 0 0
0 0 0 0
9 54000 0
B
0 0 0 0
#43793
a Key of Gorgonite~
a Key of Gorgonite~
A Key of Gorgonite is covered in dirt.~
~
18 15 0 0 0 1 0 0 0
0 0 0 0
12 34500 0
B
0 0 0 0
#43794
the corpse of a young heroin~
the corpse of a young heroin~
The corpse of a young heroin lies on the ground~
~
13 67108864 0 0 0 0 0 0 0
0 0 0 0
10000 80 0
E
corpse young heroin~
   This corpse is mangled into disbelief, a stunned look can be seen on her
blood covered face.    
~
B
0 0 0 0
$~
