#4501
shadow blade~
a shadowblade~
A faintly transparent blade forged of shadow lies here.~
slash~
5 576 0 0 0 8193 0 0 0
0 5 5 3
2 4000 285
A
18 1
A
19 1
B
0 0 0 0
#4502
shadow spear~
a shadowspear~
A faintly transparent spear forged of shadow lies here.~
pierce~
5 576 0 0 0 8193 0 0 0
0 5 5 22
2 4000 285
A
18 1
A
19 1
B
0 0 0 0
#4503
obj shadow axe~
a shadowaxe~
A faintly transparent axe forged of shadow lies here.~
slash~
5 576 0 0 0 8193 0 0 0
0 5 5 3
2 4000 285
A
18 1
A
19 1
B
0 0 0 0
#4504
obj bracer shadow~
shadowbracer~
A faintly transparent bracer has been dropped here~
~
9 576 0 0 0 4097 0 0 0
2 0 0 0
2 3000 240
A
13 10
A
19 2
B
0 0 0 0
#4505
obj gauntlets shadow~
shadowgauntlets~
A faintly transparent pair of gauntlets has been dropped here~
~
9 524864 0 0 0 129 0 0 0
5 0 0 0
2 3500 215
A
1 1
A
19 2
B
0 0 0 0
#4506
obj orb stone~
a black glowing orb~
A small stone lies on the ground~
~
9 4202499 0 0 0 65537 0 0 0
6 0 0 0
1 6000 340
A
3 2
A
12 18
A
4 2
B
0 0 0 0
#4507
obj orb stone~
pale glowing orb~
A small stone lies on the ground~
~
9 4183107 32 0 0 49153 0 0 0
6 0 0 0
1 6000 410
A
4 2
A
19 2
A
12 18
B
0 0 0 0
#4508
obj shadow mail~
shadowmail~
A faintly transparent mail shirt lies on the ground.~
~
9 524864 0 0 0 9 0 0 0
4 0 0 0
2 20000 50
A
5 1
B
0 0 0 0
#4509
obj silver ingot~
a large silver ingot~
A large bar of silver lies here.~
~
8 0 4096 0 0 16385 0 0 0
0 0 0 0
15 5000 0
B
0 0 0 0
#4510
forge mold~
a large forge~
A large forge with a weapon mold stands in the corner.~
  You see a sizable forge which seems to have been used for making
weapons based on the sword mold that is attached to it. This looks
like pretty basic smithy equipment.

~
15 65 0 0 0 0 0 0 0
200 0 0 0
200 5000 200
B
0 0 0 0
#4511
obj silver dagger~
a silver dagger~
A sharp looking silver dagger lies on the ground.~
pierce~
5 0 4096 0 0 8193 0 0 0
0 1 4 11
3 1000 104
A
18 1
A
19 1
B
0 0 0 0
#4512
obj sword silver~
a silver shortsword~
A sharp looking silver shortsword lies on the ground.~
slash~
5 0 4096 0 0 8193 0 0 0
0 1 6 3
4 1500 106
A
18 1
A
19 1
B
0 0 0 0
#4513
obj sword silver~
a silver longsword~
A sharp looking silver longsword lies on the ground.~
slash~
5 0 4096 0 0 8193 0 0 0
0 1 6 3
5 2000 106
A
18 1
A
19 1
B
0 0 0 0
#4514
obj wood stake~
a wooden stake~
A crude sharpened wooden stake has been carelessly left here.~
pierce~
5 0 0 0 0 8193 0 0 0
0 1 3 11
2 100 4
B
0 0 0 0
#4515
obj keg~
a wooden keg~
A large iron-bound wooden keg stands here.~
~
17 0 0 0 0 8193 0 0 0
60 60 4 0
25 1000 600
B
0 0 0 0
#4516
obj rope~
a coiled length of rope~
A mound of rope lies discarded on the floor.~
~
12 0 0 0 0 16385 0 0 0
0 0 0 0
5 100 0
B
0 0 0 0
#4517
obj grapple~
a grapple~
A grapple is stuck in the ground here.~
~
15 0 0 0 0 16385 0 0 0
40 4 -1 0
5 100 40
B
0 0 0 0
#4518
obj grapple~
a grapple with rope attached~
A grapple is stuck in the ground here, attached is some rope hanging over
the edge of the cliff.~
~
7 65536 0 0 0 0 0 0 0
0 1 1 1
5 100 0
B
0 0 0 0
#4519
key silverdale~
the key to SilverDale~
A key is here, half-hidden in the dirt.~
~
18 0 0 0 0 16385 0 0 0
2 0 0 0
5 100 0
B
0 0 0 0
#4520
pale frozen corpse~
a pale frozen corpse~
A pale-white corpse lays here~
~
19 0 0 0 0 1 0 0 0
3 0 33 33
7 0 9
B
0 0 0 0
#4521
skull~
a bleached skull~
A human skull lies here~
~
17 0 0 0 0 1 0 0 0
9 9 0 0
5 300 90
B
0 0 0 0
#4522
skull~
a bleached skull~
A bleached skull lies here~
~
13 0 0 0 0 1 0 0 0
0 0 0 0
5 0 0
B
0 0 0 0
#4523
skull~
a bleached skull~
A bleached skull lies here~
~
15 0 0 0 0 1 0 0 0
10 5 -1 0
5 100 10
B
0 0 0 0
#4524
tower key~
a small humming key~
A small humming bit of metal lies here~
~
18 2 0 0 0 1 0 0 0
0 0 0 0
1 0 0
B
0 0 0 0
#4525
pile debris~
a large pile of debris~
A large pile of debris lies here~
~
15 0 0 0 0 0 0 0 0
700 5 -1 0
26 0 700
B
0 0 0 0
#4526
coffin~
a coffin draped in black cloth~
A coffin rests here~
~
15 14 0 0 0 0 0 0 0
300 9 4527 0
30 10 300
B
0 0 0 0
#4527
prybar~
a prybar~
A long piece of metal lies here~
~
18 0 0 0 0 1 0 0 0
0 0 0 0
6 0 0
B
0 0 0 0
#4528
boots~
a pair of climbing boots~
A pair of boots lies here~
~
9 536576 32 0 0 65 0 0 0
3 0 0 0
5 350 255
A
2 2
A
14 30
B
0 0 0 0
#4529
pile pitons~
a pile of pitons~
A pile of metal objects lies here~
~
7 0 0 0 0 1 0 0 0
2 4 4 1
3 60 0
B
0 0 0 0
#4530
safe steel~
a safe~
A small steel safe sits here~
~
15 0 0 0 0 1 0 0 0
250 9 4519 0
30 4000 250
B
0 0 0 0
#4531
head~
a severed head~
A gruesome object lies here~
~
9 279168 0 0 0 16385 0 0 0
0 0 0 0
5 25 240
A
6 -2
A
19 1
A
12 15
B
0 0 0 0
#4540
small stream flows~
a small stream~
A small stream flows here, in front of your feet.~
Surprisingly the stream consists of crystal clear water, and looks to be quite refreshing.
~
23 0 0 0 0 0 0 0 0
75 40 0 0
0 0 0
B
0 0 0 0
$~
