#5000
pick~
a small mining pick~
A small mining pick made of what appears to be silver lies on the ground.~
pierce~
5 512 0 0 0 8193 0 0 0
0 3 7 11
3 600 110
B
0 0 0 0
#5001
banded mail~
a glowing suit of banded mail~
A glowing suit of banded mail lies on the ground.~
~
9 524353 0 0 0 9 0 0 0
9 0 0 0
0 75000 195
A
2 1
A
17 -4
A
19 1
B
0 0 0 0
#5002
halberd~
a halberd~
A mighty halberd lies against the wall.~
slash~
5 320 0 0 0 8193 0 0 0
0 5 5 3
16 12000 285
A
18 1
A
19 1
B
0 0 0 0
#5003
amulet~
an amulet~
A mushroom shaped amulet lies on the ground.~
~
9 64 0 0 0 32769 0 0 0
0 0 0 0
2 1500 90
A
5 2
B
0 0 0 0
#5005
bone~
a large leg bone~
A large leg bone rests on the ground.~
crush~
5 0 0 0 0 8193 0 0 0
0 3 4 7
5 300 30
B
0 0 0 0
#5006
cactus~
a small cactus cup~
A small cactus cup lies on the ground.~
~
17 0 0 0 0 1 0 0 0
5 5 0 0
6 30 50
B
0 0 0 0
#5007
basket~
a small wicker basket~
A small wicker basket sits on the ground.~
~
15 0 0 0 0 1 0 0 0
100 5 -1 0
50 5000 100
B
0 0 0 0
#5008
basket~
a small wicker basket~
A small wicker basket sits on the ground.~
~
15 0 0 0 0 1 0 0 0
100 5 -1 0
50 5000 100
B
0 0 0 0
#5009
basket~
a small wicker basket~
A small wicker basket sits on the ground.~
~
15 0 0 0 0 1 0 0 0
100 5 -1 0
50 5000 100
B
0 0 0 0
#5010
basket~
a small wicker basket~
A small wicker basket sits on the ground.~
~
15 0 0 0 0 0 0 0 0
100 5 -1 0
50 5000 100
B
0 0 0 0
#5011
rope~
a coil of rope~
A long coil of rope lies on the ground.~
~
12 0 0 0 0 1 0 0 0
0 0 0 0
12 450 0
B
0 0 0 0
#5012
stakes~
a bunch of stakes~
A small bundle of stakes lies here.~
~
12 0 0 0 0 1 0 0 0
0 0 0 0
6 250 0
B
0 0 0 0
#5013
map~
an old, tattered map~
An old, tattered, and much faded map lies here.~
~
12 0 0 0 0 1 0 0 0
0 0 0 0
1 300 0
B
0 0 0 0
#5014
turban~
a thick padded turban~
A thick padded turban lies here.~
~
9 524480 0 0 0 17 0 0 0
0 0 0 0
15 4300 90
A
4 2
B
0 0 0 0
#5015
coins treasure~
a great pile of treasure~
A great, gleaming pile of treasure lies at your feet.~
~
20 0 0 0 0 1 0 0 0
46270 0 0 0
0 0 0
B
0 0 0 0
#5016
sabre~
a long, curved sabre~
A long, curved sabre stands upright in the ground.~
slash~
5 2048 0 0 0 8193 0 0 0
0 3 8 3
7 1050 245
A
18 2
B
0 0 0 0
#5017
scimitar~
a curved scimitar~
A curved scimitar lies at your feet.~
slash~
5 2048 0 0 0 8193 0 0 0
0 3 7 3
6 600 150
A
18 1
B
0 0 0 0
#5018
cutlass~
a long, pointed cutlass~
A long, pointed cutlass lies here.~
slash~
5 2048 0 0 0 8193 0 0 0
0 3 7 3
5 550 110
B
0 0 0 0
#5019
potion pink~
a pink potion~
A pink potion stands here.~
~
10 0 0 0 0 1 0 0 0
15 33 17 0
6 6000 600
B
0 0 0 0
#5020
wand platinum~
a platinum wand~
A platinum wand lies here.~
~
3 2 0 0 0 16385 0 0 0
30 10 10 32
8 1900 190
B
0 0 0 0
#5021
bow golden~
a golden bow~
A powerful golden bow lies here.~
blast~
5 8155459 32 0 0 8193 0 0 0
0 5 6 12
20 10000 385
B
0 0 0 0
#5022
scroll encrypted~
an encrypted scroll~
An encrypted scroll lies at your feet.~
~
2 0 0 0 0 1 0 0 0
22 14 35 43
7 1500 150
B
0 0 0 0
#5023
chest~
an iron bound chest~
An iron bound chest with a shiny lock sits here.~
~
15 0 0 0 0 0 0 0 0
200 13 5024 0
200 1000 200
B
0 0 0 0
#5024
key golden~
a golden key~
A shiny golden key lies here.~
~
18 4100 32 0 0 1 0 0 0
2 0 0 0
1 150 0
B
0 0 0 0
#5025
bracelet copper~
a copper bracelet~
A tarnished copper bracelet lies at your feet.~
~
9 192 0 0 0 4097 0 0 0
-5 0 0 0
10 23000 655
A
13 10
A
19 -4
B
0 0 0 0
#5026
gem ruby~
a large ruby~
A large ruby lies on the ground, collecting dust.~
~
8 192 0 0 0 1 0 0 0
0 0 0 0
9 14000 0
B
0 0 0 0
#5027
gem diamond~
a glittering diamond~
A glittering diamond lies at your feet.~
~
8 64 0 0 0 1 0 0 0
0 0 0 0
10 11500 0
B
0 0 0 0
#5028
gem sapphire~
a brilliant sapphire~
A brilliant sapphire lies here, twinkling happily.~
~
8 64 0 0 0 1 0 0 0
0 0 0 0
7 8500 0
B
0 0 0 0
#5029
gem lapis~
a deep blue lapis lazuli~
A deep blue lapis lazuli gem lies here.~
~
8 64 0 0 0 1 0 0 0
0 0 0 0
11 9500 0
B
0 0 0 0
#5030
jewel tiger~
the Tiger Jewel~
The Tiger Jewel lies here blazing.~
~
8 256 0 0 0 16385 0 0 0
0 0 0 0
23 73000 140
A
2 1
A
18 2
B
0 0 0 0
#5031
jewel red-eyed~
the red-eyed jewel~
The red-eyed jewel glares at you greedily.~
~
8 128 0 0 0 16385 0 0 0
0 0 0 0
30 35000 90
A
3 -2
B
0 0 0 0
#5032
gem emerald~
a fiery green emerald~
A fiery green emerald sits here.~
~
8 64 0 0 0 1 0 0 0
0 0 0 0
7 5500 0
B
0 0 0 0
$~
