#5100
longsword commoner~
a commoner's longsword~
A commoner's longsword made of adamantite has been left here.~
slash~
5 8192 0 0 0 8193 0 0 0
0 3 8 3
12 1000 235
A
18 1
A
19 1
B
0 0 0 0
#5101
longsword noble~
a noble's longsword~
A drow noble's longsword, made of adamantite, lies here.~
slash~
5 8192 0 0 0 8193 0 0 0
0 3 8 3
12 1500 235
A
18 1
A
19 1
B
0 0 0 0
#5102
whip snake twoheaded~
a snake headed whip~
A whip with two snakes heads lies here.~
slash~
5 4112449 0 0 0 8193 0 0 0
0 2 14 3
12 1750 285
A
18 1
A
19 1
B
0 0 0 0
#5103
whip snake threeheaded~
a snake headed whip~
A whip with three snake heads has been left here.~
slash~
5 4112449 0 0 0 8193 0 0 0
0 3 8 3
12 5000 235
A
18 1
A
19 1
B
0 0 0 0
#5104
whip snake fourheaded~
a snake headed whip~
A whip with four snake heads has been carelessly left here.~
slash~
5 4112449 0 0 0 8193 0 0 0
0 4 7 3
12 10250 385
A
18 1
A
19 1
B
0 0 0 0
#5105
longsword black~
a black longsword~
A black longsword has been carelessly left here.~
slash~
5 8257 0 0 0 8193 0 0 0
0 4 8 3
12 10250 585
A
18 1
A
19 1
B
0 0 0 0
#5106
whip snake fiveheaded~
a snake headed whip~
A whip with 5 snake heads has been carelessly dropped here.~
slash~
5 4112961 0 0 0 8193 0 0 0
0 5 7 3
12 12000 865
A
1 -2
A
3 -2
B
0 0 0 0
#5107
whip snake sixheaded~
a snake headed whip~
A whip with six snake heads has been dropped here very carelessly.~
slash~
5 4112961 0 0 0 8193 0 0 0
0 6 6 3
12 15000 1265
A
1 -3
A
3 -3
B
0 0 0 0
#5108
bracers iron~
a pair of bracers~
A pair of bracers has been dropped here.~
~
9 524353 0 0 0 257 0 0 0
10 0 0 0
3 2000 190
A
12 15
B
0 0 0 0
#5109
gauntlets strength~
a pair of gauntlets~
A pair of gauntlets is lying on the ground.~
~
11 1 0 0 0 129 0 0 0
0 0 0 0
2 10000 325
A
1 3
A
17 -5
A
18 2
B
0 0 0 0
#5110
wand lightning blue silver~
a silvery blue wand~
A silvery blue wand has been dropped in the dirt.~
~
3 64 0 0 0 16385 0 0 0
10 3 3 30
1 4000 400
B
0 0 0 0
#5111
helmet helm~
a small helmet~
A small helmet lies up against a rock.~
~
9 134742080 0 0 0 17 0 0 0
1 0 0 0
5 6000 195
A
3 3
B
0 0 0 0
#5112
ring ruby~
a small ruby ring~
A small ruby ring lies in the dirt.~
~
11 4485184 32 0 0 3 0 0 0
0 0 0 0
1 20000 1195
A
13 35
A
17 -7
B
0 0 0 0
#5113
dagger sacrificial spider~
a spider shaped dagger~
A dagger with spider leg shaped blades lies on the ground.~
pierce~
5 576 0 0 0 8193 0 0 0
0 6 4 11
8 12000 385
A
18 1
A
19 2
B
0 0 0 0
#5114
hat green 5114~
a small bright green hat~
A small bright green hat lies in the dirt.~
~
9 524416 0 0 0 17 0 0 0
10 0 0 0
1 2000 485
A
9 -15
A
17 -2
B
0 0 0 0
$~
