#5200
ringmail vest~
a ringmail vest~
A vest made of iron rings lies heaped on the floor.~
~
9 524353 0 0 0 9 0 0 0
6 0 0 0
60 12000 45
A
17 -1
B
0 0 0 0
#5201
helm iron~
an iron helm~
An iron helm has been left on the ground.~
~
9 134742016 0 0 0 17 0 0 0
7 0 0 0
10 5000 165
A
18 -2
B
0 0 0 0
#5202
gauntlets iron~
a pair of iron gauntlets~
A pair of iron gauntlets rests heavily on the ground.~
~
9 524288 0 0 0 129 0 0 0
7 0 0 0
10 2200 315
A
18 -3
A
19 1
B
0 0 0 0
#5203
sleeves iron~
a pair of iron sleeves~
A set of iron sleeves lies on the ground.~
~
9 524288 0 0 0 257 0 0 0
7 0 0 0
10 2450 565
A
18 -4
A
19 2
B
0 0 0 0
#5204
boots iron~
a pair of iron boots~
A pair of iron boots has been left here.~
~
9 524288 0 0 0 65 0 0 0
4 0 0 0
6 800 150
A
18 -1
A
2 -2
B
0 0 0 0
#5205
greaves iron~
a set of iron greaves~
A set of iron greaves lie here unattended.~
~
9 524288 0 0 0 33 0 0 0
7 0 0 0
10 5400 445
A
18 -3
A
2 -3
B
0 0 0 0
#5206
girth iron~
an iron girth~
A small iron girth lies at your feet.~
~
9 0 0 0 0 2049 0 0 0
4 0 0 0
6 4200 20
B
0 0 0 0
#5207
breast plate iron~
a battered iron breast plate~
A battered iron breast plate lies here.~
~
9 524288 0 0 0 9 0 0 0
5 0 0 0
125 13000 957
A
18 -6
B
0 0 0 0
#5208
shield iron~
a sturdy iron shield~
A small, but sturdy, iron shield has been left here.~
~
9 524480 0 0 0 513 0 0 0
5 0 0 0
5 500 225
A
23 -2
A
24 -2
B
0 0 0 0
#5210
potion black~
a black potion~
A jet black potion sits upright waiting to be taken.~
~
10 96 0 0 0 1 0 0 0
16 4 36 39
5 6000 600
B
0 0 0 0
#5211
potion orange~
an orange potion~
A small orange potion lies here.~
~
10 96 0 0 0 1 0 0 0
20 44 0 0
10 750 75
B
0 0 0 0
#5213
staff serpentine~
a green serpentine staff~
A green serpentine staff has been left here.~
~
4 96 0 0 0 16385 0 0 0
40 1 1 29
12 6600 0
B
0 0 0 0
#5214
ball quartz~
a smooth quartz ball~
A smooth quartz ball lies here gleaming.~
~
1 64 0 0 0 16385 0 0 0
0 0 72 0
30 3050 72
B
0 0 0 0
#5215
scroll tattered~
a tattered scroll~
A worn and tattered scroll has been left here.~
~
2 64 0 0 0 1 0 0 0
50 24 0 0
15 11000 1100
B
0 0 0 0
#5216
scroll bound~
a bound scroll~
A bound scroll of detection lies at your feet.~
~
2 64 0 0 0 1 0 0 0
15 18 19 20
15 4200 420
B
0 0 0 0
#5217
flute silver~
a silver flute~
A brilliant silver flute glimmers from beneath a rock.~
~
4 65 4096 0 0 16385 0 0 0
18 2 2 7
3 10500 0
B
0 0 0 0
#5218
talisman demon 5218~
a demon-faced talisman~
A demon-faced talisman glares at you angrily.~
~
9 193 0 0 0 32769 0 0 0
5 0 0 0
11 2500 1325
A
1 -5
A
2 -5
B
0 0 0 0
#5219
venison chunk~
a chunk of venison~
A large chunk of venison sits here, ready to be eaten.~
~
19 0 0 0 0 1 0 0 0
24 0 0 0
20 100 72
B
0 0 0 0
#5220
fountain cracked~
a large cracked fountain~
A large cracked fountain sits here flowing &08red&00.~
A pool of blood lies in the bottom of the fountain.~
23 0 0 0 0 0 0 0 0
10 10 13 1
0 0 0
B
0 0 0 0
#5221
two-handed two sword~
a two-handed sword~
A nice two-handed sword hangs on a hook in the wall.~
~
5 0 0 0 0 8193 0 0 0
0 3 6 3
22 55000 352
A
18 -3
A
19 1
B
0 0 0 0
#5222
robe black silk~
a black silk robe~
A black silk robe lies heaped in one corner.~
~
9 0 0 0 0 1025 0 0 0
1 0 0 0
6 1300 5
B
0 0 0 0
#5223
cloak green~
a dark green cloak~
A beautiful dark green cloak has been dropped here by someone.~
~
9 65 0 0 0 5 0 0 0
0 0 0 0
12 14500 107
A
13 8
A
17 -5
B
0 0 0 0
#5224
seal ebony~
an engraved ebony seal~
A small, engraved ebony seal is here.~
~
18 4096 32 0 0 16385 0 0 0
2 0 0 0
2 500 0
B
0 0 0 0
#5225
desk curved~
the desk~
A long curved desk sits here.~
~
15 0 0 0 0 0 0 0 0
100 13 5224 0
0 0 100
B
0 0 0 0
#5226
seal ivory~
an engraved ivory seal~
A small, engraved ivory seal lies here.~
~
18 4096 32 0 0 16385 0 0 0
2 0 0 0
2 500 0
B
0 0 0 0
#5227
cabinet glass~
the glass cabinet~
A large glass cabinet sits here.~
~
15 0 0 0 0 0 0 0 0
500 13 5226 0
0 0 500
B
0 0 0 0
#5228
arm rotted~
a half-rotted arm~
A half-rotted arm floats lazily past your feet.~
~
19 0 0 0 0 1 0 0 0
24 0 0 1
20 0 72
B
0 0 0 0
#5230
stone pale blue~
a pale blue stone~
A pale blue stone sits here.~
~
8 64 0 0 0 16385 0 0 0
0 0 0 0
10 5500 30
A
1 1
B
0 0 0 0
#5231
stone scarlet blue~
a scarlet and blue stone~
A pretty scarlet and blue stone has been dropped here.~
~
8 64 0 0 0 16385 0 0 0
0 0 0 0
10 5500 30
A
3 1
B
0 0 0 0
#5232
stone blue incandescent~
an incandescent blue stone~
A small incandescent blue stone lies here.~
~
8 64 0 0 0 16385 0 0 0
0 0 0 0
10 5500 30
A
4 1
B
0 0 0 0
#5233
stone red deep~
a deep red stone~
Someone has left a deep red stone here.~
~
8 64 0 0 0 16385 0 0 0
0 0 0 0
10 5500 30
A
2 1
B
0 0 0 0
#5234
stone pink~
a pink stone~
A tiny pink stone lies at your feet.~
~
8 64 0 0 0 16385 0 0 0
0 0 0 0
10 5500 30
A
5 1
B
0 0 0 0
#5235
stone pearly white~
a pearly white stone~
A lovely, pearly white stone has been carelessly left here.~
~
8 64 0 0 0 16385 0 0 0
0 0 0 0
10 8700 4
A
13 1
B
0 0 0 0
#5236
stone lavender pale~
a pale lavender stone~
A beautiful pale lavender stone lies here.~
~
8 192 0 0 0 16385 0 0 0
0 0 0 0
10 4300 100
A
24 -2
B
0 0 0 0
#5237
stone lavender green~
a lavender and green stone~
A stunning lavender and green stone rests on the ground.~
~
8 192 0 0 0 16385 0 0 0
0 0 0 0
10 4700 232
A
24 -4
B
0 0 0 0
#5238
stone rose dusty~
a dusty rose stone~
A stone is here, sort of a dusty rose color and very pretty.~
~
8 64 0 0 0 16385 0 0 0
0 0 0 0
10 9800 5
A
17 -1
B
0 0 0 0
#5239
stone grey dull~
a dull grey stone~
You can barely make out a dull grey stone on the ground.~
~
8 0 0 0 0 16385 0 0 0
0 0 0 0
10 20 0
B
0 0 0 0
#5240
stone purple vibrant~
a vibrant purple stone~
A stunningly vibrant purple stone attracts your attention.~
~
8 192 0 0 0 16385 0 0 0
0 0 0 0
10 10200 2220
A
13 -50
B
0 0 0 0
#5241
stone pink green~
a pink and green stone~
A bright pink and green stone has been left here.~
~
8 192 0 0 0 16385 0 0 0
0 0 0 0
10 6600 550
A
18 -5
B
0 0 0 0
#5242
stone green pale~
a pale green stone~
A pale green stone lies here collecting dust.~
~
8 192 0 0 0 16385 0 0 0
0 0 0 0
10 7100 942
A
19 -5
B
0 0 0 0
#5243
stone clear~
a clear stone~
An odd clear stone lies at your feet.~
~
8 192 0 0 0 16385 0 0 0
0 0 0 0
10 8900 15
A
17 -3
B
0 0 0 0
#5244
stone iridescent~
an iridescent stone~
A large iridescent stone has been left here.~
~
8 192 0 0 0 16385 0 0 0
0 0 0 0
10 3700 5820
A
13 -100
B
0 0 0 0
#5250
mandolin~
a mandolin~
A mandolin lies against the wall.~
~
4 64 0 0 0 16385 0 0 0
13 3 3 15
20 3000 0
B
0 0 0 0
#5251
harp golden~
a golden harp~
A battered golden harp has been tipped over.~
~
4 64 0 0 0 16385 0 0 0
18 1 1 6
100 2500 0
B
0 0 0 0
#5252
key onyx~
an onyx key~
A key made of onyx.~
~
18 4096 32 0 0 1 0 0 0
2 0 0 0
1 0 0
B
0 0 0 0
#5253
robes thalos~
a black robe~
Some black robes have been left here.~
~
9 1753088 0 0 0 1025 0 0 0
5 0 0 0
4 500 365
A
12 15
A
9 10
B
0 0 0 0
#5254
bone staff~
a bone staff~
A bone staff lies here.~
~
4 1753163 0 0 0 16385 0 0 0
30 2 2 6
5 500 0
B
0 0 0 0
#5255
bone sword~
a bone sword~
A bone sword is stuck in the ground here.~
~
5 2015296 0 0 0 8193 0 0 0
0 18 1 3
10 500 735
A
19 2
A
12 15
B
0 0 0 0
#5256
bronze helm~
a bronze helm~
A bronze helm covered in runes has been left here.~
~
9 2015299 0 0 0 17 0 0 0
5 0 0 0
5 500 305
A
3 3
A
12 15
B
0 0 0 0
#5257
leather bandolier~
a leather bandolier~
A leather bandolier lies here.~
~
15 0 0 0 0 1025 0 0 0
250 0 -1 0
10 100 305
A
17 -5
A
1 1
B
0 0 0 0
#5258
green scroll~
a green scroll~
A green scroll lies here.~
~
2 0 0 0 0 1 0 0 0
45 76 0 0
2 10000 1000
B
0 0 0 0
#5259
red scroll~
a red scroll~
A bright red scroll has been left here.~
~
2 0 0 0 0 1 0 0 0
30 38 38 38
2 100 10
B
0 0 0 0
#5260
lightning scroll~
a lightning scroll~
A lightning scroll is curled up on the floor here.~
~
2 65548 0 0 0 1 0 0 0
30 30 30 30
2 100 10
B
0 0 0 0
#5261
fire scroll 5261~
a fire scroll~
A fire scroll is curled up on the floor here.~
~
2 65548 0 0 0 1 0 0 0
30 26 26 26
2 100 10
B
0 0 0 0
#5262
wand~
a wand~
A wand inscribed with strange runes lies here.~
~
3 0 0 0 0 16385 0 0 0
30 1 1 27
2 100 10
B
0 0 0 0
#5263
spiked club~
a spiked club~
A spiked club lies here.~
~
5 0 0 0 0 8193 0 0 0
0 3 6 7
7 100 120
A
2 1
A
5 1
B
0 0 0 0
#5264
drake hide~
a fire drake hide~
The hide of a fire drake has been removed and left here.~
~
11 0 0 0 0 5 0 0 0
0 0 0 0
10 500 300
A
17 -10
A
20 -4
B
0 0 0 0
#5266
green robes~
some green robes~
Some green robes are crumpled up on the floor here.~
~
11 0 0 0 0 9 0 0 0
0 0 0 0
3 500 410
A
12 25
A
17 -10
A
1 2
B
0 0 0 0
#5267
spellbook~
a spellbook~
A spellbook with bronze fittings lies here.~
~
1 2015232 0 0 0 16385 0 0 0
0 0 -1 0
5 100 1370
A
12 25
A
24 -3
B
0 0 0 0
#5268
assassin robes~
the robes of an assassin~
The black robes of an assassin have been torn from her and left here.~
~
9 8056832 32 0 0 1025 0 0 0
7 0 0 0
5 500 325
A
19 2
A
18 2
B
0 0 0 0
#5269
lightning dagger~
the Lightning Dagger~
A tiny dagger in the shape of a lightning bolt lies on the ground here.~
~
5 3846211 32 0 0 8193 0 0 0
0 8 5 11
3 1000 1755
A
18 2
A
19 2
B
0 0 0 0
$~
