#5301
key gold 5301~
a gold key~
There is a gold key here~
~
18 65537 0 0 0 1 0 0 0
2 0 0 0
1 1 0
B
0 0 0 0
#5302
key old~
an old key~
There is a old key here~
~
18 65536 0 0 0 1 0 0 0
2 0 0 0
1 1 0
B
0 0 0 0
#5303
strange boots~
a pair of strange boots~
A pair of strange boots sit on the floor rather correctly~
~
9 577536 32 0 0 65 0 0 0
10 0 0 0
10 2500 480
A
1 3
A
5 3
B
0 0 0 0
#5304
ebony claymore~
an ebony claymore~
An ebony claymore sits heavily on the ground.~
~
5 64 0 0 0 8193 0 0 0
0 4 9 3
16 60000 875
A
4 -3
B
0 0 0 0
#5305
ebony shield~
an ebony shield~
An ebony shield has been dropped here.~
~
9 548864 0 0 0 513 0 0 0
10 0 0 0
6 20000 450
A
1 1
A
19 3
B
0 0 0 0
#5306
black tunic~
black tunic~
A black tunic lies in a crumpled heap on the floor~
~
9 524288 0 0 0 1033 0 0 0
6 0 0 0
5 6000 40
B
0 0 0 0
#5308
opal ring~
an opal ring~
You see an opal ring here.~
~
9 0 0 0 0 3 0 0 0
1 0 0 0
1 2500 75
A
2 1
A
18 1
B
0 0 0 0
#5309
opal bracelet~
an opal bracelet~
You see an opal bracelet here.~
~
9 0 0 0 0 4097 0 0 0
3 0 0 0
1 20000 350
A
19 2
B
0 0 0 0
#5310
display case~
display case~
There is a large display case here.~
~
15 0 0 0 0 0 0 0 0
1000 13 5311 0
1000 0 1000
B
0 0 0 0
#5311
key chain~
key chain~
A large chain of keys hangs on the wall.~
~
18 0 0 0 0 1 0 0 0
2 0 0 0
1 10 0
B
0 0 0 0
#5312
opal potion~
an opal potion~
An opal potion rests here~
~
10 0 0 0 0 16385 0 0 0
15 43 0 0
1 4000 400
B
0 0 0 0
#5314
runed dagger~
a runed dagger~
A runed dagger, almost hidden from sight, lies here.~
~
5 33344 0 0 0 8193 0 0 0
0 7 4 11
5 32000 687
A
18 2
A
19 2
B
0 0 0 0
$~
