#5501
ivory staff~
an Ivory Staff~
An immaculately handcrafted ivory staff lies here.~
~
5 1 0 0 0 8193 0 0 0
0 6 4 7
1 1700 595
A
1 2
A
19 3
B
0 0 0 0
#5502
opaque emerald ring~
an opaque emerald ring~
An opaque emerald ring lies here on the ground.~
~
9 129 0 0 0 3 0 0 0
8 0 0 0
1 1500 260
A
19 2
A
3 -1
B
0 0 0 0
#5503
bejewelled helm~
a bejewelled helm~
A bejewelled helm lies here, dazzling your eyes with its beauty.~
~
9 139229760 32 0 0 17 0 0 0
10 0 0 0
4 30000 300
A
18 2
A
5 2
B
0 0 0 0
#5504
cloak shadows~
the Cloak of Shadows~
An ebony cloak lies here, crackling with a chaotic aura.~
~
12 1059331 0 0 0 5 0 0 0
0 0 0 0
5 2000 530
A
2 1
A
19 3
A
17 -12
B
0 0 0 0
#5505
black leather belt~
a black leather belt~
A black leather belt lies here.~
~
9 1182211 0 0 0 2049 0 0 0
7 0 0 0
2 2500 465
A
9 10
A
19 2
B
0 0 0 0
#5506
black leather tunic~
a black leather tunic~
A black leather tunic lies here.~
~
9 1706499 0 0 0 9 0 0 0
10 0 0 0
5 1000 375
A
13 15
A
14 25
B
0 0 0 0
#5507
black leather pants~
a pair of black leather pants~
A pair of black leather pants lie here.~
~
9 1706499 0 0 0 33 0 0 0
8 0 0 0
8 750 660
A
13 -25
A
18 2
B
0 0 0 0
#5508
boots stealth~
the Boots of Stealth~
A pair of ebony boots lie here, barely noticeable to the eye.~
~
9 1575427 0 0 0 65 0 0 0
9 0 0 0
5 2550 435
A
2 3
A
19 2
B
0 0 0 0
#5509
shield mist som~
the Shield of the Mists~
A shield lies here, barely visible through a thin layer of mist.~
~
9 538985 32 0 0 513 0 0 0
10 0 0 0
10 10000 420
A
19 3
B
0 0 0 0
#5510
gray tattered cloak~
an old gray tattered cloak~
An old gray tattered cloak lies here on the ground.~
~
9 256 0 0 0 1025 0 0 0
10 0 0 0
3 5000 665
A
9 15
A
4 3
B
0 0 0 0
#5511
azure bracelet~
an azure bracelet~
An azure bracelet lies here, sparkling brilliantly.~
~
9 5405187 32 0 0 4097 0 0 0
3 0 0 0
1 5000 375
A
18 1
A
19 3
B
0 0 0 0
#5512
pure onyx tiara~
a Pure Onyx Tiara~
A Pure onyx tiara lies here, waiting to be reclaimed by it's owner.~
~
9 4114946 0 0 0 17 0 0 0
9 0 0 0
2 5000 685
A
12 35
A
18 2
A
19 1
B
0 0 0 0
#5513
death gem~
the Gem of Death~
A blood red gem lies here on the ground, surrounded by a chaotic aura.~
~
9 1182211 0 0 0 16385 0 0 0
0 0 0 0
1 10000 10650
A
19 5
A
13 -100
A
12 -100
B
0 0 0 0
#5514
scales silver serpent~
Scales of the Silver Serpent~
A clump of silvery serpent scales lie here.~
~
9 6864969 0 0 0 9 0 0 0
8 0 0 0
5 8000 440
A
24 -1
A
19 3
B
0 0 0 0
#5515
tree limb branch~
a tree branch~
The branch of a massive swamp tree lies here on the ground.~
~
5 0 0 0 0 8193 0 0 0
0 2 10 7
13 100 195
A
18 -2
B
0 0 0 0
#5516
strider strider's blade~
the Strider's Blade~
The long thin blade of a strider lies here, crackling with a chaotic aura.~
~
5 1182272 0 0 0 8193 0 0 0
0 5 5 11
5 8000 705
A
18 3
A
19 3
B
0 0 0 0
#5517
onyx staff~
a Black Onyx Staff~
A huge black onyx staff lies here, crackling with a chaotic aura.~
~
5 707218 0 0 0 8193 0 0 0
0 5 3 7
3 5000 580
A
18 3
A
19 3
B
0 0 0 0
#5518
animal furs fur~
Some animal furs~
A pile of animal furs lie here on the ground.~
~
9 0 0 0 0 1025 0 0 0
4 0 0 0
5 250 20
B
0 0 0 0
#5519
bone club~
a huge bone club~
A huge club fashioned from an animal's bone lies here.~
~
5 0 0 0 0 24577 0 0 0
0 5 3 7
5 3000 230
A
18 2
A
19 1
B
0 0 0 0
#5520
stone shard~
a sharpened stone shard~
A shard of a sharpened stone lies here.~
~
5 0 0 0 0 24577 0 0 0
0 4 4 3
1 200 160
A
18 1
A
19 -1
B
0 0 0 0
#5521
bejewelled encrusted staff~
a bejewelled staff~
A bejewelled staff lies here, glittering brightly.~
~
5 1182209 0 0 0 8193 0 0 0
0 5 4 7
2 5000 880
A
18 2
A
12 40
A
21 -2
B
0 0 0 0
#5522
guised cloak~
a guised cloak~
A cloak lies here, blending in and out of it's background.~
~
9 1 0 0 0 1025 0 0 0
11 0 0 0
1 7500 580
A
2 3
A
14 50
B
0 0 0 0
#5523
charred dragon's horn dragon~
a charred dragon's horn~
A dragon's horn lies here, blackened and charred.~
~
9 2 0 0 0 16385 0 0 0
3 0 0 0
1 2000 585
A
18 2
A
19 2
A
23 6
B
0 0 0 0
#5524
kraken eye shadow dragon~
a Kraken Eye of the Shadow Dragon~
The kraken eye of a shadow dragon lies here.~
~
1 2 0 0 0 16385 0 0 0
0 0 -1 0
5 5000 1410
A
5 2
A
19 3
B
0 0 0 0
#5550
dork~
an azure bracelet~
An azure bracelet lies here, sparkling brilliantly.~
~
9 74707464 32 0 0 4097 0 0 0
15 0 0 0
1 10 1070
A
19 3
A
24 -5
A
19 1
A
12 20
B
0 0 0 0
$~
