#5901
shield aspis chitinous~
a chitinous shield~
A chitinous shield is lying here on the ground.~
~
9 524352 0 0 0 513 0 0 0
8 0 0 0
6 1250 100
E
shield aspis chitinous~
This crudely shaped shield looks as if it is made from the shell of some
giant insect.  It is fairly large and quite strong but is amazingly light
weight.
~
A
1 1
B
0 0 0 0
#5902
kord immneck~
a dark talisman~
A small necklace seemingly made from shadows lie here.~
~
9 209680904 32 0 0 32769 0 0 0
12 0 0 0
3 1000000 4220
A
18 4
A
19 4
A
18 4
A
19 4
A
29 100
A
13 50
B
1454208 0 0 0
#5903
kord immcloak~
a dark cloak~
An absence of light catches your attention.~
~
9 209680904 32 0 0 5 0 0 0
15 0 0 0
3 1000000 4340
A
13 50
A
18 4
A
19 4
A
30 100
A
18 4
A
19 4
B
0 0 0 0
#5904
kord immbelt~
a black leather belt~
A black leather belt has been left here.~
~
9 209680904 32 0 0 2049 0 0 0
15 0 0 0
3 1000000 6400
A
1 5
A
18 4
A
19 4
A
17 -10
A
13 50
A
13 50
B
0 0 0 0
#5905
kord immbody~
a black chainmail shirt~
A lusterless black chainmail shirt seems to shift in the light as you look at it.~
~
9 209680904 32 0 0 9 0 0 0
15 0 0 0
3 1000000 6560
A
18 4
A
19 4
A
13 50
A
18 4
A
19 4
A
13 50
B
0 0 0 0
#5906
longsword dark kord immsword~
a dark longsword~
A dark longsword is laying here unused.~
~
5 207583816 32 0 0 8193 0 0 0
0 5 9 12
11 1000000 4815
A
18 4
A
19 4
A
13 50
A
33 51
B
0 0 0 0
#5907
kord immfeet~
black leather boots~
A pair of black leather boots rest here.~
~
9 209680904 32 0 0 65 0 0 0
10 0 0 0
3 1000000 6360
A
18 4
A
19 4
A
13 50
A
18 4
A
19 4
A
13 50
B
0 0 0 0
#5908
kord immhand~
black doeskin gloves~
A pair of black doeskin gloves are laying here.~
~
9 209680904 32 0 0 129 0 0 0
10 0 0 0
3 1000000 6360
A
18 4
A
19 4
A
13 50
A
18 4
A
19 4
A
13 50
B
0 0 0 0
#5909
kord immabout~
a shifting darkness~
A dark, shifting pile of blackness makes your eyes hurt.~
~
9 209680904 32 0 0 1025 0 0 0
15 0 0 0
3 1000000 3430
A
13 50
A
18 4
A
19 4
B
0 0 0 0
#5910
kord immhead~
a black chainmail coif~
A black chainmail coif has been left here.~
~
9 209680904 32 0 0 17 0 0 0
10 0 0 0
3 1000000 3230
A
13 50
A
18 4
A
19 4
B
0 0 0 0
#5911
kord immleg~
black iron leggings~
Black leggings are laying here.~
~
9 209680904 32 0 0 33 0 0 0
15 0 0 0
3 1000000 3430
A
13 50
A
18 4
A
19 4
B
0 0 0 0
#5912
kord immlight~
a ball of black light~
A spot of darkness lights the area.~
~
1 209680904 32 0 0 16385 0 0 0
0 0 -1 0
3 1000000 4130
A
13 50
A
18 4
A
19 4
B
0 0 0 0
#5913
kord immorbit~
an aura of darkness~
Concentrated evil overwhelms you.~
~
9 209680904 32 0 0 65537 0 0 0
15 0 0 0
3 1000000 3430
A
13 50
A
18 4
A
19 4
B
0 0 0 0
#5914
kord immshield~
a scarred black buckler~
A long-used buckler lays here.~
~
9 209680904 32 0 0 513 0 0 0
10 0 0 0
3 1000000 3230
A
13 50
A
18 4
A
19 4
B
0 0 0 0
#5915
kord immwrist~
a black iron bracer~
A black iron bracer has been left here.~
~
9 209680904 32 0 0 4097 0 0 0
10 0 0 0
3 1000000 6360
A
13 50
A
18 4
A
19 4
A
18 4
A
19 4
A
13 50
B
0 0 0 0
#5916
kord immfinger~
an obsidian ring~
An obsidian ring is laying here.~
~
9 209680904 32 0 0 3 0 0 0
10 0 0 0
3 1000000 3230
A
13 50
A
18 4
A
19 4
B
0 0 0 0
#5917
kord immarms~
black iron armplates~
Black iron armplates are laying here unused.~
~
9 209680904 32 0 0 257 0 0 0
10 0 0 0
3 1000000 3230
A
13 50
A
18 4
A
19 4
B
0 0 0 0
#5918
drop aspis milk~
a drop of aspis milk~
A small puddle of white milk from an aspis cow is lying here.~
~
10 0 0 0 0 1 0 0 0
40 15 15 55
1 3000 123
B
0 0 0 0
#5919
thong panties black~
Black Thong Panties~
You see a skimpy pair of black thong panties here.~
~
9 67108876 0 0 0 2049 0 0 0
-10 0 0 0
1 1 1010
A
18 4
A
19 4
B
0 0 0 0
$~
