#7400
jewel o7400~
a bright jewel~
A bright red jewel is lying here.~
~
8 1 0 0 0 1 0 0 0
0 0 0 0
1 5000 370
A
2 4
B
0 0 0 0
#7406
bacite tail brown~
a bacite tail~
A bloody brown tail wiggles here.~
~
17 0 0 0 0 1 0 0 0
1 1 13 1
1 1000 10
B
0 0 0 0
#7407
bacite tail green~
a green bacite tail~
A green tail has been dropped here.~
~
17 0 0 0 0 1 0 0 0
1 1 13 1
1 900 10
B
0 0 0 0
#7408
bacite tail red~
a red bacite tail~
A bloody red tail wiggles in the dirt.~
~
17 0 0 0 0 1 0 0 0
1 1 13 1
1 2000 10
B
0 0 0 0
$~
