#7700
drout drought~
drout~
You see a patch of ground that looks bone dry and void of grass.~
~
17 0 0 0 0 1 0 0 0
5 5 8 8
2 10000 190
E
drought~
Dry weather, want of rain.~
E
drout~
You possess the power to reward or destroy the farmer.~
A
19 1
A
18 1
A
12 10
B
0 0 0 0
#7701
frostbite bite dagger~
frostBite~
A dagger made of a metal devoid of any heat awaits you.~
~
5 3309568 0 0 0 8193 0 0 0
0 4 7 11
2 10000 425
E
frostbite~
The power of cold~
A
19 1
A
18 1
A
12 10
B
0 0 0 0
#7702
singe whip~
singe~
A whip of fire is burning the grass around it.~
~
5 1359873 0 0 0 8193 0 0 0
0 4 7 10
2 10000 425
A
19 1
A
18 1
A
12 10
B
0 0 0 0
#7703
spark axe~
spark~
An axe formed by lightning crackles here.~
~
5 4472835 0 0 0 8193 0 0 0
0 4 7 9
2 10000 425
A
19 1
A
18 1
A
12 10
B
0 0 0 0
#7704
volcano mace~
volcano~
A mace made of molten lava eats away the grass.~
~
5 0 0 0 0 8193 0 0 0
0 4 7 6
2 10000 425
E
volcano~
The power of corrosion~
A
19 1
A
18 1
A
12 10
B
0 0 0 0
#7705
liquidator dagger~
the Liquidator~
A sword stained with the blood of humanity lies buried in a corpse.~
~
5 1081856 0 0 0 8193 0 0 0
0 4 8 11
2 10000 625
E
liquidator~
The sword used by Kringe, leader of the Dragons of Anarchy.~
A
19 1
A
18 1
A
12 10
B
0 0 0 0
#7706
resurgence sword~
resurgence~
A sword that is the embodiment of hope that humanity will survive.~
~
5 2013266944 32783 0 0 8193 0 0 0
0 4 8 3
2 10000 625
E
resurgence~
The sword used by <>, leader of the Dragons of Virtue.~
A
19 1
A
18 1
A
12 10
B
0 0 0 0
#7707
ring of drakknar~
ring of Drakknar~
A LARGE ring shaped like a dragon's head lies here.~
~
11 0 0 0 0 3 0 0 0
0 0 0 0
2 10000 260
A
19 1
A
18 2
A
12 15
B
0 0 0 0
#7708
spectre~
spectre~
A spectre lies in the dirt.~
~
11 1212928 0 0 0 16385 0 0 0
0 0 0 0
2 10000 290
A
19 1
A
18 1
A
12 10
A
13 15
B
0 0 0 0
#7709
King's Shield~
the King's Shield~
A shield lies in the dirt.~
~
9 5009408 32 0 0 513 0 0 0
7 0 0 0
2 10000 195
A
19 1
A
18 1
A
12 10
B
0 0 0 0
#7710
neckguard~
Cloudy Mountain Neckguard~
A neckguard lies in the dirt.~
~
11 0 0 0 0 32769 0 0 0
0 0 0 0
2 10000 140
A
19 1
A
18 1
A
12 10
B
0 0 0 0
#7711
wind draft~
wind~
You notice a strong draft.~
~
11 0 0 0 0 1025 0 0 0
0 0 0 0
2 10000 140
E
wind~
A powerful gale nearly knocks you to the 
ground.  Those who control the wind find it very useful.~
A
19 1
A
18 1
A
12 10
B
0 0 0 0
#7712
firestorm blaze~
fireStorm~
A blaze quickly spreads through the room.~
~
11 1 0 0 0 129 0 0 0
0 0 0 0
2 10000 140
A
19 1
A
18 1
A
12 10
B
0 0 0 0
#7713
northern lights aurora~
aurora Borealis~
The northern lights are glowing brightly.~
~
11 32771 0 0 0 2049 0 0 0
0 0 0 0
2 10000 190
A
19 1
A
18 1
A
12 15
B
0 0 0 0
#7714
boots~
lightweight boots~
A pair of supple boots lies here~
~
11 0 0 0 0 65 0 0 0
0 0 0 0
2 10000 140
A
19 1
A
18 1
A
12 10
B
0 0 0 0
#7715
spring~
spring~
It's that time of year when the flowers begin to pop up and birds return.~
~
11 1024 0 0 0 32769 0 0 0
0 0 0 0
2 10000 190
A
19 1
A
18 1
A
12 15
B
0 0 0 0
#7716
autumn fall~
autumn~
It's the time of year when plants die and birds fly south.~
~
11 4472832 0 0 0 257 0 0 0
0 0 0 0
2 10000 190
A
19 1
A
18 1
A
12 15
B
0 0 0 0
#7717
summer~
summer~
It's the time of year when nature is alive and you are sweating.~
~
11 512 0 0 0 32769 0 0 0
0 0 0 0
2 10000 140
A
19 1
A
18 1
A
12 10
B
0 0 0 0
#7718
winter~
winter~
It's the time of the year when everything is dead and cold.~
~
11 3321856 32 0 0 524289 0 0 0
0 0 0 0
2 10000 140
A
19 1
A
18 1
A
12 10
B
0 0 0 0
#7719
flood~
flood~
You see a flood starting to swell.~
~
13 0 0 0 0 0 0 0 0
0 0 0 0
2 10000 140
A
19 1
A
18 1
A
12 10
B
0 0 0 0
#7720
cloudburst rainshower~
cloudBurst~
A small rainshower is bringing life to the parched land.~
~
11 3309568 0 0 0 257 0 0 0
0 0 0 0
4 10000 260
A
19 1
A
18 2
A
12 15
B
0 0 0 0
#7721
hailstorm~
hailStorm~
You avoid a small hailstorm.~
~
11 514 0 0 0 17 0 0 0
0 0 0 0
2 10000 140
A
19 1
A
18 1
A
12 10
B
0 0 0 0
#7722
cloudy mountain armor plate~
cloudy Mountain guard armor~
A large breast plate with a mountain surrounded by clouds on it lies here.~
~
9 5009408 32 0 0 9 0 0 0
6 0 0 0
2 10000 180
A
19 1
A
18 1
A
12 10
B
0 0 0 0
#7723
elite cloudy bracer~
a bracer of the Cloudy Mountain Elite Guard~
A large bracer lies here.~
~
11 0 0 0 0 4097 0 0 0
0 0 0 0
2 10000 140
A
19 1
A
18 1
A
12 10
B
0 0 0 0
#7724
shirt lag~
a shirt that says "I survived the lag monster"~
A shirt lies here.~
~
11 0 0 0 0 9 0 0 0
0 0 0 0
2 10000 370
E
shirt~
The shirt says:  "I survived the lag monster"~
A
6 4
B
0 0 0 0
#7725
hat silly lag~
a hat that says "I killed the lag monster!"~
A silly hat lies here.~
~
11 0 0 0 0 17 0 0 0
0 0 0 0
2 10000 370
E
hat~
The hat says:  "I killed the lag monster!" - wow! Whoever owns this hat rocks!!~
A
6 4
B
0 0 0 0
#7726
boat~
an old boat~
An old boat sits by the bank.~
~
22 0 0 0 0 1 0 0 0
0 0 0 0
2 10000 0
B
0 0 0 0
#7727
ring guild~
a Warrior's Guild Ring~
A ring with a sword and shield emblem lies here.~
~
11 0 0 0 0 3 0 0 0
0 0 0 0
3 10000 200
A
19 2
A
18 1
B
0 0 0 0
#7728
ring guild~
a Mage's Guild Ring~
A ring with magic symbols lies here.~
~
11 8314880 0 0 0 3 0 0 0
0 0 0 0
3 10000 290
A
19 2
A
18 1
A
12 15
B
0 0 0 0
#7729
ring guild~
a Cleric's Guild Ring~
A ring with holy symbols lies here.~
~
11 8310784 32 0 0 3 0 0 0
0 0 0 0
3 10000 290
A
19 2
A
18 1
A
12 15
B
0 0 0 0
#7730
ring guild~
a Thief's Guild Ring~
A ring with a dagger on it lies here.~
~
11 4108288 32 0 0 3 0 0 0
0 0 0 0
3 10000 240
A
19 2
A
18 1
A
12 10
B
0 0 0 0
#7731
sword~
a guard's sword~
A sword of Cloudy Mountain lies here.~
~
5 0 0 0 0 8193 0 0 0
0 4 5 14
2 10000 250
A
19 1
A
18 1
A
12 10
B
0 0 0 0
#7732
axe~
a snake-skin axe~
An axe made of snake scales lies here.~
~
5 0 0 0 0 8193 0 0 0
0 4 5 16
2 10000 250
A
19 1
A
18 1
A
12 10
B
0 0 0 0
#7733
key crown kings~
a half to the Crown of Kings~
Half a crown lies here.~
~
18 0 0 0 0 1 0 0 0
0 0 0 0
2 10000 0
B
0 0 0 0
#7734
crown king key~
a half to the Crown of Kings~
Half a crown lies here.~
~
18 0 0 0 0 1 0 0 0
0 0 0 0
2 10000 0
B
0 0 0 0
#7735
happiness~
happiness~
You see something that makes you extremely happy.~
~
11 0 0 0 0 1 0 0 0
0 0 0 0
2 10000 140
A
19 1
A
18 1
A
12 10
B
0 0 0 0
#7736
Battle Armor~
aesirian Battle Armor~
A spiked breast plate is on the wall.~
~
11 0 0 0 0 1 0 0 0
0 0 0 0
2 10000 240
A
19 2
A
18 1
A
12 10
B
0 0 0 0
#7737
boots stompin~
katyusha Boots of Stompin'~
A pair of black boots sit here.~
~
11 0 0 0 0 1 0 0 0
0 0 0 0
2 10000 210
A
19 1
A
18 1
A
12 10
A
13 10
B
0 0 0 0
#7738
chest treasure~
a treasure chest~
A treasure chest sits on the big pile of gold.~
~
15 0 0 0 0 1 0 0 0
100 5 -1 0
8 10000 100
B
0 0 0 0
#7739
chest treasure~
a treasure chest~
A treasure chest sits on the big piles of gold.~
~
15 0 0 0 0 1 0 0 0
100 5 -1 0
8 10000 100
B
0 0 0 0
#7740
flesh human~
human flesh~
A strange looking steak lies here.~
~
19 0 0 0 0 1 0 0 0
1 0 0 0
2 5 3
B
0 0 0 0
#7741
dwarf donuts~
dwarf Donuts~
Some very repulsive donuts lie here.~
~
19 0 0 0 0 1 0 0 0
1 0 0 0
2 5 3
B
0 0 0 0
#7742
omelet orc~
an orc omelet~
A hideous looking omelet lays here.~
~
19 0 0 0 0 1 0 0 0
1 0 0 0
2 5 3
B
0 0 0 0
#7743
ears elf~
elf ears~
A pair of severed pointy ears lie hear.~
~
11 1140851200 0 0 0 262145 0 0 0
0 0 0 0
2 10000 60
A
19 1
B
0 0 0 0
#7744
chest~
a large gold chest~
A gold chest is in the corner.~
~
15 0 0 0 0 1 0 0 0
50 5 -1 0
10 10000 50
B
0 0 0 0
#7745
needle pine~
a pine needle~
A pine needle is on the floor.~
~
5 0 0 0 0 8193 0 0 0
0 4 5 11
2 10000 250
A
19 1
A
18 1
A
12 10
B
0 0 0 0
#7746
gold watch~
a gold watch~
A gold pocket watch lies here.~
~
8 0 0 0 0 1 0 0 0
0 0 0 0
3 10000 0
B
0 0 0 0
#7747
grail~
a grail~
A grail lies here.~
~
8 0 0 0 0 1 0 0 0
0 0 0 0
4 5000 0
B
0 0 0 0
#7748
gold~
gold~
A pile of gold.~
~
8 4 0 0 0 1 0 0 0
0 0 0 0
10 20000 0
B
0 0 0 0
#7749
ankle cloudy chain~
a pair of Cloudy Mountain chain anklets~
A small pr of chainmail plates lies here~
~
11 0 0 0 0 131073 0 0 0
0 0 0 0
2 10000 80
A
18 1
A
12 10
B
0 0 0 0
#7750
a crossbow~
a crossbow~
A crossbow of the Cloudy Mountain guard lies here.~
~
6 0 0 0 0 24577 0 0 0
1 4 1 0
5 10000 100
A
19 1
A
18 1
B
0 0 0 0
#7751
sword sam~
samurdracai sword~
A sword lies here.~
~
5 0 0 0 0 8193 0 0 0
0 5 5 3
4 10000 285
A
19 1
A
18 1
B
0 0 0 0
#7752
sign~
a small wooden sign~
A small wooden sign is here on a metal post~
~
13 0 0 0 0 0 0 0 0
0 0 0 0
0 0 0
E
sign~
Cloudy Mountain written by Scourge in memory of Flash.
converted to Circle by Corwin
~
B
0 0 0 0
$~
