#8001
black stinger~
a long black stinger~
A rigid, black stinger lies here on the floor~
~
5 2576 0 0 0 8193 0 0 0
0 3 4 2
15 3000 280
E
black stinger~
   This is the stinger broken off of some huge monster.  The monster is so big
that this stinger makes a handy weapon.  You know YOU wouldn't wanna get hit
by it!
~
A
4 -2
A
19 2
B
0 0 0 0
#8002
key rusty~
a rusty key~
An ordinary rusty, old key rests here~
~
18 65536 0 0 0 1 0 0 0
2 0 0 0
5 500 0
B
0 0 0 0
#8003
pitch black key~
a pitch black key~
A key so black it's almost unseeable is resting here.~
~
18 65536 0 0 0 1 0 0 0
2 0 0 0
6 500 0
B
0 0 0 0
#8004
iron skeleton key~
a skeleton key~
An iron skeleton key rests here.~
~
18 65536 0 0 0 1 0 0 0
2 0 0 0
4 600 0
B
0 0 0 0
#8005
spiked key~
a spiked key~
A key with short, sharp spikes rests here.~
~
18 65536 0 0 0 1 0 0 0
2 0 0 0
7 1000 0
B
0 0 0 0
#8006
writhing shroud darkness~
a Writhing Shroud of Darkness~
A mound of shadows lies on the ground.~
~
15 2594 0 0 0 1025 0 0 0
900 1 -1 0
15 40000 1730
A
19 3
A
17 -18
B
0 0 0 0
#8007
wooden chest~
a wooden chest~
A wooden chest sits in the corner.~
~
15 0 0 0 0 0 0 0 0
1000 8 0 0
1000000 1000000 1000
B
0 0 0 0
#8008
rusty shackles~
rusty shackles~
A set of rusty shackles lie here.~
~
11 1168 0 0 0 135169 0 0 0
0 0 0 0
7 100 280
A
5 -3
A
2 -2
B
0 0 0 0
#8009
ball chain~
a ball and chain~
A ball and chain rests here~
~
11 1152 0 0 0 65 0 0 0
0 0 0 0
24 100 540
A
14 -100
A
18 -1
B
0 0 0 0
#8010
rotted skull~
a rotted skull~
A moldy, old skull sits here.~
~
19 0 0 0 0 1 0 0 0
10 0 0 1
3 10 30
B
0 0 0 0
#8011
shimmering key~
a shimmering key~
A key made of swirling colors rests here.~
~
18 65536 0 0 0 1 0 0 0
2 0 0 0
1 500 0
B
0 0 0 0
#8012
mace obsidian~
Obsidian Mace of Darkness~
A huge mace made of the blackest obsidian lies here.~
~
5 19106 0 0 0 8193 0 0 0
0 11 3 6
22 500000 1425
A
18 3
A
12 20
B
0 0 0 0
#8013
barbed key~
a barbed key~
A barbed key lies here~
~
18 0 0 0 0 1 0 0 0
2 0 0 0
3 300 0
B
0 0 0 0
#8014
barbed scourge~
a barbed scourge~
A vicious scourge lies here on the floor~
~
5 2704 0 0 0 24577 0 0 0
0 4 4 2
20 4000 310
A
19 2
A
5 -2
B
0 0 0 0
#8015
black silk cape~
a black silk cape~
A black flowing cape made of silk lies here~
~
9 2704 0 0 0 5 0 0 0
5 0 0 0
9 10000 275
A
19 1
A
3 -3
B
0 0 0 0
#8016
black framed lantern~
Black-Framed Lantern~
A large lantern framed in dark steel is sitting here~
~
1 2704 0 0 0 16385 0 0 0
0 0 -1 0
8 13001 1610
A
18 3
A
19 3
A
12 15
B
0 0 0 0
#8017
axe executioner's~
an Executioner's Axe~
A HUGE, razor-sharp axe is resting here.~
~
5 273447568 32801 0 0 8193 0 0 0
0 9 3 3
23 1400 545
A
19 1
B
0 0 0 0
#8018
piece cloud~
a piece of cloud~
A hardened chip of stormcloud lies on the ground.~
~
18 0 0 0 0 4097 0 0 0
2 0 0 0
9 300 0
B
0 0 0 0
#8019
black marble bracelet~
black marble bracelet~
A heavy looking bracelet made of black marble is lying here.~
~
9 8319122 0 0 0 4097 0 0 0
5 0 0 0
4 1200 475
A
19 3
A
12 15
A
18 1
B
0 0 0 0
#8020
staff elminster~
the Staff of Elminster~
An ivory staff with a carved runes in it rests here~
~
18 207 0 0 0 16385 0 0 0
0 0 0 0
11 10000 0
B
0 0 0 0
#8021
hoof kriegmacher~
the Hoof of Kriegmacher~
A red-hot set of horseshoes rests here.~
~
9 526993 0 0 0 65 0 0 0
5 0 0 0
9 20000 285
A
19 2
A
14 20
B
0 0 0 0
#8022
black horns gorgon~
the Black Horns of the Gorgon~
A shiny black set of gorgon's horns rests here~
~
9 -267911038 8650783 0 0 17 0 0 0
9 0 0 0
12 6000 685
A
19 3
A
13 20
B
0 0 0 0
#8023
black armor darkspawn~
the Black Armor of Darkspawn~
A set of the pitchest black plate mail rests here.~
~
9 5929650 32 0 0 9 0 0 0
13 0 0 0
17 10000 820
A
1 2
A
18 4
A
19 2
B
0 0 0 0
#8024
dagger ultimate evil~
the Dagger of Ultimate Evil~
A blacksteel dagger rests here on the ground.~
~
5 1768032 32 0 0 8193 0 0 0
0 5 10 11
10 10000 3045
A
19 4
A
18 3
B
0 0 0 0
#8025
swirling buckler~
a swirling buckler~
A small whirlwind of smoke lies here~
~
9 527024 0 0 0 513 0 0 0
3 0 0 0
8 1200 175
A
19 2
B
0 0 0 0
#8026
strip stormcloud~
a strip of stormcloud~
A strip of stormcloud lies here.~
~
9 2736 0 0 0 2049 0 0 0
6 0 0 0
6 4000 240
A
18 3
B
0 0 0 0
#8027
shortsword~
a rusty shortsword~
You see a rusty shortsword lying on the ground.~
~
5 2688 0 0 0 8193 0 0 0
0 4 5 3
20 100 150
A
18 1
B
0 0 0 0
#8028
bone chiseled spear~
a bone chiseled spear~
A spear carved from bone rests here~
~
5 2704 0 0 0 8193 0 0 0
0 3 4 11
18 400 70
A
18 1
B
0 0 0 0
#8029
tentacle deepspawn~
the Tentacle of the Deepspawn~
A slimy tentacle writhes on the floor.~
~
5 2704 0 0 0 24577 0 0 0
0 2 2 2
7 500 296
A
18 3
A
1 2
B
0 0 0 0
#8030
tail kriegmacher~
the Tail of Kriegmacher~
You see a long silky horse's tail on the ground.~
~
5 2704 0 0 0 24577 0 0 0
0 2 2 2
7 500 6
B
0 0 0 0
#8031
armor undead~
the Armor of the Undead~
A glowing piece of metal lies here~
~
9 39746243 32 0 0 9 0 0 0
15 0 0 0
18 100000 1160
A
19 3
A
12 15
A
13 15
A
17 -15
B
0 0 0 0
$~
