#8401
ring black~
a Black Opal ring~
A ring lies here looking quite innocent and neglected.~
~
3 64 0 0 0 16387 0 0 0
30 3 2 26
2 10000 1000
B
0 0 0 0
#8402
candle huge~
a huge candle with engraved runes~
A large candle sits here.~
~
12 192 0 0 0 1 0 0 0
0 0 0 0
20 10 0
B
0 0 0 0
#8403
brazier golden~
a golden brazier~
A beautiful golden brazier sits here bubbling a strange brew.~
~
8 67 0 0 0 1 0 0 0
0 0 0 0
10000 100000 0
B
0 0 0 0
#8404
sword~
a jewel encrusted sword~
A sword encrusted with jewels has been discarded here.~
~
5 128 0 0 0 8193 0 0 0
0 1 6 3
12 20 436
E
sword~
You notice that jewels in the handle are definitely fake,
even to
your untrained eye.  It also seems a little point heavy.~
A
18 -2
A
19 -3
B
0 0 0 0
#8405
pendant~
a pendant~
A strangely shaped pendant has been discarded here.~
~
11 134220869 0 0 0 32769 0 0 0
0 0 0 0
1 4500 25
A
17 -5
A
28 -5
B
0 0 0 0
#8406
spicy oil~
a spicy oil~
A jar of spicy smelling oil lies here.~
~
10 0 0 0 0 1 0 0 0
15 52 0 0
1 15000 1500
B
0 0 0 0
#8407
greenish oil~
a green oil~
A jar of greenish oil lies here.~
~
10 0 0 0 0 1 0 0 0
15 19 0 0
1 15000 1500
B
0 0 0 0
#8408
sparkling oil~
a sparkling oil~
A jar of sparkling oil lies here.~
~
10 0 0 0 0 1 0 0 0
15 55 0 0
1 15000 1500
B
0 0 0 0
#8409
gingerbread man~
a gingerbread man~
A gingerbread man cookie lies here.~
~
19 0 0 0 0 1 0 0 0
16 50 145 0
1 4 24
B
0 0 0 0
#8410
hard roll~
a hard roll~
A large hard crusted roll lies here.~
~
19 0 0 0 0 1 0 0 0
16 0 0 0
1 8 48
B
0 0 0 0
#8411
sandwich bread roll~
a meat sandwich~
A large meat sandwich sits here.~
~
19 0 0 0 0 1 0 0 0
24 0 0 0
2 14 72
E
large meat sandwhich~
&03      _....----"""----...._&00
&03   .-'  o    o    o    o   '-.&00
&03  /  o    o    o         o    \&00
&03 /__o___o___________o__o_____o_\&00
&01 (___ + .   ____)       _______)&00
&01(____ +_'________)______________)&00
&09\"`-`.__.`-"`._."`-`".-".__."`-`/&00
&03 \                             /&00
&03  `-._______________________.-'&00
~
B
0 0 0 0
#8412
skin goat~
a goat skin~
A smelly animal skin lies here.~
~
17 0 0 0 0 16385 0 0 0
500 500 0 0
5 5 2000
B
0 0 0 0
#8413
tar covered stick~
a tar covered stick~
A stick with sticky black stuff on it lies here.~
~
1 0 0 0 0 16385 0 0 0
0 0 28 0
1 50 28
B
0 0 0 0
#8414
hopper dhopper d-hopper~
a D-Hopper~
A long cylinder has been discarded here.~
~
3 77 0 0 0 16385 0 0 0
50 10 10 58
1 0 0
B
0 0 0 0
#8415
scratched shield~
a scratched shield~
A large scratched shield lies here.~
~
9 524288 0 0 0 513 0 0 0
5 0 0 0
5 100 45
A
13 5
B
0 0 0 0
#8416
iron talons~
iron talons~
A metal bird foot lies here.~
~
5 0 0 0 0 8193 0 0 0
0 3 4 8
2 500 90
A
2 1
A
5 1
B
0 0 0 0
#8417
turban~
a turban~
A funny looking hat lies here.~
~
11 0 0 0 0 17 0 0 0
0 0 0 0
1 1000 45
A
3 1
A
17 -3
B
0 0 0 0
#8418
pointy slippers~
pointy slippers~
A pair of very pointed slippers rest here.~
~
9 524288 0 0 0 65 0 0 0
5 0 0 0
2 1000 115
A
2 2
B
0 0 0 0
#8419
yellow doublet~
a yellow doublet~
A bright yellow cloth lies here.~
~
11 0 0 0 0 9 0 0 0
0 0 0 0
4 1000 135
A
4 2
A
5 1
A
17 -3
B
0 0 0 0
#8420
soft fur vest~
a soft fur vest~
The pelt of some animal lies here.~
~
11 512 0 0 0 9 0 0 0
0 0 0 0
2 1000 150
E
soft fur vest pelt~
Deepest black, trimed in snowy white, this soft fur vest would make anyone proud to own.
~
A
1 2
A
19 1
B
0 0 0 0
#8421
snakeskin belt~
a snakeskin belt~
Some large serpent has shed his skin here.~
~
11 16 0 0 0 2049 0 0 0
0 0 0 0
1 1000 6880
E
snake skin~
Shimmering scales of green, red and yellow flow together like jewels in the sun.
~
A
1 3
A
18 3
A
19 4
A
17 -50
A
13 50
A
12 50
B
0 0 0 0
#8422
tarnish helmet~
a tarnished helmet~
An old helmet lies here collecting dust~
Green with tarnish this old helmet looks as if it has seen better
day. The smell coming from it reminds you of rotted meat.
~
9 6224521 32 0 0 17 0 0 0
-4 0 0 0
5 1000 290
A
18 2
A
19 2
B
0 0 0 0
#8499
rainbow~
a &01R&02a&03i&04n&05b&06o&07w&00~
A &01R&02a&03i&04n&05b&06o&07w&00 crashes down through the ceiling here.~
~
12 67108931 0 0 0 0 0 0 0
0 0 0 0
0 0 0
B
0 0 0 0
$~
