#9600
key dark~
a dark key~
A dark key has been discarded here.~
~
18 65536 0 0 0 16385 0 0 0
2 0 0 0
1 5 0
B
0 0 0 0
#9601
arrow bent~
a bent arrow~
A slightly bent arrow almost escapes your notice.~
A slightly bent arrow~
18 65536 0 0 0 16385 0 0 0
2 0 0 0
1 5 0
B
0 0 0 0
#9602
dart black~
a black dart~
A black dart has fallen to the ground here.~
~
18 65536 0 0 0 16385 0 0 0
2 0 0 0
1 5 0
B
0 0 0 0
#9603
leaf ebony~
an ebony leaf~
An ebony leaf tosses about, caught in a breeze.~
~
18 65536 0 0 0 16385 0 0 0
2 0 0 0
1 5 0
B
0 0 0 0
#9604
sphere cold~
a cold sphere~
A small sphere lies here, freezing the ground beneath it.~
~
18 65536 0 0 0 16385 0 0 0
2 0 0 0
1 5 0
B
0 0 0 0
#9605
potion swirling~
a swirling potion~
A small bottle rests here, the liquid within swirls endlessly.~
~
10 67108928 0 0 0 16385 0 0 0
35 50 87 0
1 10000 1000
B
0 0 0 0
#9606
potion dark~
a dark potion~
A potion lies here, dark as night.~
~
10 67108928 0 0 0 16385 0 0 0
12 50 0 0
1 10000 1000
B
0 0 0 0
#9607
axe dark~
a dark axe~
A dark axe rests on the ground, absorbing the light.~
~
5 6126082 32 0 0 8193 0 0 0
0 8 4 3
28 45000 1495
A
24 -5
A
19 4
B
0 0 0 0
#9608
sleeves shadow~
a pair of shadow sleeves~
A pair of sleeves lies in the shadows.~
~
9 1587746 32 0 0 257 0 0 0
8 0 0 0
4 25000 430
A
24 -4
A
19 2
B
0 0 0 0
#9609
broach blackened~
a blackened broach~
A pitch black broach radiates darkness.~
~
9 6126082 32 0 0 32769 0 0 0
7 0 0 0
7 20000 895
A
13 30
A
19 1
B
0 0 0 0
#9610
globe small~
a small globe~
A small globe rests on the ground here.~
~
11 71297641 0 0 0 16385 0 0 0
0 0 0 0
10 75000 1260
A
12 50
A
24 -6
B
0 0 0 0
#9642
christmas tree~
a Christmas tree~
A brightly decorated Christmas tree is growing here.~
~
12 0 0 0 0 0 0 0 0
0 0 0 0
30 100000 0
E
christmas tree~
You see Ngatai's Christmas tree growing here.
~
B
0 0 0 0
#9643
christmas present box~
a &09C&08h&09r&08i&09s&08t&09m&08a&09s&00 present~
A small, nicely wrapped Christmas present is lying here.~
~
8 0 0 0 0 1 0 0 0
0 0 0 0
7 5000 0
Z 7603
B
0 0 0 0
$~
