#9701
glinting key~
glinting key~
A glinting key lies here~
~
18 12 0 0 0 1 0 0 0
0 0 0 0
0 0 0
B
0 0 0 0
#9702
large key~
large key~
A large key is here~
~
18 12 0 0 0 1 0 0 0
0 0 0 0
0 0 0
B
0 0 0 0
#9703
xanto ring key~
Xanto's ring of harmony~
A small blue ring is lying here on the dirt~
~
18 12 0 0 0 3 0 0 0
0 0 0 0
0 0 0
B
0 0 0 0
#9704
gladius sword 9704~
a black nasty looking sword~
A black nasty looking sword is lying here collecting dust.~
~
5 12288 32 0 0 8193 0 0 0
0 13 2 11
5 38000 617
B
0 0 0 0
#9705
imperial sceptre~
imperial sceptre~
A nice looking sceptre is lying here~
~
5 0 0 0 0 24577 0 0 0
0 10 3 0
11 22000 935
A
19 2
A
6 2
B
0 0 0 0
#9706
shield harmony~
shield of ancient harmony~
A shimmering transparent power field hovers in the air.~
~
11 7794688 32 0 0 513 0 0 0
0 0 0 0
10 31000 562
A
17 -16
A
19 2
B
0 0 0 0
$~
