#9800
banana slice~
a banana slice~
A banana is lying here~
~
19 4 0 0 0 1 0 0 0
12 0 0 0
1 5 36
B
0 0 0 0
#9801
pond water~
a pond~
A little pond of water is on the floor here.~
~
23 0 0 0 0 0 0 0 0
10000 10000 0 0
999999 0 0
B
0 0 0 0
#9802
dried fish~
a dried fish~
A small dried fish is lying here.~
~
19 4 0 0 0 16385 0 0 0
24 0 0 0
1 8 192
A
3 1
A
6 -2
B
0 0 0 0
#9803
white pearl~
a white pearl~
A white pearl is lying here.~
~
10 262149 0 0 0 16385 0 0 0
20 16 16 3
1 200 20
B
0 0 0 0
#9804
black pearl~
a black pearl~
A nice black pearl is lying here~
~
2 262149 0 0 0 16385 0 0 0
20 117 0 0
1 350 35
B
0 0 0 0
#9805
whale bone~
a whale bone~
A whale bone with a very pointed end is lying here.~
~
5 8256 0 0 0 8193 0 0 0
0 5 4 11
5 800 200
E
whale bone~
The bone have a very sharp end, and should be a nice weapon.  
~
A
18 1
A
14 10
B
0 0 0 0
#9806
shark skin bracelet~
a shark skin bracelet~
A bracelet made of shark skin is lying here~
~
9 2097152 0 0 0 4097 0 0 0
9 0 0 0
7 2800 315
A
2 1
A
19 1
A
13 8
A
3 -2
B
0 0 0 0
#9807
shark tooth necklace~
a shark tooth necklace~
A shark tooth necklace is lying here.~
~
9 2097216 0 0 0 32769 0 0 0
6 0 0 0
2 4500 150
A
13 5
A
19 1
A
4 -1
B
0 0 0 0
#9808
whip souls~
a whip~
The whip of souls is lying here.~
~
5 1 0 0 0 24577 0 0 0
0 6 4 2
6 3500 350
A
1 1
A
18 2
A
14 -5
B
0 0 0 0
#9809
dog whistle~
a dog whistle~
A dog whistle is lying here collecting dust.~
~
2 1 0 0 0 16385 0 0 0
30 100 0 0
2 500 50
B
0 0 0 0
#9810
bird talon~
a bird talon~
A bird talon is lying here.~
~
9 524288 0 0 0 16385 0 0 0
2 0 0 0
1 800 120
A
4 2
A
12 5
B
0 0 0 0
#9811
owl eye~
an owl eye~
A eye of the owl is lying here looking at you.~
~
10 64 0 0 0 1 0 0 0
25 52 88 0
1 3000 300
B
0 0 0 0
#9812
fox tail silver~
a silver fox tail~
The tail of the unlucky silver fox is lying on the ground, still wagging a bit.~
~
9 2097216 0 0 0 2049 0 0 0
8 0 0 0
4 3500 150
A
4 1
A
14 10
B
0 0 0 0
#9813
bear skull~
a bear skull~
An old skull of a bear is lying on the ground.~
~
9 2621504 0 0 0 17 0 0 0
8 0 0 0
8 2800 160
A
1 2
B
0 0 0 0
#9814
bear skin~
a bear skin~
A skin of the unlucky bear is lying here.~
~
9 64 0 0 0 33793 0 0 0
0 0 0 0
9 2500 85
A
17 -9
B
0 0 0 0
#9815
crab shell~
a crab shell~
A shell of a crab is lying on the sand, collecting dust.~
~
9 2621504 0 0 0 513 0 0 0
9 0 0 0
8 800 85
B
0 0 0 0
$~
